<svg xmlns="http://www.w3.org/2000/svg" xmlns:rdkit="http://www.rdkit.org/xml" xmlns:xlink="http://www.w3.org/1999/xlink" version="1.1" baseProfile="full" xml:space="preserve" width="1800px" height="300px" viewBox="0 0 1800 300">
<!-- END OF HEADER -->
<rect style="opacity:1.0;fill:#FFFFFF;stroke:none" width="1800.0" height="300.0" x="0.0" y="0.0"> </rect>
<path class="bond-0 atom-0 atom-1" d="M 130.8,187.3 L 111.2,153.4" style="fill:none;fill-rule:evenodd;stroke:#000000;stroke-width:3.0px;stroke-linecap:butt;stroke-linejoin:miter;stroke-opacity:1"/>
<path class="bond-1 atom-1 atom-2" d="M 111.2,153.4 L 130.8,119.4" style="fill:none;fill-rule:evenodd;stroke:#000000;stroke-width:3.0px;stroke-linecap:butt;stroke-linejoin:miter;stroke-opacity:1"/>
<path class="bond-2 atom-2 atom-3" d="M 130.8,119.4 L 170.0,119.4" style="fill:none;fill-rule:evenodd;stroke:#000000;stroke-width:3.0px;stroke-linecap:butt;stroke-linejoin:miter;stroke-opacity:1"/>
<path class="bond-3 atom-3 atom-4" d="M 170.0,119.4 L 189.6,153.4" style="fill:none;fill-rule:evenodd;stroke:#000000;stroke-width:3.0px;stroke-linecap:butt;stroke-linejoin:miter;stroke-opacity:1"/>
<path class="bond-4 atom-4 atom-5" d="M 189.6,153.4 L 182.4,165.7" style="fill:none;fill-rule:evenodd;stroke:#000000;stroke-width:3.0px;stroke-linecap:butt;stroke-linejoin:miter;stroke-opacity:1"/>
<path class="bond-4 atom-4 atom-5" d="M 182.4,165.7 L 175.3,178.1" style="fill:none;fill-rule:evenodd;stroke:#FF0000;stroke-width:3.0px;stroke-linecap:butt;stroke-linejoin:miter;stroke-opacity:1"/>
<path class="bond-5 atom-4 atom-6" d="M 189.6,153.4 L 204.3,151.9 L 204.3,154.8 Z" style="fill:#000000;fill-rule:evenodd;fill-opacity:1;stroke:#000000;stroke-width:0.8px;stroke-linecap:butt;stroke-linejoin:miter;stroke-opacity:1;"/>
<path class="bond-5 atom-4 atom-6" d="M 204.3,151.9 L 219.1,156.3 L 219.1,150.4 Z" style="fill:#FF0000;fill-rule:evenodd;fill-opacity:1;stroke:#FF0000;stroke-width:0.8px;stroke-linecap:butt;stroke-linejoin:miter;stroke-opacity:1;"/>
<path class="bond-5 atom-4 atom-6" d="M 204.3,151.9 L 204.3,154.8 L 219.1,156.3 Z" style="fill:#FF0000;fill-rule:evenodd;fill-opacity:1;stroke:#FF0000;stroke-width:0.8px;stroke-linecap:butt;stroke-linejoin:miter;stroke-opacity:1;"/>
<path class="bond-6 atom-3 atom-7" d="M 170.0,119.4 L 175.4,107.0 L 178.0,108.5 Z" style="fill:#000000;fill-rule:evenodd;fill-opacity:1;stroke:#000000;stroke-width:0.8px;stroke-linecap:butt;stroke-linejoin:miter;stroke-opacity:1;"/>
<path class="bond-6 atom-3 atom-7" d="M 175.4,107.0 L 186.0,97.6 L 180.9,94.7 Z" style="fill:#FF0000;fill-rule:evenodd;fill-opacity:1;stroke:#FF0000;stroke-width:0.8px;stroke-linecap:butt;stroke-linejoin:miter;stroke-opacity:1;"/>
<path class="bond-6 atom-3 atom-7" d="M 175.4,107.0 L 178.0,108.5 L 186.0,97.6 Z" style="fill:#FF0000;fill-rule:evenodd;fill-opacity:1;stroke:#FF0000;stroke-width:0.8px;stroke-linecap:butt;stroke-linejoin:miter;stroke-opacity:1;"/>
<path class="bond-7 atom-2 atom-8" d="M 128.5,116.3 L 129.2,115.9" style="fill:none;fill-rule:evenodd;stroke:#000000;stroke-width:1.5px;stroke-linecap:butt;stroke-linejoin:miter;stroke-opacity:1"/>
<path class="bond-7 atom-2 atom-8" d="M 126.2,113.2 L 127.7,112.3" style="fill:none;fill-rule:evenodd;stroke:#000000;stroke-width:1.5px;stroke-linecap:butt;stroke-linejoin:miter;stroke-opacity:1"/>
<path class="bond-7 atom-2 atom-8" d="M 123.9,110.1 L 126.1,108.8" style="fill:none;fill-rule:evenodd;stroke:#000000;stroke-width:1.5px;stroke-linecap:butt;stroke-linejoin:miter;stroke-opacity:1"/>
<path class="bond-7 atom-2 atom-8" d="M 121.7,107.0 L 124.6,105.3" style="fill:none;fill-rule:evenodd;stroke:#FF0000;stroke-width:1.5px;stroke-linecap:butt;stroke-linejoin:miter;stroke-opacity:1"/>
<path class="bond-7 atom-2 atom-8" d="M 119.4,103.8 L 123.0,101.7" style="fill:none;fill-rule:evenodd;stroke:#FF0000;stroke-width:1.5px;stroke-linecap:butt;stroke-linejoin:miter;stroke-opacity:1"/>
<path class="bond-7 atom-2 atom-8" d="M 117.1,100.7 L 121.5,98.2" style="fill:none;fill-rule:evenodd;stroke:#FF0000;stroke-width:1.5px;stroke-linecap:butt;stroke-linejoin:miter;stroke-opacity:1"/>
<path class="bond-7 atom-2 atom-8" d="M 114.8,97.6 L 119.9,94.7" style="fill:none;fill-rule:evenodd;stroke:#FF0000;stroke-width:1.5px;stroke-linecap:butt;stroke-linejoin:miter;stroke-opacity:1"/>
<path class="bond-8 atom-1 atom-9" d="M 111.2,153.4 L 96.4,154.8 L 96.4,151.9 Z" style="fill:#000000;fill-rule:evenodd;fill-opacity:1;stroke:#000000;stroke-width:0.8px;stroke-linecap:butt;stroke-linejoin:miter;stroke-opacity:1;"/>
<path class="bond-8 atom-1 atom-9" d="M 96.4,154.8 L 81.7,150.4 L 81.7,156.3 Z" style="fill:#FF0000;fill-rule:evenodd;fill-opacity:1;stroke:#FF0000;stroke-width:0.8px;stroke-linecap:butt;stroke-linejoin:miter;stroke-opacity:1;"/>
<path class="bond-8 atom-1 atom-9" d="M 96.4,154.8 L 96.4,151.9 L 81.7,150.4 Z" style="fill:#FF0000;fill-rule:evenodd;fill-opacity:1;stroke:#FF0000;stroke-width:0.8px;stroke-linecap:butt;stroke-linejoin:miter;stroke-opacity:1;"/>
<path class="bond-9 atom-5 atom-0" d="M 161.5,187.3 L 146.2,187.3" style="fill:none;fill-rule:evenodd;stroke:#FF0000;stroke-width:3.0px;stroke-linecap:butt;stroke-linejoin:miter;stroke-opacity:1"/>
<path class="bond-9 atom-5 atom-0" d="M 146.2,187.3 L 130.8,187.3" style="fill:none;fill-rule:evenodd;stroke:#000000;stroke-width:3.0px;stroke-linecap:butt;stroke-linejoin:miter;stroke-opacity:1"/>
<path d="M 129.8,185.6 L 130.8,187.3 L 131.6,187.3" style="fill:none;stroke:#000000;stroke-width:3.0px;stroke-linecap:butt;stroke-linejoin:miter;stroke-opacity:1;"/>
<path d="M 112.2,155.1 L 111.2,153.4 L 112.2,151.7" style="fill:none;stroke:#000000;stroke-width:3.0px;stroke-linecap:butt;stroke-linejoin:miter;stroke-opacity:1;"/>
<path d="M 129.8,121.1 L 130.8,119.4 L 132.7,119.4" style="fill:none;stroke:#000000;stroke-width:3.0px;stroke-linecap:butt;stroke-linejoin:miter;stroke-opacity:1;"/>
<path d="M 168.0,119.4 L 170.0,119.4 L 171.0,121.1" style="fill:none;stroke:#000000;stroke-width:3.0px;stroke-linecap:butt;stroke-linejoin:miter;stroke-opacity:1;"/>
<path d="M 188.6,151.7 L 189.6,153.4 L 189.2,154.0" style="fill:none;stroke:#000000;stroke-width:3.0px;stroke-linecap:butt;stroke-linejoin:miter;stroke-opacity:1;"/>
<path class="atom-5" d="M 162.8 187.4 Q 162.8 183.6, 164.7 181.5 Q 166.5 179.4, 170.0 179.4 Q 173.4 179.4, 175.3 181.5 Q 177.1 183.6, 177.1 187.4 Q 177.1 191.1, 175.3 193.3 Q 173.4 195.4, 170.0 195.4 Q 166.6 195.4, 164.7 193.3 Q 162.8 191.2, 162.8 187.4 M 170.0 193.7 Q 172.4 193.7, 173.6 192.1 Q 174.9 190.5, 174.9 187.4 Q 174.9 184.3, 173.6 182.8 Q 172.4 181.2, 170.0 181.2 Q 167.6 181.2, 166.3 182.7 Q 165.0 184.3, 165.0 187.4 Q 165.0 190.5, 166.3 192.1 Q 167.6 193.7, 170.0 193.7 " fill="#FF0000"/>
<path class="atom-6" d="M 221.6 153.4 Q 221.6 149.7, 223.5 147.6 Q 225.3 145.5, 228.8 145.5 Q 232.3 145.5, 234.1 147.6 Q 235.9 149.7, 235.9 153.4 Q 235.9 157.2, 234.1 159.3 Q 232.2 161.5, 228.8 161.5 Q 225.4 161.5, 223.5 159.3 Q 221.6 157.2, 221.6 153.4 M 228.8 159.7 Q 231.2 159.7, 232.5 158.1 Q 233.7 156.5, 233.7 153.4 Q 233.7 150.3, 232.5 148.8 Q 231.2 147.2, 228.8 147.2 Q 226.4 147.2, 225.1 148.8 Q 223.8 150.3, 223.8 153.4 Q 223.8 156.5, 225.1 158.1 Q 226.4 159.7, 228.8 159.7 " fill="#FF0000"/>
<path class="atom-6" d="M 238.4 145.7 L 240.5 145.7 L 240.5 152.3 L 248.4 152.3 L 248.4 145.7 L 250.6 145.7 L 250.6 161.2 L 248.4 161.2 L 248.4 154.0 L 240.5 154.0 L 240.5 161.2 L 238.4 161.2 L 238.4 145.7 " fill="#FF0000"/>
<path class="atom-7" d="M 182.4 85.5 Q 182.4 81.8, 184.3 79.7 Q 186.1 77.6, 189.6 77.6 Q 193.0 77.6, 194.9 79.7 Q 196.7 81.8, 196.7 85.5 Q 196.7 89.3, 194.9 91.4 Q 193.0 93.6, 189.6 93.6 Q 186.2 93.6, 184.3 91.4 Q 182.4 89.3, 182.4 85.5 M 189.6 91.8 Q 192.0 91.8, 193.2 90.2 Q 194.5 88.6, 194.5 85.5 Q 194.5 82.4, 193.2 80.9 Q 192.0 79.3, 189.6 79.3 Q 187.2 79.3, 185.9 80.9 Q 184.6 82.4, 184.6 85.5 Q 184.6 88.6, 185.9 90.2 Q 187.2 91.8, 189.6 91.8 " fill="#FF0000"/>
<path class="atom-7" d="M 199.2 77.7 L 201.3 77.7 L 201.3 84.4 L 209.2 84.4 L 209.2 77.7 L 211.4 77.7 L 211.4 93.3 L 209.2 93.3 L 209.2 86.1 L 201.3 86.1 L 201.3 93.3 L 199.2 93.3 L 199.2 77.7 " fill="#FF0000"/>
<path class="atom-8" d="M 88.6 77.7 L 90.8 77.7 L 90.8 84.4 L 98.7 84.4 L 98.7 77.7 L 100.8 77.7 L 100.8 93.3 L 98.7 93.3 L 98.7 86.1 L 90.8 86.1 L 90.8 93.3 L 88.6 93.3 L 88.6 77.7 " fill="#FF0000"/>
<path class="atom-8" d="M 104.0 85.5 Q 104.0 81.8, 105.9 79.7 Q 107.7 77.6, 111.2 77.6 Q 114.6 77.6, 116.5 79.7 Q 118.3 81.8, 118.3 85.5 Q 118.3 89.3, 116.5 91.4 Q 114.6 93.6, 111.2 93.6 Q 107.7 93.6, 105.9 91.4 Q 104.0 89.3, 104.0 85.5 M 111.2 91.8 Q 113.6 91.8, 114.8 90.2 Q 116.1 88.6, 116.1 85.5 Q 116.1 82.4, 114.8 80.9 Q 113.6 79.3, 111.2 79.3 Q 108.8 79.3, 107.5 80.9 Q 106.2 82.4, 106.2 85.5 Q 106.2 88.6, 107.5 90.2 Q 108.8 91.8, 111.2 91.8 " fill="#FF0000"/>
<path class="atom-9" d="M 49.4 145.7 L 51.6 145.7 L 51.6 152.3 L 59.5 152.3 L 59.5 145.7 L 61.6 145.7 L 61.6 161.2 L 59.5 161.2 L 59.5 154.0 L 51.6 154.0 L 51.6 161.2 L 49.4 161.2 L 49.4 145.7 " fill="#FF0000"/>
<path class="atom-9" d="M 64.8 153.4 Q 64.8 149.7, 66.7 147.6 Q 68.5 145.5, 72.0 145.5 Q 75.4 145.5, 77.3 147.6 Q 79.1 149.7, 79.1 153.4 Q 79.1 157.2, 77.3 159.3 Q 75.4 161.5, 72.0 161.5 Q 68.5 161.5, 66.7 159.3 Q 64.8 157.2, 64.8 153.4 M 72.0 159.7 Q 74.3 159.7, 75.6 158.1 Q 76.9 156.5, 76.9 153.4 Q 76.9 150.3, 75.6 148.8 Q 74.3 147.2, 72.0 147.2 Q 69.6 147.2, 68.3 148.8 Q 67.0 150.3, 67.0 153.4 Q 67.0 156.5, 68.3 158.1 Q 69.6 159.7, 72.0 159.7 " fill="#FF0000"/>
<path class="legend" d="M 96.7 272.7 Q 98.1 272.7, 98.8 273.4 Q 99.5 274.2, 99.5 275.6 L 99.5 281.1 L 98.0 281.1 L 98.0 275.7 Q 98.0 274.8, 97.6 274.3 Q 97.3 273.9, 96.4 273.9 Q 95.7 273.9, 95.1 274.2 Q 94.5 274.6, 94.1 275.2 Q 94.1 275.3, 94.1 275.6 L 94.1 281.1 L 92.6 281.1 L 92.6 275.7 Q 92.6 274.8, 92.2 274.3 Q 91.9 273.9, 91.0 273.9 Q 90.3 273.9, 89.7 274.2 Q 89.1 274.6, 88.7 275.2 L 88.7 281.1 L 87.2 281.1 L 87.2 272.8 L 88.5 272.8 L 88.6 274.0 Q 89.7 272.7, 91.3 272.7 Q 93.3 272.7, 93.9 274.1 Q 95.0 272.7, 96.7 272.7 " fill="#000000"/>
<path class="legend" d="M 101.5 276.9 Q 101.5 274.9, 102.5 273.8 Q 103.5 272.7, 105.4 272.7 Q 107.3 272.7, 108.3 273.8 Q 109.3 274.9, 109.3 276.9 Q 109.3 278.9, 108.3 280.1 Q 107.3 281.2, 105.4 281.2 Q 103.5 281.2, 102.5 280.1 Q 101.5 278.9, 101.5 276.9 M 103.0 276.9 Q 103.0 278.4, 103.7 279.2 Q 104.3 280.0, 105.4 280.0 Q 106.5 280.0, 107.2 279.2 Q 107.8 278.4, 107.8 276.9 Q 107.8 275.4, 107.2 274.7 Q 106.5 273.9, 105.4 273.9 Q 104.3 273.9, 103.7 274.7 Q 103.0 275.4, 103.0 276.9 " fill="#000000"/>
<path class="legend" d="M 114.6 272.7 Q 116.4 272.7, 117.3 273.8 Q 118.3 274.8, 118.3 276.8 Q 118.3 278.9, 117.1 280.0 Q 116.0 281.2, 114.0 281.2 Q 112.7 281.2, 111.5 280.7 L 110.8 280.5 L 110.8 268.9 L 112.3 268.9 L 112.3 273.7 Q 113.2 272.7, 114.6 272.7 M 114.0 280.0 Q 115.3 280.0, 116.0 279.2 Q 116.7 278.3, 116.7 276.8 Q 116.7 275.4, 116.2 274.6 Q 115.6 273.9, 114.6 273.9 Q 113.7 273.9, 113.1 274.3 Q 112.5 274.8, 112.3 275.6 L 112.3 279.8 Q 113.1 280.0, 114.0 280.0 " fill="#000000"/>
<path class="legend" d="M 119.8 268.9 L 121.2 268.9 L 121.2 281.1 L 119.8 281.1 L 119.8 268.9 " fill="#000000"/>
<path class="legend" d="M 123.4 276.9 Q 123.4 274.9, 124.4 273.8 Q 125.4 272.7, 127.2 272.7 Q 129.0 272.7, 129.8 273.8 Q 130.6 274.9, 130.6 276.9 L 130.6 277.1 L 124.9 277.1 Q 124.9 278.5, 125.5 279.3 Q 126.2 280.0, 127.3 280.0 Q 128.0 280.0, 128.6 279.9 Q 129.2 279.7, 129.9 279.4 L 130.3 280.4 Q 129.5 280.8, 128.8 281.0 Q 128.0 281.2, 127.3 281.2 Q 125.4 281.2, 124.4 280.1 Q 123.4 279.0, 123.4 276.9 M 127.2 273.9 Q 126.3 273.9, 125.7 274.4 Q 125.1 275.0, 125.0 276.0 L 129.1 276.0 Q 128.9 274.9, 128.5 274.4 Q 128.0 273.9, 127.2 273.9 " fill="#000000"/>
<path class="legend" d="M 138.3 272.8 L 139.8 272.8 L 135.5 285.0 L 134.2 285.0 L 135.5 281.1 L 134.9 281.1 L 132.0 272.8 L 133.5 272.8 L 136.0 279.8 L 138.3 272.8 " fill="#000000"/>
<path class="legend" d="M 148.9 281.9 L 148.9 283.2 L 140.7 283.2 L 140.7 281.9 L 148.9 281.9 " fill="#000000"/>
<path class="legend" d="M 150.2 279.8 L 152.7 279.8 L 152.7 271.3 L 150.0 272.2 L 149.6 271.2 L 153.1 269.7 L 154.2 269.9 L 154.2 279.8 L 156.4 279.8 L 156.4 281.1 L 150.2 281.1 L 150.2 279.8 " fill="#000000"/>
<path class="legend" d="M 163.7 275.1 Q 164.7 275.5, 165.3 276.2 Q 165.9 276.8, 165.9 278.0 Q 165.9 278.9, 165.4 279.7 Q 164.9 280.4, 164.0 280.8 Q 163.1 281.2, 161.9 281.2 Q 160.1 281.2, 159.0 280.4 Q 157.9 279.5, 157.9 278.0 Q 157.9 277.0, 158.4 276.3 Q 158.8 275.6, 159.8 275.1 Q 159.1 274.7, 158.7 274.1 Q 158.3 273.5, 158.3 272.5 Q 158.3 271.2, 159.3 270.4 Q 160.2 269.6, 161.9 269.6 Q 163.5 269.6, 164.5 270.4 Q 165.5 271.2, 165.5 272.5 Q 165.5 273.3, 165.0 274.0 Q 164.5 274.6, 163.7 275.1 M 161.9 270.8 Q 160.9 270.8, 160.4 271.3 Q 159.9 271.7, 159.9 272.5 Q 159.9 273.1, 160.2 273.5 Q 160.6 273.9, 161.1 274.1 Q 161.6 274.3, 162.6 274.7 Q 163.3 274.2, 163.6 273.7 Q 163.9 273.2, 163.9 272.5 Q 163.9 271.7, 163.3 271.3 Q 162.8 270.8, 161.9 270.8 M 161.9 280.0 Q 163.0 280.0, 163.6 279.5 Q 164.3 278.9, 164.3 277.9 Q 164.3 277.3, 163.9 277.0 Q 163.6 276.6, 163.1 276.3 Q 162.6 276.1, 161.7 275.8 L 161.0 275.6 Q 160.2 276.1, 159.8 276.6 Q 159.5 277.2, 159.5 277.9 Q 159.5 278.9, 160.1 279.5 Q 160.8 280.0, 161.9 280.0 " fill="#000000"/>
<path class="legend" d="M 171.4 269.6 Q 173.5 269.6, 174.5 271.0 Q 175.5 272.3, 175.5 275.1 Q 175.5 278.1, 174.2 279.6 Q 173.0 281.2, 170.6 281.2 Q 169.9 281.2, 169.3 281.0 Q 168.7 280.9, 168.1 280.5 L 168.7 279.5 Q 169.5 279.9, 170.5 279.9 Q 172.1 279.9, 173.0 278.9 Q 173.8 277.8, 173.9 275.7 Q 173.3 276.2, 172.6 276.5 Q 171.8 276.8, 171.1 276.8 Q 170.1 276.8, 169.3 276.4 Q 168.5 275.9, 168.1 275.2 Q 167.6 274.4, 167.6 273.4 Q 167.6 272.3, 168.1 271.4 Q 168.6 270.6, 169.5 270.1 Q 170.3 269.6, 171.4 269.6 M 169.2 273.4 Q 169.2 274.4, 169.8 275.0 Q 170.4 275.5, 171.3 275.5 Q 172.0 275.5, 172.7 275.3 Q 173.4 275.0, 173.9 274.5 Q 173.8 272.6, 173.2 271.8 Q 172.6 270.9, 171.4 270.9 Q 170.8 270.9, 170.3 271.2 Q 169.8 271.6, 169.5 272.1 Q 169.2 272.7, 169.2 273.4 " fill="#000000"/>
<path class="legend" d="M 181.8 274.0 Q 182.8 274.0, 183.5 274.4 Q 184.3 274.9, 184.8 275.6 Q 185.2 276.4, 185.2 277.4 Q 185.2 278.5, 184.7 279.4 Q 184.2 280.2, 183.4 280.7 Q 182.5 281.2, 181.4 281.2 Q 179.4 281.2, 178.3 279.8 Q 177.3 278.5, 177.3 275.7 Q 177.3 272.7, 178.6 271.2 Q 179.8 269.6, 182.3 269.6 Q 183.0 269.6, 183.6 269.8 Q 184.2 269.9, 184.7 270.3 L 184.1 271.3 Q 183.3 270.9, 182.3 270.9 Q 180.7 270.9, 179.9 271.9 Q 179.0 273.0, 179.0 275.1 Q 179.5 274.6, 180.2 274.3 Q 181.0 274.0, 181.8 274.0 M 181.4 279.9 Q 182.0 279.9, 182.5 279.6 Q 183.0 279.2, 183.3 278.7 Q 183.6 278.1, 183.6 277.4 Q 183.6 276.4, 183.0 275.8 Q 182.5 275.3, 181.5 275.3 Q 180.8 275.3, 180.1 275.6 Q 179.4 275.8, 179.0 276.3 Q 179.0 278.2, 179.6 279.0 Q 180.2 279.9, 181.4 279.9 " fill="#000000"/>
<path class="legend" d="M 191.0 281.2 Q 188.9 281.2, 187.8 279.7 Q 186.8 278.1, 186.8 275.4 Q 186.8 272.6, 187.8 271.1 Q 188.9 269.6, 191.0 269.6 Q 193.1 269.6, 194.1 271.1 Q 195.1 272.6, 195.1 275.4 Q 195.1 278.1, 194.1 279.7 Q 193.0 281.2, 191.0 281.2 M 191.0 279.9 Q 192.2 279.9, 192.9 278.8 Q 193.5 277.6, 193.5 275.4 Q 193.5 273.2, 192.9 272.0 Q 192.2 270.9, 191.0 270.9 Q 189.8 270.9, 189.1 272.0 Q 188.4 273.2, 188.4 275.4 Q 188.4 277.6, 189.1 278.8 Q 189.8 279.9, 191.0 279.9 " fill="#000000"/>
<path class="legend" d="M 197.5 279.8 L 200.0 279.8 L 200.0 271.3 L 197.3 272.2 L 196.9 271.2 L 200.4 269.7 L 201.5 269.9 L 201.5 279.8 L 203.7 279.8 L 203.7 281.1 L 197.5 281.1 L 197.5 279.8 " fill="#000000"/>
<path class="legend" d="M 210.6 275.1 Q 211.7 275.4, 212.2 276.1 Q 212.8 276.8, 212.8 278.0 Q 212.8 278.9, 212.3 279.7 Q 211.8 280.4, 210.9 280.8 Q 210.1 281.2, 208.9 281.2 Q 207.7 281.2, 206.8 280.8 Q 205.9 280.4, 205.2 279.5 L 206.1 278.6 Q 206.8 279.4, 207.4 279.7 Q 208.0 279.9, 208.9 279.9 Q 209.9 279.9, 210.6 279.4 Q 211.2 278.8, 211.2 277.9 Q 211.2 276.8, 210.5 276.3 Q 209.9 275.8, 208.5 275.8 L 207.7 275.8 L 207.7 274.6 L 208.4 274.6 Q 209.6 274.6, 210.3 274.1 Q 210.9 273.5, 210.9 272.5 Q 210.9 271.8, 210.4 271.3 Q 209.9 270.9, 208.9 270.9 Q 208.0 270.9, 207.4 271.2 Q 206.8 271.6, 206.4 272.4 L 205.3 271.8 Q 205.7 270.9, 206.6 270.2 Q 207.6 269.6, 208.9 269.6 Q 210.6 269.6, 211.6 270.4 Q 212.5 271.2, 212.5 272.5 Q 212.5 273.4, 212.0 274.1 Q 211.5 274.7, 210.6 275.1 " fill="#000000"/>
<path class="bond-0 atom-0 atom-1" d="M 348.1,152.3 L 348.1,113.0" style="fill:none;fill-rule:evenodd;stroke:#000000;stroke-width:3.0px;stroke-linecap:butt;stroke-linejoin:miter;stroke-opacity:1"/>
<path class="bond-0 atom-0 atom-1" d="M 354.0,148.9 L 354.0,116.4" style="fill:none;fill-rule:evenodd;stroke:#000000;stroke-width:3.0px;stroke-linecap:butt;stroke-linejoin:miter;stroke-opacity:1"/>
<path class="bond-1 atom-1 atom-2" d="M 348.1,113.0 L 382.1,93.4" style="fill:none;fill-rule:evenodd;stroke:#000000;stroke-width:3.0px;stroke-linecap:butt;stroke-linejoin:miter;stroke-opacity:1"/>
<path class="bond-2 atom-2 atom-3" d="M 382.1,93.4 L 416.0,113.0" style="fill:none;fill-rule:evenodd;stroke:#000000;stroke-width:3.0px;stroke-linecap:butt;stroke-linejoin:miter;stroke-opacity:1"/>
<path class="bond-2 atom-2 atom-3" d="M 382.1,100.2 L 410.2,116.4" style="fill:none;fill-rule:evenodd;stroke:#000000;stroke-width:3.0px;stroke-linecap:butt;stroke-linejoin:miter;stroke-opacity:1"/>
<path class="bond-3 atom-3 atom-4" d="M 416.0,113.0 L 416.0,152.3" style="fill:none;fill-rule:evenodd;stroke:#000000;stroke-width:3.0px;stroke-linecap:butt;stroke-linejoin:miter;stroke-opacity:1"/>
<path class="bond-4 atom-4 atom-5" d="M 416.0,152.3 L 382.1,171.9" style="fill:none;fill-rule:evenodd;stroke:#000000;stroke-width:3.0px;stroke-linecap:butt;stroke-linejoin:miter;stroke-opacity:1"/>
<path class="bond-4 atom-4 atom-5" d="M 410.2,148.9 L 382.1,165.1" style="fill:none;fill-rule:evenodd;stroke:#000000;stroke-width:3.0px;stroke-linecap:butt;stroke-linejoin:miter;stroke-opacity:1"/>
<path class="bond-5 atom-4 atom-6" d="M 416.0,152.3 L 450.0,171.9" style="fill:none;fill-rule:evenodd;stroke:#000000;stroke-width:3.0px;stroke-linecap:butt;stroke-linejoin:miter;stroke-opacity:1"/>
<path class="bond-6 atom-6 atom-7" d="M 447.1,170.2 L 447.1,186.0" style="fill:none;fill-rule:evenodd;stroke:#000000;stroke-width:3.0px;stroke-linecap:butt;stroke-linejoin:miter;stroke-opacity:1"/>
<path class="bond-6 atom-6 atom-7" d="M 447.1,186.0 L 447.1,201.9" style="fill:none;fill-rule:evenodd;stroke:#FF0000;stroke-width:3.0px;stroke-linecap:butt;stroke-linejoin:miter;stroke-opacity:1"/>
<path class="bond-6 atom-6 atom-7" d="M 452.9,170.2 L 452.9,186.0" style="fill:none;fill-rule:evenodd;stroke:#000000;stroke-width:3.0px;stroke-linecap:butt;stroke-linejoin:miter;stroke-opacity:1"/>
<path class="bond-6 atom-6 atom-7" d="M 452.9,186.0 L 452.9,201.9" style="fill:none;fill-rule:evenodd;stroke:#FF0000;stroke-width:3.0px;stroke-linecap:butt;stroke-linejoin:miter;stroke-opacity:1"/>
<path class="bond-7 atom-6 atom-8" d="M 450.0,171.9 L 484.0,152.3" style="fill:none;fill-rule:evenodd;stroke:#000000;stroke-width:3.0px;stroke-linecap:butt;stroke-linejoin:miter;stroke-opacity:1"/>
<path class="bond-8 atom-8 atom-9" d="M 484.0,152.3 L 517.9,171.9" style="fill:none;fill-rule:evenodd;stroke:#000000;stroke-width:3.0px;stroke-linecap:butt;stroke-linejoin:miter;stroke-opacity:1"/>
<path class="bond-8 atom-8 atom-9" d="M 489.8,148.9 L 517.9,165.1" style="fill:none;fill-rule:evenodd;stroke:#000000;stroke-width:3.0px;stroke-linecap:butt;stroke-linejoin:miter;stroke-opacity:1"/>
<path class="bond-9 atom-9 atom-10" d="M 517.9,171.9 L 551.9,152.3" style="fill:none;fill-rule:evenodd;stroke:#000000;stroke-width:3.0px;stroke-linecap:butt;stroke-linejoin:miter;stroke-opacity:1"/>
<path class="bond-10 atom-10 atom-11" d="M 551.9,152.3 L 551.9,113.0" style="fill:none;fill-rule:evenodd;stroke:#000000;stroke-width:3.0px;stroke-linecap:butt;stroke-linejoin:miter;stroke-opacity:1"/>
<path class="bond-10 atom-10 atom-11" d="M 546.0,148.9 L 546.0,116.4" style="fill:none;fill-rule:evenodd;stroke:#000000;stroke-width:3.0px;stroke-linecap:butt;stroke-linejoin:miter;stroke-opacity:1"/>
<path class="bond-11 atom-11 atom-12" d="M 551.9,113.0 L 517.9,93.4" style="fill:none;fill-rule:evenodd;stroke:#000000;stroke-width:3.0px;stroke-linecap:butt;stroke-linejoin:miter;stroke-opacity:1"/>
<path class="bond-12 atom-12 atom-13" d="M 517.9,93.4 L 484.0,113.0" style="fill:none;fill-rule:evenodd;stroke:#000000;stroke-width:3.0px;stroke-linecap:butt;stroke-linejoin:miter;stroke-opacity:1"/>
<path class="bond-12 atom-12 atom-13" d="M 517.9,100.2 L 489.8,116.4" style="fill:none;fill-rule:evenodd;stroke:#000000;stroke-width:3.0px;stroke-linecap:butt;stroke-linejoin:miter;stroke-opacity:1"/>
<path class="bond-13 atom-13 atom-14" d="M 484.0,113.0 L 450.0,93.4" style="fill:none;fill-rule:evenodd;stroke:#000000;stroke-width:3.0px;stroke-linecap:butt;stroke-linejoin:miter;stroke-opacity:1"/>
<path class="bond-14 atom-14 atom-15" d="M 452.9,95.1 L 452.9,79.4" style="fill:none;fill-rule:evenodd;stroke:#000000;stroke-width:3.0px;stroke-linecap:butt;stroke-linejoin:miter;stroke-opacity:1"/>
<path class="bond-14 atom-14 atom-15" d="M 452.9,79.4 L 452.9,63.6" style="fill:none;fill-rule:evenodd;stroke:#FF0000;stroke-width:3.0px;stroke-linecap:butt;stroke-linejoin:miter;stroke-opacity:1"/>
<path class="bond-14 atom-14 atom-15" d="M 447.1,95.1 L 447.1,79.4" style="fill:none;fill-rule:evenodd;stroke:#000000;stroke-width:3.0px;stroke-linecap:butt;stroke-linejoin:miter;stroke-opacity:1"/>
<path class="bond-14 atom-14 atom-15" d="M 447.1,79.4 L 447.1,63.6" style="fill:none;fill-rule:evenodd;stroke:#FF0000;stroke-width:3.0px;stroke-linecap:butt;stroke-linejoin:miter;stroke-opacity:1"/>
<path class="bond-15 atom-12 atom-16" d="M 517.9,93.4 L 517.9,78.4" style="fill:none;fill-rule:evenodd;stroke:#000000;stroke-width:3.0px;stroke-linecap:butt;stroke-linejoin:miter;stroke-opacity:1"/>
<path class="bond-15 atom-12 atom-16" d="M 517.9,78.4 L 517.9,63.3" style="fill:none;fill-rule:evenodd;stroke:#0000FF;stroke-width:3.0px;stroke-linecap:butt;stroke-linejoin:miter;stroke-opacity:1"/>
<path class="bond-16 atom-9 atom-17" d="M 517.9,171.9 L 517.9,186.9" style="fill:none;fill-rule:evenodd;stroke:#000000;stroke-width:3.0px;stroke-linecap:butt;stroke-linejoin:miter;stroke-opacity:1"/>
<path class="bond-16 atom-9 atom-17" d="M 517.9,186.9 L 517.9,202.0" style="fill:none;fill-rule:evenodd;stroke:#0000FF;stroke-width:3.0px;stroke-linecap:butt;stroke-linejoin:miter;stroke-opacity:1"/>
<path class="bond-17 atom-5 atom-0" d="M 382.1,171.9 L 348.1,152.3" style="fill:none;fill-rule:evenodd;stroke:#000000;stroke-width:3.0px;stroke-linecap:butt;stroke-linejoin:miter;stroke-opacity:1"/>
<path class="bond-18 atom-14 atom-3" d="M 450.0,93.4 L 416.0,113.0" style="fill:none;fill-rule:evenodd;stroke:#000000;stroke-width:3.0px;stroke-linecap:butt;stroke-linejoin:miter;stroke-opacity:1"/>
<path class="bond-19 atom-13 atom-8" d="M 484.0,113.0 L 484.0,152.3" style="fill:none;fill-rule:evenodd;stroke:#000000;stroke-width:3.0px;stroke-linecap:butt;stroke-linejoin:miter;stroke-opacity:1"/>
<path d="M 348.1,150.3 L 348.1,152.3 L 349.8,153.2" style="fill:none;stroke:#000000;stroke-width:3.0px;stroke-linecap:butt;stroke-linejoin:miter;stroke-opacity:1;"/>
<path d="M 348.1,115.0 L 348.1,113.0 L 349.8,112.1" style="fill:none;stroke:#000000;stroke-width:3.0px;stroke-linecap:butt;stroke-linejoin:miter;stroke-opacity:1;"/>
<path d="M 380.4,94.4 L 382.1,93.4 L 383.8,94.4" style="fill:none;stroke:#000000;stroke-width:3.0px;stroke-linecap:butt;stroke-linejoin:miter;stroke-opacity:1;"/>
<path d="M 383.8,170.9 L 382.1,171.9 L 380.4,170.9" style="fill:none;stroke:#000000;stroke-width:3.0px;stroke-linecap:butt;stroke-linejoin:miter;stroke-opacity:1;"/>
<path d="M 448.3,170.9 L 450.0,171.9 L 451.7,170.9" style="fill:none;stroke:#000000;stroke-width:3.0px;stroke-linecap:butt;stroke-linejoin:miter;stroke-opacity:1;"/>
<path d="M 550.2,153.2 L 551.9,152.3 L 551.9,150.3" style="fill:none;stroke:#000000;stroke-width:3.0px;stroke-linecap:butt;stroke-linejoin:miter;stroke-opacity:1;"/>
<path d="M 551.9,115.0 L 551.9,113.0 L 550.2,112.1" style="fill:none;stroke:#000000;stroke-width:3.0px;stroke-linecap:butt;stroke-linejoin:miter;stroke-opacity:1;"/>
<path d="M 451.7,94.4 L 450.0,93.4 L 448.3,94.4" style="fill:none;stroke:#000000;stroke-width:3.0px;stroke-linecap:butt;stroke-linejoin:miter;stroke-opacity:1;"/>
<path class="atom-7" d="M 442.9 211.1 Q 442.9 207.4, 444.7 205.3 Q 446.5 203.2, 450.0 203.2 Q 453.5 203.2, 455.3 205.3 Q 457.1 207.4, 457.1 211.1 Q 457.1 214.9, 455.3 217.0 Q 453.4 219.2, 450.0 219.2 Q 446.6 219.2, 444.7 217.0 Q 442.9 214.9, 442.9 211.1 M 450.0 217.4 Q 452.4 217.4, 453.7 215.8 Q 454.9 214.2, 454.9 211.1 Q 454.9 208.0, 453.7 206.5 Q 452.4 204.9, 450.0 204.9 Q 447.6 204.9, 446.3 206.5 Q 445.1 208.0, 445.1 211.1 Q 445.1 214.3, 446.3 215.8 Q 447.6 217.4, 450.0 217.4 " fill="#FF0000"/>
<path class="atom-15" d="M 442.8 54.3 Q 442.8 50.5, 444.7 48.5 Q 446.5 46.4, 450.0 46.4 Q 453.5 46.4, 455.3 48.5 Q 457.1 50.5, 457.1 54.3 Q 457.1 58.1, 455.3 60.2 Q 453.4 62.4, 450.0 62.4 Q 446.6 62.4, 444.7 60.2 Q 442.8 58.1, 442.8 54.3 M 450.0 60.6 Q 452.4 60.6, 453.7 59.0 Q 454.9 57.4, 454.9 54.3 Q 454.9 51.2, 453.7 49.7 Q 452.4 48.1, 450.0 48.1 Q 447.6 48.1, 446.3 49.7 Q 445.0 51.2, 445.0 54.3 Q 445.0 57.4, 446.3 59.0 Q 447.6 60.6, 450.0 60.6 " fill="#FF0000"/>
<path class="atom-16" d="M 514.5 46.4 L 519.6 54.7 Q 520.1 55.5, 520.9 57.0 Q 521.7 58.5, 521.7 58.5 L 521.7 46.4 L 523.8 46.4 L 523.8 62.0 L 521.7 62.0 L 516.2 53.0 Q 515.6 51.9, 514.9 50.7 Q 514.2 49.5, 514.0 49.2 L 514.0 62.0 L 512.0 62.0 L 512.0 46.4 L 514.5 46.4 " fill="#0000FF"/>
<path class="atom-16" d="M 526.8 46.4 L 528.9 46.4 L 528.9 53.1 L 536.9 53.1 L 536.9 46.4 L 539.0 46.4 L 539.0 62.0 L 536.9 62.0 L 536.9 54.8 L 528.9 54.8 L 528.9 62.0 L 526.8 62.0 L 526.8 46.4 " fill="#0000FF"/>
<path class="atom-16" d="M 542.0 61.5 Q 542.4 60.5, 543.3 60.0 Q 544.2 59.4, 545.5 59.4 Q 547.0 59.4, 547.9 60.3 Q 548.8 61.1, 548.8 62.6 Q 548.8 64.1, 547.6 65.5 Q 546.5 67.0, 544.2 68.7 L 548.9 68.7 L 548.9 69.8 L 542.0 69.8 L 542.0 68.8 Q 543.9 67.5, 545.0 66.5 Q 546.2 65.4, 546.7 64.5 Q 547.3 63.6, 547.3 62.7 Q 547.3 61.7, 546.8 61.1 Q 546.3 60.6, 545.5 60.6 Q 544.6 60.6, 544.1 60.9 Q 543.5 61.2, 543.1 62.0 L 542.0 61.5 " fill="#0000FF"/>
<path class="atom-17" d="M 514.5 203.3 L 519.6 211.5 Q 520.1 212.3, 520.9 213.8 Q 521.7 215.3, 521.7 215.4 L 521.7 203.3 L 523.8 203.3 L 523.8 218.9 L 521.7 218.9 L 516.2 209.8 Q 515.6 208.8, 514.9 207.6 Q 514.2 206.4, 514.0 206.0 L 514.0 218.9 L 512.0 218.9 L 512.0 203.3 L 514.5 203.3 " fill="#0000FF"/>
<path class="atom-17" d="M 526.8 203.3 L 528.9 203.3 L 528.9 209.9 L 536.9 209.9 L 536.9 203.3 L 539.0 203.3 L 539.0 218.9 L 536.9 218.9 L 536.9 211.7 L 528.9 211.7 L 528.9 218.9 L 526.8 218.9 L 526.8 203.3 " fill="#0000FF"/>
<path class="atom-17" d="M 542.0 218.3 Q 542.4 217.3, 543.3 216.8 Q 544.2 216.2, 545.5 216.2 Q 547.0 216.2, 547.9 217.1 Q 548.8 217.9, 548.8 219.4 Q 548.8 220.9, 547.6 222.4 Q 546.5 223.8, 544.2 225.5 L 548.9 225.5 L 548.9 226.6 L 542.0 226.6 L 542.0 225.7 Q 543.9 224.3, 545.0 223.3 Q 546.2 222.3, 546.7 221.4 Q 547.3 220.4, 547.3 219.5 Q 547.3 218.5, 546.8 218.0 Q 546.3 217.4, 545.5 217.4 Q 544.6 217.4, 544.1 217.7 Q 543.5 218.1, 543.1 218.8 L 542.0 218.3 " fill="#0000FF"/>
<path class="legend" d="M 399.5 272.7 Q 400.9 272.7, 401.6 273.4 Q 402.3 274.2, 402.3 275.6 L 402.3 281.1 L 400.8 281.1 L 400.8 275.7 Q 400.8 274.8, 400.4 274.3 Q 400.1 273.9, 399.2 273.9 Q 398.5 273.9, 397.9 274.2 Q 397.3 274.6, 396.9 275.2 Q 396.9 275.3, 396.9 275.6 L 396.9 281.1 L 395.4 281.1 L 395.4 275.7 Q 395.4 274.8, 395.0 274.3 Q 394.7 273.9, 393.8 273.9 Q 393.1 273.9, 392.5 274.2 Q 391.9 274.6, 391.5 275.2 L 391.5 281.1 L 390.0 281.1 L 390.0 272.8 L 391.3 272.8 L 391.4 274.0 Q 392.5 272.7, 394.1 272.7 Q 396.1 272.7, 396.7 274.1 Q 397.8 272.7, 399.5 272.7 " fill="#000000"/>
<path class="legend" d="M 404.3 276.9 Q 404.3 274.9, 405.3 273.8 Q 406.4 272.7, 408.2 272.7 Q 410.1 272.7, 411.1 273.8 Q 412.1 274.9, 412.1 276.9 Q 412.1 278.9, 411.1 280.1 Q 410.1 281.2, 408.2 281.2 Q 406.4 281.2, 405.3 280.1 Q 404.3 278.9, 404.3 276.9 M 405.9 276.9 Q 405.9 278.4, 406.5 279.2 Q 407.1 280.0, 408.2 280.0 Q 409.4 280.0, 410.0 279.2 Q 410.6 278.4, 410.6 276.9 Q 410.6 275.4, 410.0 274.7 Q 409.4 273.9, 408.2 273.9 Q 407.1 273.9, 406.5 274.7 Q 405.9 275.4, 405.9 276.9 " fill="#000000"/>
<path class="legend" d="M 417.5 272.7 Q 419.2 272.7, 420.2 273.8 Q 421.1 274.8, 421.1 276.8 Q 421.1 278.9, 420.0 280.0 Q 418.9 281.2, 416.9 281.2 Q 415.6 281.2, 414.4 280.7 L 413.7 280.5 L 413.7 268.9 L 415.2 268.9 L 415.2 273.7 Q 416.0 272.7, 417.5 272.7 M 416.9 280.0 Q 418.1 280.0, 418.9 279.2 Q 419.6 278.3, 419.6 276.8 Q 419.6 275.4, 419.0 274.6 Q 418.4 273.9, 417.4 273.9 Q 416.6 273.9, 416.0 274.3 Q 415.4 274.8, 415.2 275.6 L 415.2 279.8 Q 416.0 280.0, 416.9 280.0 " fill="#000000"/>
<path class="legend" d="M 422.6 268.9 L 424.1 268.9 L 424.1 281.1 L 422.6 281.1 L 422.6 268.9 " fill="#000000"/>
<path class="legend" d="M 426.3 276.9 Q 426.3 274.9, 427.3 273.8 Q 428.3 272.7, 430.1 272.7 Q 431.9 272.7, 432.7 273.8 Q 433.5 274.9, 433.5 276.9 L 433.5 277.1 L 427.8 277.1 Q 427.8 278.5, 428.5 279.3 Q 429.1 280.0, 430.2 280.0 Q 430.9 280.0, 431.5 279.9 Q 432.1 279.7, 432.8 279.4 L 433.2 280.4 Q 432.4 280.8, 431.7 281.0 Q 430.9 281.2, 430.2 281.2 Q 428.3 281.2, 427.3 280.1 Q 426.3 279.0, 426.3 276.9 M 430.1 273.9 Q 429.2 273.9, 428.6 274.4 Q 428.0 275.0, 427.9 276.0 L 432.0 276.0 Q 431.8 274.9, 431.4 274.4 Q 430.9 273.9, 430.1 273.9 " fill="#000000"/>
<path class="legend" d="M 441.3 272.8 L 442.7 272.8 L 438.5 285.0 L 437.1 285.0 L 438.5 281.1 L 437.8 281.1 L 434.9 272.8 L 436.5 272.8 L 438.9 279.8 L 441.3 272.8 " fill="#000000"/>
<path class="legend" d="M 451.8 281.9 L 451.8 283.2 L 443.7 283.2 L 443.7 281.9 L 451.8 281.9 " fill="#000000"/>
<path class="legend" d="M 452.6 271.9 Q 453.0 270.8, 454.0 270.2 Q 455.0 269.6, 456.4 269.6 Q 458.1 269.6, 459.1 270.5 Q 460.0 271.5, 460.0 273.1 Q 460.0 274.8, 458.8 276.4 Q 457.6 277.9, 455.0 279.8 L 460.2 279.8 L 460.2 281.1 L 452.6 281.1 L 452.6 280.0 Q 454.7 278.5, 456.0 277.4 Q 457.2 276.2, 457.8 275.2 Q 458.4 274.2, 458.4 273.2 Q 458.4 272.1, 457.9 271.5 Q 457.3 270.9, 456.4 270.9 Q 455.5 270.9, 454.9 271.3 Q 454.3 271.6, 453.8 272.4 L 452.6 271.9 " fill="#000000"/>
<path class="legend" d="M 469.3 277.2 L 470.7 277.2 L 470.7 278.5 L 469.3 278.5 L 469.3 281.1 L 467.8 281.1 L 467.8 278.5 L 462.0 278.5 L 462.0 277.4 L 466.9 269.7 L 469.3 269.7 L 469.3 277.2 M 463.8 277.2 L 467.8 277.2 L 467.8 270.8 L 463.8 277.2 " fill="#000000"/>
<path class="legend" d="M 472.3 271.9 Q 472.7 270.8, 473.7 270.2 Q 474.7 269.6, 476.1 269.6 Q 477.8 269.6, 478.7 270.5 Q 479.7 271.5, 479.7 273.1 Q 479.7 274.8, 478.4 276.4 Q 477.2 277.9, 474.6 279.8 L 479.9 279.8 L 479.9 281.1 L 472.2 281.1 L 472.2 280.0 Q 474.4 278.5, 475.6 277.4 Q 476.9 276.2, 477.5 275.2 Q 478.1 274.2, 478.1 273.2 Q 478.1 272.1, 477.5 271.5 Q 477.0 270.9, 476.1 270.9 Q 475.1 270.9, 474.5 271.3 Q 473.9 271.6, 473.5 272.4 L 472.3 271.9 " fill="#000000"/>
<path class="legend" d="M 489.0 277.2 L 490.3 277.2 L 490.3 278.5 L 489.0 278.5 L 489.0 281.1 L 487.5 281.1 L 487.5 278.5 L 481.6 278.5 L 481.6 277.4 L 486.6 269.7 L 489.0 269.7 L 489.0 277.2 M 483.5 277.2 L 487.5 277.2 L 487.5 270.8 L 483.5 277.2 " fill="#000000"/>
<path class="legend" d="M 497.7 275.1 Q 498.7 275.5, 499.3 276.2 Q 499.9 276.8, 499.9 278.0 Q 499.9 278.9, 499.4 279.7 Q 498.9 280.4, 498.0 280.8 Q 497.1 281.2, 496.0 281.2 Q 494.1 281.2, 493.0 280.4 Q 491.9 279.5, 491.9 278.0 Q 491.9 277.0, 492.4 276.3 Q 492.9 275.6, 493.9 275.1 Q 493.1 274.7, 492.7 274.1 Q 492.3 273.5, 492.3 272.5 Q 492.3 271.2, 493.3 270.4 Q 494.3 269.6, 495.9 269.6 Q 497.6 269.6, 498.5 270.4 Q 499.5 271.2, 499.5 272.5 Q 499.5 273.3, 499.0 274.0 Q 498.6 274.6, 497.7 275.1 M 495.9 270.8 Q 495.0 270.8, 494.4 271.3 Q 493.9 271.7, 493.9 272.5 Q 493.9 273.1, 494.3 273.5 Q 494.6 273.9, 495.1 274.1 Q 495.6 274.3, 496.6 274.7 Q 497.3 274.2, 497.6 273.7 Q 497.9 273.2, 497.9 272.5 Q 497.9 271.7, 497.4 271.3 Q 496.8 270.8, 495.9 270.8 M 496.0 280.0 Q 497.0 280.0, 497.7 279.5 Q 498.3 278.9, 498.3 277.9 Q 498.3 277.3, 498.0 277.0 Q 497.6 276.6, 497.1 276.3 Q 496.6 276.1, 495.7 275.8 L 495.0 275.6 Q 494.2 276.1, 493.9 276.6 Q 493.5 277.2, 493.5 277.9 Q 493.5 278.9, 494.2 279.5 Q 494.8 280.0, 496.0 280.0 " fill="#000000"/>
<path class="legend" d="M 505.8 281.2 Q 503.8 281.2, 502.7 279.7 Q 501.7 278.1, 501.7 275.4 Q 501.7 272.6, 502.7 271.1 Q 503.7 269.6, 505.8 269.6 Q 507.9 269.6, 509.0 271.1 Q 510.0 272.6, 510.0 275.4 Q 510.0 278.1, 508.9 279.7 Q 507.9 281.2, 505.8 281.2 M 505.8 279.9 Q 507.1 279.9, 507.7 278.8 Q 508.4 277.6, 508.4 275.4 Q 508.4 273.2, 507.7 272.0 Q 507.1 270.9, 505.8 270.9 Q 504.6 270.9, 503.9 272.0 Q 503.3 273.2, 503.3 275.4 Q 503.3 277.6, 503.9 278.8 Q 504.6 279.9, 505.8 279.9 " fill="#000000"/>
<path class="bond-0 atom-0 atom-1" d="M 703.2,196.4 L 676.9,167.4" style="fill:none;fill-rule:evenodd;stroke:#000000;stroke-width:3.0px;stroke-linecap:butt;stroke-linejoin:miter;stroke-opacity:1"/>
<path class="bond-0 atom-0 atom-1" d="M 705.3,190.0 L 683.5,166.0" style="fill:none;fill-rule:evenodd;stroke:#000000;stroke-width:3.0px;stroke-linecap:butt;stroke-linejoin:miter;stroke-opacity:1"/>
<path class="bond-1 atom-1 atom-2" d="M 676.9,167.4 L 688.8,130.1" style="fill:none;fill-rule:evenodd;stroke:#000000;stroke-width:3.0px;stroke-linecap:butt;stroke-linejoin:miter;stroke-opacity:1"/>
<path class="bond-2 atom-2 atom-3" d="M 688.8,130.1 L 727.1,121.8" style="fill:none;fill-rule:evenodd;stroke:#000000;stroke-width:3.0px;stroke-linecap:butt;stroke-linejoin:miter;stroke-opacity:1"/>
<path class="bond-2 atom-2 atom-3" d="M 693.4,135.1 L 725.1,128.2" style="fill:none;fill-rule:evenodd;stroke:#000000;stroke-width:3.0px;stroke-linecap:butt;stroke-linejoin:miter;stroke-opacity:1"/>
<path class="bond-3 atom-3 atom-4" d="M 727.1,121.8 L 753.5,150.8" style="fill:none;fill-rule:evenodd;stroke:#000000;stroke-width:3.0px;stroke-linecap:butt;stroke-linejoin:miter;stroke-opacity:1"/>
<path class="bond-4 atom-4 atom-5" d="M 753.5,150.8 L 741.5,188.1" style="fill:none;fill-rule:evenodd;stroke:#000000;stroke-width:3.0px;stroke-linecap:butt;stroke-linejoin:miter;stroke-opacity:1"/>
<path class="bond-4 atom-4 atom-5" d="M 746.9,152.2 L 737.0,183.1" style="fill:none;fill-rule:evenodd;stroke:#000000;stroke-width:3.0px;stroke-linecap:butt;stroke-linejoin:miter;stroke-opacity:1"/>
<path class="bond-5 atom-4 atom-6" d="M 753.5,150.8 L 791.8,142.5" style="fill:none;fill-rule:evenodd;stroke:#000000;stroke-width:3.0px;stroke-linecap:butt;stroke-linejoin:miter;stroke-opacity:1"/>
<path class="bond-6 atom-6 atom-7" d="M 791.8,142.5 L 800.8,152.4" style="fill:none;fill-rule:evenodd;stroke:#000000;stroke-width:3.0px;stroke-linecap:butt;stroke-linejoin:miter;stroke-opacity:1"/>
<path class="bond-6 atom-6 atom-7" d="M 800.8,152.4 L 809.8,162.3" style="fill:none;fill-rule:evenodd;stroke:#FF0000;stroke-width:3.0px;stroke-linecap:butt;stroke-linejoin:miter;stroke-opacity:1"/>
<path class="bond-6 atom-6 atom-7" d="M 789.7,148.9 L 796.5,156.3" style="fill:none;fill-rule:evenodd;stroke:#000000;stroke-width:3.0px;stroke-linecap:butt;stroke-linejoin:miter;stroke-opacity:1"/>
<path class="bond-6 atom-6 atom-7" d="M 796.5,156.3 L 805.5,166.3" style="fill:none;fill-rule:evenodd;stroke:#FF0000;stroke-width:3.0px;stroke-linecap:butt;stroke-linejoin:miter;stroke-opacity:1"/>
<path class="bond-7 atom-3 atom-8" d="M 727.1,121.8 L 731.6,107.8" style="fill:none;fill-rule:evenodd;stroke:#000000;stroke-width:3.0px;stroke-linecap:butt;stroke-linejoin:miter;stroke-opacity:1"/>
<path class="bond-7 atom-3 atom-8" d="M 731.6,107.8 L 736.1,93.8" style="fill:none;fill-rule:evenodd;stroke:#FF0000;stroke-width:3.0px;stroke-linecap:butt;stroke-linejoin:miter;stroke-opacity:1"/>
<path class="bond-8 atom-5 atom-0" d="M 741.5,188.1 L 703.2,196.4" style="fill:none;fill-rule:evenodd;stroke:#000000;stroke-width:3.0px;stroke-linecap:butt;stroke-linejoin:miter;stroke-opacity:1"/>
<path d="M 701.9,195.0 L 703.2,196.4 L 705.1,196.0" style="fill:none;stroke:#000000;stroke-width:3.0px;stroke-linecap:butt;stroke-linejoin:miter;stroke-opacity:1;"/>
<path d="M 678.2,168.9 L 676.9,167.4 L 677.5,165.6" style="fill:none;stroke:#000000;stroke-width:3.0px;stroke-linecap:butt;stroke-linejoin:miter;stroke-opacity:1;"/>
<path d="M 688.2,132.0 L 688.8,130.1 L 690.7,129.7" style="fill:none;stroke:#000000;stroke-width:3.0px;stroke-linecap:butt;stroke-linejoin:miter;stroke-opacity:1;"/>
<path d="M 742.1,186.3 L 741.5,188.1 L 739.6,188.5" style="fill:none;stroke:#000000;stroke-width:3.0px;stroke-linecap:butt;stroke-linejoin:miter;stroke-opacity:1;"/>
<path d="M 789.9,142.9 L 791.8,142.5 L 792.3,143.0" style="fill:none;stroke:#000000;stroke-width:3.0px;stroke-linecap:butt;stroke-linejoin:miter;stroke-opacity:1;"/>
<path class="atom-7" d="M 808.8 173.5 Q 808.8 169.8, 810.7 167.7 Q 812.5 165.6, 816.0 165.6 Q 819.4 165.6, 821.3 167.7 Q 823.1 169.8, 823.1 173.5 Q 823.1 177.3, 821.3 179.5 Q 819.4 181.6, 816.0 181.6 Q 812.6 181.6, 810.7 179.5 Q 808.8 177.3, 808.8 173.5 M 816.0 179.8 Q 818.4 179.8, 819.6 178.2 Q 820.9 176.6, 820.9 173.5 Q 820.9 170.5, 819.6 168.9 Q 818.4 167.4, 816.0 167.4 Q 813.6 167.4, 812.3 168.9 Q 811.0 170.4, 811.0 173.5 Q 811.0 176.7, 812.3 178.2 Q 813.6 179.8, 816.0 179.8 " fill="#FF0000"/>
<path class="atom-8" d="M 731.9 84.5 Q 731.9 80.7, 733.8 78.6 Q 735.6 76.6, 739.1 76.6 Q 742.5 76.6, 744.4 78.6 Q 746.2 80.7, 746.2 84.5 Q 746.2 88.3, 744.4 90.4 Q 742.5 92.5, 739.1 92.5 Q 735.6 92.5, 733.8 90.4 Q 731.9 88.3, 731.9 84.5 M 739.1 90.8 Q 741.5 90.8, 742.7 89.2 Q 744.0 87.6, 744.0 84.5 Q 744.0 81.4, 742.7 79.9 Q 741.5 78.3, 739.1 78.3 Q 736.7 78.3, 735.4 79.9 Q 734.1 81.4, 734.1 84.5 Q 734.1 87.6, 735.4 89.2 Q 736.7 90.8, 739.1 90.8 " fill="#FF0000"/>
<path class="atom-8" d="M 748.7 76.7 L 750.8 76.7 L 750.8 83.3 L 758.7 83.3 L 758.7 76.7 L 760.8 76.7 L 760.8 92.3 L 758.7 92.3 L 758.7 85.1 L 750.8 85.1 L 750.8 92.3 L 748.7 92.3 L 748.7 76.7 " fill="#FF0000"/>
<path class="legend" d="M 695.7 272.7 Q 697.1 272.7, 697.8 273.4 Q 698.5 274.2, 698.5 275.6 L 698.5 281.1 L 697.0 281.1 L 697.0 275.7 Q 697.0 274.8, 696.6 274.3 Q 696.2 273.9, 695.4 273.9 Q 694.7 273.9, 694.1 274.2 Q 693.5 274.6, 693.1 275.2 Q 693.1 275.3, 693.1 275.6 L 693.1 281.1 L 691.6 281.1 L 691.6 275.7 Q 691.6 274.8, 691.2 274.3 Q 690.9 273.9, 690.0 273.9 Q 689.3 273.9, 688.7 274.2 Q 688.1 274.6, 687.7 275.2 L 687.7 281.1 L 686.2 281.1 L 686.2 272.8 L 687.4 272.8 L 687.6 274.0 Q 688.7 272.7, 690.3 272.7 Q 692.2 272.7, 692.9 274.1 Q 693.9 272.7, 695.7 272.7 " fill="#000000"/>
<path class="legend" d="M 700.5 276.9 Q 700.5 274.9, 701.5 273.8 Q 702.5 272.7, 704.4 272.7 Q 706.3 272.7, 707.3 273.8 Q 708.3 274.9, 708.3 276.9 Q 708.3 278.9, 707.3 280.1 Q 706.3 281.2, 704.4 281.2 Q 702.5 281.2, 701.5 280.1 Q 700.5 278.9, 700.5 276.9 M 702.0 276.9 Q 702.0 278.4, 702.6 279.2 Q 703.3 280.0, 704.4 280.0 Q 705.5 280.0, 706.1 279.2 Q 706.8 278.4, 706.8 276.9 Q 706.8 275.4, 706.1 274.7 Q 705.5 273.9, 704.4 273.9 Q 703.3 273.9, 702.6 274.7 Q 702.0 275.4, 702.0 276.9 " fill="#000000"/>
<path class="legend" d="M 713.6 272.7 Q 715.4 272.7, 716.3 273.8 Q 717.3 274.8, 717.3 276.8 Q 717.3 278.9, 716.1 280.0 Q 715.0 281.2, 713.0 281.2 Q 711.7 281.2, 710.5 280.7 L 709.8 280.5 L 709.8 268.9 L 711.3 268.9 L 711.3 273.7 Q 712.2 272.7, 713.6 272.7 M 713.0 280.0 Q 714.3 280.0, 715.0 279.2 Q 715.7 278.3, 715.7 276.8 Q 715.7 275.4, 715.1 274.6 Q 714.6 273.9, 713.5 273.9 Q 712.7 273.9, 712.1 274.3 Q 711.5 274.8, 711.3 275.6 L 711.3 279.8 Q 712.1 280.0, 713.0 280.0 " fill="#000000"/>
<path class="legend" d="M 718.8 268.9 L 720.2 268.9 L 720.2 281.1 L 718.8 281.1 L 718.8 268.9 " fill="#000000"/>
<path class="legend" d="M 722.4 276.9 Q 722.4 274.9, 723.4 273.8 Q 724.4 272.7, 726.2 272.7 Q 728.0 272.7, 728.8 273.8 Q 729.7 274.9, 729.7 276.9 L 729.7 277.1 L 723.9 277.1 Q 723.9 278.5, 724.6 279.3 Q 725.2 280.0, 726.4 280.0 Q 727.0 280.0, 727.6 279.9 Q 728.2 279.7, 728.9 279.4 L 729.3 280.4 Q 728.5 280.8, 727.8 281.0 Q 727.0 281.2, 726.3 281.2 Q 724.4 281.2, 723.4 280.1 Q 722.4 279.0, 722.4 276.9 M 726.2 273.9 Q 725.3 273.9, 724.7 274.4 Q 724.2 275.0, 724.0 276.0 L 728.1 276.0 Q 728.0 274.9, 727.5 274.4 Q 727.1 273.9, 726.2 273.9 " fill="#000000"/>
<path class="legend" d="M 737.4 272.8 L 738.8 272.8 L 734.6 285.0 L 733.2 285.0 L 734.6 281.1 L 733.9 281.1 L 731.0 272.8 L 732.6 272.8 L 735.0 279.8 L 737.4 272.8 " fill="#000000"/>
<path class="legend" d="M 747.9 281.9 L 747.9 283.2 L 739.7 283.2 L 739.7 281.9 L 747.9 281.9 " fill="#000000"/>
<path class="legend" d="M 748.7 271.9 Q 749.1 270.8, 750.1 270.2 Q 751.1 269.6, 752.5 269.6 Q 754.2 269.6, 755.2 270.5 Q 756.1 271.5, 756.1 273.1 Q 756.1 274.8, 754.9 276.4 Q 753.6 277.9, 751.1 279.8 L 756.3 279.8 L 756.3 281.1 L 748.7 281.1 L 748.7 280.0 Q 750.8 278.5, 752.0 277.4 Q 753.3 276.2, 753.9 275.2 Q 754.5 274.2, 754.5 273.2 Q 754.5 272.1, 754.0 271.5 Q 753.4 270.9, 752.5 270.9 Q 751.6 270.9, 751.0 271.3 Q 750.4 271.6, 749.9 272.4 L 748.7 271.9 " fill="#000000"/>
<path class="legend" d="M 763.8 275.1 Q 764.8 275.5, 765.4 276.2 Q 766.0 276.8, 766.0 278.0 Q 766.0 278.9, 765.5 279.7 Q 765.0 280.4, 764.1 280.8 Q 763.3 281.2, 762.1 281.2 Q 760.2 281.2, 759.1 280.4 Q 758.0 279.5, 758.0 278.0 Q 758.0 277.0, 758.5 276.3 Q 759.0 275.6, 760.0 275.1 Q 759.2 274.7, 758.8 274.1 Q 758.4 273.5, 758.4 272.5 Q 758.4 271.2, 759.4 270.4 Q 760.4 269.6, 762.0 269.6 Q 763.7 269.6, 764.6 270.4 Q 765.6 271.2, 765.6 272.5 Q 765.6 273.3, 765.1 274.0 Q 764.7 274.6, 763.8 275.1 M 762.0 270.8 Q 761.1 270.8, 760.6 271.3 Q 760.0 271.7, 760.0 272.5 Q 760.0 273.1, 760.4 273.5 Q 760.7 273.9, 761.2 274.1 Q 761.8 274.3, 762.7 274.7 Q 763.4 274.2, 763.7 273.7 Q 764.0 273.2, 764.0 272.5 Q 764.0 271.7, 763.5 271.3 Q 763.0 270.8, 762.0 270.8 M 762.1 280.0 Q 763.1 280.0, 763.8 279.5 Q 764.4 278.9, 764.4 277.9 Q 764.4 277.3, 764.1 277.0 Q 763.8 276.6, 763.2 276.3 Q 762.7 276.1, 761.9 275.8 L 761.1 275.6 Q 760.3 276.1, 760.0 276.6 Q 759.6 277.2, 759.6 277.9 Q 759.6 278.9, 760.3 279.5 Q 761.0 280.0, 762.1 280.0 " fill="#000000"/>
<path class="legend" d="M 771.9 274.0 Q 772.9 274.0, 773.7 274.4 Q 774.5 274.8, 775.0 275.6 Q 775.5 276.4, 775.5 277.5 Q 775.5 278.6, 774.9 279.5 Q 774.3 280.3, 773.4 280.8 Q 772.5 281.2, 771.4 281.2 Q 770.4 281.2, 769.4 280.8 Q 768.5 280.4, 767.8 279.7 L 768.8 278.7 Q 769.3 279.3, 770.0 279.6 Q 770.7 279.9, 771.5 279.9 Q 772.5 279.9, 773.2 279.3 Q 773.9 278.6, 773.9 277.5 Q 773.9 276.3, 773.2 275.8 Q 772.5 275.2, 771.4 275.2 Q 770.4 275.2, 769.3 275.6 L 768.4 275.2 L 768.9 269.7 L 774.8 269.7 L 774.6 271.0 L 770.2 271.0 L 769.9 274.4 Q 770.9 274.0, 771.9 274.0 " fill="#000000"/>
<path class="legend" d="M 781.1 281.2 Q 779.1 281.2, 778.0 279.7 Q 777.0 278.1, 777.0 275.4 Q 777.0 272.6, 778.0 271.1 Q 779.0 269.6, 781.1 269.6 Q 783.2 269.6, 784.3 271.1 Q 785.3 272.6, 785.3 275.4 Q 785.3 278.1, 784.2 279.7 Q 783.2 281.2, 781.1 281.2 M 781.1 279.9 Q 782.4 279.9, 783.0 278.8 Q 783.7 277.6, 783.7 275.4 Q 783.7 273.2, 783.0 272.0 Q 782.4 270.9, 781.1 270.9 Q 779.9 270.9, 779.3 272.0 Q 778.6 273.2, 778.6 275.4 Q 778.6 277.6, 779.3 278.8 Q 779.9 279.9, 781.1 279.9 " fill="#000000"/>
<path class="legend" d="M 792.9 275.1 Q 793.9 275.5, 794.5 276.2 Q 795.1 276.8, 795.1 278.0 Q 795.1 278.9, 794.6 279.7 Q 794.1 280.4, 793.2 280.8 Q 792.3 281.2, 791.2 281.2 Q 789.3 281.2, 788.2 280.4 Q 787.1 279.5, 787.1 278.0 Q 787.1 277.0, 787.6 276.3 Q 788.1 275.6, 789.0 275.1 Q 788.3 274.7, 787.9 274.1 Q 787.5 273.5, 787.5 272.5 Q 787.5 271.2, 788.5 270.4 Q 789.4 269.6, 791.1 269.6 Q 792.7 269.6, 793.7 270.4 Q 794.7 271.2, 794.7 272.5 Q 794.7 273.3, 794.2 274.0 Q 793.8 274.6, 792.9 275.1 M 791.1 270.8 Q 790.1 270.8, 789.6 271.3 Q 789.1 271.7, 789.1 272.5 Q 789.1 273.1, 789.5 273.5 Q 789.8 273.9, 790.3 274.1 Q 790.8 274.3, 791.8 274.7 Q 792.5 274.2, 792.8 273.7 Q 793.1 273.2, 793.1 272.5 Q 793.1 271.7, 792.5 271.3 Q 792.0 270.8, 791.1 270.8 M 791.2 280.0 Q 792.2 280.0, 792.9 279.5 Q 793.5 278.9, 793.5 277.9 Q 793.5 277.3, 793.2 277.0 Q 792.8 276.6, 792.3 276.3 Q 791.8 276.1, 790.9 275.8 L 790.2 275.6 Q 789.4 276.1, 789.0 276.6 Q 788.7 277.2, 788.7 277.9 Q 788.7 278.9, 789.4 279.5 Q 790.0 280.0, 791.2 280.0 " fill="#000000"/>
<path class="legend" d="M 802.3 275.1 Q 803.4 275.4, 803.9 276.1 Q 804.5 276.8, 804.5 278.0 Q 804.5 278.9, 804.0 279.7 Q 803.5 280.4, 802.6 280.8 Q 801.8 281.2, 800.6 281.2 Q 799.4 281.2, 798.5 280.8 Q 797.6 280.4, 796.9 279.5 L 797.8 278.6 Q 798.5 279.4, 799.1 279.7 Q 799.7 279.9, 800.6 279.9 Q 801.6 279.9, 802.3 279.4 Q 802.9 278.8, 802.9 277.9 Q 802.9 276.8, 802.2 276.3 Q 801.6 275.8, 800.2 275.8 L 799.4 275.8 L 799.4 274.6 L 800.1 274.6 Q 801.3 274.6, 802.0 274.1 Q 802.6 273.5, 802.6 272.5 Q 802.6 271.8, 802.1 271.3 Q 801.6 270.9, 800.6 270.9 Q 799.7 270.9, 799.1 271.2 Q 798.5 271.6, 798.1 272.4 L 797.0 271.8 Q 797.4 270.9, 798.3 270.2 Q 799.3 269.6, 800.6 269.6 Q 802.3 269.6, 803.3 270.4 Q 804.2 271.2, 804.2 272.5 Q 804.2 273.4, 803.7 274.1 Q 803.2 274.7, 802.3 275.1 " fill="#000000"/>
<path class="legend" d="M 811.6 275.1 Q 812.7 275.4, 813.3 276.1 Q 813.8 276.8, 813.8 278.0 Q 813.8 278.9, 813.3 279.7 Q 812.8 280.4, 812.0 280.8 Q 811.1 281.2, 809.9 281.2 Q 808.7 281.2, 807.8 280.8 Q 806.9 280.4, 806.2 279.5 L 807.1 278.6 Q 807.8 279.4, 808.4 279.7 Q 809.0 279.9, 809.9 279.9 Q 811.0 279.9, 811.6 279.4 Q 812.2 278.8, 812.2 277.9 Q 812.2 276.8, 811.5 276.3 Q 810.9 275.8, 809.5 275.8 L 808.7 275.8 L 808.7 274.6 L 809.4 274.6 Q 810.7 274.6, 811.3 274.1 Q 812.0 273.5, 812.0 272.5 Q 812.0 271.8, 811.4 271.3 Q 810.9 270.9, 809.9 270.9 Q 809.0 270.9, 808.4 271.2 Q 807.8 271.6, 807.4 272.4 L 806.3 271.8 Q 806.7 270.9, 807.6 270.2 Q 808.6 269.6, 809.9 269.6 Q 811.6 269.6, 812.6 270.4 Q 813.6 271.2, 813.6 272.5 Q 813.6 273.4, 813.1 274.1 Q 812.6 274.7, 811.6 275.1 " fill="#000000"/>
<path class="bond-0 atom-0 atom-1" d="M 1016.4,169.8 L 1050.4,150.2" style="fill:none;fill-rule:evenodd;stroke:#000000;stroke-width:3.0px;stroke-linecap:butt;stroke-linejoin:miter;stroke-opacity:1"/>
<path class="bond-1 atom-1 atom-2" d="M 1050.4,150.2 L 1084.3,169.8" style="fill:none;fill-rule:evenodd;stroke:#000000;stroke-width:3.0px;stroke-linecap:butt;stroke-linejoin:miter;stroke-opacity:1"/>
<path class="bond-2 atom-2 atom-3" d="M 1084.3,169.8 L 1097.1,162.5" style="fill:none;fill-rule:evenodd;stroke:#000000;stroke-width:3.0px;stroke-linecap:butt;stroke-linejoin:miter;stroke-opacity:1"/>
<path class="bond-2 atom-2 atom-3" d="M 1097.1,162.5 L 1109.8,155.1" style="fill:none;fill-rule:evenodd;stroke:#FF0000;stroke-width:3.0px;stroke-linecap:butt;stroke-linejoin:miter;stroke-opacity:1"/>
<path class="bond-3 atom-1 atom-4" d="M 1050.4,150.2 L 1050.4,135.3" style="fill:none;fill-rule:evenodd;stroke:#000000;stroke-width:3.0px;stroke-linecap:butt;stroke-linejoin:miter;stroke-opacity:1"/>
<path class="bond-3 atom-1 atom-4" d="M 1050.4,135.3 L 1050.4,120.4" style="fill:none;fill-rule:evenodd;stroke:#FF0000;stroke-width:3.0px;stroke-linecap:butt;stroke-linejoin:miter;stroke-opacity:1"/>
<path class="bond-4 atom-0 atom-5" d="M 1016.4,169.8 L 1003.7,162.5" style="fill:none;fill-rule:evenodd;stroke:#000000;stroke-width:3.0px;stroke-linecap:butt;stroke-linejoin:miter;stroke-opacity:1"/>
<path class="bond-4 atom-0 atom-5" d="M 1003.7,162.5 L 990.9,155.1" style="fill:none;fill-rule:evenodd;stroke:#FF0000;stroke-width:3.0px;stroke-linecap:butt;stroke-linejoin:miter;stroke-opacity:1"/>
<path d="M 1018.1,168.9 L 1016.4,169.8 L 1015.8,169.5" style="fill:none;stroke:#000000;stroke-width:3.0px;stroke-linecap:butt;stroke-linejoin:miter;stroke-opacity:1;"/>
<path d="M 1082.6,168.9 L 1084.3,169.8 L 1085.0,169.5" style="fill:none;stroke:#000000;stroke-width:3.0px;stroke-linecap:butt;stroke-linejoin:miter;stroke-opacity:1;"/>
<path class="atom-3" d="M 1111.1 150.3 Q 1111.1 146.5, 1113.0 144.5 Q 1114.8 142.4, 1118.3 142.4 Q 1121.7 142.4, 1123.6 144.5 Q 1125.4 146.5, 1125.4 150.3 Q 1125.4 154.1, 1123.6 156.2 Q 1121.7 158.4, 1118.3 158.4 Q 1114.9 158.4, 1113.0 156.2 Q 1111.1 154.1, 1111.1 150.3 M 1118.3 156.6 Q 1120.7 156.6, 1121.9 155.0 Q 1123.2 153.4, 1123.2 150.3 Q 1123.2 147.2, 1121.9 145.7 Q 1120.7 144.1, 1118.3 144.1 Q 1115.9 144.1, 1114.6 145.7 Q 1113.3 147.2, 1113.3 150.3 Q 1113.3 153.4, 1114.6 155.0 Q 1115.9 156.6, 1118.3 156.6 " fill="#FF0000"/>
<path class="atom-3" d="M 1127.9 142.5 L 1130.0 142.5 L 1130.0 149.2 L 1137.9 149.2 L 1137.9 142.5 L 1140.1 142.5 L 1140.1 158.1 L 1137.9 158.1 L 1137.9 150.9 L 1130.0 150.9 L 1130.0 158.1 L 1127.9 158.1 L 1127.9 142.5 " fill="#FF0000"/>
<path class="atom-4" d="M 1043.2 111.1 Q 1043.2 107.3, 1045.1 105.2 Q 1046.9 103.2, 1050.4 103.2 Q 1053.8 103.2, 1055.7 105.2 Q 1057.5 107.3, 1057.5 111.1 Q 1057.5 114.9, 1055.7 117.0 Q 1053.8 119.2, 1050.4 119.2 Q 1047.0 119.2, 1045.1 117.0 Q 1043.2 114.9, 1043.2 111.1 M 1050.4 117.4 Q 1052.8 117.4, 1054.0 115.8 Q 1055.3 114.2, 1055.3 111.1 Q 1055.3 108.0, 1054.0 106.5 Q 1052.8 104.9, 1050.4 104.9 Q 1048.0 104.9, 1046.7 106.5 Q 1045.4 108.0, 1045.4 111.1 Q 1045.4 114.2, 1046.7 115.8 Q 1048.0 117.4, 1050.4 117.4 " fill="#FF0000"/>
<path class="atom-4" d="M 1060.0 103.3 L 1062.1 103.3 L 1062.1 110.0 L 1070.0 110.0 L 1070.0 103.3 L 1072.1 103.3 L 1072.1 118.9 L 1070.0 118.9 L 1070.0 111.7 L 1062.1 111.7 L 1062.1 118.9 L 1060.0 118.9 L 1060.0 103.3 " fill="#FF0000"/>
<path class="atom-5" d="M 959.9 142.5 L 962.1 142.5 L 962.1 149.2 L 970.0 149.2 L 970.0 142.5 L 972.1 142.5 L 972.1 158.1 L 970.0 158.1 L 970.0 150.9 L 962.1 150.9 L 962.1 158.1 L 959.9 158.1 L 959.9 142.5 " fill="#FF0000"/>
<path class="atom-5" d="M 975.3 150.3 Q 975.3 146.5, 977.2 144.5 Q 979.0 142.4, 982.5 142.4 Q 985.9 142.4, 987.8 144.5 Q 989.6 146.5, 989.6 150.3 Q 989.6 154.1, 987.8 156.2 Q 985.9 158.4, 982.5 158.4 Q 979.0 158.4, 977.2 156.2 Q 975.3 154.1, 975.3 150.3 M 982.5 156.6 Q 984.9 156.6, 986.1 155.0 Q 987.4 153.4, 987.4 150.3 Q 987.4 147.2, 986.1 145.7 Q 984.9 144.1, 982.5 144.1 Q 980.1 144.1, 978.8 145.7 Q 977.5 147.2, 977.5 150.3 Q 977.5 153.4, 978.8 155.0 Q 980.1 156.6, 982.5 156.6 " fill="#FF0000"/>
<path class="legend" d="M 996.9 272.7 Q 998.3 272.7, 999.0 273.4 Q 999.7 274.2, 999.7 275.6 L 999.7 281.1 L 998.2 281.1 L 998.2 275.7 Q 998.2 274.8, 997.8 274.3 Q 997.4 273.9, 996.6 273.9 Q 995.9 273.9, 995.2 274.2 Q 994.6 274.6, 994.3 275.2 Q 994.3 275.3, 994.3 275.6 L 994.3 281.1 L 992.8 281.1 L 992.8 275.7 Q 992.8 274.8, 992.4 274.3 Q 992.0 273.9, 991.2 273.9 Q 990.5 273.9, 989.9 274.2 Q 989.2 274.6, 988.9 275.2 L 988.9 281.1 L 987.4 281.1 L 987.4 272.8 L 988.6 272.8 L 988.8 274.0 Q 989.8 272.7, 991.5 272.7 Q 993.4 272.7, 994.0 274.1 Q 995.1 272.7, 996.9 272.7 " fill="#000000"/>
<path class="legend" d="M 1001.7 276.9 Q 1001.7 274.9, 1002.7 273.8 Q 1003.7 272.7, 1005.6 272.7 Q 1007.4 272.7, 1008.4 273.8 Q 1009.5 274.9, 1009.5 276.9 Q 1009.5 278.9, 1008.4 280.1 Q 1007.4 281.2, 1005.6 281.2 Q 1003.7 281.2, 1002.7 280.1 Q 1001.7 278.9, 1001.7 276.9 M 1003.2 276.9 Q 1003.2 278.4, 1003.8 279.2 Q 1004.4 280.0, 1005.6 280.0 Q 1006.7 280.0, 1007.3 279.2 Q 1007.9 278.4, 1007.9 276.9 Q 1007.9 275.4, 1007.3 274.7 Q 1006.7 273.9, 1005.6 273.9 Q 1004.4 273.9, 1003.8 274.7 Q 1003.2 275.4, 1003.2 276.9 " fill="#000000"/>
<path class="legend" d="M 1014.8 272.7 Q 1016.5 272.7, 1017.4 273.8 Q 1018.4 274.8, 1018.4 276.8 Q 1018.4 278.9, 1017.3 280.0 Q 1016.1 281.2, 1014.2 281.2 Q 1012.9 281.2, 1011.7 280.7 L 1010.9 280.5 L 1010.9 268.9 L 1012.5 268.9 L 1012.5 273.7 Q 1013.3 272.7, 1014.8 272.7 M 1014.2 280.0 Q 1015.4 280.0, 1016.1 279.2 Q 1016.9 278.3, 1016.9 276.8 Q 1016.9 275.4, 1016.3 274.6 Q 1015.7 273.9, 1014.7 273.9 Q 1013.9 273.9, 1013.3 274.3 Q 1012.7 274.8, 1012.5 275.6 L 1012.5 279.8 Q 1013.3 280.0, 1014.2 280.0 " fill="#000000"/>
<path class="legend" d="M 1019.9 268.9 L 1021.4 268.9 L 1021.4 281.1 L 1019.9 281.1 L 1019.9 268.9 " fill="#000000"/>
<path class="legend" d="M 1023.5 276.9 Q 1023.5 274.9, 1024.5 273.8 Q 1025.5 272.7, 1027.3 272.7 Q 1029.2 272.7, 1030.0 273.8 Q 1030.8 274.9, 1030.8 276.9 L 1030.8 277.1 L 1025.0 277.1 Q 1025.1 278.5, 1025.7 279.3 Q 1026.3 280.0, 1027.5 280.0 Q 1028.1 280.0, 1028.7 279.9 Q 1029.3 279.7, 1030.0 279.4 L 1030.5 280.4 Q 1029.6 280.8, 1028.9 281.0 Q 1028.2 281.2, 1027.4 281.2 Q 1025.5 281.2, 1024.5 280.1 Q 1023.5 279.0, 1023.5 276.9 M 1027.3 273.9 Q 1026.4 273.9, 1025.8 274.4 Q 1025.3 275.0, 1025.1 276.0 L 1029.2 276.0 Q 1029.1 274.9, 1028.6 274.4 Q 1028.2 273.9, 1027.3 273.9 " fill="#000000"/>
<path class="legend" d="M 1038.5 272.8 L 1039.9 272.8 L 1035.7 285.0 L 1034.3 285.0 L 1035.7 281.1 L 1035.0 281.1 L 1032.1 272.8 L 1033.7 272.8 L 1036.1 279.8 L 1038.5 272.8 " fill="#000000"/>
<path class="legend" d="M 1049.0 281.9 L 1049.0 283.2 L 1040.8 283.2 L 1040.8 281.9 L 1049.0 281.9 " fill="#000000"/>
<path class="legend" d="M 1055.2 275.1 Q 1056.3 275.4, 1056.8 276.1 Q 1057.4 276.8, 1057.4 278.0 Q 1057.4 278.9, 1056.9 279.7 Q 1056.4 280.4, 1055.5 280.8 Q 1054.6 281.2, 1053.5 281.2 Q 1052.3 281.2, 1051.4 280.8 Q 1050.5 280.4, 1049.8 279.5 L 1050.7 278.6 Q 1051.4 279.4, 1052.0 279.7 Q 1052.6 279.9, 1053.5 279.9 Q 1054.5 279.9, 1055.1 279.4 Q 1055.8 278.8, 1055.8 277.9 Q 1055.8 276.8, 1055.1 276.3 Q 1054.5 275.8, 1053.1 275.8 L 1052.3 275.8 L 1052.3 274.6 L 1053.0 274.6 Q 1054.2 274.6, 1054.9 274.1 Q 1055.5 273.5, 1055.5 272.5 Q 1055.5 271.8, 1055.0 271.3 Q 1054.4 270.9, 1053.5 270.9 Q 1052.6 270.9, 1052.0 271.2 Q 1051.4 271.6, 1051.0 272.4 L 1049.8 271.8 Q 1050.2 270.9, 1051.2 270.2 Q 1052.2 269.6, 1053.5 269.6 Q 1055.2 269.6, 1056.2 270.4 Q 1057.1 271.2, 1057.1 272.5 Q 1057.1 273.4, 1056.6 274.1 Q 1056.1 274.7, 1055.2 275.1 " fill="#000000"/>
<path class="legend" d="M 1059.1 271.9 Q 1059.5 270.8, 1060.5 270.2 Q 1061.5 269.6, 1062.9 269.6 Q 1064.6 269.6, 1065.5 270.5 Q 1066.5 271.5, 1066.5 273.1 Q 1066.5 274.8, 1065.3 276.4 Q 1064.0 277.9, 1061.5 279.8 L 1066.7 279.8 L 1066.7 281.1 L 1059.1 281.1 L 1059.1 280.0 Q 1061.2 278.5, 1062.4 277.4 Q 1063.7 276.2, 1064.3 275.2 Q 1064.9 274.2, 1064.9 273.2 Q 1064.9 272.1, 1064.4 271.5 Q 1063.8 270.9, 1062.9 270.9 Q 1062.0 270.9, 1061.4 271.3 Q 1060.7 271.6, 1060.3 272.4 L 1059.1 271.9 " fill="#000000"/>
<path class="legend" d="M 1072.5 274.0 Q 1073.5 274.0, 1074.3 274.4 Q 1075.1 274.8, 1075.6 275.6 Q 1076.1 276.4, 1076.1 277.5 Q 1076.1 278.6, 1075.5 279.5 Q 1074.9 280.3, 1074.0 280.8 Q 1073.1 281.2, 1072.0 281.2 Q 1071.0 281.2, 1070.0 280.8 Q 1069.1 280.4, 1068.4 279.7 L 1069.4 278.7 Q 1069.9 279.3, 1070.6 279.6 Q 1071.3 279.9, 1072.1 279.9 Q 1073.1 279.9, 1073.8 279.3 Q 1074.5 278.6, 1074.5 277.5 Q 1074.5 276.3, 1073.8 275.8 Q 1073.1 275.2, 1072.0 275.2 Q 1071.0 275.2, 1069.9 275.6 L 1069.0 275.2 L 1069.5 269.7 L 1075.4 269.7 L 1075.2 271.0 L 1070.9 271.0 L 1070.5 274.4 Q 1071.5 274.0, 1072.5 274.0 " fill="#000000"/>
<path class="legend" d="M 1081.4 269.6 Q 1083.4 269.6, 1084.4 271.0 Q 1085.5 272.3, 1085.5 275.1 Q 1085.5 278.1, 1084.2 279.6 Q 1082.9 281.2, 1080.5 281.2 Q 1079.8 281.2, 1079.2 281.0 Q 1078.6 280.9, 1078.0 280.5 L 1078.7 279.5 Q 1079.5 279.9, 1080.5 279.9 Q 1082.1 279.9, 1082.9 278.9 Q 1083.7 277.8, 1083.8 275.7 Q 1083.3 276.2, 1082.5 276.5 Q 1081.8 276.8, 1081.0 276.8 Q 1080.0 276.8, 1079.2 276.4 Q 1078.5 275.9, 1078.0 275.2 Q 1077.6 274.4, 1077.6 273.4 Q 1077.6 272.3, 1078.1 271.4 Q 1078.6 270.6, 1079.4 270.1 Q 1080.3 269.6, 1081.4 269.6 M 1079.2 273.4 Q 1079.2 274.4, 1079.8 275.0 Q 1080.3 275.5, 1081.3 275.5 Q 1082.0 275.5, 1082.7 275.3 Q 1083.4 275.0, 1083.8 274.5 Q 1083.8 272.6, 1083.2 271.8 Q 1082.6 270.9, 1081.4 270.9 Q 1080.8 270.9, 1080.3 271.2 Q 1079.8 271.6, 1079.5 272.1 Q 1079.2 272.7, 1079.2 273.4 " fill="#000000"/>
<path class="legend" d="M 1094.7 277.2 L 1096.0 277.2 L 1096.0 278.5 L 1094.7 278.5 L 1094.7 281.1 L 1093.1 281.1 L 1093.1 278.5 L 1087.3 278.5 L 1087.3 277.4 L 1092.3 269.7 L 1094.7 269.7 L 1094.7 277.2 M 1089.1 277.2 L 1093.1 277.2 L 1093.1 270.8 L 1089.1 277.2 " fill="#000000"/>
<path class="legend" d="M 1098.2 279.8 L 1100.7 279.8 L 1100.7 271.3 L 1097.9 272.2 L 1097.5 271.2 L 1101.0 269.7 L 1102.2 269.9 L 1102.2 279.8 L 1104.4 279.8 L 1104.4 281.1 L 1098.2 281.1 L 1098.2 279.8 " fill="#000000"/>
<path class="legend" d="M 1106.4 279.8 L 1108.9 279.8 L 1108.9 271.3 L 1106.2 272.2 L 1105.8 271.2 L 1109.3 269.7 L 1110.4 269.9 L 1110.4 279.8 L 1112.6 279.8 L 1112.6 281.1 L 1106.4 281.1 L 1106.4 279.8 " fill="#000000"/>
<path class="bond-0 atom-0 atom-1" d="M 1433.8,117.8 L 1402.1,140.8" style="fill:none;fill-rule:evenodd;stroke:#000000;stroke-width:3.0px;stroke-linecap:butt;stroke-linejoin:miter;stroke-opacity:1"/>
<path class="bond-1 atom-1 atom-2" d="M 1402.1,140.8 L 1366.2,124.9" style="fill:none;fill-rule:evenodd;stroke:#000000;stroke-width:3.0px;stroke-linecap:butt;stroke-linejoin:miter;stroke-opacity:1"/>
<path class="bond-2 atom-2 atom-3" d="M 1366.2,124.9 L 1334.5,147.9" style="fill:none;fill-rule:evenodd;stroke:#000000;stroke-width:3.0px;stroke-linecap:butt;stroke-linejoin:miter;stroke-opacity:1"/>
<path class="bond-3 atom-3 atom-4" d="M 1334.5,147.9 L 1298.7,132.0" style="fill:none;fill-rule:evenodd;stroke:#000000;stroke-width:3.0px;stroke-linecap:butt;stroke-linejoin:miter;stroke-opacity:1"/>
<path class="bond-4 atom-4 atom-5" d="M 1298.7,132.0 L 1267.0,155.0" style="fill:none;fill-rule:evenodd;stroke:#000000;stroke-width:3.0px;stroke-linecap:butt;stroke-linejoin:miter;stroke-opacity:1"/>
<path class="bond-5 atom-5 atom-6" d="M 1267.0,155.0 L 1253.3,148.9" style="fill:none;fill-rule:evenodd;stroke:#000000;stroke-width:3.0px;stroke-linecap:butt;stroke-linejoin:miter;stroke-opacity:1"/>
<path class="bond-5 atom-5 atom-6" d="M 1253.3,148.9 L 1239.6,142.8" style="fill:none;fill-rule:evenodd;stroke:#FF0000;stroke-width:3.0px;stroke-linecap:butt;stroke-linejoin:miter;stroke-opacity:1"/>
<path class="bond-6 atom-4 atom-7" d="M 1298.7,132.0 L 1295.8,118.0 L 1298.7,117.7 Z" style="fill:#000000;fill-rule:evenodd;fill-opacity:1;stroke:#000000;stroke-width:0.8px;stroke-linecap:butt;stroke-linejoin:miter;stroke-opacity:1;"/>
<path class="bond-6 atom-4 atom-7" d="M 1295.8,118.0 L 1298.7,103.4 L 1292.8,104.0 Z" style="fill:#FF0000;fill-rule:evenodd;fill-opacity:1;stroke:#FF0000;stroke-width:0.8px;stroke-linecap:butt;stroke-linejoin:miter;stroke-opacity:1;"/>
<path class="bond-6 atom-4 atom-7" d="M 1295.8,118.0 L 1298.7,117.7 L 1298.7,103.4 Z" style="fill:#FF0000;fill-rule:evenodd;fill-opacity:1;stroke:#FF0000;stroke-width:0.8px;stroke-linecap:butt;stroke-linejoin:miter;stroke-opacity:1;"/>
<path class="bond-7 atom-3 atom-8" d="M 1335.4,151.9 L 1334.5,152.0" style="fill:none;fill-rule:evenodd;stroke:#000000;stroke-width:1.5px;stroke-linecap:butt;stroke-linejoin:miter;stroke-opacity:1"/>
<path class="bond-7 atom-3 atom-8" d="M 1336.2,156.0 L 1334.5,156.1" style="fill:none;fill-rule:evenodd;stroke:#000000;stroke-width:1.5px;stroke-linecap:butt;stroke-linejoin:miter;stroke-opacity:1"/>
<path class="bond-7 atom-3 atom-8" d="M 1337.1,160.0 L 1334.6,160.3" style="fill:none;fill-rule:evenodd;stroke:#000000;stroke-width:1.5px;stroke-linecap:butt;stroke-linejoin:miter;stroke-opacity:1"/>
<path class="bond-7 atom-3 atom-8" d="M 1337.9,164.0 L 1334.6,164.4" style="fill:none;fill-rule:evenodd;stroke:#FF0000;stroke-width:1.5px;stroke-linecap:butt;stroke-linejoin:miter;stroke-opacity:1"/>
<path class="bond-7 atom-3 atom-8" d="M 1338.8,168.1 L 1334.6,168.5" style="fill:none;fill-rule:evenodd;stroke:#FF0000;stroke-width:1.5px;stroke-linecap:butt;stroke-linejoin:miter;stroke-opacity:1"/>
<path class="bond-7 atom-3 atom-8" d="M 1339.6,172.1 L 1334.6,172.6" style="fill:none;fill-rule:evenodd;stroke:#FF0000;stroke-width:1.5px;stroke-linecap:butt;stroke-linejoin:miter;stroke-opacity:1"/>
<path class="bond-7 atom-3 atom-8" d="M 1340.5,176.1 L 1334.6,176.7" style="fill:none;fill-rule:evenodd;stroke:#FF0000;stroke-width:1.5px;stroke-linecap:butt;stroke-linejoin:miter;stroke-opacity:1"/>
<path class="bond-8 atom-2 atom-9" d="M 1365.4,120.9 L 1366.2,120.8" style="fill:none;fill-rule:evenodd;stroke:#000000;stroke-width:1.5px;stroke-linecap:butt;stroke-linejoin:miter;stroke-opacity:1"/>
<path class="bond-8 atom-2 atom-9" d="M 1364.6,116.9 L 1366.2,116.7" style="fill:none;fill-rule:evenodd;stroke:#000000;stroke-width:1.5px;stroke-linecap:butt;stroke-linejoin:miter;stroke-opacity:1"/>
<path class="bond-8 atom-2 atom-9" d="M 1363.7,112.9 L 1366.2,112.6" style="fill:none;fill-rule:evenodd;stroke:#000000;stroke-width:1.5px;stroke-linecap:butt;stroke-linejoin:miter;stroke-opacity:1"/>
<path class="bond-8 atom-2 atom-9" d="M 1362.9,108.9 L 1366.2,108.5" style="fill:none;fill-rule:evenodd;stroke:#FF0000;stroke-width:1.5px;stroke-linecap:butt;stroke-linejoin:miter;stroke-opacity:1"/>
<path class="bond-8 atom-2 atom-9" d="M 1362.0,104.9 L 1366.2,104.4" style="fill:none;fill-rule:evenodd;stroke:#FF0000;stroke-width:1.5px;stroke-linecap:butt;stroke-linejoin:miter;stroke-opacity:1"/>
<path class="bond-8 atom-2 atom-9" d="M 1361.2,100.9 L 1366.2,100.3" style="fill:none;fill-rule:evenodd;stroke:#FF0000;stroke-width:1.5px;stroke-linecap:butt;stroke-linejoin:miter;stroke-opacity:1"/>
<path class="bond-8 atom-2 atom-9" d="M 1360.3,96.9 L 1366.2,96.3" style="fill:none;fill-rule:evenodd;stroke:#FF0000;stroke-width:1.5px;stroke-linecap:butt;stroke-linejoin:miter;stroke-opacity:1"/>
<path class="bond-9 atom-1 atom-10" d="M 1402.1,140.8 L 1405.0,154.9 L 1402.1,155.2 Z" style="fill:#000000;fill-rule:evenodd;fill-opacity:1;stroke:#000000;stroke-width:0.8px;stroke-linecap:butt;stroke-linejoin:miter;stroke-opacity:1;"/>
<path class="bond-9 atom-1 atom-10" d="M 1405.0,154.9 L 1402.1,169.6 L 1408.0,169.0 Z" style="fill:#FF0000;fill-rule:evenodd;fill-opacity:1;stroke:#FF0000;stroke-width:0.8px;stroke-linecap:butt;stroke-linejoin:miter;stroke-opacity:1;"/>
<path class="bond-9 atom-1 atom-10" d="M 1405.0,154.9 L 1402.1,155.2 L 1402.1,169.6 Z" style="fill:#FF0000;fill-rule:evenodd;fill-opacity:1;stroke:#FF0000;stroke-width:0.8px;stroke-linecap:butt;stroke-linejoin:miter;stroke-opacity:1;"/>
<path class="bond-10 atom-0 atom-11" d="M 1433.8,117.8 L 1447.5,123.8" style="fill:none;fill-rule:evenodd;stroke:#000000;stroke-width:3.0px;stroke-linecap:butt;stroke-linejoin:miter;stroke-opacity:1"/>
<path class="bond-10 atom-0 atom-11" d="M 1447.5,123.8 L 1461.2,129.9" style="fill:none;fill-rule:evenodd;stroke:#FF0000;stroke-width:3.0px;stroke-linecap:butt;stroke-linejoin:miter;stroke-opacity:1"/>
<path d="M 1432.2,118.9 L 1433.8,117.8 L 1434.5,118.1" style="fill:none;stroke:#000000;stroke-width:3.0px;stroke-linecap:butt;stroke-linejoin:miter;stroke-opacity:1;"/>
<path d="M 1403.6,139.6 L 1402.1,140.8 L 1400.3,140.0" style="fill:none;stroke:#000000;stroke-width:3.0px;stroke-linecap:butt;stroke-linejoin:miter;stroke-opacity:1;"/>
<path d="M 1368.0,125.7 L 1366.2,124.9 L 1364.7,126.0" style="fill:none;stroke:#000000;stroke-width:3.0px;stroke-linecap:butt;stroke-linejoin:miter;stroke-opacity:1;"/>
<path d="M 1336.1,146.8 L 1334.5,147.9 L 1332.7,147.1" style="fill:none;stroke:#000000;stroke-width:3.0px;stroke-linecap:butt;stroke-linejoin:miter;stroke-opacity:1;"/>
<path d="M 1300.5,132.8 L 1298.7,132.0 L 1297.1,133.1" style="fill:none;stroke:#000000;stroke-width:3.0px;stroke-linecap:butt;stroke-linejoin:miter;stroke-opacity:1;"/>
<path d="M 1268.6,153.9 L 1267.0,155.0 L 1266.3,154.7" style="fill:none;stroke:#000000;stroke-width:3.0px;stroke-linecap:butt;stroke-linejoin:miter;stroke-opacity:1;"/>
<path class="atom-6" d="M 1208.6 131.4 L 1210.8 131.4 L 1210.8 138.0 L 1218.7 138.0 L 1218.7 131.4 L 1220.8 131.4 L 1220.8 146.9 L 1218.7 146.9 L 1218.7 139.7 L 1210.8 139.7 L 1210.8 146.9 L 1208.6 146.9 L 1208.6 131.4 " fill="#FF0000"/>
<path class="atom-6" d="M 1224.0 139.1 Q 1224.0 135.4, 1225.9 133.3 Q 1227.7 131.2, 1231.2 131.2 Q 1234.6 131.2, 1236.5 133.3 Q 1238.3 135.4, 1238.3 139.1 Q 1238.3 142.9, 1236.5 145.0 Q 1234.6 147.2, 1231.2 147.2 Q 1227.7 147.2, 1225.9 145.0 Q 1224.0 142.9, 1224.0 139.1 M 1231.2 145.4 Q 1233.5 145.4, 1234.8 143.8 Q 1236.1 142.2, 1236.1 139.1 Q 1236.1 136.0, 1234.8 134.5 Q 1233.5 132.9, 1231.2 132.9 Q 1228.8 132.9, 1227.5 134.5 Q 1226.2 136.0, 1226.2 139.1 Q 1226.2 142.3, 1227.5 143.8 Q 1228.8 145.4, 1231.2 145.4 " fill="#FF0000"/>
<path class="atom-7" d="M 1287.5 93.0 Q 1287.5 89.3, 1289.3 87.2 Q 1291.2 85.1, 1294.6 85.1 Q 1298.1 85.1, 1299.9 87.2 Q 1301.8 89.3, 1301.8 93.0 Q 1301.8 96.8, 1299.9 99.0 Q 1298.0 101.1, 1294.6 101.1 Q 1291.2 101.1, 1289.3 99.0 Q 1287.5 96.8, 1287.5 93.0 M 1294.6 99.3 Q 1297.0 99.3, 1298.3 97.7 Q 1299.6 96.1, 1299.6 93.0 Q 1299.6 90.0, 1298.3 88.4 Q 1297.0 86.9, 1294.6 86.9 Q 1292.2 86.9, 1290.9 88.4 Q 1289.7 89.9, 1289.7 93.0 Q 1289.7 96.2, 1290.9 97.7 Q 1292.2 99.3, 1294.6 99.3 " fill="#FF0000"/>
<path class="atom-7" d="M 1304.2 85.3 L 1306.3 85.3 L 1306.3 91.9 L 1314.3 91.9 L 1314.3 85.3 L 1316.4 85.3 L 1316.4 100.8 L 1314.3 100.8 L 1314.3 93.6 L 1306.3 93.6 L 1306.3 100.8 L 1304.2 100.8 L 1304.2 85.3 " fill="#FF0000"/>
<path class="atom-8" d="M 1331.5 186.9 Q 1331.5 183.2, 1333.3 181.1 Q 1335.2 179.0, 1338.6 179.0 Q 1342.1 179.0, 1343.9 181.1 Q 1345.8 183.2, 1345.8 186.9 Q 1345.8 190.7, 1343.9 192.9 Q 1342.0 195.0, 1338.6 195.0 Q 1335.2 195.0, 1333.3 192.9 Q 1331.5 190.7, 1331.5 186.9 M 1338.6 193.3 Q 1341.0 193.3, 1342.3 191.7 Q 1343.6 190.1, 1343.6 186.9 Q 1343.6 183.9, 1342.3 182.3 Q 1341.0 180.8, 1338.6 180.8 Q 1336.3 180.8, 1335.0 182.3 Q 1333.7 183.9, 1333.7 186.9 Q 1333.7 190.1, 1335.0 191.7 Q 1336.3 193.3, 1338.6 193.3 " fill="#FF0000"/>
<path class="atom-8" d="M 1348.2 179.2 L 1350.3 179.2 L 1350.3 185.8 L 1358.3 185.8 L 1358.3 179.2 L 1360.4 179.2 L 1360.4 194.8 L 1358.3 194.8 L 1358.3 187.6 L 1350.3 187.6 L 1350.3 194.8 L 1348.2 194.8 L 1348.2 179.2 " fill="#FF0000"/>
<path class="atom-9" d="M 1355.0 85.9 Q 1355.0 82.2, 1356.8 80.1 Q 1358.7 78.0, 1362.1 78.0 Q 1365.6 78.0, 1367.4 80.1 Q 1369.3 82.2, 1369.3 85.9 Q 1369.3 89.7, 1367.4 91.8 Q 1365.6 94.0, 1362.1 94.0 Q 1358.7 94.0, 1356.8 91.8 Q 1355.0 89.7, 1355.0 85.9 M 1362.1 92.2 Q 1364.5 92.2, 1365.8 90.6 Q 1367.1 89.0, 1367.1 85.9 Q 1367.1 82.8, 1365.8 81.3 Q 1364.5 79.7, 1362.1 79.7 Q 1359.8 79.7, 1358.5 81.3 Q 1357.2 82.8, 1357.2 85.9 Q 1357.2 89.1, 1358.5 90.6 Q 1359.8 92.2, 1362.1 92.2 " fill="#FF0000"/>
<path class="atom-9" d="M 1371.7 78.2 L 1373.8 78.2 L 1373.8 84.8 L 1381.8 84.8 L 1381.8 78.2 L 1383.9 78.2 L 1383.9 93.7 L 1381.8 93.7 L 1381.8 86.5 L 1373.8 86.5 L 1373.8 93.7 L 1371.7 93.7 L 1371.7 78.2 " fill="#FF0000"/>
<path class="atom-10" d="M 1399.0 179.8 Q 1399.0 176.1, 1400.9 174.0 Q 1402.7 171.9, 1406.2 171.9 Q 1409.6 171.9, 1411.5 174.0 Q 1413.3 176.1, 1413.3 179.8 Q 1413.3 183.6, 1411.4 185.8 Q 1409.6 187.9, 1406.2 187.9 Q 1402.7 187.9, 1400.9 185.8 Q 1399.0 183.6, 1399.0 179.8 M 1406.2 186.1 Q 1408.5 186.1, 1409.8 184.6 Q 1411.1 183.0, 1411.1 179.8 Q 1411.1 176.8, 1409.8 175.2 Q 1408.5 173.7, 1406.2 173.7 Q 1403.8 173.7, 1402.5 175.2 Q 1401.2 176.8, 1401.2 179.8 Q 1401.2 183.0, 1402.5 184.6 Q 1403.8 186.1, 1406.2 186.1 " fill="#FF0000"/>
<path class="atom-10" d="M 1415.7 172.1 L 1417.8 172.1 L 1417.8 178.7 L 1425.8 178.7 L 1425.8 172.1 L 1427.9 172.1 L 1427.9 187.7 L 1425.8 187.7 L 1425.8 180.5 L 1417.8 180.5 L 1417.8 187.7 L 1415.7 187.7 L 1415.7 172.1 " fill="#FF0000"/>
<path class="atom-11" d="M 1462.4 133.7 Q 1462.4 130.0, 1464.3 127.9 Q 1466.1 125.8, 1469.6 125.8 Q 1473.1 125.8, 1474.9 127.9 Q 1476.7 130.0, 1476.7 133.7 Q 1476.7 137.5, 1474.9 139.7 Q 1473.0 141.8, 1469.6 141.8 Q 1466.2 141.8, 1464.3 139.7 Q 1462.4 137.5, 1462.4 133.7 M 1469.6 140.1 Q 1472.0 140.1, 1473.2 138.5 Q 1474.5 136.9, 1474.5 133.7 Q 1474.5 130.7, 1473.2 129.1 Q 1472.0 127.6, 1469.6 127.6 Q 1467.2 127.6, 1465.9 129.1 Q 1464.6 130.7, 1464.6 133.7 Q 1464.6 136.9, 1465.9 138.5 Q 1467.2 140.1, 1469.6 140.1 " fill="#FF0000"/>
<path class="atom-11" d="M 1479.2 126.0 L 1481.3 126.0 L 1481.3 132.6 L 1489.2 132.6 L 1489.2 126.0 L 1491.4 126.0 L 1491.4 141.6 L 1489.2 141.6 L 1489.2 134.4 L 1481.3 134.4 L 1481.3 141.6 L 1479.2 141.6 L 1479.2 126.0 " fill="#FF0000"/>
<path class="legend" d="M 1296.1 272.7 Q 1297.5 272.7, 1298.2 273.4 Q 1298.9 274.2, 1298.9 275.6 L 1298.9 281.1 L 1297.4 281.1 L 1297.4 275.7 Q 1297.4 274.8, 1297.0 274.3 Q 1296.6 273.9, 1295.8 273.9 Q 1295.1 273.9, 1294.4 274.2 Q 1293.8 274.6, 1293.5 275.2 Q 1293.5 275.3, 1293.5 275.6 L 1293.5 281.1 L 1292.0 281.1 L 1292.0 275.7 Q 1292.0 274.8, 1291.6 274.3 Q 1291.2 273.9, 1290.4 273.9 Q 1289.7 273.9, 1289.1 274.2 Q 1288.5 274.6, 1288.1 275.2 L 1288.1 281.1 L 1286.6 281.1 L 1286.6 272.8 L 1287.8 272.8 L 1288.0 274.0 Q 1289.0 272.7, 1290.7 272.7 Q 1292.6 272.7, 1293.2 274.1 Q 1294.3 272.7, 1296.1 272.7 " fill="#000000"/>
<path class="legend" d="M 1300.9 276.9 Q 1300.9 274.9, 1301.9 273.8 Q 1302.9 272.7, 1304.8 272.7 Q 1306.7 272.7, 1307.7 273.8 Q 1308.7 274.9, 1308.7 276.9 Q 1308.7 278.9, 1307.7 280.1 Q 1306.7 281.2, 1304.8 281.2 Q 1302.9 281.2, 1301.9 280.1 Q 1300.9 278.9, 1300.9 276.9 M 1302.4 276.9 Q 1302.4 278.4, 1303.0 279.2 Q 1303.6 280.0, 1304.8 280.0 Q 1305.9 280.0, 1306.5 279.2 Q 1307.1 278.4, 1307.1 276.9 Q 1307.1 275.4, 1306.5 274.7 Q 1305.9 273.9, 1304.8 273.9 Q 1303.6 273.9, 1303.0 274.7 Q 1302.4 275.4, 1302.4 276.9 " fill="#000000"/>
<path class="legend" d="M 1314.0 272.7 Q 1315.7 272.7, 1316.7 273.8 Q 1317.6 274.8, 1317.6 276.8 Q 1317.6 278.9, 1316.5 280.0 Q 1315.4 281.2, 1313.4 281.2 Q 1312.1 281.2, 1310.9 280.7 L 1310.2 280.5 L 1310.2 268.9 L 1311.7 268.9 L 1311.7 273.7 Q 1312.6 272.7, 1314.0 272.7 M 1313.4 280.0 Q 1314.7 280.0, 1315.4 279.2 Q 1316.1 278.3, 1316.1 276.8 Q 1316.1 275.4, 1315.5 274.6 Q 1315.0 273.9, 1313.9 273.9 Q 1313.1 273.9, 1312.5 274.3 Q 1311.9 274.8, 1311.7 275.6 L 1311.7 279.8 Q 1312.5 280.0, 1313.4 280.0 " fill="#000000"/>
<path class="legend" d="M 1319.1 268.9 L 1320.6 268.9 L 1320.6 281.1 L 1319.1 281.1 L 1319.1 268.9 " fill="#000000"/>
<path class="legend" d="M 1322.8 276.9 Q 1322.8 274.9, 1323.8 273.8 Q 1324.8 272.7, 1326.6 272.7 Q 1328.4 272.7, 1329.2 273.8 Q 1330.0 274.9, 1330.0 276.9 L 1330.0 277.1 L 1324.3 277.1 Q 1324.3 278.5, 1325.0 279.3 Q 1325.6 280.0, 1326.7 280.0 Q 1327.4 280.0, 1328.0 279.9 Q 1328.6 279.7, 1329.3 279.4 L 1329.7 280.4 Q 1328.9 280.8, 1328.2 281.0 Q 1327.4 281.2, 1326.7 281.2 Q 1324.8 281.2, 1323.8 280.1 Q 1322.8 279.0, 1322.8 276.9 M 1326.6 273.9 Q 1325.7 273.9, 1325.1 274.4 Q 1324.5 275.0, 1324.4 276.0 L 1328.5 276.0 Q 1328.3 274.9, 1327.9 274.4 Q 1327.4 273.9, 1326.6 273.9 " fill="#000000"/>
<path class="legend" d="M 1337.7 272.8 L 1339.2 272.8 L 1335.0 285.0 L 1333.6 285.0 L 1334.9 281.1 L 1334.3 281.1 L 1331.4 272.8 L 1333.0 272.8 L 1335.4 279.8 L 1337.7 272.8 " fill="#000000"/>
<path class="legend" d="M 1348.3 281.9 L 1348.3 283.2 L 1340.1 283.2 L 1340.1 281.9 L 1348.3 281.9 " fill="#000000"/>
<path class="legend" d="M 1356.4 277.2 L 1357.8 277.2 L 1357.8 278.5 L 1356.4 278.5 L 1356.4 281.1 L 1354.9 281.1 L 1354.9 278.5 L 1349.1 278.5 L 1349.1 277.4 L 1354.0 269.7 L 1356.4 269.7 L 1356.4 277.2 M 1350.9 277.2 L 1354.9 277.2 L 1354.9 270.8 L 1350.9 277.2 " fill="#000000"/>
<path class="legend" d="M 1363.4 274.0 Q 1364.4 274.0, 1365.2 274.4 Q 1366.1 274.8, 1366.5 275.6 Q 1367.0 276.4, 1367.0 277.5 Q 1367.0 278.6, 1366.4 279.5 Q 1365.9 280.3, 1364.9 280.8 Q 1364.0 281.2, 1362.9 281.2 Q 1361.9 281.2, 1360.9 280.8 Q 1360.0 280.4, 1359.3 279.7 L 1360.3 278.7 Q 1360.8 279.3, 1361.5 279.6 Q 1362.3 279.9, 1363.0 279.9 Q 1364.0 279.9, 1364.7 279.3 Q 1365.4 278.6, 1365.4 277.5 Q 1365.4 276.3, 1364.7 275.8 Q 1364.0 275.2, 1362.9 275.2 Q 1361.9 275.2, 1360.8 275.6 L 1359.9 275.2 L 1360.5 269.7 L 1366.3 269.7 L 1366.1 271.0 L 1361.8 271.0 L 1361.4 274.4 Q 1362.4 274.0, 1363.4 274.0 " fill="#000000"/>
<path class="legend" d="M 1374.3 275.1 Q 1375.3 275.5, 1375.9 276.2 Q 1376.5 276.8, 1376.5 278.0 Q 1376.5 278.9, 1376.0 279.7 Q 1375.5 280.4, 1374.6 280.8 Q 1373.8 281.2, 1372.6 281.2 Q 1370.7 281.2, 1369.6 280.4 Q 1368.5 279.5, 1368.5 278.0 Q 1368.5 277.0, 1369.0 276.3 Q 1369.5 275.6, 1370.5 275.1 Q 1369.7 274.7, 1369.3 274.1 Q 1368.9 273.5, 1368.9 272.5 Q 1368.9 271.2, 1369.9 270.4 Q 1370.9 269.6, 1372.5 269.6 Q 1374.2 269.6, 1375.1 270.4 Q 1376.1 271.2, 1376.1 272.5 Q 1376.1 273.3, 1375.6 274.0 Q 1375.2 274.6, 1374.3 275.1 M 1372.5 270.8 Q 1371.6 270.8, 1371.0 271.3 Q 1370.5 271.7, 1370.5 272.5 Q 1370.5 273.1, 1370.9 273.5 Q 1371.2 273.9, 1371.7 274.1 Q 1372.2 274.3, 1373.2 274.7 Q 1373.9 274.2, 1374.2 273.7 Q 1374.5 273.2, 1374.5 272.5 Q 1374.5 271.7, 1374.0 271.3 Q 1373.5 270.8, 1372.5 270.8 M 1372.6 280.0 Q 1373.6 280.0, 1374.3 279.5 Q 1374.9 278.9, 1374.9 277.9 Q 1374.9 277.3, 1374.6 277.0 Q 1374.2 276.6, 1373.7 276.3 Q 1373.2 276.1, 1372.3 275.8 L 1371.6 275.6 Q 1370.8 276.1, 1370.5 276.6 Q 1370.1 277.2, 1370.1 277.9 Q 1370.1 278.9, 1370.8 279.5 Q 1371.5 280.0, 1372.6 280.0 " fill="#000000"/>
<path class="legend" d="M 1384.2 271.0 L 1378.3 271.0 L 1378.3 269.7 L 1385.8 269.7 L 1385.8 270.9 L 1381.2 281.1 L 1379.7 281.1 L 1384.2 271.0 " fill="#000000"/>
<path class="legend" d="M 1387.1 271.9 Q 1387.5 270.8, 1388.5 270.2 Q 1389.5 269.6, 1390.9 269.6 Q 1392.6 269.6, 1393.5 270.5 Q 1394.5 271.5, 1394.5 273.1 Q 1394.5 274.8, 1393.2 276.4 Q 1392.0 277.9, 1389.4 279.8 L 1394.7 279.8 L 1394.7 281.1 L 1387.0 281.1 L 1387.0 280.0 Q 1389.2 278.5, 1390.4 277.4 Q 1391.7 276.2, 1392.3 275.2 Q 1392.9 274.2, 1392.9 273.2 Q 1392.9 272.1, 1392.3 271.5 Q 1391.8 270.9, 1390.9 270.9 Q 1389.9 270.9, 1389.3 271.3 Q 1388.7 271.6, 1388.3 272.4 L 1387.1 271.9 " fill="#000000"/>
<path class="legend" d="M 1400.8 274.0 Q 1401.8 274.0, 1402.6 274.4 Q 1403.4 274.9, 1403.8 275.6 Q 1404.3 276.4, 1404.3 277.4 Q 1404.3 278.5, 1403.8 279.4 Q 1403.3 280.2, 1402.4 280.7 Q 1401.6 281.2, 1400.5 281.2 Q 1398.4 281.2, 1397.4 279.8 Q 1396.4 278.5, 1396.4 275.7 Q 1396.4 272.7, 1397.7 271.2 Q 1398.9 269.6, 1401.3 269.6 Q 1402.0 269.6, 1402.6 269.8 Q 1403.2 269.9, 1403.8 270.3 L 1403.2 271.3 Q 1402.4 270.9, 1401.3 270.9 Q 1399.7 270.9, 1398.9 271.9 Q 1398.1 273.0, 1398.0 275.1 Q 1398.6 274.6, 1399.3 274.3 Q 1400.1 274.0, 1400.8 274.0 M 1400.5 279.9 Q 1401.1 279.9, 1401.6 279.6 Q 1402.1 279.2, 1402.4 278.7 Q 1402.7 278.1, 1402.7 277.4 Q 1402.7 276.4, 1402.1 275.8 Q 1401.5 275.3, 1400.5 275.3 Q 1399.9 275.3, 1399.2 275.6 Q 1398.5 275.8, 1398.0 276.3 Q 1398.1 278.2, 1398.7 279.0 Q 1399.3 279.9, 1400.5 279.9 " fill="#000000"/>
<path class="legend" d="M 1411.8 271.0 L 1405.9 271.0 L 1405.9 269.7 L 1413.4 269.7 L 1413.4 270.9 L 1408.8 281.1 L 1407.3 281.1 L 1411.8 271.0 " fill="#000000"/>
<path class="bond-0 atom-0 atom-1" d="M 1721.1,162.3 L 1716.1,156.1" style="fill:none;fill-rule:evenodd;stroke:#000000;stroke-width:3.0px;stroke-linecap:butt;stroke-linejoin:miter;stroke-opacity:1"/>
<path class="bond-0 atom-0 atom-1" d="M 1716.1,156.1 L 1711.1,149.8" style="fill:none;fill-rule:evenodd;stroke:#0000FF;stroke-width:3.0px;stroke-linecap:butt;stroke-linejoin:miter;stroke-opacity:1"/>
<path class="bond-1 atom-1 atom-2" d="M 1706.3,131.8 L 1710.3,117.4" style="fill:none;fill-rule:evenodd;stroke:#0000FF;stroke-width:3.0px;stroke-linecap:butt;stroke-linejoin:miter;stroke-opacity:1"/>
<path class="bond-1 atom-1 atom-2" d="M 1710.3,117.4 L 1714.2,103.0" style="fill:none;fill-rule:evenodd;stroke:#000000;stroke-width:3.0px;stroke-linecap:butt;stroke-linejoin:miter;stroke-opacity:1"/>
<path class="bond-2 atom-2 atom-3" d="M 1714.2,103.0 L 1701.4,94.6" style="fill:none;fill-rule:evenodd;stroke:#000000;stroke-width:3.0px;stroke-linecap:butt;stroke-linejoin:miter;stroke-opacity:1"/>
<path class="bond-2 atom-2 atom-3" d="M 1701.4,94.6 L 1688.6,86.2" style="fill:none;fill-rule:evenodd;stroke:#0000FF;stroke-width:3.0px;stroke-linecap:butt;stroke-linejoin:miter;stroke-opacity:1"/>
<path class="bond-2 atom-2 atom-3" d="M 1707.4,105.6 L 1696.4,98.4" style="fill:none;fill-rule:evenodd;stroke:#000000;stroke-width:3.0px;stroke-linecap:butt;stroke-linejoin:miter;stroke-opacity:1"/>
<path class="bond-2 atom-2 atom-3" d="M 1696.4,98.4 L 1685.4,91.2" style="fill:none;fill-rule:evenodd;stroke:#0000FF;stroke-width:3.0px;stroke-linecap:butt;stroke-linejoin:miter;stroke-opacity:1"/>
<path class="bond-3 atom-3 atom-4" d="M 1674.2,87.3 L 1662.5,96.7" style="fill:none;fill-rule:evenodd;stroke:#0000FF;stroke-width:3.0px;stroke-linecap:butt;stroke-linejoin:miter;stroke-opacity:1"/>
<path class="bond-3 atom-3 atom-4" d="M 1662.5,96.7 L 1650.8,106.0" style="fill:none;fill-rule:evenodd;stroke:#000000;stroke-width:3.0px;stroke-linecap:butt;stroke-linejoin:miter;stroke-opacity:1"/>
<path class="bond-4 atom-4 atom-5" d="M 1650.8,106.0 L 1664.7,142.7" style="fill:none;fill-rule:evenodd;stroke:#000000;stroke-width:3.0px;stroke-linecap:butt;stroke-linejoin:miter;stroke-opacity:1"/>
<path class="bond-4 atom-4 atom-5" d="M 1657.8,108.0 L 1668.7,136.6" style="fill:none;fill-rule:evenodd;stroke:#000000;stroke-width:3.0px;stroke-linecap:butt;stroke-linejoin:miter;stroke-opacity:1"/>
<path class="bond-5 atom-5 atom-6" d="M 1664.7,142.7 L 1639.9,173.1" style="fill:none;fill-rule:evenodd;stroke:#000000;stroke-width:3.0px;stroke-linecap:butt;stroke-linejoin:miter;stroke-opacity:1"/>
<path class="bond-6 atom-6 atom-7" d="M 1636.5,172.5 L 1642.0,187.0" style="fill:none;fill-rule:evenodd;stroke:#000000;stroke-width:3.0px;stroke-linecap:butt;stroke-linejoin:miter;stroke-opacity:1"/>
<path class="bond-6 atom-6 atom-7" d="M 1642.0,187.0 L 1647.5,201.6" style="fill:none;fill-rule:evenodd;stroke:#FF0000;stroke-width:3.0px;stroke-linecap:butt;stroke-linejoin:miter;stroke-opacity:1"/>
<path class="bond-6 atom-6 atom-7" d="M 1642.0,170.4 L 1647.5,185.0" style="fill:none;fill-rule:evenodd;stroke:#000000;stroke-width:3.0px;stroke-linecap:butt;stroke-linejoin:miter;stroke-opacity:1"/>
<path class="bond-6 atom-6 atom-7" d="M 1647.5,185.0 L 1653.0,199.5" style="fill:none;fill-rule:evenodd;stroke:#FF0000;stroke-width:3.0px;stroke-linecap:butt;stroke-linejoin:miter;stroke-opacity:1"/>
<path class="bond-7 atom-6 atom-8" d="M 1639.9,173.1 L 1624.1,170.5" style="fill:none;fill-rule:evenodd;stroke:#000000;stroke-width:3.0px;stroke-linecap:butt;stroke-linejoin:miter;stroke-opacity:1"/>
<path class="bond-7 atom-6 atom-8" d="M 1624.1,170.5 L 1608.4,167.9" style="fill:none;fill-rule:evenodd;stroke:#0000FF;stroke-width:3.0px;stroke-linecap:butt;stroke-linejoin:miter;stroke-opacity:1"/>
<path class="bond-8 atom-8 atom-9" d="M 1597.7,157.6 L 1592.5,143.8" style="fill:none;fill-rule:evenodd;stroke:#0000FF;stroke-width:3.0px;stroke-linecap:butt;stroke-linejoin:miter;stroke-opacity:1"/>
<path class="bond-8 atom-8 atom-9" d="M 1592.5,143.8 L 1587.3,130.1" style="fill:none;fill-rule:evenodd;stroke:#000000;stroke-width:3.0px;stroke-linecap:butt;stroke-linejoin:miter;stroke-opacity:1"/>
<path class="bond-9 atom-9 atom-10" d="M 1589.5,127.4 L 1573.5,124.8" style="fill:none;fill-rule:evenodd;stroke:#000000;stroke-width:3.0px;stroke-linecap:butt;stroke-linejoin:miter;stroke-opacity:1"/>
<path class="bond-9 atom-9 atom-10" d="M 1573.5,124.8 L 1557.5,122.2" style="fill:none;fill-rule:evenodd;stroke:#FF0000;stroke-width:3.0px;stroke-linecap:butt;stroke-linejoin:miter;stroke-opacity:1"/>
<path class="bond-9 atom-9 atom-10" d="M 1588.5,133.2 L 1572.5,130.6" style="fill:none;fill-rule:evenodd;stroke:#000000;stroke-width:3.0px;stroke-linecap:butt;stroke-linejoin:miter;stroke-opacity:1"/>
<path class="bond-9 atom-9 atom-10" d="M 1572.5,130.6 L 1556.6,128.0" style="fill:none;fill-rule:evenodd;stroke:#FF0000;stroke-width:3.0px;stroke-linecap:butt;stroke-linejoin:miter;stroke-opacity:1"/>
<path class="bond-10 atom-9 atom-11" d="M 1587.3,130.1 L 1596.1,119.3" style="fill:none;fill-rule:evenodd;stroke:#000000;stroke-width:3.0px;stroke-linecap:butt;stroke-linejoin:miter;stroke-opacity:1"/>
<path class="bond-10 atom-9 atom-11" d="M 1596.1,119.3 L 1604.9,108.5" style="fill:none;fill-rule:evenodd;stroke:#0000FF;stroke-width:3.0px;stroke-linecap:butt;stroke-linejoin:miter;stroke-opacity:1"/>
<path class="bond-11 atom-11 atom-12" d="M 1608.7,90.6 L 1605.3,81.5" style="fill:none;fill-rule:evenodd;stroke:#0000FF;stroke-width:3.0px;stroke-linecap:butt;stroke-linejoin:miter;stroke-opacity:1"/>
<path class="bond-11 atom-11 atom-12" d="M 1605.3,81.5 L 1601.8,72.4" style="fill:none;fill-rule:evenodd;stroke:#000000;stroke-width:3.0px;stroke-linecap:butt;stroke-linejoin:miter;stroke-opacity:1"/>
<path class="bond-12 atom-8 atom-13" d="M 1594.0,175.5 L 1588.8,181.8" style="fill:none;fill-rule:evenodd;stroke:#0000FF;stroke-width:3.0px;stroke-linecap:butt;stroke-linejoin:miter;stroke-opacity:1"/>
<path class="bond-12 atom-8 atom-13" d="M 1588.8,181.8 L 1583.6,188.1" style="fill:none;fill-rule:evenodd;stroke:#000000;stroke-width:3.0px;stroke-linecap:butt;stroke-linejoin:miter;stroke-opacity:1"/>
<path class="bond-13 atom-5 atom-1" d="M 1664.7,142.7 L 1680.7,142.0" style="fill:none;fill-rule:evenodd;stroke:#000000;stroke-width:3.0px;stroke-linecap:butt;stroke-linejoin:miter;stroke-opacity:1"/>
<path class="bond-13 atom-5 atom-1" d="M 1680.7,142.0 L 1696.7,141.2" style="fill:none;fill-rule:evenodd;stroke:#0000FF;stroke-width:3.0px;stroke-linecap:butt;stroke-linejoin:miter;stroke-opacity:1"/>
<path class="bond-14 atom-11 atom-4" d="M 1619.3,100.9 L 1635.1,103.5" style="fill:none;fill-rule:evenodd;stroke:#0000FF;stroke-width:3.0px;stroke-linecap:butt;stroke-linejoin:miter;stroke-opacity:1"/>
<path class="bond-14 atom-11 atom-4" d="M 1635.1,103.5 L 1650.8,106.0" style="fill:none;fill-rule:evenodd;stroke:#000000;stroke-width:3.0px;stroke-linecap:butt;stroke-linejoin:miter;stroke-opacity:1"/>
<path d="M 1714.0,103.8 L 1714.2,103.0 L 1713.6,102.6" style="fill:none;stroke:#000000;stroke-width:3.0px;stroke-linecap:butt;stroke-linejoin:miter;stroke-opacity:1;"/>
<path d="M 1641.1,171.5 L 1639.9,173.1 L 1639.1,172.9" style="fill:none;stroke:#000000;stroke-width:3.0px;stroke-linecap:butt;stroke-linejoin:miter;stroke-opacity:1;"/>
<path d="M 1587.6,130.7 L 1587.3,130.1 L 1587.7,129.5" style="fill:none;stroke:#000000;stroke-width:3.0px;stroke-linecap:butt;stroke-linejoin:miter;stroke-opacity:1;"/>
<path class="atom-0" d="M 1722.4 171.5 Q 1722.4 167.6, 1724.2 165.6 Q 1726.0 163.6, 1729.4 163.6 Q 1732.7 163.6, 1734.4 165.8 L 1732.9 167.0 Q 1731.7 165.4, 1729.4 165.4 Q 1727.1 165.4, 1725.8 167.0 Q 1724.6 168.5, 1724.6 171.5 Q 1724.6 174.6, 1725.9 176.2 Q 1727.2 177.8, 1729.7 177.8 Q 1731.4 177.8, 1733.4 176.7 L 1734.0 178.4 Q 1733.2 178.9, 1732.0 179.2 Q 1730.7 179.5, 1729.4 179.5 Q 1726.0 179.5, 1724.2 177.5 Q 1722.4 175.4, 1722.4 171.5 " fill="#000000"/>
<path class="atom-0" d="M 1736.4 163.7 L 1738.5 163.7 L 1738.5 170.4 L 1746.5 170.4 L 1746.5 163.7 L 1748.6 163.7 L 1748.6 179.3 L 1746.5 179.3 L 1746.5 172.1 L 1738.5 172.1 L 1738.5 179.3 L 1736.4 179.3 L 1736.4 163.7 " fill="#000000"/>
<path class="atom-0" d="M 1756.6 181.7 Q 1757.6 182.0, 1758.0 182.6 Q 1758.5 183.3, 1758.5 184.3 Q 1758.5 185.2, 1758.1 185.8 Q 1757.7 186.5, 1756.9 186.9 Q 1756.1 187.3, 1755.0 187.3 Q 1753.9 187.3, 1753.1 186.9 Q 1752.3 186.5, 1751.6 185.7 L 1752.5 184.9 Q 1753.1 185.6, 1753.6 185.8 Q 1754.2 186.1, 1755.0 186.1 Q 1756.0 186.1, 1756.5 185.6 Q 1757.1 185.1, 1757.1 184.3 Q 1757.1 183.2, 1756.5 182.8 Q 1755.9 182.3, 1754.6 182.3 L 1753.9 182.3 L 1753.9 181.2 L 1754.6 181.2 Q 1755.7 181.2, 1756.3 180.8 Q 1756.9 180.3, 1756.9 179.3 Q 1756.9 178.7, 1756.4 178.3 Q 1755.9 177.9, 1755.0 177.9 Q 1754.2 177.9, 1753.6 178.2 Q 1753.1 178.5, 1752.7 179.3 L 1751.7 178.7 Q 1752.1 177.9, 1752.9 177.3 Q 1753.8 176.7, 1755.0 176.7 Q 1756.5 176.7, 1757.4 177.4 Q 1758.3 178.1, 1758.3 179.3 Q 1758.3 180.2, 1757.9 180.8 Q 1757.4 181.4, 1756.6 181.7 " fill="#000000"/>
<path class="atom-1" d="M 1700.4 133.1 L 1705.5 141.3 Q 1706.0 142.1, 1706.8 143.6 Q 1707.6 145.1, 1707.7 145.2 L 1707.7 133.1 L 1709.8 133.1 L 1709.8 148.6 L 1707.6 148.6 L 1702.1 139.6 Q 1701.5 138.6, 1700.8 137.4 Q 1700.2 136.1, 1700.0 135.8 L 1700.0 148.6 L 1697.9 148.6 L 1697.9 133.1 L 1700.4 133.1 " fill="#0000FF"/>
<path class="atom-3" d="M 1678.0 73.7 L 1683.1 82.0 Q 1683.6 82.8, 1684.4 84.3 Q 1685.2 85.7, 1685.3 85.8 L 1685.3 73.7 L 1687.3 73.7 L 1687.3 89.3 L 1685.2 89.3 L 1679.7 80.3 Q 1679.1 79.2, 1678.4 78.0 Q 1677.7 76.8, 1677.5 76.4 L 1677.5 89.3 L 1675.5 89.3 L 1675.5 73.7 L 1678.0 73.7 " fill="#0000FF"/>
<path class="atom-7" d="M 1646.6 209.8 Q 1646.6 206.0, 1648.4 203.9 Q 1650.3 201.8, 1653.7 201.8 Q 1657.2 201.8, 1659.0 203.9 Q 1660.9 206.0, 1660.9 209.8 Q 1660.9 213.6, 1659.0 215.7 Q 1657.1 217.8, 1653.7 217.8 Q 1650.3 217.8, 1648.4 215.7 Q 1646.6 213.6, 1646.6 209.8 M 1653.7 216.1 Q 1656.1 216.1, 1657.4 214.5 Q 1658.7 212.9, 1658.7 209.8 Q 1658.7 206.7, 1657.4 205.2 Q 1656.1 203.6, 1653.7 203.6 Q 1651.4 203.6, 1650.1 205.1 Q 1648.8 206.7, 1648.8 209.8 Q 1648.8 212.9, 1650.1 214.5 Q 1651.4 216.1, 1653.7 216.1 " fill="#FF0000"/>
<path class="atom-8" d="M 1597.7 158.9 L 1602.8 167.2 Q 1603.3 168.0, 1604.2 169.5 Q 1605.0 170.9, 1605.0 171.0 L 1605.0 158.9 L 1607.1 158.9 L 1607.1 174.5 L 1604.9 174.5 L 1599.5 165.5 Q 1598.8 164.4, 1598.1 163.2 Q 1597.5 162.0, 1597.3 161.6 L 1597.3 174.5 L 1595.3 174.5 L 1595.3 158.9 L 1597.7 158.9 " fill="#0000FF"/>
<path class="atom-10" d="M 1541.5 123.8 Q 1541.5 120.0, 1543.3 117.9 Q 1545.2 115.8, 1548.6 115.8 Q 1552.1 115.8, 1553.9 117.9 Q 1555.8 120.0, 1555.8 123.8 Q 1555.8 127.5, 1553.9 129.7 Q 1552.0 131.8, 1548.6 131.8 Q 1545.2 131.8, 1543.3 129.7 Q 1541.5 127.6, 1541.5 123.8 M 1548.6 130.1 Q 1551.0 130.1, 1552.3 128.5 Q 1553.6 126.9, 1553.6 123.8 Q 1553.6 120.7, 1552.3 119.2 Q 1551.0 117.6, 1548.6 117.6 Q 1546.2 117.6, 1544.9 119.1 Q 1543.7 120.7, 1543.7 123.8 Q 1543.7 126.9, 1544.9 128.5 Q 1546.2 130.1, 1548.6 130.1 " fill="#FF0000"/>
<path class="atom-11" d="M 1608.7 91.9 L 1613.8 100.2 Q 1614.3 101.0, 1615.1 102.5 Q 1615.9 103.9, 1616.0 104.0 L 1616.0 91.9 L 1618.0 91.9 L 1618.0 107.5 L 1615.9 107.5 L 1610.4 98.5 Q 1609.8 97.4, 1609.1 96.2 Q 1608.4 95.0, 1608.2 94.6 L 1608.2 107.5 L 1606.2 107.5 L 1606.2 91.9 L 1608.7 91.9 " fill="#0000FF"/>
<path class="atom-12" d="M 1568.1 55.3 L 1570.2 55.3 L 1570.2 62.0 L 1578.2 62.0 L 1578.2 55.3 L 1580.3 55.3 L 1580.3 70.9 L 1578.2 70.9 L 1578.2 63.7 L 1570.2 63.7 L 1570.2 70.9 L 1568.1 70.9 L 1568.1 55.3 " fill="#000000"/>
<path class="atom-12" d="M 1588.3 73.3 Q 1589.3 73.6, 1589.8 74.2 Q 1590.2 74.9, 1590.2 75.9 Q 1590.2 76.8, 1589.8 77.4 Q 1589.4 78.1, 1588.6 78.5 Q 1587.8 78.8, 1586.7 78.8 Q 1585.6 78.8, 1584.8 78.5 Q 1584.0 78.1, 1583.3 77.3 L 1584.2 76.4 Q 1584.8 77.1, 1585.3 77.4 Q 1585.9 77.7, 1586.7 77.7 Q 1587.7 77.7, 1588.2 77.2 Q 1588.8 76.7, 1588.8 75.9 Q 1588.8 74.8, 1588.2 74.4 Q 1587.6 73.9, 1586.4 73.9 L 1585.6 73.9 L 1585.6 72.8 L 1586.3 72.8 Q 1587.4 72.8, 1588.0 72.3 Q 1588.6 71.8, 1588.6 70.9 Q 1588.6 70.3, 1588.1 69.9 Q 1587.6 69.5, 1586.7 69.5 Q 1585.9 69.5, 1585.4 69.8 Q 1584.8 70.1, 1584.4 70.8 L 1583.4 70.3 Q 1583.8 69.4, 1584.7 68.9 Q 1585.5 68.3, 1586.7 68.3 Q 1588.3 68.3, 1589.1 69.0 Q 1590.0 69.7, 1590.0 70.9 Q 1590.0 71.8, 1589.6 72.4 Q 1589.1 72.9, 1588.3 73.3 " fill="#000000"/>
<path class="atom-12" d="M 1592.3 63.1 Q 1592.3 59.2, 1594.1 57.2 Q 1595.9 55.2, 1599.3 55.2 Q 1602.6 55.2, 1604.3 57.4 L 1602.8 58.6 Q 1601.6 57.0, 1599.3 57.0 Q 1597.0 57.0, 1595.7 58.5 Q 1594.5 60.1, 1594.5 63.1 Q 1594.5 66.2, 1595.8 67.8 Q 1597.1 69.3, 1599.6 69.3 Q 1601.3 69.3, 1603.3 68.3 L 1603.9 70.0 Q 1603.1 70.5, 1601.9 70.8 Q 1600.6 71.1, 1599.3 71.1 Q 1595.9 71.1, 1594.1 69.0 Q 1592.3 67.0, 1592.3 63.1 " fill="#000000"/>
<path class="atom-13" d="M 1546.2 189.4 L 1548.3 189.4 L 1548.3 196.0 L 1556.3 196.0 L 1556.3 189.4 L 1558.4 189.4 L 1558.4 204.9 L 1556.3 204.9 L 1556.3 197.7 L 1548.3 197.7 L 1548.3 204.9 L 1546.2 204.9 L 1546.2 189.4 " fill="#000000"/>
<path class="atom-13" d="M 1566.3 207.3 Q 1567.4 207.6, 1567.8 208.3 Q 1568.3 208.9, 1568.3 209.9 Q 1568.3 210.8, 1567.9 211.5 Q 1567.5 212.1, 1566.7 212.5 Q 1565.9 212.9, 1564.8 212.9 Q 1563.7 212.9, 1562.9 212.5 Q 1562.1 212.1, 1561.4 211.3 L 1562.2 210.5 Q 1562.9 211.2, 1563.4 211.5 Q 1564.0 211.7, 1564.8 211.7 Q 1565.7 211.7, 1566.3 211.2 Q 1566.9 210.7, 1566.9 209.9 Q 1566.9 208.9, 1566.3 208.4 Q 1565.7 207.9, 1564.4 207.9 L 1563.7 207.9 L 1563.7 206.9 L 1564.3 206.9 Q 1565.5 206.9, 1566.1 206.4 Q 1566.7 205.9, 1566.7 205.0 Q 1566.7 204.3, 1566.2 203.9 Q 1565.7 203.5, 1564.8 203.5 Q 1564.0 203.5, 1563.4 203.8 Q 1562.9 204.1, 1562.5 204.9 L 1561.5 204.3 Q 1561.9 203.5, 1562.7 202.9 Q 1563.6 202.3, 1564.8 202.3 Q 1566.3 202.3, 1567.2 203.0 Q 1568.1 203.8, 1568.1 205.0 Q 1568.1 205.8, 1567.7 206.4 Q 1567.2 207.0, 1566.3 207.3 " fill="#000000"/>
<path class="atom-13" d="M 1570.3 197.1 Q 1570.3 193.3, 1572.1 191.2 Q 1574.0 189.2, 1577.4 189.2 Q 1580.6 189.2, 1582.3 191.5 L 1580.9 192.6 Q 1579.6 191.0, 1577.4 191.0 Q 1575.1 191.0, 1573.8 192.6 Q 1572.6 194.1, 1572.6 197.1 Q 1572.6 200.2, 1573.9 201.8 Q 1575.2 203.4, 1577.7 203.4 Q 1579.4 203.4, 1581.4 202.3 L 1582.0 204.0 Q 1581.2 204.5, 1580.0 204.8 Q 1578.7 205.1, 1577.4 205.1 Q 1574.0 205.1, 1572.1 203.1 Q 1570.3 201.0, 1570.3 197.1 " fill="#000000"/>
<path class="legend" d="M 1596.5 272.7 Q 1597.9 272.7, 1598.6 273.4 Q 1599.3 274.2, 1599.3 275.6 L 1599.3 281.1 L 1597.8 281.1 L 1597.8 275.7 Q 1597.8 274.8, 1597.4 274.3 Q 1597.0 273.9, 1596.2 273.9 Q 1595.5 273.9, 1594.9 274.2 Q 1594.3 274.6, 1593.9 275.2 Q 1593.9 275.3, 1593.9 275.6 L 1593.9 281.1 L 1592.4 281.1 L 1592.4 275.7 Q 1592.4 274.8, 1592.0 274.3 Q 1591.7 273.9, 1590.8 273.9 Q 1590.1 273.9, 1589.5 274.2 Q 1588.9 274.6, 1588.5 275.2 L 1588.5 281.1 L 1587.0 281.1 L 1587.0 272.8 L 1588.2 272.8 L 1588.4 274.0 Q 1589.5 272.7, 1591.1 272.7 Q 1593.0 272.7, 1593.7 274.1 Q 1594.7 272.7, 1596.5 272.7 " fill="#000000"/>
<path class="legend" d="M 1601.3 276.9 Q 1601.3 274.9, 1602.3 273.8 Q 1603.3 272.7, 1605.2 272.7 Q 1607.1 272.7, 1608.1 273.8 Q 1609.1 274.9, 1609.1 276.9 Q 1609.1 278.9, 1608.1 280.1 Q 1607.1 281.2, 1605.2 281.2 Q 1603.3 281.2, 1602.3 280.1 Q 1601.3 278.9, 1601.3 276.9 M 1602.8 276.9 Q 1602.8 278.4, 1603.4 279.2 Q 1604.1 280.0, 1605.2 280.0 Q 1606.3 280.0, 1606.9 279.2 Q 1607.6 278.4, 1607.6 276.9 Q 1607.6 275.4, 1606.9 274.7 Q 1606.3 273.9, 1605.2 273.9 Q 1604.1 273.9, 1603.4 274.7 Q 1602.8 275.4, 1602.8 276.9 " fill="#000000"/>
<path class="legend" d="M 1614.4 272.7 Q 1616.2 272.7, 1617.1 273.8 Q 1618.1 274.8, 1618.1 276.8 Q 1618.1 278.9, 1616.9 280.0 Q 1615.8 281.2, 1613.8 281.2 Q 1612.5 281.2, 1611.3 280.7 L 1610.6 280.5 L 1610.6 268.9 L 1612.1 268.9 L 1612.1 273.7 Q 1613.0 272.7, 1614.4 272.7 M 1613.8 280.0 Q 1615.1 280.0, 1615.8 279.2 Q 1616.5 278.3, 1616.5 276.8 Q 1616.5 275.4, 1615.9 274.6 Q 1615.4 273.9, 1614.3 273.9 Q 1613.5 273.9, 1612.9 274.3 Q 1612.3 274.8, 1612.1 275.6 L 1612.1 279.8 Q 1612.9 280.0, 1613.8 280.0 " fill="#000000"/>
<path class="legend" d="M 1619.6 268.9 L 1621.0 268.9 L 1621.0 281.1 L 1619.6 281.1 L 1619.6 268.9 " fill="#000000"/>
<path class="legend" d="M 1623.2 276.9 Q 1623.2 274.9, 1624.2 273.8 Q 1625.2 272.7, 1627.0 272.7 Q 1628.8 272.7, 1629.6 273.8 Q 1630.4 274.9, 1630.4 276.9 L 1630.4 277.1 L 1624.7 277.1 Q 1624.7 278.5, 1625.3 279.3 Q 1626.0 280.0, 1627.1 280.0 Q 1627.8 280.0, 1628.4 279.9 Q 1629.0 279.7, 1629.7 279.4 L 1630.1 280.4 Q 1629.3 280.8, 1628.6 281.0 Q 1627.8 281.2, 1627.1 281.2 Q 1625.2 281.2, 1624.2 280.1 Q 1623.2 279.0, 1623.2 276.9 M 1627.0 273.9 Q 1626.1 273.9, 1625.5 274.4 Q 1624.9 275.0, 1624.8 276.0 L 1628.9 276.0 Q 1628.7 274.9, 1628.3 274.4 Q 1627.8 273.9, 1627.0 273.9 " fill="#000000"/>
<path class="legend" d="M 1638.1 272.8 L 1639.6 272.8 L 1635.4 285.0 L 1634.0 285.0 L 1635.3 281.1 L 1634.7 281.1 L 1631.8 272.8 L 1633.4 272.8 L 1635.8 279.8 L 1638.1 272.8 " fill="#000000"/>
<path class="legend" d="M 1648.7 281.9 L 1648.7 283.2 L 1640.5 283.2 L 1640.5 281.9 L 1648.7 281.9 " fill="#000000"/>
<path class="legend" d="M 1655.4 271.0 L 1649.4 271.0 L 1649.4 269.7 L 1657.0 269.7 L 1657.0 270.9 L 1652.4 281.1 L 1650.8 281.1 L 1655.4 271.0 " fill="#000000"/>
<path class="legend" d="M 1663.6 275.1 Q 1664.7 275.4, 1665.3 276.1 Q 1665.8 276.8, 1665.8 278.0 Q 1665.8 278.9, 1665.3 279.7 Q 1664.8 280.4, 1664.0 280.8 Q 1663.1 281.2, 1661.9 281.2 Q 1660.7 281.2, 1659.8 280.8 Q 1658.9 280.4, 1658.2 279.5 L 1659.1 278.6 Q 1659.8 279.4, 1660.4 279.7 Q 1661.0 279.9, 1661.9 279.9 Q 1662.9 279.9, 1663.6 279.4 Q 1664.2 278.8, 1664.2 277.9 Q 1664.2 276.8, 1663.5 276.3 Q 1662.9 275.8, 1661.5 275.8 L 1660.7 275.8 L 1660.7 274.6 L 1661.4 274.6 Q 1662.6 274.6, 1663.3 274.1 Q 1664.0 273.5, 1664.0 272.5 Q 1664.0 271.8, 1663.4 271.3 Q 1662.9 270.9, 1661.9 270.9 Q 1661.0 270.9, 1660.4 271.2 Q 1659.8 271.6, 1659.4 272.4 L 1658.3 271.8 Q 1658.7 270.9, 1659.6 270.2 Q 1660.6 269.6, 1661.9 269.6 Q 1663.6 269.6, 1664.6 270.4 Q 1665.6 271.2, 1665.6 272.5 Q 1665.6 273.4, 1665.1 274.1 Q 1664.6 274.7, 1663.6 275.1 " fill="#000000"/>
<path class="legend" d="M 1673.4 271.0 L 1667.5 271.0 L 1667.5 269.7 L 1675.0 269.7 L 1675.0 270.9 L 1670.4 281.1 L 1668.9 281.1 L 1673.4 271.0 " fill="#000000"/>
<path class="legend" d="M 1682.0 275.1 Q 1683.1 275.5, 1683.6 276.2 Q 1684.2 276.8, 1684.2 278.0 Q 1684.2 278.9, 1683.7 279.7 Q 1683.2 280.4, 1682.4 280.8 Q 1681.5 281.2, 1680.3 281.2 Q 1678.4 281.2, 1677.3 280.4 Q 1676.2 279.5, 1676.2 278.0 Q 1676.2 277.0, 1676.7 276.3 Q 1677.2 275.6, 1678.2 275.1 Q 1677.5 274.7, 1677.1 274.1 Q 1676.7 273.5, 1676.7 272.5 Q 1676.7 271.2, 1677.6 270.4 Q 1678.6 269.6, 1680.2 269.6 Q 1681.9 269.6, 1682.8 270.4 Q 1683.8 271.2, 1683.8 272.5 Q 1683.8 273.3, 1683.4 274.0 Q 1682.9 274.6, 1682.0 275.1 M 1680.2 270.8 Q 1679.3 270.8, 1678.8 271.3 Q 1678.3 271.7, 1678.3 272.5 Q 1678.3 273.1, 1678.6 273.5 Q 1679.0 273.9, 1679.5 274.1 Q 1680.0 274.3, 1680.9 274.7 Q 1681.6 274.2, 1681.9 273.7 Q 1682.2 273.2, 1682.2 272.5 Q 1682.2 271.7, 1681.7 271.3 Q 1681.2 270.8, 1680.2 270.8 M 1680.3 280.0 Q 1681.4 280.0, 1682.0 279.5 Q 1682.6 278.9, 1682.6 277.9 Q 1682.6 277.3, 1682.3 277.0 Q 1682.0 276.6, 1681.5 276.3 Q 1681.0 276.1, 1680.1 275.8 L 1679.3 275.6 Q 1678.5 276.1, 1678.2 276.6 Q 1677.8 277.2, 1677.8 277.9 Q 1677.8 278.9, 1678.5 279.5 Q 1679.2 280.0, 1680.3 280.0 " fill="#000000"/>
<path class="legend" d="M 1689.8 269.6 Q 1691.8 269.6, 1692.8 271.0 Q 1693.9 272.3, 1693.9 275.1 Q 1693.9 278.1, 1692.6 279.6 Q 1691.4 281.2, 1688.9 281.2 Q 1688.2 281.2, 1687.6 281.0 Q 1687.0 280.9, 1686.5 280.5 L 1687.1 279.5 Q 1687.9 279.9, 1688.9 279.9 Q 1690.5 279.9, 1691.3 278.9 Q 1692.2 277.8, 1692.2 275.7 Q 1691.7 276.2, 1690.9 276.5 Q 1690.2 276.8, 1689.4 276.8 Q 1688.4 276.8, 1687.7 276.4 Q 1686.9 275.9, 1686.4 275.2 Q 1686.0 274.4, 1686.0 273.4 Q 1686.0 272.3, 1686.5 271.4 Q 1687.0 270.6, 1687.8 270.1 Q 1688.7 269.6, 1689.8 269.6 M 1687.6 273.4 Q 1687.6 274.4, 1688.2 275.0 Q 1688.7 275.5, 1689.7 275.5 Q 1690.4 275.5, 1691.1 275.3 Q 1691.8 275.0, 1692.2 274.5 Q 1692.2 272.6, 1691.6 271.8 Q 1691.0 270.9, 1689.8 270.9 Q 1689.2 270.9, 1688.7 271.2 Q 1688.2 271.6, 1687.9 272.1 Q 1687.6 272.7, 1687.6 273.4 " fill="#000000"/>
<path class="legend" d="M 1701.5 275.1 Q 1702.5 275.5, 1703.1 276.2 Q 1703.7 276.8, 1703.7 278.0 Q 1703.7 278.9, 1703.2 279.7 Q 1702.7 280.4, 1701.8 280.8 Q 1700.9 281.2, 1699.8 281.2 Q 1697.9 281.2, 1696.8 280.4 Q 1695.7 279.5, 1695.7 278.0 Q 1695.7 277.0, 1696.2 276.3 Q 1696.7 275.6, 1697.7 275.1 Q 1696.9 274.7, 1696.5 274.1 Q 1696.1 273.5, 1696.1 272.5 Q 1696.1 271.2, 1697.1 270.4 Q 1698.1 269.6, 1699.7 269.6 Q 1701.4 269.6, 1702.3 270.4 Q 1703.3 271.2, 1703.3 272.5 Q 1703.3 273.3, 1702.8 274.0 Q 1702.4 274.6, 1701.5 275.1 M 1699.7 270.8 Q 1698.8 270.8, 1698.2 271.3 Q 1697.7 271.7, 1697.7 272.5 Q 1697.7 273.1, 1698.1 273.5 Q 1698.4 273.9, 1698.9 274.1 Q 1699.4 274.3, 1700.4 274.7 Q 1701.1 274.2, 1701.4 273.7 Q 1701.7 273.2, 1701.7 272.5 Q 1701.7 271.7, 1701.2 271.3 Q 1700.7 270.8, 1699.7 270.8 M 1699.8 280.0 Q 1700.8 280.0, 1701.5 279.5 Q 1702.1 278.9, 1702.1 277.9 Q 1702.1 277.3, 1701.8 277.0 Q 1701.4 276.6, 1700.9 276.3 Q 1700.4 276.1, 1699.5 275.8 L 1698.8 275.6 Q 1698.0 276.1, 1697.7 276.6 Q 1697.3 277.2, 1697.3 277.9 Q 1697.3 278.9, 1698.0 279.5 Q 1698.7 280.0, 1699.8 280.0 " fill="#000000"/>
<path class="legend" d="M 1711.4 271.0 L 1705.5 271.0 L 1705.5 269.7 L 1713.0 269.7 L 1713.0 270.9 L 1708.4 281.1 L 1706.9 281.1 L 1711.4 271.0 " fill="#000000"/>
</svg>