<svg xmlns="http://www.w3.org/2000/svg" xmlns:rdkit="http://www.rdkit.org/xml" xmlns:xlink="http://www.w3.org/1999/xlink" version="1.1" baseProfile="full" xml:space="preserve" width="1500px" height="300px" viewBox="0 0 1500 300">
<!-- END OF HEADER -->
<rect style="opacity:1.0;fill:#F1F1E6;stroke:none" width="1500.0" height="300.0" x="0.0" y="0.0"> </rect>
<path class="bond-0 atom-0 atom-1" d="M 221.1,162.3 L 216.1,156.1" style="fill:none;fill-rule:evenodd;stroke:#000000;stroke-width:3.0px;stroke-linecap:butt;stroke-linejoin:miter;stroke-opacity:1"/>
<path class="bond-0 atom-0 atom-1" d="M 216.1,156.1 L 211.1,149.8" style="fill:none;fill-rule:evenodd;stroke:#0000FF;stroke-width:3.0px;stroke-linecap:butt;stroke-linejoin:miter;stroke-opacity:1"/>
<path class="bond-1 atom-1 atom-2" d="M 206.3,131.8 L 210.3,117.4" style="fill:none;fill-rule:evenodd;stroke:#0000FF;stroke-width:3.0px;stroke-linecap:butt;stroke-linejoin:miter;stroke-opacity:1"/>
<path class="bond-1 atom-1 atom-2" d="M 210.3,117.4 L 214.2,103.0" style="fill:none;fill-rule:evenodd;stroke:#000000;stroke-width:3.0px;stroke-linecap:butt;stroke-linejoin:miter;stroke-opacity:1"/>
<path class="bond-2 atom-2 atom-3" d="M 214.2,103.0 L 201.4,94.6" style="fill:none;fill-rule:evenodd;stroke:#000000;stroke-width:3.0px;stroke-linecap:butt;stroke-linejoin:miter;stroke-opacity:1"/>
<path class="bond-2 atom-2 atom-3" d="M 201.4,94.6 L 188.6,86.2" style="fill:none;fill-rule:evenodd;stroke:#0000FF;stroke-width:3.0px;stroke-linecap:butt;stroke-linejoin:miter;stroke-opacity:1"/>
<path class="bond-2 atom-2 atom-3" d="M 207.4,105.6 L 196.4,98.4" style="fill:none;fill-rule:evenodd;stroke:#000000;stroke-width:3.0px;stroke-linecap:butt;stroke-linejoin:miter;stroke-opacity:1"/>
<path class="bond-2 atom-2 atom-3" d="M 196.4,98.4 L 185.4,91.2" style="fill:none;fill-rule:evenodd;stroke:#0000FF;stroke-width:3.0px;stroke-linecap:butt;stroke-linejoin:miter;stroke-opacity:1"/>
<path class="bond-3 atom-3 atom-4" d="M 174.2,87.3 L 162.5,96.7" style="fill:none;fill-rule:evenodd;stroke:#0000FF;stroke-width:3.0px;stroke-linecap:butt;stroke-linejoin:miter;stroke-opacity:1"/>
<path class="bond-3 atom-3 atom-4" d="M 162.5,96.7 L 150.8,106.0" style="fill:none;fill-rule:evenodd;stroke:#000000;stroke-width:3.0px;stroke-linecap:butt;stroke-linejoin:miter;stroke-opacity:1"/>
<path class="bond-4 atom-4 atom-5" d="M 150.8,106.0 L 164.7,142.7" style="fill:none;fill-rule:evenodd;stroke:#000000;stroke-width:3.0px;stroke-linecap:butt;stroke-linejoin:miter;stroke-opacity:1"/>
<path class="bond-4 atom-4 atom-5" d="M 157.8,108.0 L 168.7,136.6" style="fill:none;fill-rule:evenodd;stroke:#000000;stroke-width:3.0px;stroke-linecap:butt;stroke-linejoin:miter;stroke-opacity:1"/>
<path class="bond-5 atom-5 atom-6" d="M 164.7,142.7 L 139.9,173.1" style="fill:none;fill-rule:evenodd;stroke:#000000;stroke-width:3.0px;stroke-linecap:butt;stroke-linejoin:miter;stroke-opacity:1"/>
<path class="bond-6 atom-6 atom-7" d="M 136.5,172.5 L 142.0,187.0" style="fill:none;fill-rule:evenodd;stroke:#000000;stroke-width:3.0px;stroke-linecap:butt;stroke-linejoin:miter;stroke-opacity:1"/>
<path class="bond-6 atom-6 atom-7" d="M 142.0,187.0 L 147.5,201.6" style="fill:none;fill-rule:evenodd;stroke:#FF0000;stroke-width:3.0px;stroke-linecap:butt;stroke-linejoin:miter;stroke-opacity:1"/>
<path class="bond-6 atom-6 atom-7" d="M 142.0,170.4 L 147.5,185.0" style="fill:none;fill-rule:evenodd;stroke:#000000;stroke-width:3.0px;stroke-linecap:butt;stroke-linejoin:miter;stroke-opacity:1"/>
<path class="bond-6 atom-6 atom-7" d="M 147.5,185.0 L 153.0,199.5" style="fill:none;fill-rule:evenodd;stroke:#FF0000;stroke-width:3.0px;stroke-linecap:butt;stroke-linejoin:miter;stroke-opacity:1"/>
<path class="bond-7 atom-6 atom-8" d="M 139.9,173.1 L 124.1,170.5" style="fill:none;fill-rule:evenodd;stroke:#000000;stroke-width:3.0px;stroke-linecap:butt;stroke-linejoin:miter;stroke-opacity:1"/>
<path class="bond-7 atom-6 atom-8" d="M 124.1,170.5 L 108.4,167.9" style="fill:none;fill-rule:evenodd;stroke:#0000FF;stroke-width:3.0px;stroke-linecap:butt;stroke-linejoin:miter;stroke-opacity:1"/>
<path class="bond-8 atom-8 atom-9" d="M 97.7,157.6 L 92.5,143.8" style="fill:none;fill-rule:evenodd;stroke:#0000FF;stroke-width:3.0px;stroke-linecap:butt;stroke-linejoin:miter;stroke-opacity:1"/>
<path class="bond-8 atom-8 atom-9" d="M 92.5,143.8 L 87.3,130.1" style="fill:none;fill-rule:evenodd;stroke:#000000;stroke-width:3.0px;stroke-linecap:butt;stroke-linejoin:miter;stroke-opacity:1"/>
<path class="bond-9 atom-9 atom-10" d="M 89.5,127.4 L 73.5,124.8" style="fill:none;fill-rule:evenodd;stroke:#000000;stroke-width:3.0px;stroke-linecap:butt;stroke-linejoin:miter;stroke-opacity:1"/>
<path class="bond-9 atom-9 atom-10" d="M 73.5,124.8 L 57.5,122.2" style="fill:none;fill-rule:evenodd;stroke:#FF0000;stroke-width:3.0px;stroke-linecap:butt;stroke-linejoin:miter;stroke-opacity:1"/>
<path class="bond-9 atom-9 atom-10" d="M 88.5,133.2 L 72.5,130.6" style="fill:none;fill-rule:evenodd;stroke:#000000;stroke-width:3.0px;stroke-linecap:butt;stroke-linejoin:miter;stroke-opacity:1"/>
<path class="bond-9 atom-9 atom-10" d="M 72.5,130.6 L 56.6,128.0" style="fill:none;fill-rule:evenodd;stroke:#FF0000;stroke-width:3.0px;stroke-linecap:butt;stroke-linejoin:miter;stroke-opacity:1"/>
<path class="bond-10 atom-9 atom-11" d="M 87.3,130.1 L 96.1,119.3" style="fill:none;fill-rule:evenodd;stroke:#000000;stroke-width:3.0px;stroke-linecap:butt;stroke-linejoin:miter;stroke-opacity:1"/>
<path class="bond-10 atom-9 atom-11" d="M 96.1,119.3 L 104.9,108.5" style="fill:none;fill-rule:evenodd;stroke:#0000FF;stroke-width:3.0px;stroke-linecap:butt;stroke-linejoin:miter;stroke-opacity:1"/>
<path class="bond-11 atom-11 atom-12" d="M 108.7,90.6 L 105.3,81.5" style="fill:none;fill-rule:evenodd;stroke:#0000FF;stroke-width:3.0px;stroke-linecap:butt;stroke-linejoin:miter;stroke-opacity:1"/>
<path class="bond-11 atom-11 atom-12" d="M 105.3,81.5 L 101.8,72.4" style="fill:none;fill-rule:evenodd;stroke:#000000;stroke-width:3.0px;stroke-linecap:butt;stroke-linejoin:miter;stroke-opacity:1"/>
<path class="bond-12 atom-8 atom-13" d="M 94.0,175.5 L 88.8,181.8" style="fill:none;fill-rule:evenodd;stroke:#0000FF;stroke-width:3.0px;stroke-linecap:butt;stroke-linejoin:miter;stroke-opacity:1"/>
<path class="bond-12 atom-8 atom-13" d="M 88.8,181.8 L 83.6,188.1" style="fill:none;fill-rule:evenodd;stroke:#000000;stroke-width:3.0px;stroke-linecap:butt;stroke-linejoin:miter;stroke-opacity:1"/>
<path class="bond-13 atom-5 atom-1" d="M 164.7,142.7 L 180.7,142.0" style="fill:none;fill-rule:evenodd;stroke:#000000;stroke-width:3.0px;stroke-linecap:butt;stroke-linejoin:miter;stroke-opacity:1"/>
<path class="bond-13 atom-5 atom-1" d="M 180.7,142.0 L 196.7,141.2" style="fill:none;fill-rule:evenodd;stroke:#0000FF;stroke-width:3.0px;stroke-linecap:butt;stroke-linejoin:miter;stroke-opacity:1"/>
<path class="bond-14 atom-11 atom-4" d="M 119.3,100.9 L 135.1,103.5" style="fill:none;fill-rule:evenodd;stroke:#0000FF;stroke-width:3.0px;stroke-linecap:butt;stroke-linejoin:miter;stroke-opacity:1"/>
<path class="bond-14 atom-11 atom-4" d="M 135.1,103.5 L 150.8,106.0" style="fill:none;fill-rule:evenodd;stroke:#000000;stroke-width:3.0px;stroke-linecap:butt;stroke-linejoin:miter;stroke-opacity:1"/>
<path d="M 214.0,103.8 L 214.2,103.0 L 213.6,102.6" style="fill:none;stroke:#000000;stroke-width:3.0px;stroke-linecap:butt;stroke-linejoin:miter;stroke-opacity:1;"/>
<path d="M 141.1,171.5 L 139.9,173.1 L 139.1,172.9" style="fill:none;stroke:#000000;stroke-width:3.0px;stroke-linecap:butt;stroke-linejoin:miter;stroke-opacity:1;"/>
<path d="M 87.6,130.7 L 87.3,130.1 L 87.7,129.5" style="fill:none;stroke:#000000;stroke-width:3.0px;stroke-linecap:butt;stroke-linejoin:miter;stroke-opacity:1;"/>
<path class="atom-0" d="M 222.4 171.5 Q 222.4 167.6, 224.2 165.6 Q 226.0 163.6, 229.4 163.6 Q 232.7 163.6, 234.4 165.8 L 232.9 167.0 Q 231.7 165.4, 229.4 165.4 Q 227.1 165.4, 225.8 167.0 Q 224.6 168.5, 224.6 171.5 Q 224.6 174.6, 225.9 176.2 Q 227.2 177.8, 229.7 177.8 Q 231.4 177.8, 233.4 176.7 L 234.0 178.4 Q 233.2 178.9, 232.0 179.2 Q 230.7 179.5, 229.4 179.5 Q 226.0 179.5, 224.2 177.5 Q 222.4 175.4, 222.4 171.5 " fill="#000000"/>
<path class="atom-0" d="M 236.4 163.7 L 238.5 163.7 L 238.5 170.4 L 246.5 170.4 L 246.5 163.7 L 248.6 163.7 L 248.6 179.3 L 246.5 179.3 L 246.5 172.1 L 238.5 172.1 L 238.5 179.3 L 236.4 179.3 L 236.4 163.7 " fill="#000000"/>
<path class="atom-0" d="M 256.6 181.7 Q 257.6 182.0, 258.0 182.6 Q 258.5 183.3, 258.5 184.3 Q 258.5 185.2, 258.1 185.8 Q 257.7 186.5, 256.9 186.9 Q 256.1 187.3, 255.0 187.3 Q 253.9 187.3, 253.1 186.9 Q 252.3 186.5, 251.6 185.7 L 252.5 184.9 Q 253.1 185.6, 253.6 185.8 Q 254.2 186.1, 255.0 186.1 Q 256.0 186.1, 256.5 185.6 Q 257.1 185.1, 257.1 184.3 Q 257.1 183.2, 256.5 182.8 Q 255.9 182.3, 254.6 182.3 L 253.9 182.3 L 253.9 181.2 L 254.6 181.2 Q 255.7 181.2, 256.3 180.8 Q 256.9 180.3, 256.9 179.3 Q 256.9 178.7, 256.4 178.3 Q 255.9 177.9, 255.0 177.9 Q 254.2 177.9, 253.6 178.2 Q 253.1 178.5, 252.7 179.3 L 251.7 178.7 Q 252.1 177.9, 252.9 177.3 Q 253.8 176.7, 255.0 176.7 Q 256.5 176.7, 257.4 177.4 Q 258.3 178.1, 258.3 179.3 Q 258.3 180.2, 257.9 180.8 Q 257.4 181.4, 256.6 181.7 " fill="#000000"/>
<path class="atom-1" d="M 200.4 133.1 L 205.5 141.3 Q 206.0 142.1, 206.8 143.6 Q 207.6 145.1, 207.7 145.2 L 207.7 133.1 L 209.8 133.1 L 209.8 148.6 L 207.6 148.6 L 202.1 139.6 Q 201.5 138.6, 200.8 137.4 Q 200.2 136.1, 200.0 135.8 L 200.0 148.6 L 197.9 148.6 L 197.9 133.1 L 200.4 133.1 " fill="#0000FF"/>
<path class="atom-3" d="M 178.0 73.7 L 183.1 82.0 Q 183.6 82.8, 184.4 84.3 Q 185.2 85.7, 185.3 85.8 L 185.3 73.7 L 187.3 73.7 L 187.3 89.3 L 185.2 89.3 L 179.7 80.3 Q 179.1 79.2, 178.4 78.0 Q 177.7 76.8, 177.5 76.4 L 177.5 89.3 L 175.5 89.3 L 175.5 73.7 L 178.0 73.7 " fill="#0000FF"/>
<path class="atom-7" d="M 146.6 209.8 Q 146.6 206.0, 148.4 203.9 Q 150.3 201.8, 153.7 201.8 Q 157.2 201.8, 159.0 203.9 Q 160.9 206.0, 160.9 209.8 Q 160.9 213.6, 159.0 215.7 Q 157.1 217.8, 153.7 217.8 Q 150.3 217.8, 148.4 215.7 Q 146.6 213.6, 146.6 209.8 M 153.7 216.1 Q 156.1 216.1, 157.4 214.5 Q 158.7 212.9, 158.7 209.8 Q 158.7 206.7, 157.4 205.2 Q 156.1 203.6, 153.7 203.6 Q 151.4 203.6, 150.1 205.1 Q 148.8 206.7, 148.8 209.8 Q 148.8 212.9, 150.1 214.5 Q 151.4 216.1, 153.7 216.1 " fill="#FF0000"/>
<path class="atom-8" d="M 97.7 158.9 L 102.8 167.2 Q 103.3 168.0, 104.2 169.5 Q 105.0 170.9, 105.0 171.0 L 105.0 158.9 L 107.1 158.9 L 107.1 174.5 L 104.9 174.5 L 99.5 165.5 Q 98.8 164.4, 98.1 163.2 Q 97.5 162.0, 97.3 161.6 L 97.3 174.5 L 95.3 174.5 L 95.3 158.9 L 97.7 158.9 " fill="#0000FF"/>
<path class="atom-10" d="M 41.5 123.8 Q 41.5 120.0, 43.3 117.9 Q 45.2 115.8, 48.6 115.8 Q 52.1 115.8, 53.9 117.9 Q 55.8 120.0, 55.8 123.8 Q 55.8 127.5, 53.9 129.7 Q 52.0 131.8, 48.6 131.8 Q 45.2 131.8, 43.3 129.7 Q 41.5 127.6, 41.5 123.8 M 48.6 130.1 Q 51.0 130.1, 52.3 128.5 Q 53.6 126.9, 53.6 123.8 Q 53.6 120.7, 52.3 119.2 Q 51.0 117.6, 48.6 117.6 Q 46.2 117.6, 44.9 119.1 Q 43.7 120.7, 43.7 123.8 Q 43.7 126.9, 44.9 128.5 Q 46.2 130.1, 48.6 130.1 " fill="#FF0000"/>
<path class="atom-11" d="M 108.7 91.9 L 113.8 100.2 Q 114.3 101.0, 115.1 102.5 Q 115.9 103.9, 116.0 104.0 L 116.0 91.9 L 118.0 91.9 L 118.0 107.5 L 115.9 107.5 L 110.4 98.5 Q 109.8 97.4, 109.1 96.2 Q 108.4 95.0, 108.2 94.6 L 108.2 107.5 L 106.2 107.5 L 106.2 91.9 L 108.7 91.9 " fill="#0000FF"/>
<path class="atom-12" d="M 68.1 55.3 L 70.2 55.3 L 70.2 62.0 L 78.2 62.0 L 78.2 55.3 L 80.3 55.3 L 80.3 70.9 L 78.2 70.9 L 78.2 63.7 L 70.2 63.7 L 70.2 70.9 L 68.1 70.9 L 68.1 55.3 " fill="#000000"/>
<path class="atom-12" d="M 88.3 73.3 Q 89.3 73.6, 89.8 74.2 Q 90.2 74.9, 90.2 75.9 Q 90.2 76.8, 89.8 77.4 Q 89.4 78.1, 88.6 78.5 Q 87.8 78.8, 86.7 78.8 Q 85.6 78.8, 84.8 78.5 Q 84.0 78.1, 83.3 77.3 L 84.2 76.4 Q 84.8 77.1, 85.3 77.4 Q 85.9 77.7, 86.7 77.7 Q 87.7 77.7, 88.2 77.2 Q 88.8 76.7, 88.8 75.9 Q 88.8 74.8, 88.2 74.4 Q 87.6 73.9, 86.4 73.9 L 85.6 73.9 L 85.6 72.8 L 86.3 72.8 Q 87.4 72.8, 88.0 72.3 Q 88.6 71.8, 88.6 70.9 Q 88.6 70.3, 88.1 69.9 Q 87.6 69.5, 86.7 69.5 Q 85.9 69.5, 85.4 69.8 Q 84.8 70.1, 84.4 70.8 L 83.4 70.3 Q 83.8 69.4, 84.7 68.9 Q 85.5 68.3, 86.7 68.3 Q 88.3 68.3, 89.1 69.0 Q 90.0 69.7, 90.0 70.9 Q 90.0 71.8, 89.6 72.4 Q 89.1 72.9, 88.3 73.3 " fill="#000000"/>
<path class="atom-12" d="M 92.3 63.1 Q 92.3 59.2, 94.1 57.2 Q 95.9 55.2, 99.3 55.2 Q 102.6 55.2, 104.3 57.4 L 102.8 58.6 Q 101.6 57.0, 99.3 57.0 Q 97.0 57.0, 95.7 58.5 Q 94.5 60.1, 94.5 63.1 Q 94.5 66.2, 95.8 67.8 Q 97.1 69.3, 99.6 69.3 Q 101.3 69.3, 103.3 68.3 L 103.9 70.0 Q 103.1 70.5, 101.9 70.8 Q 100.6 71.1, 99.3 71.1 Q 95.9 71.1, 94.1 69.0 Q 92.3 67.0, 92.3 63.1 " fill="#000000"/>
<path class="atom-13" d="M 46.2 189.4 L 48.3 189.4 L 48.3 196.0 L 56.3 196.0 L 56.3 189.4 L 58.4 189.4 L 58.4 204.9 L 56.3 204.9 L 56.3 197.7 L 48.3 197.7 L 48.3 204.9 L 46.2 204.9 L 46.2 189.4 " fill="#000000"/>
<path class="atom-13" d="M 66.3 207.3 Q 67.4 207.6, 67.8 208.3 Q 68.3 208.9, 68.3 209.9 Q 68.3 210.8, 67.9 211.5 Q 67.5 212.1, 66.7 212.5 Q 65.9 212.9, 64.8 212.9 Q 63.7 212.9, 62.9 212.5 Q 62.1 212.1, 61.4 211.3 L 62.2 210.5 Q 62.9 211.2, 63.4 211.5 Q 64.0 211.7, 64.8 211.7 Q 65.7 211.7, 66.3 211.2 Q 66.9 210.7, 66.9 209.9 Q 66.9 208.9, 66.3 208.4 Q 65.7 207.9, 64.4 207.9 L 63.7 207.9 L 63.7 206.9 L 64.3 206.9 Q 65.5 206.9, 66.1 206.4 Q 66.7 205.9, 66.7 205.0 Q 66.7 204.3, 66.2 203.9 Q 65.7 203.5, 64.8 203.5 Q 64.0 203.5, 63.4 203.8 Q 62.9 204.1, 62.5 204.9 L 61.5 204.3 Q 61.9 203.5, 62.7 202.9 Q 63.6 202.3, 64.8 202.3 Q 66.3 202.3, 67.2 203.0 Q 68.1 203.8, 68.1 205.0 Q 68.1 205.8, 67.7 206.4 Q 67.2 207.0, 66.3 207.3 " fill="#000000"/>
<path class="atom-13" d="M 70.3 197.1 Q 70.3 193.3, 72.1 191.2 Q 74.0 189.2, 77.4 189.2 Q 80.6 189.2, 82.3 191.5 L 80.9 192.6 Q 79.6 191.0, 77.4 191.0 Q 75.1 191.0, 73.8 192.6 Q 72.6 194.1, 72.6 197.1 Q 72.6 200.2, 73.9 201.8 Q 75.2 203.4, 77.7 203.4 Q 79.4 203.4, 81.4 202.3 L 82.0 204.0 Q 81.2 204.5, 80.0 204.8 Q 78.7 205.1, 77.4 205.1 Q 74.0 205.1, 72.1 203.1 Q 70.3 201.0, 70.3 197.1 " fill="#000000"/>
<path class="legend" d="M 107.3 275.1 Q 107.3 272.1, 108.8 270.4 Q 110.3 268.7, 113.2 268.7 Q 116.0 268.7, 117.5 270.7 L 116.0 271.9 Q 115.4 271.2, 114.7 270.8 Q 114.1 270.5, 113.2 270.5 Q 111.5 270.5, 110.6 271.7 Q 109.6 272.8, 109.6 275.1 Q 109.6 277.3, 110.6 278.5 Q 111.6 279.7, 113.4 279.7 Q 114.4 279.7, 115.1 279.5 Q 115.8 279.2, 116.6 278.8 L 117.3 280.4 Q 115.5 281.4, 113.2 281.4 Q 110.3 281.4, 108.8 279.7 Q 107.3 278.0, 107.3 275.1 " fill="#000000"/>
<path class="legend" d="M 119.0 277.9 Q 119.0 276.0, 120.6 274.9 Q 122.2 273.8, 125.1 273.8 L 126.9 273.8 L 126.9 273.3 Q 126.9 271.8, 126.2 271.1 Q 125.6 270.5, 124.1 270.5 Q 123.1 270.5, 122.3 270.7 Q 121.6 270.8, 120.4 271.4 L 119.7 269.8 Q 121.9 268.7, 124.1 268.7 Q 126.7 268.7, 127.9 269.8 Q 129.1 270.9, 129.1 273.4 L 129.1 281.3 L 127.4 281.3 Q 127.4 281.2, 127.3 280.8 Q 127.2 280.4, 127.1 279.8 Q 125.4 281.5, 123.0 281.5 Q 121.2 281.5, 120.1 280.6 Q 119.0 279.6, 119.0 277.9 M 121.2 277.9 Q 121.2 278.8, 121.8 279.3 Q 122.4 279.8, 123.5 279.8 Q 124.4 279.8, 125.4 279.3 Q 126.3 278.9, 126.9 278.1 L 126.9 275.5 L 125.2 275.5 Q 123.2 275.5, 122.2 276.1 Q 121.2 276.7, 121.2 277.9 " fill="#000000"/>
<path class="legend" d="M 131.9 270.6 L 131.9 268.9 L 134.1 268.9 L 134.1 267.1 Q 134.1 265.0, 135.2 264.0 Q 136.3 263.0, 138.0 263.0 Q 138.8 263.0, 139.5 263.2 Q 140.2 263.3, 141.0 263.7 L 140.3 265.2 Q 139.2 264.8, 138.2 264.8 Q 137.3 264.8, 136.8 265.4 Q 136.3 265.9, 136.3 266.9 L 136.3 268.9 L 140.1 268.9 L 140.1 270.6 L 136.3 270.6 L 136.3 285.0 L 134.1 285.0 L 134.1 270.6 L 131.9 270.6 " fill="#000000"/>
<path class="legend" d="M 141.2 270.6 L 141.2 268.9 L 143.4 268.9 L 143.4 267.1 Q 143.4 265.0, 144.5 264.0 Q 145.6 263.0, 147.3 263.0 Q 148.2 263.0, 148.8 263.2 Q 149.5 263.3, 150.3 263.7 L 149.6 265.2 Q 148.5 264.8, 147.6 264.8 Q 146.7 264.8, 146.2 265.4 Q 145.7 265.9, 145.7 266.9 L 145.7 268.9 L 149.4 268.9 L 149.4 270.6 L 145.7 270.6 L 145.7 285.0 L 143.4 285.0 L 143.4 270.6 L 141.2 270.6 " fill="#000000"/>
<path class="legend" d="M 150.6 275.1 Q 150.6 272.0, 152.1 270.4 Q 153.6 268.7, 156.4 268.7 Q 159.1 268.7, 160.3 270.3 Q 161.5 271.9, 161.5 275.0 L 161.5 275.4 L 152.9 275.4 Q 152.9 277.5, 153.9 278.6 Q 154.8 279.7, 156.6 279.7 Q 157.5 279.7, 158.4 279.5 Q 159.3 279.2, 160.4 278.7 L 161.0 280.3 Q 159.8 280.9, 158.7 281.2 Q 157.6 281.4, 156.4 281.4 Q 153.6 281.4, 152.1 279.8 Q 150.6 278.1, 150.6 275.1 M 156.4 270.5 Q 154.9 270.5, 154.1 271.3 Q 153.2 272.1, 153.0 273.7 L 159.1 273.7 Q 159.0 272.0, 158.3 271.3 Q 157.6 270.5, 156.4 270.5 " fill="#000000"/>
<path class="legend" d="M 163.3 264.3 L 165.5 264.3 L 165.5 266.4 L 163.3 266.4 L 163.3 264.3 M 163.3 268.9 L 165.5 268.9 L 165.5 281.3 L 163.3 281.3 L 163.3 268.9 " fill="#000000"/>
<path class="legend" d="M 174.9 268.7 Q 176.9 268.7, 177.9 269.8 Q 179.0 271.0, 179.0 273.1 L 179.0 281.3 L 176.7 281.3 L 176.7 273.3 Q 176.7 271.8, 176.2 271.2 Q 175.6 270.5, 174.4 270.5 Q 173.2 270.5, 172.3 271.0 Q 171.4 271.5, 170.8 272.4 L 170.8 281.3 L 168.5 281.3 L 168.5 268.9 L 170.4 268.9 L 170.6 270.6 Q 172.3 268.7, 174.9 268.7 " fill="#000000"/>
<path class="legend" d="M 181.8 275.1 Q 181.8 272.0, 183.3 270.4 Q 184.8 268.7, 187.5 268.7 Q 190.2 268.7, 191.4 270.3 Q 192.7 271.9, 192.7 275.0 L 192.7 275.4 L 184.1 275.4 Q 184.1 277.5, 185.0 278.6 Q 186.0 279.7, 187.7 279.7 Q 188.7 279.7, 189.6 279.5 Q 190.5 279.2, 191.5 278.7 L 192.2 280.3 Q 191.0 280.9, 189.9 281.2 Q 188.8 281.4, 187.6 281.4 Q 184.8 281.4, 183.3 279.8 Q 181.8 278.1, 181.8 275.1 M 187.5 270.5 Q 186.1 270.5, 185.3 271.3 Q 184.4 272.1, 184.2 273.7 L 190.3 273.7 Q 190.1 272.0, 189.5 271.3 Q 188.8 270.5, 187.5 270.5 " fill="#000000"/>
<path class="bond-0 atom-0 atom-1" d="M 348.1,152.3 L 348.1,113.0" style="fill:none;fill-rule:evenodd;stroke:#000000;stroke-width:3.0px;stroke-linecap:butt;stroke-linejoin:miter;stroke-opacity:1"/>
<path class="bond-0 atom-0 atom-1" d="M 354.0,148.9 L 354.0,116.4" style="fill:none;fill-rule:evenodd;stroke:#000000;stroke-width:3.0px;stroke-linecap:butt;stroke-linejoin:miter;stroke-opacity:1"/>
<path class="bond-1 atom-1 atom-2" d="M 348.1,113.0 L 382.1,93.4" style="fill:none;fill-rule:evenodd;stroke:#000000;stroke-width:3.0px;stroke-linecap:butt;stroke-linejoin:miter;stroke-opacity:1"/>
<path class="bond-2 atom-2 atom-3" d="M 382.1,93.4 L 416.0,113.0" style="fill:none;fill-rule:evenodd;stroke:#000000;stroke-width:3.0px;stroke-linecap:butt;stroke-linejoin:miter;stroke-opacity:1"/>
<path class="bond-2 atom-2 atom-3" d="M 382.1,100.2 L 410.2,116.4" style="fill:none;fill-rule:evenodd;stroke:#000000;stroke-width:3.0px;stroke-linecap:butt;stroke-linejoin:miter;stroke-opacity:1"/>
<path class="bond-3 atom-3 atom-4" d="M 416.0,113.0 L 416.0,152.3" style="fill:none;fill-rule:evenodd;stroke:#000000;stroke-width:3.0px;stroke-linecap:butt;stroke-linejoin:miter;stroke-opacity:1"/>
<path class="bond-4 atom-4 atom-5" d="M 416.0,152.3 L 382.1,171.9" style="fill:none;fill-rule:evenodd;stroke:#000000;stroke-width:3.0px;stroke-linecap:butt;stroke-linejoin:miter;stroke-opacity:1"/>
<path class="bond-4 atom-4 atom-5" d="M 410.2,148.9 L 382.1,165.1" style="fill:none;fill-rule:evenodd;stroke:#000000;stroke-width:3.0px;stroke-linecap:butt;stroke-linejoin:miter;stroke-opacity:1"/>
<path class="bond-5 atom-4 atom-6" d="M 416.0,152.3 L 450.0,171.9" style="fill:none;fill-rule:evenodd;stroke:#000000;stroke-width:3.0px;stroke-linecap:butt;stroke-linejoin:miter;stroke-opacity:1"/>
<path class="bond-6 atom-6 atom-7" d="M 447.1,170.2 L 447.1,186.0" style="fill:none;fill-rule:evenodd;stroke:#000000;stroke-width:3.0px;stroke-linecap:butt;stroke-linejoin:miter;stroke-opacity:1"/>
<path class="bond-6 atom-6 atom-7" d="M 447.1,186.0 L 447.1,201.9" style="fill:none;fill-rule:evenodd;stroke:#FF0000;stroke-width:3.0px;stroke-linecap:butt;stroke-linejoin:miter;stroke-opacity:1"/>
<path class="bond-6 atom-6 atom-7" d="M 452.9,170.2 L 452.9,186.0" style="fill:none;fill-rule:evenodd;stroke:#000000;stroke-width:3.0px;stroke-linecap:butt;stroke-linejoin:miter;stroke-opacity:1"/>
<path class="bond-6 atom-6 atom-7" d="M 452.9,186.0 L 452.9,201.9" style="fill:none;fill-rule:evenodd;stroke:#FF0000;stroke-width:3.0px;stroke-linecap:butt;stroke-linejoin:miter;stroke-opacity:1"/>
<path class="bond-7 atom-6 atom-8" d="M 450.0,171.9 L 484.0,152.3" style="fill:none;fill-rule:evenodd;stroke:#000000;stroke-width:3.0px;stroke-linecap:butt;stroke-linejoin:miter;stroke-opacity:1"/>
<path class="bond-8 atom-8 atom-9" d="M 484.0,152.3 L 517.9,171.9" style="fill:none;fill-rule:evenodd;stroke:#000000;stroke-width:3.0px;stroke-linecap:butt;stroke-linejoin:miter;stroke-opacity:1"/>
<path class="bond-8 atom-8 atom-9" d="M 489.8,148.9 L 517.9,165.1" style="fill:none;fill-rule:evenodd;stroke:#000000;stroke-width:3.0px;stroke-linecap:butt;stroke-linejoin:miter;stroke-opacity:1"/>
<path class="bond-9 atom-9 atom-10" d="M 517.9,171.9 L 551.9,152.3" style="fill:none;fill-rule:evenodd;stroke:#000000;stroke-width:3.0px;stroke-linecap:butt;stroke-linejoin:miter;stroke-opacity:1"/>
<path class="bond-10 atom-10 atom-11" d="M 551.9,152.3 L 551.9,113.0" style="fill:none;fill-rule:evenodd;stroke:#000000;stroke-width:3.0px;stroke-linecap:butt;stroke-linejoin:miter;stroke-opacity:1"/>
<path class="bond-10 atom-10 atom-11" d="M 546.0,148.9 L 546.0,116.4" style="fill:none;fill-rule:evenodd;stroke:#000000;stroke-width:3.0px;stroke-linecap:butt;stroke-linejoin:miter;stroke-opacity:1"/>
<path class="bond-11 atom-11 atom-12" d="M 551.9,113.0 L 517.9,93.4" style="fill:none;fill-rule:evenodd;stroke:#000000;stroke-width:3.0px;stroke-linecap:butt;stroke-linejoin:miter;stroke-opacity:1"/>
<path class="bond-12 atom-12 atom-13" d="M 517.9,93.4 L 484.0,113.0" style="fill:none;fill-rule:evenodd;stroke:#000000;stroke-width:3.0px;stroke-linecap:butt;stroke-linejoin:miter;stroke-opacity:1"/>
<path class="bond-12 atom-12 atom-13" d="M 517.9,100.2 L 489.8,116.4" style="fill:none;fill-rule:evenodd;stroke:#000000;stroke-width:3.0px;stroke-linecap:butt;stroke-linejoin:miter;stroke-opacity:1"/>
<path class="bond-13 atom-13 atom-14" d="M 484.0,113.0 L 450.0,93.4" style="fill:none;fill-rule:evenodd;stroke:#000000;stroke-width:3.0px;stroke-linecap:butt;stroke-linejoin:miter;stroke-opacity:1"/>
<path class="bond-14 atom-14 atom-15" d="M 452.9,95.1 L 452.9,79.4" style="fill:none;fill-rule:evenodd;stroke:#000000;stroke-width:3.0px;stroke-linecap:butt;stroke-linejoin:miter;stroke-opacity:1"/>
<path class="bond-14 atom-14 atom-15" d="M 452.9,79.4 L 452.9,63.6" style="fill:none;fill-rule:evenodd;stroke:#FF0000;stroke-width:3.0px;stroke-linecap:butt;stroke-linejoin:miter;stroke-opacity:1"/>
<path class="bond-14 atom-14 atom-15" d="M 447.1,95.1 L 447.1,79.4" style="fill:none;fill-rule:evenodd;stroke:#000000;stroke-width:3.0px;stroke-linecap:butt;stroke-linejoin:miter;stroke-opacity:1"/>
<path class="bond-14 atom-14 atom-15" d="M 447.1,79.4 L 447.1,63.6" style="fill:none;fill-rule:evenodd;stroke:#FF0000;stroke-width:3.0px;stroke-linecap:butt;stroke-linejoin:miter;stroke-opacity:1"/>
<path class="bond-15 atom-12 atom-16" d="M 517.9,93.4 L 517.9,78.4" style="fill:none;fill-rule:evenodd;stroke:#000000;stroke-width:3.0px;stroke-linecap:butt;stroke-linejoin:miter;stroke-opacity:1"/>
<path class="bond-15 atom-12 atom-16" d="M 517.9,78.4 L 517.9,63.3" style="fill:none;fill-rule:evenodd;stroke:#0000FF;stroke-width:3.0px;stroke-linecap:butt;stroke-linejoin:miter;stroke-opacity:1"/>
<path class="bond-16 atom-9 atom-17" d="M 517.9,171.9 L 517.9,186.9" style="fill:none;fill-rule:evenodd;stroke:#000000;stroke-width:3.0px;stroke-linecap:butt;stroke-linejoin:miter;stroke-opacity:1"/>
<path class="bond-16 atom-9 atom-17" d="M 517.9,186.9 L 517.9,202.0" style="fill:none;fill-rule:evenodd;stroke:#0000FF;stroke-width:3.0px;stroke-linecap:butt;stroke-linejoin:miter;stroke-opacity:1"/>
<path class="bond-17 atom-5 atom-0" d="M 382.1,171.9 L 348.1,152.3" style="fill:none;fill-rule:evenodd;stroke:#000000;stroke-width:3.0px;stroke-linecap:butt;stroke-linejoin:miter;stroke-opacity:1"/>
<path class="bond-18 atom-14 atom-3" d="M 450.0,93.4 L 416.0,113.0" style="fill:none;fill-rule:evenodd;stroke:#000000;stroke-width:3.0px;stroke-linecap:butt;stroke-linejoin:miter;stroke-opacity:1"/>
<path class="bond-19 atom-13 atom-8" d="M 484.0,113.0 L 484.0,152.3" style="fill:none;fill-rule:evenodd;stroke:#000000;stroke-width:3.0px;stroke-linecap:butt;stroke-linejoin:miter;stroke-opacity:1"/>
<path d="M 348.1,150.3 L 348.1,152.3 L 349.8,153.2" style="fill:none;stroke:#000000;stroke-width:3.0px;stroke-linecap:butt;stroke-linejoin:miter;stroke-opacity:1;"/>
<path d="M 348.1,115.0 L 348.1,113.0 L 349.8,112.1" style="fill:none;stroke:#000000;stroke-width:3.0px;stroke-linecap:butt;stroke-linejoin:miter;stroke-opacity:1;"/>
<path d="M 380.4,94.4 L 382.1,93.4 L 383.8,94.4" style="fill:none;stroke:#000000;stroke-width:3.0px;stroke-linecap:butt;stroke-linejoin:miter;stroke-opacity:1;"/>
<path d="M 383.8,170.9 L 382.1,171.9 L 380.4,170.9" style="fill:none;stroke:#000000;stroke-width:3.0px;stroke-linecap:butt;stroke-linejoin:miter;stroke-opacity:1;"/>
<path d="M 448.3,170.9 L 450.0,171.9 L 451.7,170.9" style="fill:none;stroke:#000000;stroke-width:3.0px;stroke-linecap:butt;stroke-linejoin:miter;stroke-opacity:1;"/>
<path d="M 550.2,153.2 L 551.9,152.3 L 551.9,150.3" style="fill:none;stroke:#000000;stroke-width:3.0px;stroke-linecap:butt;stroke-linejoin:miter;stroke-opacity:1;"/>
<path d="M 551.9,115.0 L 551.9,113.0 L 550.2,112.1" style="fill:none;stroke:#000000;stroke-width:3.0px;stroke-linecap:butt;stroke-linejoin:miter;stroke-opacity:1;"/>
<path d="M 451.7,94.4 L 450.0,93.4 L 448.3,94.4" style="fill:none;stroke:#000000;stroke-width:3.0px;stroke-linecap:butt;stroke-linejoin:miter;stroke-opacity:1;"/>
<path class="atom-7" d="M 442.9 211.1 Q 442.9 207.4, 444.7 205.3 Q 446.5 203.2, 450.0 203.2 Q 453.5 203.2, 455.3 205.3 Q 457.1 207.4, 457.1 211.1 Q 457.1 214.9, 455.3 217.0 Q 453.4 219.2, 450.0 219.2 Q 446.6 219.2, 444.7 217.0 Q 442.9 214.9, 442.9 211.1 M 450.0 217.4 Q 452.4 217.4, 453.7 215.8 Q 454.9 214.2, 454.9 211.1 Q 454.9 208.0, 453.7 206.5 Q 452.4 204.9, 450.0 204.9 Q 447.6 204.9, 446.3 206.5 Q 445.1 208.0, 445.1 211.1 Q 445.1 214.3, 446.3 215.8 Q 447.6 217.4, 450.0 217.4 " fill="#FF0000"/>
<path class="atom-15" d="M 442.8 54.3 Q 442.8 50.5, 444.7 48.5 Q 446.5 46.4, 450.0 46.4 Q 453.5 46.4, 455.3 48.5 Q 457.1 50.5, 457.1 54.3 Q 457.1 58.1, 455.3 60.2 Q 453.4 62.4, 450.0 62.4 Q 446.6 62.4, 444.7 60.2 Q 442.8 58.1, 442.8 54.3 M 450.0 60.6 Q 452.4 60.6, 453.7 59.0 Q 454.9 57.4, 454.9 54.3 Q 454.9 51.2, 453.7 49.7 Q 452.4 48.1, 450.0 48.1 Q 447.6 48.1, 446.3 49.7 Q 445.0 51.2, 445.0 54.3 Q 445.0 57.4, 446.3 59.0 Q 447.6 60.6, 450.0 60.6 " fill="#FF0000"/>
<path class="atom-16" d="M 514.5 46.4 L 519.6 54.7 Q 520.1 55.5, 520.9 57.0 Q 521.7 58.5, 521.7 58.5 L 521.7 46.4 L 523.8 46.4 L 523.8 62.0 L 521.7 62.0 L 516.2 53.0 Q 515.6 51.9, 514.9 50.7 Q 514.2 49.5, 514.0 49.2 L 514.0 62.0 L 512.0 62.0 L 512.0 46.4 L 514.5 46.4 " fill="#0000FF"/>
<path class="atom-16" d="M 526.8 46.4 L 528.9 46.4 L 528.9 53.1 L 536.9 53.1 L 536.9 46.4 L 539.0 46.4 L 539.0 62.0 L 536.9 62.0 L 536.9 54.8 L 528.9 54.8 L 528.9 62.0 L 526.8 62.0 L 526.8 46.4 " fill="#0000FF"/>
<path class="atom-16" d="M 542.0 61.5 Q 542.4 60.5, 543.3 60.0 Q 544.2 59.4, 545.5 59.4 Q 547.0 59.4, 547.9 60.3 Q 548.8 61.1, 548.8 62.6 Q 548.8 64.1, 547.6 65.5 Q 546.5 67.0, 544.2 68.7 L 548.9 68.7 L 548.9 69.8 L 542.0 69.8 L 542.0 68.8 Q 543.9 67.5, 545.0 66.5 Q 546.2 65.4, 546.7 64.5 Q 547.3 63.6, 547.3 62.7 Q 547.3 61.7, 546.8 61.1 Q 546.3 60.6, 545.5 60.6 Q 544.6 60.6, 544.1 60.9 Q 543.5 61.2, 543.1 62.0 L 542.0 61.5 " fill="#0000FF"/>
<path class="atom-17" d="M 514.5 203.3 L 519.6 211.5 Q 520.1 212.3, 520.9 213.8 Q 521.7 215.3, 521.7 215.4 L 521.7 203.3 L 523.8 203.3 L 523.8 218.9 L 521.7 218.9 L 516.2 209.8 Q 515.6 208.8, 514.9 207.6 Q 514.2 206.4, 514.0 206.0 L 514.0 218.9 L 512.0 218.9 L 512.0 203.3 L 514.5 203.3 " fill="#0000FF"/>
<path class="atom-17" d="M 526.8 203.3 L 528.9 203.3 L 528.9 209.9 L 536.9 209.9 L 536.9 203.3 L 539.0 203.3 L 539.0 218.9 L 536.9 218.9 L 536.9 211.7 L 528.9 211.7 L 528.9 218.9 L 526.8 218.9 L 526.8 203.3 " fill="#0000FF"/>
<path class="atom-17" d="M 542.0 218.3 Q 542.4 217.3, 543.3 216.8 Q 544.2 216.2, 545.5 216.2 Q 547.0 216.2, 547.9 217.1 Q 548.8 217.9, 548.8 219.4 Q 548.8 220.9, 547.6 222.4 Q 546.5 223.8, 544.2 225.5 L 548.9 225.5 L 548.9 226.6 L 542.0 226.6 L 542.0 225.7 Q 543.9 224.3, 545.0 223.3 Q 546.2 222.3, 546.7 221.4 Q 547.3 220.4, 547.3 219.5 Q 547.3 218.5, 546.8 218.0 Q 546.3 217.4, 545.5 217.4 Q 544.6 217.4, 544.1 217.7 Q 543.5 218.1, 543.1 218.8 L 542.0 218.3 " fill="#0000FF"/>
<path class="legend" d="M 374.3 266.5 Q 376.4 266.5, 377.4 267.7 Q 378.5 268.8, 378.5 270.9 L 378.5 279.1 L 376.2 279.1 L 376.2 271.1 Q 376.2 269.6, 375.7 269.0 Q 375.1 268.3, 373.9 268.3 Q 372.8 268.3, 371.8 268.8 Q 370.9 269.4, 370.4 270.3 Q 370.4 270.5, 370.4 270.9 L 370.4 279.1 L 368.1 279.1 L 368.1 271.1 Q 368.1 269.6, 367.6 269.0 Q 367.0 268.3, 365.8 268.3 Q 364.7 268.3, 363.8 268.8 Q 362.9 269.4, 362.3 270.2 L 362.3 279.1 L 360.0 279.1 L 360.0 266.8 L 361.9 266.8 L 362.1 268.4 Q 363.7 266.5, 366.2 266.5 Q 369.1 266.5, 370.0 268.7 Q 371.6 266.5, 374.3 266.5 " fill="#000000"/>
<path class="legend" d="M 381.5 272.9 Q 381.5 269.9, 383.0 268.2 Q 384.6 266.5, 387.4 266.5 Q 390.2 266.5, 391.7 268.2 Q 393.2 269.9, 393.2 272.9 Q 393.2 275.9, 391.7 277.6 Q 390.2 279.3, 387.4 279.3 Q 384.6 279.3, 383.0 277.6 Q 381.5 275.9, 381.5 272.9 M 383.8 272.9 Q 383.8 275.2, 384.7 276.3 Q 385.7 277.5, 387.4 277.5 Q 389.1 277.5, 390.0 276.3 Q 390.9 275.2, 390.9 272.9 Q 390.9 270.6, 390.0 269.5 Q 389.1 268.3, 387.4 268.3 Q 385.7 268.3, 384.7 269.5 Q 383.8 270.6, 383.8 272.9 " fill="#000000"/>
<path class="legend" d="M 401.3 266.5 Q 403.8 266.5, 405.2 268.2 Q 406.7 269.7, 406.7 272.7 Q 406.7 275.8, 405.0 277.6 Q 403.3 279.3, 400.3 279.3 Q 398.4 279.3, 396.6 278.6 L 395.5 278.3 L 395.5 260.9 L 397.7 260.9 L 397.7 268.1 Q 399.0 266.5, 401.3 266.5 M 400.3 277.5 Q 402.2 277.5, 403.3 276.3 Q 404.4 275.0, 404.4 272.7 Q 404.4 270.6, 403.5 269.5 Q 402.7 268.3, 401.1 268.3 Q 399.9 268.3, 399.0 269.0 Q 398.1 269.7, 397.7 270.8 L 397.7 277.2 Q 399.0 277.5, 400.3 277.5 " fill="#000000"/>
<path class="legend" d="M 408.9 260.9 L 411.2 260.9 L 411.2 279.1 L 408.9 279.1 L 408.9 260.9 " fill="#000000"/>
<path class="legend" d="M 414.4 272.9 Q 414.4 269.9, 415.9 268.2 Q 417.4 266.5, 420.2 266.5 Q 422.9 266.5, 424.1 268.2 Q 425.3 269.8, 425.3 272.8 L 425.3 273.2 L 416.7 273.2 Q 416.7 275.3, 417.7 276.4 Q 418.6 277.5, 420.4 277.5 Q 421.3 277.5, 422.2 277.3 Q 423.1 277.1, 424.2 276.6 L 424.8 278.1 Q 423.6 278.7, 422.5 279.0 Q 421.4 279.3, 420.2 279.3 Q 417.5 279.3, 415.9 277.6 Q 414.4 275.9, 414.4 272.9 M 420.2 268.3 Q 418.8 268.3, 417.9 269.1 Q 417.1 270.0, 416.8 271.5 L 422.9 271.5 Q 422.8 269.9, 422.1 269.1 Q 421.4 268.3, 420.2 268.3 " fill="#000000"/>
<path class="legend" d="M 436.9 266.8 L 439.1 266.8 L 432.7 285.0 L 430.7 285.0 L 432.7 279.1 L 431.8 279.1 L 427.4 266.8 L 429.7 266.8 L 433.3 277.2 L 436.9 266.8 " fill="#000000"/>
<path class="legend" d="M 452.7 280.3 L 452.7 282.3 L 440.5 282.3 L 440.5 280.3 L 452.7 280.3 " fill="#000000"/>
<path class="legend" d="M 453.9 265.3 Q 454.6 263.7, 456.1 262.8 Q 457.5 261.9, 459.6 261.9 Q 462.2 261.9, 463.6 263.3 Q 465.1 264.7, 465.1 267.2 Q 465.1 269.7, 463.2 272.0 Q 461.3 274.4, 457.5 277.2 L 465.3 277.2 L 465.3 279.1 L 453.9 279.1 L 453.9 277.5 Q 457.1 275.2, 458.9 273.6 Q 460.8 271.9, 461.7 270.4 Q 462.7 268.8, 462.7 267.3 Q 462.7 265.7, 461.8 264.7 Q 461.0 263.8, 459.6 263.8 Q 458.2 263.8, 457.3 264.4 Q 456.4 264.9, 455.8 266.2 L 453.9 265.3 " fill="#000000"/>
<path class="legend" d="M 479.0 273.3 L 481.0 273.3 L 481.0 275.2 L 479.0 275.2 L 479.0 279.1 L 476.7 279.1 L 476.7 275.2 L 467.9 275.2 L 467.9 273.7 L 475.4 262.1 L 479.0 262.1 L 479.0 273.3 M 470.7 273.3 L 476.7 273.3 L 476.7 263.6 L 470.7 273.3 " fill="#000000"/>
<path class="legend" d="M 483.4 265.3 Q 484.0 263.7, 485.5 262.8 Q 487.0 261.9, 489.1 261.9 Q 491.7 261.9, 493.1 263.3 Q 494.5 264.7, 494.5 267.2 Q 494.5 269.7, 492.7 272.0 Q 490.8 274.4, 487.0 277.2 L 494.8 277.2 L 494.8 279.1 L 483.4 279.1 L 483.4 277.5 Q 486.5 275.2, 488.4 273.6 Q 490.3 271.9, 491.2 270.4 Q 492.1 268.8, 492.1 267.3 Q 492.1 265.7, 491.3 264.7 Q 490.5 263.8, 489.1 263.8 Q 487.7 263.8, 486.8 264.4 Q 485.9 264.9, 485.2 266.2 L 483.4 265.3 " fill="#000000"/>
<path class="legend" d="M 508.5 273.3 L 510.5 273.3 L 510.5 275.2 L 508.5 275.2 L 508.5 279.1 L 506.2 279.1 L 506.2 275.2 L 497.4 275.2 L 497.4 273.7 L 504.9 262.1 L 508.5 262.1 L 508.5 273.3 M 500.2 273.3 L 506.2 273.3 L 506.2 263.6 L 500.2 273.3 " fill="#000000"/>
<path class="legend" d="M 521.5 270.1 Q 523.1 270.8, 524.0 271.8 Q 524.9 272.8, 524.9 274.4 Q 524.9 275.9, 524.1 277.0 Q 523.4 278.1, 522.0 278.7 Q 520.7 279.3, 519.0 279.3 Q 516.1 279.3, 514.5 278.0 Q 512.9 276.7, 512.9 274.4 Q 512.9 273.0, 513.6 272.0 Q 514.3 271.0, 515.8 270.2 Q 514.7 269.5, 514.1 268.6 Q 513.5 267.7, 513.5 266.3 Q 513.5 264.3, 514.9 263.1 Q 516.4 261.9, 518.9 261.9 Q 521.3 261.9, 522.8 263.1 Q 524.2 264.3, 524.2 266.3 Q 524.2 267.5, 523.5 268.4 Q 522.9 269.4, 521.5 270.1 M 518.9 263.7 Q 517.4 263.7, 516.6 264.4 Q 515.9 265.1, 515.9 266.3 Q 515.9 267.1, 516.4 267.7 Q 516.9 268.3, 517.7 268.7 Q 518.4 269.0, 519.9 269.5 Q 520.9 268.8, 521.4 268.0 Q 521.8 267.2, 521.8 266.3 Q 521.8 265.1, 521.0 264.4 Q 520.3 263.7, 518.9 263.7 M 519.0 277.5 Q 520.5 277.5, 521.5 276.7 Q 522.5 275.8, 522.5 274.4 Q 522.5 273.5, 522.0 272.9 Q 521.4 272.4, 520.7 272.0 Q 519.9 271.7, 518.6 271.2 L 517.5 270.9 Q 516.3 271.6, 515.8 272.5 Q 515.3 273.3, 515.3 274.4 Q 515.3 275.8, 516.3 276.7 Q 517.3 277.5, 519.0 277.5 " fill="#000000"/>
<path class="legend" d="M 533.8 279.3 Q 530.6 279.3, 529.1 277.0 Q 527.5 274.7, 527.5 270.6 Q 527.5 266.5, 529.1 264.2 Q 530.6 261.9, 533.8 261.9 Q 536.9 261.9, 538.4 264.2 Q 540.0 266.5, 540.0 270.6 Q 540.0 274.7, 538.4 277.0 Q 536.9 279.3, 533.8 279.3 M 533.8 277.4 Q 535.6 277.4, 536.6 275.7 Q 537.6 273.9, 537.6 270.6 Q 537.6 267.2, 536.6 265.5 Q 535.6 263.8, 533.8 263.8 Q 531.9 263.8, 530.9 265.5 Q 529.9 267.2, 529.9 270.6 Q 529.9 273.9, 530.9 275.7 Q 531.9 277.4, 533.8 277.4 " fill="#000000"/>
<path class="bond-0 atom-0 atom-1" d="M 703.2,196.4 L 676.9,167.4" style="fill:none;fill-rule:evenodd;stroke:#000000;stroke-width:3.0px;stroke-linecap:butt;stroke-linejoin:miter;stroke-opacity:1"/>
<path class="bond-0 atom-0 atom-1" d="M 705.3,190.0 L 683.5,166.0" style="fill:none;fill-rule:evenodd;stroke:#000000;stroke-width:3.0px;stroke-linecap:butt;stroke-linejoin:miter;stroke-opacity:1"/>
<path class="bond-1 atom-1 atom-2" d="M 676.9,167.4 L 688.8,130.1" style="fill:none;fill-rule:evenodd;stroke:#000000;stroke-width:3.0px;stroke-linecap:butt;stroke-linejoin:miter;stroke-opacity:1"/>
<path class="bond-2 atom-2 atom-3" d="M 688.8,130.1 L 727.1,121.8" style="fill:none;fill-rule:evenodd;stroke:#000000;stroke-width:3.0px;stroke-linecap:butt;stroke-linejoin:miter;stroke-opacity:1"/>
<path class="bond-2 atom-2 atom-3" d="M 693.4,135.1 L 725.1,128.2" style="fill:none;fill-rule:evenodd;stroke:#000000;stroke-width:3.0px;stroke-linecap:butt;stroke-linejoin:miter;stroke-opacity:1"/>
<path class="bond-3 atom-3 atom-4" d="M 727.1,121.8 L 753.5,150.8" style="fill:none;fill-rule:evenodd;stroke:#000000;stroke-width:3.0px;stroke-linecap:butt;stroke-linejoin:miter;stroke-opacity:1"/>
<path class="bond-4 atom-4 atom-5" d="M 753.5,150.8 L 741.5,188.1" style="fill:none;fill-rule:evenodd;stroke:#000000;stroke-width:3.0px;stroke-linecap:butt;stroke-linejoin:miter;stroke-opacity:1"/>
<path class="bond-4 atom-4 atom-5" d="M 746.9,152.2 L 737.0,183.1" style="fill:none;fill-rule:evenodd;stroke:#000000;stroke-width:3.0px;stroke-linecap:butt;stroke-linejoin:miter;stroke-opacity:1"/>
<path class="bond-5 atom-4 atom-6" d="M 753.5,150.8 L 791.8,142.5" style="fill:none;fill-rule:evenodd;stroke:#000000;stroke-width:3.0px;stroke-linecap:butt;stroke-linejoin:miter;stroke-opacity:1"/>
<path class="bond-6 atom-6 atom-7" d="M 791.8,142.5 L 800.8,152.4" style="fill:none;fill-rule:evenodd;stroke:#000000;stroke-width:3.0px;stroke-linecap:butt;stroke-linejoin:miter;stroke-opacity:1"/>
<path class="bond-6 atom-6 atom-7" d="M 800.8,152.4 L 809.8,162.3" style="fill:none;fill-rule:evenodd;stroke:#FF0000;stroke-width:3.0px;stroke-linecap:butt;stroke-linejoin:miter;stroke-opacity:1"/>
<path class="bond-6 atom-6 atom-7" d="M 789.7,148.9 L 796.5,156.3" style="fill:none;fill-rule:evenodd;stroke:#000000;stroke-width:3.0px;stroke-linecap:butt;stroke-linejoin:miter;stroke-opacity:1"/>
<path class="bond-6 atom-6 atom-7" d="M 796.5,156.3 L 805.5,166.3" style="fill:none;fill-rule:evenodd;stroke:#FF0000;stroke-width:3.0px;stroke-linecap:butt;stroke-linejoin:miter;stroke-opacity:1"/>
<path class="bond-7 atom-3 atom-8" d="M 727.1,121.8 L 731.6,107.8" style="fill:none;fill-rule:evenodd;stroke:#000000;stroke-width:3.0px;stroke-linecap:butt;stroke-linejoin:miter;stroke-opacity:1"/>
<path class="bond-7 atom-3 atom-8" d="M 731.6,107.8 L 736.1,93.8" style="fill:none;fill-rule:evenodd;stroke:#FF0000;stroke-width:3.0px;stroke-linecap:butt;stroke-linejoin:miter;stroke-opacity:1"/>
<path class="bond-8 atom-5 atom-0" d="M 741.5,188.1 L 703.2,196.4" style="fill:none;fill-rule:evenodd;stroke:#000000;stroke-width:3.0px;stroke-linecap:butt;stroke-linejoin:miter;stroke-opacity:1"/>
<path d="M 701.9,195.0 L 703.2,196.4 L 705.1,196.0" style="fill:none;stroke:#000000;stroke-width:3.0px;stroke-linecap:butt;stroke-linejoin:miter;stroke-opacity:1;"/>
<path d="M 678.2,168.9 L 676.9,167.4 L 677.5,165.6" style="fill:none;stroke:#000000;stroke-width:3.0px;stroke-linecap:butt;stroke-linejoin:miter;stroke-opacity:1;"/>
<path d="M 688.2,132.0 L 688.8,130.1 L 690.7,129.7" style="fill:none;stroke:#000000;stroke-width:3.0px;stroke-linecap:butt;stroke-linejoin:miter;stroke-opacity:1;"/>
<path d="M 742.1,186.3 L 741.5,188.1 L 739.6,188.5" style="fill:none;stroke:#000000;stroke-width:3.0px;stroke-linecap:butt;stroke-linejoin:miter;stroke-opacity:1;"/>
<path d="M 789.9,142.9 L 791.8,142.5 L 792.3,143.0" style="fill:none;stroke:#000000;stroke-width:3.0px;stroke-linecap:butt;stroke-linejoin:miter;stroke-opacity:1;"/>
<path class="atom-7" d="M 808.8 173.5 Q 808.8 169.8, 810.7 167.7 Q 812.5 165.6, 816.0 165.6 Q 819.4 165.6, 821.3 167.7 Q 823.1 169.8, 823.1 173.5 Q 823.1 177.3, 821.3 179.5 Q 819.4 181.6, 816.0 181.6 Q 812.6 181.6, 810.7 179.5 Q 808.8 177.3, 808.8 173.5 M 816.0 179.8 Q 818.4 179.8, 819.6 178.2 Q 820.9 176.6, 820.9 173.5 Q 820.9 170.5, 819.6 168.9 Q 818.4 167.4, 816.0 167.4 Q 813.6 167.4, 812.3 168.9 Q 811.0 170.4, 811.0 173.5 Q 811.0 176.7, 812.3 178.2 Q 813.6 179.8, 816.0 179.8 " fill="#FF0000"/>
<path class="atom-8" d="M 731.9 84.5 Q 731.9 80.7, 733.8 78.6 Q 735.6 76.6, 739.1 76.6 Q 742.5 76.6, 744.4 78.6 Q 746.2 80.7, 746.2 84.5 Q 746.2 88.3, 744.4 90.4 Q 742.5 92.5, 739.1 92.5 Q 735.6 92.5, 733.8 90.4 Q 731.9 88.3, 731.9 84.5 M 739.1 90.8 Q 741.5 90.8, 742.7 89.2 Q 744.0 87.6, 744.0 84.5 Q 744.0 81.4, 742.7 79.9 Q 741.5 78.3, 739.1 78.3 Q 736.7 78.3, 735.4 79.9 Q 734.1 81.4, 734.1 84.5 Q 734.1 87.6, 735.4 89.2 Q 736.7 90.8, 739.1 90.8 " fill="#FF0000"/>
<path class="atom-8" d="M 748.7 76.7 L 750.8 76.7 L 750.8 83.3 L 758.7 83.3 L 758.7 76.7 L 760.8 76.7 L 760.8 92.3 L 758.7 92.3 L 758.7 85.1 L 750.8 85.1 L 750.8 92.3 L 748.7 92.3 L 748.7 76.7 " fill="#FF0000"/>
<path class="legend" d="M 668.6 266.5 Q 670.6 266.5, 671.7 267.7 Q 672.8 268.8, 672.8 270.9 L 672.8 279.1 L 670.5 279.1 L 670.5 271.1 Q 670.5 269.6, 669.9 269.0 Q 669.4 268.3, 668.1 268.3 Q 667.0 268.3, 666.1 268.8 Q 665.2 269.4, 664.6 270.3 Q 664.7 270.5, 664.7 270.9 L 664.7 279.1 L 662.4 279.1 L 662.4 271.1 Q 662.4 269.6, 661.8 269.0 Q 661.3 268.3, 660.0 268.3 Q 659.0 268.3, 658.0 268.8 Q 657.1 269.4, 656.6 270.2 L 656.6 279.1 L 654.3 279.1 L 654.3 266.8 L 656.1 266.8 L 656.4 268.4 Q 658.0 266.5, 660.5 266.5 Q 663.4 266.5, 664.3 268.7 Q 665.9 266.5, 668.6 266.5 " fill="#000000"/>
<path class="legend" d="M 675.7 272.9 Q 675.7 269.9, 677.3 268.2 Q 678.8 266.5, 681.6 266.5 Q 684.4 266.5, 685.9 268.2 Q 687.5 269.9, 687.5 272.9 Q 687.5 275.9, 685.9 277.6 Q 684.4 279.3, 681.6 279.3 Q 678.8 279.3, 677.3 277.6 Q 675.7 275.9, 675.7 272.9 M 678.0 272.9 Q 678.0 275.2, 679.0 276.3 Q 679.9 277.5, 681.6 277.5 Q 683.3 277.5, 684.2 276.3 Q 685.2 275.2, 685.2 272.9 Q 685.2 270.6, 684.2 269.5 Q 683.3 268.3, 681.6 268.3 Q 679.9 268.3, 679.0 269.5 Q 678.0 270.6, 678.0 272.9 " fill="#000000"/>
<path class="legend" d="M 695.5 266.5 Q 698.0 266.5, 699.5 268.2 Q 700.9 269.7, 700.9 272.7 Q 700.9 275.8, 699.2 277.6 Q 697.5 279.3, 694.6 279.3 Q 692.6 279.3, 690.8 278.6 L 689.7 278.3 L 689.7 260.9 L 692.0 260.9 L 692.0 268.1 Q 693.3 266.5, 695.5 266.5 M 694.5 277.5 Q 696.4 277.5, 697.5 276.3 Q 698.6 275.0, 698.6 272.7 Q 698.6 270.6, 697.7 269.5 Q 696.9 268.3, 695.3 268.3 Q 694.1 268.3, 693.2 269.0 Q 692.3 269.7, 692.0 270.8 L 692.0 277.2 Q 693.2 277.5, 694.5 277.5 " fill="#000000"/>
<path class="legend" d="M 703.1 260.9 L 705.4 260.9 L 705.4 279.1 L 703.1 279.1 L 703.1 260.9 " fill="#000000"/>
<path class="legend" d="M 708.6 272.9 Q 708.6 269.9, 710.1 268.2 Q 711.6 266.5, 714.3 266.5 Q 717.1 266.5, 718.3 268.2 Q 719.5 269.8, 719.5 272.8 L 719.5 273.2 L 710.9 273.2 Q 710.9 275.3, 711.9 276.4 Q 712.8 277.5, 714.5 277.5 Q 715.5 277.5, 716.4 277.3 Q 717.3 277.1, 718.4 276.6 L 719.0 278.1 Q 717.8 278.7, 716.7 279.0 Q 715.6 279.3, 714.4 279.3 Q 711.6 279.3, 710.1 277.6 Q 708.6 275.9, 708.6 272.9 M 714.3 268.3 Q 712.9 268.3, 712.1 269.1 Q 711.2 270.0, 711.0 271.5 L 717.1 271.5 Q 716.9 269.9, 716.3 269.1 Q 715.6 268.3, 714.3 268.3 " fill="#000000"/>
<path class="legend" d="M 731.0 266.8 L 733.2 266.8 L 726.9 285.0 L 724.8 285.0 L 726.8 279.1 L 725.9 279.1 L 721.5 266.8 L 723.9 266.8 L 727.5 277.2 L 731.0 266.8 " fill="#000000"/>
<path class="legend" d="M 746.9 280.3 L 746.9 282.3 L 734.6 282.3 L 734.6 280.3 L 746.9 280.3 " fill="#000000"/>
<path class="legend" d="M 748.1 265.3 Q 748.7 263.7, 750.2 262.8 Q 751.7 261.9, 753.7 261.9 Q 756.3 261.9, 757.7 263.3 Q 759.2 264.7, 759.2 267.2 Q 759.2 269.7, 757.3 272.0 Q 755.4 274.4, 751.6 277.2 L 759.5 277.2 L 759.5 279.1 L 748.0 279.1 L 748.0 277.5 Q 751.2 275.2, 753.0 273.6 Q 754.9 271.9, 755.9 270.4 Q 756.8 268.8, 756.8 267.3 Q 756.8 265.7, 755.9 264.7 Q 755.1 263.8, 753.7 263.8 Q 752.3 263.8, 751.4 264.4 Q 750.5 264.9, 749.9 266.2 L 748.1 265.3 " fill="#000000"/>
<path class="legend" d="M 770.7 270.1 Q 772.3 270.8, 773.2 271.8 Q 774.0 272.8, 774.0 274.4 Q 774.0 275.9, 773.3 277.0 Q 772.6 278.1, 771.2 278.7 Q 769.9 279.3, 768.1 279.3 Q 765.3 279.3, 763.7 278.0 Q 762.0 276.7, 762.0 274.4 Q 762.0 273.0, 762.8 272.0 Q 763.5 271.0, 765.0 270.2 Q 763.9 269.5, 763.3 268.6 Q 762.7 267.7, 762.7 266.3 Q 762.7 264.3, 764.1 263.1 Q 765.6 261.9, 768.0 261.9 Q 770.5 261.9, 772.0 263.1 Q 773.4 264.3, 773.4 266.3 Q 773.4 267.5, 772.7 268.4 Q 772.0 269.4, 770.7 270.1 M 768.0 263.7 Q 766.6 263.7, 765.8 264.4 Q 765.1 265.1, 765.1 266.3 Q 765.1 267.1, 765.6 267.7 Q 766.1 268.3, 766.9 268.7 Q 767.6 269.0, 769.1 269.5 Q 770.1 268.8, 770.6 268.0 Q 771.0 267.2, 771.0 266.3 Q 771.0 265.1, 770.2 264.4 Q 769.5 263.7, 768.0 263.7 M 768.1 277.5 Q 769.7 277.5, 770.7 276.7 Q 771.6 275.8, 771.6 274.4 Q 771.6 273.5, 771.1 272.9 Q 770.6 272.4, 769.9 272.0 Q 769.1 271.7, 767.8 271.2 L 766.7 270.9 Q 765.5 271.6, 765.0 272.5 Q 764.4 273.3, 764.4 274.4 Q 764.4 275.8, 765.4 276.7 Q 766.5 277.5, 768.1 277.5 " fill="#000000"/>
<path class="legend" d="M 782.9 268.5 Q 784.4 268.5, 785.6 269.1 Q 786.8 269.7, 787.5 270.9 Q 788.2 272.1, 788.2 273.7 Q 788.2 275.5, 787.3 276.7 Q 786.5 278.0, 785.1 278.6 Q 783.7 279.3, 782.1 279.3 Q 780.6 279.3, 779.1 278.7 Q 777.7 278.1, 776.7 277.0 L 778.1 275.5 Q 778.9 276.4, 780.0 276.9 Q 781.1 277.3, 782.2 277.3 Q 783.7 277.3, 784.7 276.4 Q 785.8 275.5, 785.8 273.8 Q 785.8 272.0, 784.7 271.1 Q 783.7 270.3, 782.1 270.3 Q 780.6 270.3, 778.9 270.9 L 777.6 270.3 L 778.4 262.1 L 787.1 262.1 L 786.9 264.0 L 780.4 264.0 L 779.9 269.1 Q 781.4 268.5, 782.9 268.5 " fill="#000000"/>
<path class="legend" d="M 796.7 279.3 Q 793.6 279.3, 792.0 277.0 Q 790.5 274.7, 790.5 270.6 Q 790.5 266.5, 792.0 264.2 Q 793.6 261.9, 796.7 261.9 Q 799.9 261.9, 801.4 264.2 Q 802.9 266.5, 802.9 270.6 Q 802.9 274.7, 801.4 277.0 Q 799.8 279.3, 796.7 279.3 M 796.7 277.4 Q 798.6 277.4, 799.5 275.7 Q 800.5 273.9, 800.5 270.6 Q 800.5 267.2, 799.5 265.5 Q 798.6 263.8, 796.7 263.8 Q 794.9 263.8, 793.9 265.5 Q 792.9 267.2, 792.9 270.6 Q 792.9 273.9, 793.9 275.7 Q 794.9 277.4, 796.7 277.4 " fill="#000000"/>
<path class="legend" d="M 814.3 270.1 Q 815.9 270.8, 816.7 271.8 Q 817.6 272.8, 817.6 274.4 Q 817.6 275.9, 816.9 277.0 Q 816.1 278.1, 814.8 278.7 Q 813.5 279.3, 811.7 279.3 Q 808.9 279.3, 807.3 278.0 Q 805.6 276.7, 805.6 274.4 Q 805.6 273.0, 806.4 272.0 Q 807.1 271.0, 808.6 270.2 Q 807.5 269.5, 806.9 268.6 Q 806.3 267.7, 806.3 266.3 Q 806.3 264.3, 807.7 263.1 Q 809.2 261.9, 811.6 261.9 Q 814.1 261.9, 815.5 263.1 Q 817.0 264.3, 817.0 266.3 Q 817.0 267.5, 816.3 268.4 Q 815.6 269.4, 814.3 270.1 M 811.6 263.7 Q 810.2 263.7, 809.4 264.4 Q 808.7 265.1, 808.7 266.3 Q 808.7 267.1, 809.2 267.7 Q 809.7 268.3, 810.5 268.7 Q 811.2 269.0, 812.7 269.5 Q 813.7 268.8, 814.2 268.0 Q 814.6 267.2, 814.6 266.3 Q 814.6 265.1, 813.8 264.4 Q 813.1 263.7, 811.6 263.7 M 811.7 277.5 Q 813.3 277.5, 814.3 276.7 Q 815.2 275.8, 815.2 274.4 Q 815.2 273.5, 814.7 272.9 Q 814.2 272.4, 813.5 272.0 Q 812.7 271.7, 811.4 271.2 L 810.3 270.9 Q 809.1 271.6, 808.6 272.5 Q 808.0 273.3, 808.0 274.4 Q 808.0 275.8, 809.0 276.7 Q 810.1 277.5, 811.7 277.5 " fill="#000000"/>
<path class="legend" d="M 828.5 270.1 Q 830.1 270.6, 830.9 271.7 Q 831.7 272.8, 831.7 274.4 Q 831.7 275.9, 831.0 277.0 Q 830.3 278.1, 829.0 278.7 Q 827.6 279.3, 825.9 279.3 Q 824.1 279.3, 822.7 278.7 Q 821.4 278.1, 820.3 276.8 L 821.7 275.4 Q 822.7 276.5, 823.6 277.0 Q 824.5 277.4, 825.9 277.4 Q 827.4 277.4, 828.4 276.6 Q 829.3 275.8, 829.3 274.4 Q 829.3 272.7, 828.3 271.9 Q 827.4 271.1, 825.3 271.1 L 824.1 271.1 L 824.1 269.4 L 825.1 269.4 Q 827.0 269.4, 828.0 268.6 Q 829.0 267.8, 829.0 266.3 Q 829.0 265.2, 828.1 264.5 Q 827.3 263.8, 825.9 263.8 Q 824.5 263.8, 823.6 264.3 Q 822.8 264.8, 822.1 266.1 L 820.4 265.2 Q 821.0 263.8, 822.5 262.9 Q 823.9 261.9, 825.9 261.9 Q 828.4 261.9, 829.9 263.1 Q 831.4 264.3, 831.4 266.3 Q 831.4 267.6, 830.6 268.6 Q 829.9 269.6, 828.5 270.1 " fill="#000000"/>
<path class="legend" d="M 842.4 270.1 Q 844.1 270.6, 844.9 271.7 Q 845.7 272.8, 845.7 274.4 Q 845.7 275.9, 845.0 277.0 Q 844.3 278.1, 842.9 278.7 Q 841.6 279.3, 839.9 279.3 Q 838.1 279.3, 836.7 278.7 Q 835.4 278.1, 834.3 276.8 L 835.6 275.4 Q 836.7 276.5, 837.6 277.0 Q 838.5 277.4, 839.9 277.4 Q 841.4 277.4, 842.4 276.6 Q 843.3 275.8, 843.3 274.4 Q 843.3 272.7, 842.3 271.9 Q 841.4 271.1, 839.3 271.1 L 838.0 271.1 L 838.0 269.4 L 839.1 269.4 Q 841.0 269.4, 842.0 268.6 Q 842.9 267.8, 842.9 266.3 Q 842.9 265.2, 842.1 264.5 Q 841.3 263.8, 839.9 263.8 Q 838.5 263.8, 837.6 264.3 Q 836.8 264.8, 836.1 266.1 L 834.4 265.2 Q 835.0 263.8, 836.5 262.9 Q 837.9 261.9, 839.9 261.9 Q 842.4 261.9, 843.9 263.1 Q 845.3 264.3, 845.3 266.3 Q 845.3 267.6, 844.6 268.6 Q 843.9 269.6, 842.4 270.1 " fill="#000000"/>
<path class="bond-0 atom-0 atom-1" d="M 1133.8,117.8 L 1102.1,140.8" style="fill:none;fill-rule:evenodd;stroke:#000000;stroke-width:3.0px;stroke-linecap:butt;stroke-linejoin:miter;stroke-opacity:1"/>
<path class="bond-1 atom-1 atom-2" d="M 1102.1,140.8 L 1066.2,124.9" style="fill:none;fill-rule:evenodd;stroke:#000000;stroke-width:3.0px;stroke-linecap:butt;stroke-linejoin:miter;stroke-opacity:1"/>
<path class="bond-2 atom-2 atom-3" d="M 1066.2,124.9 L 1034.5,147.9" style="fill:none;fill-rule:evenodd;stroke:#000000;stroke-width:3.0px;stroke-linecap:butt;stroke-linejoin:miter;stroke-opacity:1"/>
<path class="bond-3 atom-3 atom-4" d="M 1034.5,147.9 L 998.7,132.0" style="fill:none;fill-rule:evenodd;stroke:#000000;stroke-width:3.0px;stroke-linecap:butt;stroke-linejoin:miter;stroke-opacity:1"/>
<path class="bond-4 atom-4 atom-5" d="M 998.7,132.0 L 967.0,155.0" style="fill:none;fill-rule:evenodd;stroke:#000000;stroke-width:3.0px;stroke-linecap:butt;stroke-linejoin:miter;stroke-opacity:1"/>
<path class="bond-5 atom-5 atom-6" d="M 967.0,155.0 L 953.3,148.9" style="fill:none;fill-rule:evenodd;stroke:#000000;stroke-width:3.0px;stroke-linecap:butt;stroke-linejoin:miter;stroke-opacity:1"/>
<path class="bond-5 atom-5 atom-6" d="M 953.3,148.9 L 939.6,142.8" style="fill:none;fill-rule:evenodd;stroke:#FF0000;stroke-width:3.0px;stroke-linecap:butt;stroke-linejoin:miter;stroke-opacity:1"/>
<path class="bond-6 atom-4 atom-7" d="M 998.7,132.0 L 995.8,118.0 L 998.7,117.7 Z" style="fill:#000000;fill-rule:evenodd;fill-opacity:1;stroke:#000000;stroke-width:0.8px;stroke-linecap:butt;stroke-linejoin:miter;stroke-opacity:1;"/>
<path class="bond-6 atom-4 atom-7" d="M 995.8,118.0 L 998.7,103.4 L 992.8,104.0 Z" style="fill:#FF0000;fill-rule:evenodd;fill-opacity:1;stroke:#FF0000;stroke-width:0.8px;stroke-linecap:butt;stroke-linejoin:miter;stroke-opacity:1;"/>
<path class="bond-6 atom-4 atom-7" d="M 995.8,118.0 L 998.7,117.7 L 998.7,103.4 Z" style="fill:#FF0000;fill-rule:evenodd;fill-opacity:1;stroke:#FF0000;stroke-width:0.8px;stroke-linecap:butt;stroke-linejoin:miter;stroke-opacity:1;"/>
<path class="bond-7 atom-3 atom-8" d="M 1035.4,151.9 L 1034.5,152.0" style="fill:none;fill-rule:evenodd;stroke:#000000;stroke-width:1.5px;stroke-linecap:butt;stroke-linejoin:miter;stroke-opacity:1"/>
<path class="bond-7 atom-3 atom-8" d="M 1036.2,156.0 L 1034.5,156.1" style="fill:none;fill-rule:evenodd;stroke:#000000;stroke-width:1.5px;stroke-linecap:butt;stroke-linejoin:miter;stroke-opacity:1"/>
<path class="bond-7 atom-3 atom-8" d="M 1037.1,160.0 L 1034.6,160.3" style="fill:none;fill-rule:evenodd;stroke:#000000;stroke-width:1.5px;stroke-linecap:butt;stroke-linejoin:miter;stroke-opacity:1"/>
<path class="bond-7 atom-3 atom-8" d="M 1037.9,164.0 L 1034.6,164.4" style="fill:none;fill-rule:evenodd;stroke:#FF0000;stroke-width:1.5px;stroke-linecap:butt;stroke-linejoin:miter;stroke-opacity:1"/>
<path class="bond-7 atom-3 atom-8" d="M 1038.8,168.1 L 1034.6,168.5" style="fill:none;fill-rule:evenodd;stroke:#FF0000;stroke-width:1.5px;stroke-linecap:butt;stroke-linejoin:miter;stroke-opacity:1"/>
<path class="bond-7 atom-3 atom-8" d="M 1039.6,172.1 L 1034.6,172.6" style="fill:none;fill-rule:evenodd;stroke:#FF0000;stroke-width:1.5px;stroke-linecap:butt;stroke-linejoin:miter;stroke-opacity:1"/>
<path class="bond-7 atom-3 atom-8" d="M 1040.5,176.1 L 1034.6,176.7" style="fill:none;fill-rule:evenodd;stroke:#FF0000;stroke-width:1.5px;stroke-linecap:butt;stroke-linejoin:miter;stroke-opacity:1"/>
<path class="bond-8 atom-2 atom-9" d="M 1065.4,120.9 L 1066.2,120.8" style="fill:none;fill-rule:evenodd;stroke:#000000;stroke-width:1.5px;stroke-linecap:butt;stroke-linejoin:miter;stroke-opacity:1"/>
<path class="bond-8 atom-2 atom-9" d="M 1064.6,116.9 L 1066.2,116.7" style="fill:none;fill-rule:evenodd;stroke:#000000;stroke-width:1.5px;stroke-linecap:butt;stroke-linejoin:miter;stroke-opacity:1"/>
<path class="bond-8 atom-2 atom-9" d="M 1063.7,112.9 L 1066.2,112.6" style="fill:none;fill-rule:evenodd;stroke:#000000;stroke-width:1.5px;stroke-linecap:butt;stroke-linejoin:miter;stroke-opacity:1"/>
<path class="bond-8 atom-2 atom-9" d="M 1062.9,108.9 L 1066.2,108.5" style="fill:none;fill-rule:evenodd;stroke:#FF0000;stroke-width:1.5px;stroke-linecap:butt;stroke-linejoin:miter;stroke-opacity:1"/>
<path class="bond-8 atom-2 atom-9" d="M 1062.0,104.9 L 1066.2,104.4" style="fill:none;fill-rule:evenodd;stroke:#FF0000;stroke-width:1.5px;stroke-linecap:butt;stroke-linejoin:miter;stroke-opacity:1"/>
<path class="bond-8 atom-2 atom-9" d="M 1061.2,100.9 L 1066.2,100.3" style="fill:none;fill-rule:evenodd;stroke:#FF0000;stroke-width:1.5px;stroke-linecap:butt;stroke-linejoin:miter;stroke-opacity:1"/>
<path class="bond-8 atom-2 atom-9" d="M 1060.3,96.9 L 1066.2,96.3" style="fill:none;fill-rule:evenodd;stroke:#FF0000;stroke-width:1.5px;stroke-linecap:butt;stroke-linejoin:miter;stroke-opacity:1"/>
<path class="bond-9 atom-1 atom-10" d="M 1102.1,140.8 L 1105.0,154.9 L 1102.1,155.2 Z" style="fill:#000000;fill-rule:evenodd;fill-opacity:1;stroke:#000000;stroke-width:0.8px;stroke-linecap:butt;stroke-linejoin:miter;stroke-opacity:1;"/>
<path class="bond-9 atom-1 atom-10" d="M 1105.0,154.9 L 1102.1,169.6 L 1108.0,169.0 Z" style="fill:#FF0000;fill-rule:evenodd;fill-opacity:1;stroke:#FF0000;stroke-width:0.8px;stroke-linecap:butt;stroke-linejoin:miter;stroke-opacity:1;"/>
<path class="bond-9 atom-1 atom-10" d="M 1105.0,154.9 L 1102.1,155.2 L 1102.1,169.6 Z" style="fill:#FF0000;fill-rule:evenodd;fill-opacity:1;stroke:#FF0000;stroke-width:0.8px;stroke-linecap:butt;stroke-linejoin:miter;stroke-opacity:1;"/>
<path class="bond-10 atom-0 atom-11" d="M 1133.8,117.8 L 1147.5,123.8" style="fill:none;fill-rule:evenodd;stroke:#000000;stroke-width:3.0px;stroke-linecap:butt;stroke-linejoin:miter;stroke-opacity:1"/>
<path class="bond-10 atom-0 atom-11" d="M 1147.5,123.8 L 1161.2,129.9" style="fill:none;fill-rule:evenodd;stroke:#FF0000;stroke-width:3.0px;stroke-linecap:butt;stroke-linejoin:miter;stroke-opacity:1"/>
<path d="M 1132.2,118.9 L 1133.8,117.8 L 1134.5,118.1" style="fill:none;stroke:#000000;stroke-width:3.0px;stroke-linecap:butt;stroke-linejoin:miter;stroke-opacity:1;"/>
<path d="M 1103.6,139.6 L 1102.1,140.8 L 1100.3,140.0" style="fill:none;stroke:#000000;stroke-width:3.0px;stroke-linecap:butt;stroke-linejoin:miter;stroke-opacity:1;"/>
<path d="M 1068.0,125.7 L 1066.2,124.9 L 1064.7,126.0" style="fill:none;stroke:#000000;stroke-width:3.0px;stroke-linecap:butt;stroke-linejoin:miter;stroke-opacity:1;"/>
<path d="M 1036.1,146.8 L 1034.5,147.9 L 1032.7,147.1" style="fill:none;stroke:#000000;stroke-width:3.0px;stroke-linecap:butt;stroke-linejoin:miter;stroke-opacity:1;"/>
<path d="M 1000.5,132.8 L 998.7,132.0 L 997.1,133.1" style="fill:none;stroke:#000000;stroke-width:3.0px;stroke-linecap:butt;stroke-linejoin:miter;stroke-opacity:1;"/>
<path d="M 968.6,153.9 L 967.0,155.0 L 966.3,154.7" style="fill:none;stroke:#000000;stroke-width:3.0px;stroke-linecap:butt;stroke-linejoin:miter;stroke-opacity:1;"/>
<path class="atom-6" d="M 908.6 131.4 L 910.8 131.4 L 910.8 138.0 L 918.7 138.0 L 918.7 131.4 L 920.8 131.4 L 920.8 146.9 L 918.7 146.9 L 918.7 139.7 L 910.8 139.7 L 910.8 146.9 L 908.6 146.9 L 908.6 131.4 " fill="#FF0000"/>
<path class="atom-6" d="M 924.0 139.1 Q 924.0 135.4, 925.9 133.3 Q 927.7 131.2, 931.2 131.2 Q 934.6 131.2, 936.5 133.3 Q 938.3 135.4, 938.3 139.1 Q 938.3 142.9, 936.5 145.0 Q 934.6 147.2, 931.2 147.2 Q 927.7 147.2, 925.9 145.0 Q 924.0 142.9, 924.0 139.1 M 931.2 145.4 Q 933.5 145.4, 934.8 143.8 Q 936.1 142.2, 936.1 139.1 Q 936.1 136.0, 934.8 134.5 Q 933.5 132.9, 931.2 132.9 Q 928.8 132.9, 927.5 134.5 Q 926.2 136.0, 926.2 139.1 Q 926.2 142.3, 927.5 143.8 Q 928.8 145.4, 931.2 145.4 " fill="#FF0000"/>
<path class="atom-7" d="M 987.5 93.0 Q 987.5 89.3, 989.3 87.2 Q 991.2 85.1, 994.6 85.1 Q 998.1 85.1, 999.9 87.2 Q 1001.8 89.3, 1001.8 93.0 Q 1001.8 96.8, 999.9 99.0 Q 998.0 101.1, 994.6 101.1 Q 991.2 101.1, 989.3 99.0 Q 987.5 96.8, 987.5 93.0 M 994.6 99.3 Q 997.0 99.3, 998.3 97.7 Q 999.6 96.1, 999.6 93.0 Q 999.6 90.0, 998.3 88.4 Q 997.0 86.9, 994.6 86.9 Q 992.2 86.9, 990.9 88.4 Q 989.7 89.9, 989.7 93.0 Q 989.7 96.2, 990.9 97.7 Q 992.2 99.3, 994.6 99.3 " fill="#FF0000"/>
<path class="atom-7" d="M 1004.2 85.3 L 1006.3 85.3 L 1006.3 91.9 L 1014.3 91.9 L 1014.3 85.3 L 1016.4 85.3 L 1016.4 100.8 L 1014.3 100.8 L 1014.3 93.6 L 1006.3 93.6 L 1006.3 100.8 L 1004.2 100.8 L 1004.2 85.3 " fill="#FF0000"/>
<path class="atom-8" d="M 1031.5 186.9 Q 1031.5 183.2, 1033.3 181.1 Q 1035.2 179.0, 1038.6 179.0 Q 1042.1 179.0, 1043.9 181.1 Q 1045.8 183.2, 1045.8 186.9 Q 1045.8 190.7, 1043.9 192.9 Q 1042.0 195.0, 1038.6 195.0 Q 1035.2 195.0, 1033.3 192.9 Q 1031.5 190.7, 1031.5 186.9 M 1038.6 193.3 Q 1041.0 193.3, 1042.3 191.7 Q 1043.6 190.1, 1043.6 186.9 Q 1043.6 183.9, 1042.3 182.3 Q 1041.0 180.8, 1038.6 180.8 Q 1036.3 180.8, 1035.0 182.3 Q 1033.7 183.9, 1033.7 186.9 Q 1033.7 190.1, 1035.0 191.7 Q 1036.3 193.3, 1038.6 193.3 " fill="#FF0000"/>
<path class="atom-8" d="M 1048.2 179.2 L 1050.3 179.2 L 1050.3 185.8 L 1058.3 185.8 L 1058.3 179.2 L 1060.4 179.2 L 1060.4 194.8 L 1058.3 194.8 L 1058.3 187.6 L 1050.3 187.6 L 1050.3 194.8 L 1048.2 194.8 L 1048.2 179.2 " fill="#FF0000"/>
<path class="atom-9" d="M 1055.0 85.9 Q 1055.0 82.2, 1056.8 80.1 Q 1058.7 78.0, 1062.1 78.0 Q 1065.6 78.0, 1067.4 80.1 Q 1069.3 82.2, 1069.3 85.9 Q 1069.3 89.7, 1067.4 91.8 Q 1065.6 94.0, 1062.1 94.0 Q 1058.7 94.0, 1056.8 91.8 Q 1055.0 89.7, 1055.0 85.9 M 1062.1 92.2 Q 1064.5 92.2, 1065.8 90.6 Q 1067.1 89.0, 1067.1 85.9 Q 1067.1 82.8, 1065.8 81.3 Q 1064.5 79.7, 1062.1 79.7 Q 1059.8 79.7, 1058.5 81.3 Q 1057.2 82.8, 1057.2 85.9 Q 1057.2 89.1, 1058.5 90.6 Q 1059.8 92.2, 1062.1 92.2 " fill="#FF0000"/>
<path class="atom-9" d="M 1071.7 78.2 L 1073.8 78.2 L 1073.8 84.8 L 1081.8 84.8 L 1081.8 78.2 L 1083.9 78.2 L 1083.9 93.7 L 1081.8 93.7 L 1081.8 86.5 L 1073.8 86.5 L 1073.8 93.7 L 1071.7 93.7 L 1071.7 78.2 " fill="#FF0000"/>
<path class="atom-10" d="M 1099.0 179.8 Q 1099.0 176.1, 1100.9 174.0 Q 1102.7 171.9, 1106.2 171.9 Q 1109.6 171.9, 1111.5 174.0 Q 1113.3 176.1, 1113.3 179.8 Q 1113.3 183.6, 1111.4 185.8 Q 1109.6 187.9, 1106.2 187.9 Q 1102.7 187.9, 1100.9 185.8 Q 1099.0 183.6, 1099.0 179.8 M 1106.2 186.1 Q 1108.5 186.1, 1109.8 184.6 Q 1111.1 183.0, 1111.1 179.8 Q 1111.1 176.8, 1109.8 175.2 Q 1108.5 173.7, 1106.2 173.7 Q 1103.8 173.7, 1102.5 175.2 Q 1101.2 176.8, 1101.2 179.8 Q 1101.2 183.0, 1102.5 184.6 Q 1103.8 186.1, 1106.2 186.1 " fill="#FF0000"/>
<path class="atom-10" d="M 1115.7 172.1 L 1117.8 172.1 L 1117.8 178.7 L 1125.8 178.7 L 1125.8 172.1 L 1127.9 172.1 L 1127.9 187.7 L 1125.8 187.7 L 1125.8 180.5 L 1117.8 180.5 L 1117.8 187.7 L 1115.7 187.7 L 1115.7 172.1 " fill="#FF0000"/>
<path class="atom-11" d="M 1162.4 133.7 Q 1162.4 130.0, 1164.3 127.9 Q 1166.1 125.8, 1169.6 125.8 Q 1173.1 125.8, 1174.9 127.9 Q 1176.7 130.0, 1176.7 133.7 Q 1176.7 137.5, 1174.9 139.7 Q 1173.0 141.8, 1169.6 141.8 Q 1166.2 141.8, 1164.3 139.7 Q 1162.4 137.5, 1162.4 133.7 M 1169.6 140.1 Q 1172.0 140.1, 1173.2 138.5 Q 1174.5 136.9, 1174.5 133.7 Q 1174.5 130.7, 1173.2 129.1 Q 1172.0 127.6, 1169.6 127.6 Q 1167.2 127.6, 1165.9 129.1 Q 1164.6 130.7, 1164.6 133.7 Q 1164.6 136.9, 1165.9 138.5 Q 1167.2 140.1, 1169.6 140.1 " fill="#FF0000"/>
<path class="atom-11" d="M 1179.2 126.0 L 1181.3 126.0 L 1181.3 132.6 L 1189.2 132.6 L 1189.2 126.0 L 1191.4 126.0 L 1191.4 141.6 L 1189.2 141.6 L 1189.2 134.4 L 1181.3 134.4 L 1181.3 141.6 L 1179.2 141.6 L 1179.2 126.0 " fill="#FF0000"/>
<path class="legend" d="M 969.1 266.5 Q 971.2 266.5, 972.3 267.7 Q 973.3 268.8, 973.3 270.9 L 973.3 279.1 L 971.1 279.1 L 971.1 271.1 Q 971.1 269.6, 970.5 269.0 Q 969.9 268.3, 968.7 268.3 Q 967.6 268.3, 966.7 268.8 Q 965.8 269.4, 965.2 270.3 Q 965.2 270.5, 965.2 270.9 L 965.2 279.1 L 963.0 279.1 L 963.0 271.1 Q 963.0 269.6, 962.4 269.0 Q 961.8 268.3, 960.6 268.3 Q 959.5 268.3, 958.6 268.8 Q 957.7 269.4, 957.1 270.2 L 957.1 279.1 L 954.9 279.1 L 954.9 266.8 L 956.7 266.8 L 957.0 268.4 Q 958.6 266.5, 961.0 266.5 Q 963.9 266.5, 964.8 268.7 Q 966.5 266.5, 969.1 266.5 " fill="#000000"/>
<path class="legend" d="M 976.3 272.9 Q 976.3 269.9, 977.8 268.2 Q 979.4 266.5, 982.2 266.5 Q 985.0 266.5, 986.5 268.2 Q 988.0 269.9, 988.0 272.9 Q 988.0 275.9, 986.5 277.6 Q 985.0 279.3, 982.2 279.3 Q 979.4 279.3, 977.8 277.6 Q 976.3 275.9, 976.3 272.9 M 978.6 272.9 Q 978.6 275.2, 979.5 276.3 Q 980.5 277.5, 982.2 277.5 Q 983.9 277.5, 984.8 276.3 Q 985.7 275.2, 985.7 272.9 Q 985.7 270.6, 984.8 269.5 Q 983.9 268.3, 982.2 268.3 Q 980.5 268.3, 979.5 269.5 Q 978.6 270.6, 978.6 272.9 " fill="#000000"/>
<path class="legend" d="M 996.0 266.5 Q 998.6 266.5, 1000.0 268.2 Q 1001.5 269.7, 1001.5 272.7 Q 1001.5 275.8, 999.8 277.6 Q 998.1 279.3, 995.1 279.3 Q 993.2 279.3, 991.4 278.6 L 990.3 278.3 L 990.3 260.9 L 992.5 260.9 L 992.5 268.1 Q 993.8 266.5, 996.0 266.5 M 995.1 277.5 Q 997.0 277.5, 998.1 276.3 Q 999.2 275.0, 999.2 272.7 Q 999.2 270.6, 998.3 269.5 Q 997.5 268.3, 995.9 268.3 Q 994.6 268.3, 993.8 269.0 Q 992.9 269.7, 992.5 270.8 L 992.5 277.2 Q 993.8 277.5, 995.1 277.5 " fill="#000000"/>
<path class="legend" d="M 1003.7 260.9 L 1005.9 260.9 L 1005.9 279.1 L 1003.7 279.1 L 1003.7 260.9 " fill="#000000"/>
<path class="legend" d="M 1009.1 272.9 Q 1009.1 269.9, 1010.6 268.2 Q 1012.2 266.5, 1014.9 266.5 Q 1017.6 266.5, 1018.8 268.2 Q 1020.1 269.8, 1020.1 272.8 L 1020.1 273.2 L 1011.4 273.2 Q 1011.5 275.3, 1012.4 276.4 Q 1013.4 277.5, 1015.1 277.5 Q 1016.1 277.5, 1017.0 277.3 Q 1017.8 277.1, 1018.9 276.6 L 1019.6 278.1 Q 1018.4 278.7, 1017.2 279.0 Q 1016.1 279.3, 1015.0 279.3 Q 1012.2 279.3, 1010.7 277.6 Q 1009.1 275.9, 1009.1 272.9 M 1014.9 268.3 Q 1013.5 268.3, 1012.6 269.1 Q 1011.8 270.0, 1011.5 271.5 L 1017.7 271.5 Q 1017.5 269.9, 1016.8 269.1 Q 1016.2 268.3, 1014.9 268.3 " fill="#000000"/>
<path class="legend" d="M 1031.6 266.8 L 1033.8 266.8 L 1027.4 285.0 L 1025.4 285.0 L 1027.4 279.1 L 1026.5 279.1 L 1022.1 266.8 L 1024.4 266.8 L 1028.1 277.2 L 1031.6 266.8 " fill="#000000"/>
<path class="legend" d="M 1047.4 280.3 L 1047.4 282.3 L 1035.2 282.3 L 1035.2 280.3 L 1047.4 280.3 " fill="#000000"/>
<path class="legend" d="M 1059.6 273.3 L 1061.7 273.3 L 1061.7 275.2 L 1059.6 275.2 L 1059.6 279.1 L 1057.4 279.1 L 1057.4 275.2 L 1048.6 275.2 L 1048.6 273.7 L 1056.0 262.1 L 1059.6 262.1 L 1059.6 273.3 M 1051.4 273.3 L 1057.4 273.3 L 1057.4 263.6 L 1051.4 273.3 " fill="#000000"/>
<path class="legend" d="M 1070.2 268.5 Q 1071.6 268.5, 1072.9 269.1 Q 1074.1 269.7, 1074.8 270.9 Q 1075.5 272.1, 1075.5 273.7 Q 1075.5 275.5, 1074.6 276.7 Q 1073.8 278.0, 1072.4 278.6 Q 1071.0 279.3, 1069.4 279.3 Q 1067.9 279.3, 1066.4 278.7 Q 1065.0 278.1, 1064.0 277.0 L 1065.4 275.5 Q 1066.2 276.4, 1067.3 276.9 Q 1068.4 277.3, 1069.5 277.3 Q 1071.0 277.3, 1072.0 276.4 Q 1073.1 275.5, 1073.1 273.8 Q 1073.1 272.0, 1072.0 271.1 Q 1071.0 270.3, 1069.3 270.3 Q 1067.9 270.3, 1066.2 270.9 L 1064.9 270.3 L 1065.7 262.1 L 1074.4 262.1 L 1074.2 264.0 L 1067.7 264.0 L 1067.2 269.1 Q 1068.7 268.5, 1070.2 268.5 " fill="#000000"/>
<path class="legend" d="M 1086.4 270.1 Q 1088.0 270.8, 1088.9 271.8 Q 1089.8 272.8, 1089.8 274.4 Q 1089.8 275.9, 1089.0 277.0 Q 1088.3 278.1, 1087.0 278.7 Q 1085.6 279.3, 1083.9 279.3 Q 1081.0 279.3, 1079.4 278.0 Q 1077.8 276.7, 1077.8 274.4 Q 1077.8 273.0, 1078.5 272.0 Q 1079.2 271.0, 1080.7 270.2 Q 1079.6 269.5, 1079.0 268.6 Q 1078.4 267.7, 1078.4 266.3 Q 1078.4 264.3, 1079.8 263.1 Q 1081.3 261.9, 1083.8 261.9 Q 1086.3 261.9, 1087.7 263.1 Q 1089.2 264.3, 1089.2 266.3 Q 1089.2 267.5, 1088.5 268.4 Q 1087.8 269.4, 1086.4 270.1 M 1083.8 263.7 Q 1082.4 263.7, 1081.6 264.4 Q 1080.8 265.1, 1080.8 266.3 Q 1080.8 267.1, 1081.3 267.7 Q 1081.9 268.3, 1082.6 268.7 Q 1083.4 269.0, 1084.8 269.5 Q 1085.9 268.8, 1086.3 268.0 Q 1086.8 267.2, 1086.8 266.3 Q 1086.8 265.1, 1086.0 264.4 Q 1085.2 263.7, 1083.8 263.7 M 1083.9 277.5 Q 1085.5 277.5, 1086.4 276.7 Q 1087.4 275.8, 1087.4 274.4 Q 1087.4 273.5, 1086.9 272.9 Q 1086.4 272.4, 1085.6 272.0 Q 1084.9 271.7, 1083.5 271.2 L 1082.4 270.9 Q 1081.2 271.6, 1080.7 272.5 Q 1080.2 273.3, 1080.2 274.4 Q 1080.2 275.8, 1081.2 276.7 Q 1082.2 277.5, 1083.9 277.5 " fill="#000000"/>
<path class="legend" d="M 1101.3 264.0 L 1092.4 264.0 L 1092.4 262.1 L 1103.7 262.1 L 1103.7 263.8 L 1096.9 279.1 L 1094.6 279.1 L 1101.3 264.0 " fill="#000000"/>
<path class="legend" d="M 1105.6 265.3 Q 1106.2 263.7, 1107.7 262.8 Q 1109.2 261.9, 1111.3 261.9 Q 1113.8 261.9, 1115.3 263.3 Q 1116.7 264.7, 1116.7 267.2 Q 1116.7 269.7, 1114.9 272.0 Q 1113.0 274.4, 1109.2 277.2 L 1117.0 277.2 L 1117.0 279.1 L 1105.6 279.1 L 1105.6 277.5 Q 1108.7 275.2, 1110.6 273.6 Q 1112.5 271.9, 1113.4 270.4 Q 1114.3 268.8, 1114.3 267.3 Q 1114.3 265.7, 1113.5 264.7 Q 1112.7 263.8, 1111.3 263.8 Q 1109.9 263.8, 1109.0 264.4 Q 1108.1 264.9, 1107.4 266.2 L 1105.6 265.3 " fill="#000000"/>
<path class="legend" d="M 1126.3 268.5 Q 1127.7 268.5, 1128.9 269.1 Q 1130.1 269.8, 1130.7 271.0 Q 1131.4 272.1, 1131.4 273.6 Q 1131.4 275.3, 1130.6 276.6 Q 1129.9 277.8, 1128.6 278.6 Q 1127.3 279.3, 1125.7 279.3 Q 1122.7 279.3, 1121.1 277.2 Q 1119.6 275.2, 1119.6 271.1 Q 1119.6 266.6, 1121.5 264.3 Q 1123.4 261.9, 1127.0 261.9 Q 1128.1 261.9, 1128.9 262.2 Q 1129.9 262.4, 1130.7 262.9 L 1129.8 264.5 Q 1128.5 263.8, 1127.0 263.8 Q 1124.6 263.8, 1123.4 265.4 Q 1122.2 266.9, 1122.0 270.1 Q 1122.9 269.3, 1124.0 268.9 Q 1125.1 268.5, 1126.3 268.5 M 1125.7 277.3 Q 1126.6 277.3, 1127.4 276.8 Q 1128.1 276.4, 1128.6 275.5 Q 1129.0 274.7, 1129.0 273.6 Q 1129.0 272.1, 1128.1 271.3 Q 1127.3 270.4, 1125.8 270.4 Q 1124.8 270.4, 1123.8 270.8 Q 1122.7 271.2, 1122.0 272.0 Q 1122.1 274.8, 1123.0 276.0 Q 1123.9 277.3, 1125.7 277.3 " fill="#000000"/>
<path class="legend" d="M 1142.8 264.0 L 1133.9 264.0 L 1133.9 262.1 L 1145.1 262.1 L 1145.1 263.8 L 1138.3 279.1 L 1136.0 279.1 L 1142.8 264.0 " fill="#000000"/>
<path class="bond-0 atom-1 atom-0" d="M 1382.4,139.8 L 1382.4,139.2" style="fill:none;fill-rule:evenodd;stroke:#000000;stroke-width:1.5px;stroke-linecap:butt;stroke-linejoin:miter;stroke-opacity:1"/>
<path class="bond-0 atom-1 atom-0" d="M 1386.2,140.5 L 1386.3,139.2" style="fill:none;fill-rule:evenodd;stroke:#000000;stroke-width:1.5px;stroke-linecap:butt;stroke-linejoin:miter;stroke-opacity:1"/>
<path class="bond-0 atom-1 atom-0" d="M 1390.1,141.1 L 1390.3,139.1" style="fill:none;fill-rule:evenodd;stroke:#000000;stroke-width:1.5px;stroke-linecap:butt;stroke-linejoin:miter;stroke-opacity:1"/>
<path class="bond-0 atom-1 atom-0" d="M 1394.0,141.7 L 1394.2,139.1" style="fill:none;fill-rule:evenodd;stroke:#000000;stroke-width:1.5px;stroke-linecap:butt;stroke-linejoin:miter;stroke-opacity:1"/>
<path class="bond-0 atom-1 atom-0" d="M 1397.9,142.3 L 1398.1,139.0" style="fill:none;fill-rule:evenodd;stroke:#000000;stroke-width:1.5px;stroke-linecap:butt;stroke-linejoin:miter;stroke-opacity:1"/>
<path class="bond-0 atom-1 atom-0" d="M 1401.8,142.9 L 1402.1,139.0" style="fill:none;fill-rule:evenodd;stroke:#000000;stroke-width:1.5px;stroke-linecap:butt;stroke-linejoin:miter;stroke-opacity:1"/>
<path class="bond-0 atom-1 atom-0" d="M 1405.7,143.5 L 1406.0,139.0" style="fill:none;fill-rule:evenodd;stroke:#000000;stroke-width:1.5px;stroke-linecap:butt;stroke-linejoin:miter;stroke-opacity:1"/>
<path class="bond-0 atom-1 atom-0" d="M 1409.5,144.1 L 1409.9,138.9" style="fill:none;fill-rule:evenodd;stroke:#000000;stroke-width:1.5px;stroke-linecap:butt;stroke-linejoin:miter;stroke-opacity:1"/>
<path class="bond-0 atom-1 atom-0" d="M 1413.4,144.7 L 1413.9,138.9" style="fill:none;fill-rule:evenodd;stroke:#000000;stroke-width:1.5px;stroke-linecap:butt;stroke-linejoin:miter;stroke-opacity:1"/>
<path class="bond-1 atom-1 atom-2" d="M 1378.5,139.2 L 1356.5,171.7" style="fill:none;fill-rule:evenodd;stroke:#000000;stroke-width:3.0px;stroke-linecap:butt;stroke-linejoin:miter;stroke-opacity:1"/>
<path class="bond-2 atom-2 atom-3" d="M 1356.5,171.7 L 1317.3,168.8" style="fill:none;fill-rule:evenodd;stroke:#000000;stroke-width:3.0px;stroke-linecap:butt;stroke-linejoin:miter;stroke-opacity:1"/>
<path class="bond-3 atom-3 atom-4" d="M 1317.3,168.8 L 1300.3,133.5" style="fill:none;fill-rule:evenodd;stroke:#000000;stroke-width:3.0px;stroke-linecap:butt;stroke-linejoin:miter;stroke-opacity:1"/>
<path class="bond-4 atom-4 atom-5" d="M 1300.3,133.5 L 1322.3,101.1" style="fill:none;fill-rule:evenodd;stroke:#000000;stroke-width:3.0px;stroke-linecap:butt;stroke-linejoin:miter;stroke-opacity:1"/>
<path class="bond-5 atom-5 atom-6" d="M 1322.3,101.1 L 1337.6,102.2" style="fill:none;fill-rule:evenodd;stroke:#000000;stroke-width:3.0px;stroke-linecap:butt;stroke-linejoin:miter;stroke-opacity:1"/>
<path class="bond-5 atom-5 atom-6" d="M 1337.6,102.2 L 1353.0,103.3" style="fill:none;fill-rule:evenodd;stroke:#FF0000;stroke-width:3.0px;stroke-linecap:butt;stroke-linejoin:miter;stroke-opacity:1"/>
<path class="bond-6 atom-5 atom-7" d="M 1320.2,97.8 L 1321.0,97.4" style="fill:none;fill-rule:evenodd;stroke:#000000;stroke-width:1.5px;stroke-linecap:butt;stroke-linejoin:miter;stroke-opacity:1"/>
<path class="bond-6 atom-5 atom-7" d="M 1318.1,94.4 L 1319.7,93.7" style="fill:none;fill-rule:evenodd;stroke:#000000;stroke-width:1.5px;stroke-linecap:butt;stroke-linejoin:miter;stroke-opacity:1"/>
<path class="bond-6 atom-5 atom-7" d="M 1316.1,91.1 L 1318.3,90.0" style="fill:none;fill-rule:evenodd;stroke:#000000;stroke-width:1.5px;stroke-linecap:butt;stroke-linejoin:miter;stroke-opacity:1"/>
<path class="bond-6 atom-5 atom-7" d="M 1314.0,87.8 L 1317.0,86.3" style="fill:none;fill-rule:evenodd;stroke:#FF0000;stroke-width:1.5px;stroke-linecap:butt;stroke-linejoin:miter;stroke-opacity:1"/>
<path class="bond-6 atom-5 atom-7" d="M 1311.9,84.4 L 1315.7,82.6" style="fill:none;fill-rule:evenodd;stroke:#FF0000;stroke-width:1.5px;stroke-linecap:butt;stroke-linejoin:miter;stroke-opacity:1"/>
<path class="bond-6 atom-5 atom-7" d="M 1309.8,81.1 L 1314.4,78.9" style="fill:none;fill-rule:evenodd;stroke:#FF0000;stroke-width:1.5px;stroke-linecap:butt;stroke-linejoin:miter;stroke-opacity:1"/>
<path class="bond-6 atom-5 atom-7" d="M 1307.7,77.8 L 1313.0,75.2" style="fill:none;fill-rule:evenodd;stroke:#FF0000;stroke-width:1.5px;stroke-linecap:butt;stroke-linejoin:miter;stroke-opacity:1"/>
<path class="bond-7 atom-4 atom-8" d="M 1300.3,133.5 L 1285.5,133.9 L 1285.7,131.0 Z" style="fill:#000000;fill-rule:evenodd;fill-opacity:1;stroke:#000000;stroke-width:0.8px;stroke-linecap:butt;stroke-linejoin:miter;stroke-opacity:1;"/>
<path class="bond-7 atom-4 atom-8" d="M 1285.5,133.9 L 1271.1,128.4 L 1270.7,134.3 Z" style="fill:#FF0000;fill-rule:evenodd;fill-opacity:1;stroke:#FF0000;stroke-width:0.8px;stroke-linecap:butt;stroke-linejoin:miter;stroke-opacity:1;"/>
<path class="bond-7 atom-4 atom-8" d="M 1285.5,133.9 L 1285.7,131.0 L 1271.1,128.4 Z" style="fill:#FF0000;fill-rule:evenodd;fill-opacity:1;stroke:#FF0000;stroke-width:0.8px;stroke-linecap:butt;stroke-linejoin:miter;stroke-opacity:1;"/>
<path class="bond-8 atom-3 atom-9" d="M 1315.6,172.2 L 1314.9,171.7" style="fill:none;fill-rule:evenodd;stroke:#000000;stroke-width:1.5px;stroke-linecap:butt;stroke-linejoin:miter;stroke-opacity:1"/>
<path class="bond-8 atom-3 atom-9" d="M 1313.8,175.6 L 1312.4,174.6" style="fill:none;fill-rule:evenodd;stroke:#000000;stroke-width:1.5px;stroke-linecap:butt;stroke-linejoin:miter;stroke-opacity:1"/>
<path class="bond-8 atom-3 atom-9" d="M 1312.0,178.9 L 1309.9,177.5" style="fill:none;fill-rule:evenodd;stroke:#000000;stroke-width:1.5px;stroke-linecap:butt;stroke-linejoin:miter;stroke-opacity:1"/>
<path class="bond-8 atom-3 atom-9" d="M 1310.2,182.3 L 1307.4,180.4" style="fill:none;fill-rule:evenodd;stroke:#FF0000;stroke-width:1.5px;stroke-linecap:butt;stroke-linejoin:miter;stroke-opacity:1"/>
<path class="bond-8 atom-3 atom-9" d="M 1308.4,185.7 L 1305.0,183.3" style="fill:none;fill-rule:evenodd;stroke:#FF0000;stroke-width:1.5px;stroke-linecap:butt;stroke-linejoin:miter;stroke-opacity:1"/>
<path class="bond-8 atom-3 atom-9" d="M 1306.6,189.1 L 1302.5,186.2" style="fill:none;fill-rule:evenodd;stroke:#FF0000;stroke-width:1.5px;stroke-linecap:butt;stroke-linejoin:miter;stroke-opacity:1"/>
<path class="bond-8 atom-3 atom-9" d="M 1304.9,192.4 L 1300.0,189.1" style="fill:none;fill-rule:evenodd;stroke:#FF0000;stroke-width:1.5px;stroke-linecap:butt;stroke-linejoin:miter;stroke-opacity:1"/>
<path class="bond-9 atom-2 atom-10" d="M 1356.5,171.7 L 1363.8,183.4 L 1361.1,184.7 Z" style="fill:#000000;fill-rule:evenodd;fill-opacity:1;stroke:#000000;stroke-width:0.8px;stroke-linecap:butt;stroke-linejoin:miter;stroke-opacity:1;"/>
<path class="bond-9 atom-2 atom-10" d="M 1363.8,183.4 L 1365.8,197.8 L 1371.1,195.2 Z" style="fill:#FF0000;fill-rule:evenodd;fill-opacity:1;stroke:#FF0000;stroke-width:0.8px;stroke-linecap:butt;stroke-linejoin:miter;stroke-opacity:1;"/>
<path class="bond-9 atom-2 atom-10" d="M 1363.8,183.4 L 1361.1,184.7 L 1365.8,197.8 Z" style="fill:#FF0000;fill-rule:evenodd;fill-opacity:1;stroke:#FF0000;stroke-width:0.8px;stroke-linecap:butt;stroke-linejoin:miter;stroke-opacity:1;"/>
<path class="bond-10 atom-0 atom-11" d="M 1417.6,142.1 L 1425.4,130.6" style="fill:none;fill-rule:evenodd;stroke:#000000;stroke-width:3.0px;stroke-linecap:butt;stroke-linejoin:miter;stroke-opacity:1"/>
<path class="bond-10 atom-0 atom-11" d="M 1425.4,130.6 L 1433.2,119.1" style="fill:none;fill-rule:evenodd;stroke:#FF0000;stroke-width:3.0px;stroke-linecap:butt;stroke-linejoin:miter;stroke-opacity:1"/>
<path class="bond-11 atom-6 atom-1" d="M 1366.0,113.4 L 1372.2,126.3" style="fill:none;fill-rule:evenodd;stroke:#FF0000;stroke-width:3.0px;stroke-linecap:butt;stroke-linejoin:miter;stroke-opacity:1"/>
<path class="bond-11 atom-6 atom-1" d="M 1372.2,126.3 L 1378.5,139.2" style="fill:none;fill-rule:evenodd;stroke:#000000;stroke-width:3.0px;stroke-linecap:butt;stroke-linejoin:miter;stroke-opacity:1"/>
<path d="M 1377.4,140.9 L 1378.5,139.2 L 1378.2,138.6" style="fill:none;stroke:#000000;stroke-width:3.0px;stroke-linecap:butt;stroke-linejoin:miter;stroke-opacity:1;"/>
<path d="M 1357.6,170.0 L 1356.5,171.7 L 1354.5,171.5" style="fill:none;stroke:#000000;stroke-width:3.0px;stroke-linecap:butt;stroke-linejoin:miter;stroke-opacity:1;"/>
<path d="M 1319.3,169.0 L 1317.3,168.8 L 1316.5,167.1" style="fill:none;stroke:#000000;stroke-width:3.0px;stroke-linecap:butt;stroke-linejoin:miter;stroke-opacity:1;"/>
<path d="M 1301.1,135.3 L 1300.3,133.5 L 1301.4,131.9" style="fill:none;stroke:#000000;stroke-width:3.0px;stroke-linecap:butt;stroke-linejoin:miter;stroke-opacity:1;"/>
<path d="M 1321.2,102.7 L 1322.3,101.1 L 1323.1,101.1" style="fill:none;stroke:#000000;stroke-width:3.0px;stroke-linecap:butt;stroke-linejoin:miter;stroke-opacity:1;"/>
<path class="atom-6" d="M 1354.2 104.0 Q 1354.2 100.2, 1356.1 98.2 Q 1357.9 96.1, 1361.4 96.1 Q 1364.9 96.1, 1366.7 98.2 Q 1368.5 100.2, 1368.5 104.0 Q 1368.5 107.8, 1366.7 109.9 Q 1364.8 112.1, 1361.4 112.1 Q 1358.0 112.1, 1356.1 109.9 Q 1354.2 107.8, 1354.2 104.0 M 1361.4 110.3 Q 1363.8 110.3, 1365.0 108.7 Q 1366.3 107.1, 1366.3 104.0 Q 1366.3 100.9, 1365.0 99.4 Q 1363.8 97.8, 1361.4 97.8 Q 1359.0 97.8, 1357.7 99.4 Q 1356.4 100.9, 1356.4 104.0 Q 1356.4 107.1, 1357.7 108.7 Q 1359.0 110.3, 1361.4 110.3 " fill="#FF0000"/>
<path class="atom-7" d="M 1282.7 58.1 L 1284.8 58.1 L 1284.8 64.7 L 1292.8 64.7 L 1292.8 58.1 L 1294.9 58.1 L 1294.9 73.7 L 1292.8 73.7 L 1292.8 66.5 L 1284.8 66.5 L 1284.8 73.7 L 1282.7 73.7 L 1282.7 58.1 " fill="#FF0000"/>
<path class="atom-7" d="M 1298.1 65.8 Q 1298.1 62.1, 1299.9 60.0 Q 1301.8 57.9, 1305.2 57.9 Q 1308.7 57.9, 1310.5 60.0 Q 1312.4 62.1, 1312.4 65.8 Q 1312.4 69.6, 1310.5 71.8 Q 1308.6 73.9, 1305.2 73.9 Q 1301.8 73.9, 1299.9 71.8 Q 1298.1 69.6, 1298.1 65.8 M 1305.2 72.2 Q 1307.6 72.2, 1308.9 70.6 Q 1310.2 69.0, 1310.2 65.8 Q 1310.2 62.8, 1308.9 61.2 Q 1307.6 59.7, 1305.2 59.7 Q 1302.8 59.7, 1301.5 61.2 Q 1300.3 62.8, 1300.3 65.8 Q 1300.3 69.0, 1301.5 70.6 Q 1302.8 72.2, 1305.2 72.2 " fill="#FF0000"/>
<path class="atom-8" d="M 1238.6 123.0 L 1240.7 123.0 L 1240.7 129.6 L 1248.7 129.6 L 1248.7 123.0 L 1250.8 123.0 L 1250.8 138.5 L 1248.7 138.5 L 1248.7 131.4 L 1240.7 131.4 L 1240.7 138.5 L 1238.6 138.5 L 1238.6 123.0 " fill="#FF0000"/>
<path class="atom-8" d="M 1254.0 130.7 Q 1254.0 127.0, 1255.9 124.9 Q 1257.7 122.8, 1261.2 122.8 Q 1264.6 122.8, 1266.5 124.9 Q 1268.3 127.0, 1268.3 130.7 Q 1268.3 134.5, 1266.4 136.7 Q 1264.6 138.8, 1261.2 138.8 Q 1257.7 138.8, 1255.9 136.7 Q 1254.0 134.5, 1254.0 130.7 M 1261.2 137.0 Q 1263.5 137.0, 1264.8 135.4 Q 1266.1 133.8, 1266.1 130.7 Q 1266.1 127.7, 1264.8 126.1 Q 1263.5 124.6, 1261.2 124.6 Q 1258.8 124.6, 1257.5 126.1 Q 1256.2 127.6, 1256.2 130.7 Q 1256.2 133.9, 1257.5 135.4 Q 1258.8 137.0, 1261.2 137.0 " fill="#FF0000"/>
<path class="atom-9" d="M 1272.8 193.6 L 1274.9 193.6 L 1274.9 200.2 L 1282.9 200.2 L 1282.9 193.6 L 1285.0 193.6 L 1285.0 209.1 L 1282.9 209.1 L 1282.9 201.9 L 1274.9 201.9 L 1274.9 209.1 L 1272.8 209.1 L 1272.8 193.6 " fill="#FF0000"/>
<path class="atom-9" d="M 1288.2 201.3 Q 1288.2 197.6, 1290.0 195.5 Q 1291.9 193.4, 1295.3 193.4 Q 1298.8 193.4, 1300.6 195.5 Q 1302.5 197.6, 1302.5 201.3 Q 1302.5 205.1, 1300.6 207.2 Q 1298.7 209.4, 1295.3 209.4 Q 1291.9 209.4, 1290.0 207.2 Q 1288.2 205.1, 1288.2 201.3 M 1295.3 207.6 Q 1297.7 207.6, 1299.0 206.0 Q 1300.3 204.4, 1300.3 201.3 Q 1300.3 198.2, 1299.0 196.7 Q 1297.7 195.1, 1295.3 195.1 Q 1293.0 195.1, 1291.7 196.7 Q 1290.4 198.2, 1290.4 201.3 Q 1290.4 204.4, 1291.7 206.0 Q 1293.0 207.6, 1295.3 207.6 " fill="#FF0000"/>
<path class="atom-10" d="M 1366.4 207.0 Q 1366.4 203.3, 1368.2 201.2 Q 1370.1 199.1, 1373.5 199.1 Q 1377.0 199.1, 1378.8 201.2 Q 1380.7 203.3, 1380.7 207.0 Q 1380.7 210.8, 1378.8 212.9 Q 1376.9 215.1, 1373.5 215.1 Q 1370.1 215.1, 1368.2 212.9 Q 1366.4 210.8, 1366.4 207.0 M 1373.5 213.3 Q 1375.9 213.3, 1377.2 211.7 Q 1378.5 210.1, 1378.5 207.0 Q 1378.5 203.9, 1377.2 202.4 Q 1375.9 200.8, 1373.5 200.8 Q 1371.2 200.8, 1369.9 202.4 Q 1368.6 203.9, 1368.6 207.0 Q 1368.6 210.2, 1369.9 211.7 Q 1371.2 213.3, 1373.5 213.3 " fill="#FF0000"/>
<path class="atom-10" d="M 1383.1 199.3 L 1385.2 199.3 L 1385.2 205.9 L 1393.2 205.9 L 1393.2 199.3 L 1395.3 199.3 L 1395.3 214.8 L 1393.2 214.8 L 1393.2 207.6 L 1385.2 207.6 L 1385.2 214.8 L 1383.1 214.8 L 1383.1 199.3 " fill="#FF0000"/>
<path class="atom-11" d="M 1432.5 109.7 Q 1432.5 106.0, 1434.3 103.9 Q 1436.1 101.8, 1439.6 101.8 Q 1443.1 101.8, 1444.9 103.9 Q 1446.8 106.0, 1446.8 109.7 Q 1446.8 113.5, 1444.9 115.6 Q 1443.0 117.8, 1439.6 117.8 Q 1436.2 117.8, 1434.3 115.6 Q 1432.5 113.5, 1432.5 109.7 M 1439.6 116.0 Q 1442.0 116.0, 1443.3 114.4 Q 1444.6 112.8, 1444.6 109.7 Q 1444.6 106.6, 1443.3 105.1 Q 1442.0 103.5, 1439.6 103.5 Q 1437.2 103.5, 1435.9 105.1 Q 1434.7 106.6, 1434.7 109.7 Q 1434.7 112.8, 1435.9 114.4 Q 1437.2 116.0, 1439.6 116.0 " fill="#FF0000"/>
<path class="atom-11" d="M 1449.2 102.0 L 1451.3 102.0 L 1451.3 108.6 L 1459.3 108.6 L 1459.3 102.0 L 1461.4 102.0 L 1461.4 117.5 L 1459.3 117.5 L 1459.3 110.3 L 1451.3 110.3 L 1451.3 117.5 L 1449.2 117.5 L 1449.2 102.0 " fill="#FF0000"/>
<path class="legend" d="M 1267.9 266.5 Q 1270.0 266.5, 1271.1 267.7 Q 1272.1 268.8, 1272.1 270.9 L 1272.1 279.1 L 1269.9 279.1 L 1269.9 271.1 Q 1269.9 269.6, 1269.3 269.0 Q 1268.8 268.3, 1267.5 268.3 Q 1266.4 268.3, 1265.5 268.8 Q 1264.6 269.4, 1264.0 270.3 Q 1264.0 270.5, 1264.0 270.9 L 1264.0 279.1 L 1261.8 279.1 L 1261.8 271.1 Q 1261.8 269.6, 1261.2 269.0 Q 1260.7 268.3, 1259.4 268.3 Q 1258.3 268.3, 1257.4 268.8 Q 1256.5 269.4, 1255.9 270.2 L 1255.9 279.1 L 1253.7 279.1 L 1253.7 266.8 L 1255.5 266.8 L 1255.8 268.4 Q 1257.4 266.5, 1259.8 266.5 Q 1262.8 266.5, 1263.7 268.7 Q 1265.3 266.5, 1267.9 266.5 " fill="#000000"/>
<path class="legend" d="M 1275.1 272.9 Q 1275.1 269.9, 1276.7 268.2 Q 1278.2 266.5, 1281.0 266.5 Q 1283.8 266.5, 1285.3 268.2 Q 1286.9 269.9, 1286.9 272.9 Q 1286.9 275.9, 1285.3 277.6 Q 1283.8 279.3, 1281.0 279.3 Q 1278.2 279.3, 1276.7 277.6 Q 1275.1 275.9, 1275.1 272.9 M 1277.5 272.9 Q 1277.5 275.2, 1278.4 276.3 Q 1279.3 277.5, 1281.0 277.5 Q 1282.7 277.5, 1283.6 276.3 Q 1284.6 275.2, 1284.6 272.9 Q 1284.6 270.6, 1283.6 269.5 Q 1282.7 268.3, 1281.0 268.3 Q 1279.3 268.3, 1278.4 269.5 Q 1277.5 270.6, 1277.5 272.9 " fill="#000000"/>
<path class="legend" d="M 1294.9 266.5 Q 1297.5 266.5, 1298.9 268.2 Q 1300.3 269.7, 1300.3 272.7 Q 1300.3 275.8, 1298.6 277.6 Q 1296.9 279.3, 1294.0 279.3 Q 1292.0 279.3, 1290.2 278.6 L 1289.1 278.3 L 1289.1 260.9 L 1291.4 260.9 L 1291.4 268.1 Q 1292.7 266.5, 1294.9 266.5 M 1294.0 277.5 Q 1295.8 277.5, 1296.9 276.3 Q 1298.0 275.0, 1298.0 272.7 Q 1298.0 270.6, 1297.1 269.5 Q 1296.3 268.3, 1294.7 268.3 Q 1293.5 268.3, 1292.6 269.0 Q 1291.7 269.7, 1291.4 270.8 L 1291.4 277.2 Q 1292.6 277.5, 1294.0 277.5 " fill="#000000"/>
<path class="legend" d="M 1302.6 260.9 L 1304.8 260.9 L 1304.8 279.1 L 1302.6 279.1 L 1302.6 260.9 " fill="#000000"/>
<path class="legend" d="M 1308.0 272.9 Q 1308.0 269.9, 1309.5 268.2 Q 1311.0 266.5, 1313.8 266.5 Q 1316.5 266.5, 1317.7 268.2 Q 1318.9 269.8, 1318.9 272.8 L 1318.9 273.2 L 1310.3 273.2 Q 1310.4 275.3, 1311.3 276.4 Q 1312.2 277.5, 1314.0 277.5 Q 1315.0 277.5, 1315.8 277.3 Q 1316.7 277.1, 1317.8 276.6 L 1318.5 278.1 Q 1317.2 278.7, 1316.1 279.0 Q 1315.0 279.3, 1313.9 279.3 Q 1311.1 279.3, 1309.6 277.6 Q 1308.0 275.9, 1308.0 272.9 M 1313.8 268.3 Q 1312.4 268.3, 1311.5 269.1 Q 1310.7 270.0, 1310.4 271.5 L 1316.6 271.5 Q 1316.4 269.9, 1315.7 269.1 Q 1315.0 268.3, 1313.8 268.3 " fill="#000000"/>
<path class="legend" d="M 1330.5 266.8 L 1332.7 266.8 L 1326.3 285.0 L 1324.3 285.0 L 1326.3 279.1 L 1325.4 279.1 L 1321.0 266.8 L 1323.3 266.8 L 1327.0 277.2 L 1330.5 266.8 " fill="#000000"/>
<path class="legend" d="M 1346.3 280.3 L 1346.3 282.3 L 1334.1 282.3 L 1334.1 280.3 L 1346.3 280.3 " fill="#000000"/>
<path class="legend" d="M 1353.2 261.9 Q 1356.2 261.9, 1357.8 264.0 Q 1359.3 266.0, 1359.3 270.1 Q 1359.3 274.6, 1357.4 277.0 Q 1355.5 279.3, 1351.9 279.3 Q 1350.8 279.3, 1349.9 279.0 Q 1349.0 278.8, 1348.2 278.3 L 1349.1 276.7 Q 1350.4 277.4, 1351.9 277.4 Q 1354.3 277.4, 1355.5 275.8 Q 1356.7 274.3, 1356.9 271.1 Q 1356.0 271.9, 1354.9 272.3 Q 1353.8 272.7, 1352.6 272.7 Q 1351.2 272.7, 1350.0 272.1 Q 1348.8 271.4, 1348.2 270.2 Q 1347.5 269.1, 1347.5 267.6 Q 1347.5 265.9, 1348.2 264.6 Q 1349.0 263.4, 1350.3 262.6 Q 1351.6 261.9, 1353.2 261.9 M 1349.9 267.6 Q 1349.9 269.1, 1350.8 269.9 Q 1351.6 270.8, 1353.1 270.8 Q 1354.1 270.8, 1355.1 270.4 Q 1356.2 270.0, 1356.9 269.2 Q 1356.8 266.4, 1355.9 265.2 Q 1355.0 263.9, 1353.2 263.9 Q 1352.3 263.9, 1351.5 264.4 Q 1350.8 264.8, 1350.3 265.7 Q 1349.9 266.5, 1349.9 267.6 " fill="#000000"/>
<path class="legend" d="M 1368.3 268.5 Q 1369.7 268.5, 1371.0 269.1 Q 1372.2 269.7, 1372.9 270.9 Q 1373.6 272.1, 1373.6 273.7 Q 1373.6 275.5, 1372.7 276.7 Q 1371.9 278.0, 1370.5 278.6 Q 1369.1 279.3, 1367.5 279.3 Q 1366.0 279.3, 1364.5 278.7 Q 1363.1 278.1, 1362.1 277.0 L 1363.5 275.5 Q 1364.3 276.4, 1365.4 276.9 Q 1366.5 277.3, 1367.6 277.3 Q 1369.1 277.3, 1370.1 276.4 Q 1371.2 275.5, 1371.2 273.8 Q 1371.2 272.0, 1370.1 271.1 Q 1369.1 270.3, 1367.4 270.3 Q 1366.0 270.3, 1364.3 270.9 L 1363.0 270.3 L 1363.8 262.1 L 1372.5 262.1 L 1372.3 264.0 L 1365.8 264.0 L 1365.3 269.1 Q 1366.8 268.5, 1368.3 268.5 " fill="#000000"/>
<path class="legend" d="M 1384.1 270.1 Q 1385.7 270.6, 1386.5 271.7 Q 1387.3 272.8, 1387.3 274.4 Q 1387.3 275.9, 1386.6 277.0 Q 1385.9 278.1, 1384.6 278.7 Q 1383.2 279.3, 1381.5 279.3 Q 1379.7 279.3, 1378.3 278.7 Q 1377.0 278.1, 1375.9 276.8 L 1377.3 275.4 Q 1378.3 276.5, 1379.2 277.0 Q 1380.1 277.4, 1381.5 277.4 Q 1383.1 277.4, 1384.0 276.6 Q 1384.9 275.8, 1384.9 274.4 Q 1384.9 272.7, 1383.9 271.9 Q 1383.0 271.1, 1380.9 271.1 L 1379.7 271.1 L 1379.7 269.4 L 1380.8 269.4 Q 1382.6 269.4, 1383.6 268.6 Q 1384.6 267.8, 1384.6 266.3 Q 1384.6 265.2, 1383.8 264.5 Q 1382.9 263.8, 1381.5 263.8 Q 1380.1 263.8, 1379.2 264.3 Q 1378.4 264.8, 1377.7 266.1 L 1376.0 265.2 Q 1376.6 263.8, 1378.1 262.9 Q 1379.5 261.9, 1381.5 261.9 Q 1384.0 261.9, 1385.5 263.1 Q 1387.0 264.3, 1387.0 266.3 Q 1387.0 267.6, 1386.2 268.6 Q 1385.5 269.6, 1384.1 270.1 " fill="#000000"/>
<path class="legend" d="M 1400.9 273.3 L 1403.0 273.3 L 1403.0 275.2 L 1400.9 275.2 L 1400.9 279.1 L 1398.7 279.1 L 1398.7 275.2 L 1389.9 275.2 L 1389.9 273.7 L 1397.3 262.1 L 1400.9 262.1 L 1400.9 273.3 M 1392.7 273.3 L 1398.7 273.3 L 1398.7 263.6 L 1392.7 273.3 " fill="#000000"/>
<path class="legend" d="M 1414.2 264.0 L 1405.3 264.0 L 1405.3 262.1 L 1416.6 262.1 L 1416.6 263.8 L 1409.7 279.1 L 1407.4 279.1 L 1414.2 264.0 " fill="#000000"/>
<path class="legend" d="M 1429.5 273.3 L 1431.5 273.3 L 1431.5 275.2 L 1429.5 275.2 L 1429.5 279.1 L 1427.3 279.1 L 1427.3 275.2 L 1418.5 275.2 L 1418.5 273.7 L 1425.9 262.1 L 1429.5 262.1 L 1429.5 273.3 M 1421.3 273.3 L 1427.3 273.3 L 1427.3 263.6 L 1421.3 273.3 " fill="#000000"/>
<path class="legend" d="M 1440.1 279.3 Q 1437.0 279.3, 1435.4 277.0 Q 1433.9 274.7, 1433.9 270.6 Q 1433.9 266.5, 1435.4 264.2 Q 1437.0 261.9, 1440.1 261.9 Q 1443.2 261.9, 1444.8 264.2 Q 1446.3 266.5, 1446.3 270.6 Q 1446.3 274.7, 1444.8 277.0 Q 1443.2 279.3, 1440.1 279.3 M 1440.1 277.4 Q 1442.0 277.4, 1442.9 275.7 Q 1443.9 273.9, 1443.9 270.6 Q 1443.9 267.2, 1442.9 265.5 Q 1442.0 263.8, 1440.1 263.8 Q 1438.3 263.8, 1437.3 265.5 Q 1436.3 267.2, 1436.3 270.6 Q 1436.3 273.9, 1437.3 275.7 Q 1438.3 277.4, 1440.1 277.4 " fill="#000000"/>
</svg>