<svg xmlns="http://www.w3.org/2000/svg" xmlns:rdkit="http://www.rdkit.org/xml" xmlns:xlink="http://www.w3.org/1999/xlink" version="1.1" baseProfile="full" xml:space="preserve" width="1800px" height="300px" viewBox="0 0 1800 300">
<!-- END OF HEADER -->
<rect style="opacity:1.0;fill:#F1F1E6;stroke:none" width="1800.0" height="300.0" x="0.0" y="0.0"> </rect>
<path class="bond-0 atom-0 atom-1" d="M 130.8,187.3 L 111.2,153.4" style="fill:none;fill-rule:evenodd;stroke:#000000;stroke-width:4.0px;stroke-linecap:butt;stroke-linejoin:miter;stroke-opacity:1"/>
<path class="bond-1 atom-1 atom-2" d="M 111.2,153.4 L 130.8,119.4" style="fill:none;fill-rule:evenodd;stroke:#000000;stroke-width:4.0px;stroke-linecap:butt;stroke-linejoin:miter;stroke-opacity:1"/>
<path class="bond-2 atom-2 atom-3" d="M 130.8,119.4 L 170.0,119.4" style="fill:none;fill-rule:evenodd;stroke:#000000;stroke-width:4.0px;stroke-linecap:butt;stroke-linejoin:miter;stroke-opacity:1"/>
<path class="bond-3 atom-3 atom-4" d="M 170.0,119.4 L 189.6,153.4" style="fill:none;fill-rule:evenodd;stroke:#000000;stroke-width:4.0px;stroke-linecap:butt;stroke-linejoin:miter;stroke-opacity:1"/>
<path class="bond-4 atom-4 atom-5" d="M 189.6,153.4 L 182.4,165.7" style="fill:none;fill-rule:evenodd;stroke:#000000;stroke-width:4.0px;stroke-linecap:butt;stroke-linejoin:miter;stroke-opacity:1"/>
<path class="bond-4 atom-4 atom-5" d="M 182.4,165.7 L 175.3,178.1" style="fill:none;fill-rule:evenodd;stroke:#FF0000;stroke-width:4.0px;stroke-linecap:butt;stroke-linejoin:miter;stroke-opacity:1"/>
<path class="bond-5 atom-4 atom-6" d="M 189.6,153.4 L 204.3,151.9 L 204.3,154.8 Z" style="fill:#000000;fill-rule:evenodd;fill-opacity:1;stroke:#000000;stroke-width:1.0px;stroke-linecap:butt;stroke-linejoin:miter;stroke-opacity:1;"/>
<path class="bond-5 atom-4 atom-6" d="M 204.3,151.9 L 219.1,156.3 L 219.1,150.4 Z" style="fill:#FF0000;fill-rule:evenodd;fill-opacity:1;stroke:#FF0000;stroke-width:1.0px;stroke-linecap:butt;stroke-linejoin:miter;stroke-opacity:1;"/>
<path class="bond-5 atom-4 atom-6" d="M 204.3,151.9 L 204.3,154.8 L 219.1,156.3 Z" style="fill:#FF0000;fill-rule:evenodd;fill-opacity:1;stroke:#FF0000;stroke-width:1.0px;stroke-linecap:butt;stroke-linejoin:miter;stroke-opacity:1;"/>
<path class="bond-6 atom-3 atom-7" d="M 170.0,119.4 L 175.4,107.0 L 178.0,108.5 Z" style="fill:#000000;fill-rule:evenodd;fill-opacity:1;stroke:#000000;stroke-width:1.0px;stroke-linecap:butt;stroke-linejoin:miter;stroke-opacity:1;"/>
<path class="bond-6 atom-3 atom-7" d="M 175.4,107.0 L 186.0,97.6 L 180.9,94.7 Z" style="fill:#FF0000;fill-rule:evenodd;fill-opacity:1;stroke:#FF0000;stroke-width:1.0px;stroke-linecap:butt;stroke-linejoin:miter;stroke-opacity:1;"/>
<path class="bond-6 atom-3 atom-7" d="M 175.4,107.0 L 178.0,108.5 L 186.0,97.6 Z" style="fill:#FF0000;fill-rule:evenodd;fill-opacity:1;stroke:#FF0000;stroke-width:1.0px;stroke-linecap:butt;stroke-linejoin:miter;stroke-opacity:1;"/>
<path class="bond-7 atom-2 atom-8" d="M 128.1,115.8 L 129.0,115.3" style="fill:none;fill-rule:evenodd;stroke:#000000;stroke-width:2.0px;stroke-linecap:butt;stroke-linejoin:miter;stroke-opacity:1"/>
<path class="bond-7 atom-2 atom-8" d="M 125.5,112.1 L 127.2,111.2" style="fill:none;fill-rule:evenodd;stroke:#000000;stroke-width:2.0px;stroke-linecap:butt;stroke-linejoin:miter;stroke-opacity:1"/>
<path class="bond-7 atom-2 atom-8" d="M 122.8,108.5 L 125.3,107.0" style="fill:none;fill-rule:evenodd;stroke:#000000;stroke-width:2.0px;stroke-linecap:butt;stroke-linejoin:miter;stroke-opacity:1"/>
<path class="bond-7 atom-2 atom-8" d="M 120.1,104.9 L 123.5,102.9" style="fill:none;fill-rule:evenodd;stroke:#FF0000;stroke-width:2.0px;stroke-linecap:butt;stroke-linejoin:miter;stroke-opacity:1"/>
<path class="bond-7 atom-2 atom-8" d="M 117.5,101.3 L 121.7,98.8" style="fill:none;fill-rule:evenodd;stroke:#FF0000;stroke-width:2.0px;stroke-linecap:butt;stroke-linejoin:miter;stroke-opacity:1"/>
<path class="bond-7 atom-2 atom-8" d="M 114.8,97.6 L 119.9,94.7" style="fill:none;fill-rule:evenodd;stroke:#FF0000;stroke-width:2.0px;stroke-linecap:butt;stroke-linejoin:miter;stroke-opacity:1"/>
<path class="bond-8 atom-1 atom-9" d="M 111.2,153.4 L 96.4,154.8 L 96.4,151.9 Z" style="fill:#000000;fill-rule:evenodd;fill-opacity:1;stroke:#000000;stroke-width:1.0px;stroke-linecap:butt;stroke-linejoin:miter;stroke-opacity:1;"/>
<path class="bond-8 atom-1 atom-9" d="M 96.4,154.8 L 81.7,150.4 L 81.7,156.3 Z" style="fill:#FF0000;fill-rule:evenodd;fill-opacity:1;stroke:#FF0000;stroke-width:1.0px;stroke-linecap:butt;stroke-linejoin:miter;stroke-opacity:1;"/>
<path class="bond-8 atom-1 atom-9" d="M 96.4,154.8 L 96.4,151.9 L 81.7,150.4 Z" style="fill:#FF0000;fill-rule:evenodd;fill-opacity:1;stroke:#FF0000;stroke-width:1.0px;stroke-linecap:butt;stroke-linejoin:miter;stroke-opacity:1;"/>
<path class="bond-9 atom-5 atom-0" d="M 161.5,187.3 L 146.2,187.3" style="fill:none;fill-rule:evenodd;stroke:#FF0000;stroke-width:4.0px;stroke-linecap:butt;stroke-linejoin:miter;stroke-opacity:1"/>
<path class="bond-9 atom-5 atom-0" d="M 146.2,187.3 L 130.8,187.3" style="fill:none;fill-rule:evenodd;stroke:#000000;stroke-width:4.0px;stroke-linecap:butt;stroke-linejoin:miter;stroke-opacity:1"/>
<path d="M 129.8,185.6 L 130.8,187.3 L 131.6,187.3" style="fill:none;stroke:#000000;stroke-width:4.0px;stroke-linecap:butt;stroke-linejoin:miter;stroke-opacity:1;"/>
<path d="M 112.2,155.1 L 111.2,153.4 L 112.2,151.7" style="fill:none;stroke:#000000;stroke-width:4.0px;stroke-linecap:butt;stroke-linejoin:miter;stroke-opacity:1;"/>
<path d="M 129.8,121.1 L 130.8,119.4 L 132.7,119.4" style="fill:none;stroke:#000000;stroke-width:4.0px;stroke-linecap:butt;stroke-linejoin:miter;stroke-opacity:1;"/>
<path d="M 168.0,119.4 L 170.0,119.4 L 171.0,121.1" style="fill:none;stroke:#000000;stroke-width:4.0px;stroke-linecap:butt;stroke-linejoin:miter;stroke-opacity:1;"/>
<path d="M 188.6,151.7 L 189.6,153.4 L 189.2,154.0" style="fill:none;stroke:#000000;stroke-width:4.0px;stroke-linecap:butt;stroke-linejoin:miter;stroke-opacity:1;"/>
<path class="atom-5" d="M 162.8 187.4 Q 162.8 183.6, 164.7 181.5 Q 166.5 179.4, 170.0 179.4 Q 173.4 179.4, 175.3 181.5 Q 177.1 183.6, 177.1 187.4 Q 177.1 191.1, 175.3 193.3 Q 173.4 195.4, 170.0 195.4 Q 166.6 195.4, 164.7 193.3 Q 162.8 191.2, 162.8 187.4 M 170.0 193.7 Q 172.4 193.7, 173.6 192.1 Q 174.9 190.5, 174.9 187.4 Q 174.9 184.3, 173.6 182.8 Q 172.4 181.2, 170.0 181.2 Q 167.6 181.2, 166.3 182.7 Q 165.0 184.3, 165.0 187.4 Q 165.0 190.5, 166.3 192.1 Q 167.6 193.7, 170.0 193.7 " fill="#FF0000"/>
<path class="atom-6" d="M 221.6 153.4 Q 221.6 149.7, 223.5 147.6 Q 225.3 145.5, 228.8 145.5 Q 232.3 145.5, 234.1 147.6 Q 235.9 149.7, 235.9 153.4 Q 235.9 157.2, 234.1 159.3 Q 232.2 161.5, 228.8 161.5 Q 225.4 161.5, 223.5 159.3 Q 221.6 157.2, 221.6 153.4 M 228.8 159.7 Q 231.2 159.7, 232.5 158.1 Q 233.7 156.5, 233.7 153.4 Q 233.7 150.3, 232.5 148.8 Q 231.2 147.2, 228.8 147.2 Q 226.4 147.2, 225.1 148.8 Q 223.8 150.3, 223.8 153.4 Q 223.8 156.5, 225.1 158.1 Q 226.4 159.7, 228.8 159.7 " fill="#FF0000"/>
<path class="atom-6" d="M 238.4 145.7 L 240.5 145.7 L 240.5 152.3 L 248.4 152.3 L 248.4 145.7 L 250.6 145.7 L 250.6 161.2 L 248.4 161.2 L 248.4 154.0 L 240.5 154.0 L 240.5 161.2 L 238.4 161.2 L 238.4 145.7 " fill="#FF0000"/>
<path class="atom-7" d="M 182.4 85.5 Q 182.4 81.8, 184.3 79.7 Q 186.1 77.6, 189.6 77.6 Q 193.0 77.6, 194.9 79.7 Q 196.7 81.8, 196.7 85.5 Q 196.7 89.3, 194.9 91.4 Q 193.0 93.6, 189.6 93.6 Q 186.2 93.6, 184.3 91.4 Q 182.4 89.3, 182.4 85.5 M 189.6 91.8 Q 192.0 91.8, 193.2 90.2 Q 194.5 88.6, 194.5 85.5 Q 194.5 82.4, 193.2 80.9 Q 192.0 79.3, 189.6 79.3 Q 187.2 79.3, 185.9 80.9 Q 184.6 82.4, 184.6 85.5 Q 184.6 88.6, 185.9 90.2 Q 187.2 91.8, 189.6 91.8 " fill="#FF0000"/>
<path class="atom-7" d="M 199.2 77.7 L 201.3 77.7 L 201.3 84.4 L 209.2 84.4 L 209.2 77.7 L 211.4 77.7 L 211.4 93.3 L 209.2 93.3 L 209.2 86.1 L 201.3 86.1 L 201.3 93.3 L 199.2 93.3 L 199.2 77.7 " fill="#FF0000"/>
<path class="atom-8" d="M 88.6 77.7 L 90.8 77.7 L 90.8 84.4 L 98.7 84.4 L 98.7 77.7 L 100.8 77.7 L 100.8 93.3 L 98.7 93.3 L 98.7 86.1 L 90.8 86.1 L 90.8 93.3 L 88.6 93.3 L 88.6 77.7 " fill="#FF0000"/>
<path class="atom-8" d="M 104.0 85.5 Q 104.0 81.8, 105.9 79.7 Q 107.7 77.6, 111.2 77.6 Q 114.6 77.6, 116.5 79.7 Q 118.3 81.8, 118.3 85.5 Q 118.3 89.3, 116.5 91.4 Q 114.6 93.6, 111.2 93.6 Q 107.7 93.6, 105.9 91.4 Q 104.0 89.3, 104.0 85.5 M 111.2 91.8 Q 113.6 91.8, 114.8 90.2 Q 116.1 88.6, 116.1 85.5 Q 116.1 82.4, 114.8 80.9 Q 113.6 79.3, 111.2 79.3 Q 108.8 79.3, 107.5 80.9 Q 106.2 82.4, 106.2 85.5 Q 106.2 88.6, 107.5 90.2 Q 108.8 91.8, 111.2 91.8 " fill="#FF0000"/>
<path class="atom-9" d="M 49.4 145.7 L 51.6 145.7 L 51.6 152.3 L 59.5 152.3 L 59.5 145.7 L 61.6 145.7 L 61.6 161.2 L 59.5 161.2 L 59.5 154.0 L 51.6 154.0 L 51.6 161.2 L 49.4 161.2 L 49.4 145.7 " fill="#FF0000"/>
<path class="atom-9" d="M 64.8 153.4 Q 64.8 149.7, 66.7 147.6 Q 68.5 145.5, 72.0 145.5 Q 75.4 145.5, 77.3 147.6 Q 79.1 149.7, 79.1 153.4 Q 79.1 157.2, 77.3 159.3 Q 75.4 161.5, 72.0 161.5 Q 68.5 161.5, 66.7 159.3 Q 64.8 157.2, 64.8 153.4 M 72.0 159.7 Q 74.3 159.7, 75.6 158.1 Q 76.9 156.5, 76.9 153.4 Q 76.9 150.3, 75.6 148.8 Q 74.3 147.2, 72.0 147.2 Q 69.6 147.2, 68.3 148.8 Q 67.0 150.3, 67.0 153.4 Q 67.0 156.5, 68.3 158.1 Q 69.6 159.7, 72.0 159.7 " fill="#FF0000"/>
<path class="legend" d="M 70.1 266.5 Q 72.2 266.5, 73.2 267.7 Q 74.3 268.8, 74.3 270.9 L 74.3 279.1 L 72.0 279.1 L 72.0 271.1 Q 72.0 269.6, 71.5 269.0 Q 70.9 268.3, 69.7 268.3 Q 68.6 268.3, 67.6 268.8 Q 66.7 269.4, 66.2 270.3 Q 66.2 270.5, 66.2 270.9 L 66.2 279.1 L 63.9 279.1 L 63.9 271.1 Q 63.9 269.6, 63.4 269.0 Q 62.8 268.3, 61.6 268.3 Q 60.5 268.3, 59.6 268.8 Q 58.7 269.4, 58.1 270.2 L 58.1 279.1 L 55.8 279.1 L 55.8 266.8 L 57.7 266.8 L 57.9 268.4 Q 59.5 266.5, 62.0 266.5 Q 64.9 266.5, 65.8 268.7 Q 67.4 266.5, 70.1 266.5 " fill="#000000"/>
<path class="legend" d="M 77.3 272.9 Q 77.3 269.9, 78.8 268.2 Q 80.3 266.5, 83.1 266.5 Q 85.9 266.5, 87.4 268.2 Q 89.0 269.9, 89.0 272.9 Q 89.0 275.9, 87.4 277.6 Q 85.9 279.3, 83.1 279.3 Q 80.3 279.3, 78.8 277.6 Q 77.3 275.9, 77.3 272.9 M 79.6 272.9 Q 79.6 275.2, 80.5 276.3 Q 81.4 277.5, 83.1 277.5 Q 84.8 277.5, 85.7 276.3 Q 86.7 275.2, 86.7 272.9 Q 86.7 270.6, 85.7 269.5 Q 84.8 268.3, 83.1 268.3 Q 81.4 268.3, 80.5 269.5 Q 79.6 270.6, 79.6 272.9 " fill="#000000"/>
<path class="legend" d="M 97.0 266.5 Q 99.5 266.5, 101.0 268.2 Q 102.4 269.7, 102.4 272.7 Q 102.4 275.8, 100.7 277.6 Q 99.0 279.3, 96.1 279.3 Q 94.1 279.3, 92.3 278.6 L 91.2 278.3 L 91.2 260.9 L 93.5 260.9 L 93.5 268.1 Q 94.8 266.5, 97.0 266.5 M 96.0 277.5 Q 97.9 277.5, 99.0 276.3 Q 100.1 275.0, 100.1 272.7 Q 100.1 270.6, 99.2 269.5 Q 98.4 268.3, 96.8 268.3 Q 95.6 268.3, 94.7 269.0 Q 93.8 269.7, 93.5 270.8 L 93.5 277.2 Q 94.7 277.5, 96.0 277.5 " fill="#000000"/>
<path class="legend" d="M 104.6 260.9 L 106.8 260.9 L 106.8 279.1 L 104.6 279.1 L 104.6 260.9 " fill="#000000"/>
<path class="legend" d="M 110.0 272.9 Q 110.0 269.9, 111.5 268.2 Q 113.1 266.5, 115.8 266.5 Q 118.5 266.5, 119.7 268.2 Q 121.0 269.8, 121.0 272.8 L 121.0 273.2 L 112.3 273.2 Q 112.4 275.3, 113.3 276.4 Q 114.3 277.5, 116.0 277.5 Q 117.0 277.5, 117.9 277.3 Q 118.7 277.1, 119.8 276.6 L 120.5 278.1 Q 119.2 278.7, 118.1 279.0 Q 117.0 279.3, 115.9 279.3 Q 113.1 279.3, 111.6 277.6 Q 110.0 275.9, 110.0 272.9 M 115.8 268.3 Q 114.4 268.3, 113.5 269.1 Q 112.7 270.0, 112.4 271.5 L 118.6 271.5 Q 118.4 269.9, 117.7 269.1 Q 117.1 268.3, 115.8 268.3 " fill="#000000"/>
<path class="legend" d="M 132.5 266.8 L 134.7 266.8 L 128.3 285.0 L 126.3 285.0 L 128.3 279.1 L 127.4 279.1 L 123.0 266.8 L 125.3 266.8 L 128.9 277.2 L 132.5 266.8 " fill="#000000"/>
<path class="legend" d="M 148.3 280.3 L 148.3 282.3 L 136.1 282.3 L 136.1 280.3 L 148.3 280.3 " fill="#000000"/>
<path class="legend" d="M 150.4 277.2 L 154.1 277.2 L 154.1 264.5 L 150.0 265.8 L 149.4 264.3 L 154.6 262.0 L 156.3 262.3 L 156.3 277.2 L 159.7 277.2 L 159.7 279.1 L 150.4 279.1 L 150.4 277.2 " fill="#000000"/>
<path class="legend" d="M 170.5 270.1 Q 172.0 270.8, 172.9 271.8 Q 173.8 272.8, 173.8 274.4 Q 173.8 275.9, 173.1 277.0 Q 172.3 278.1, 171.0 278.7 Q 169.7 279.3, 167.9 279.3 Q 165.1 279.3, 163.4 278.0 Q 161.8 276.7, 161.8 274.4 Q 161.8 273.0, 162.5 272.0 Q 163.3 271.0, 164.7 270.2 Q 163.6 269.5, 163.0 268.6 Q 162.4 267.7, 162.4 266.3 Q 162.4 264.3, 163.9 263.1 Q 165.3 261.9, 167.8 261.9 Q 170.3 261.9, 171.7 263.1 Q 173.2 264.3, 173.2 266.3 Q 173.2 267.5, 172.5 268.4 Q 171.8 269.4, 170.5 270.1 M 167.8 263.7 Q 166.4 263.7, 165.6 264.4 Q 164.8 265.1, 164.8 266.3 Q 164.8 267.1, 165.4 267.7 Q 165.9 268.3, 166.6 268.7 Q 167.4 269.0, 168.9 269.5 Q 169.9 268.8, 170.3 268.0 Q 170.8 267.2, 170.8 266.3 Q 170.8 265.1, 170.0 264.4 Q 169.2 263.7, 167.8 263.7 M 167.9 277.5 Q 169.5 277.5, 170.5 276.7 Q 171.4 275.8, 171.4 274.4 Q 171.4 273.5, 170.9 272.9 Q 170.4 272.4, 169.6 272.0 Q 168.9 271.7, 167.5 271.2 L 166.5 270.9 Q 165.3 271.6, 164.7 272.5 Q 164.2 273.3, 164.2 274.4 Q 164.2 275.8, 165.2 276.7 Q 166.2 277.5, 167.9 277.5 " fill="#000000"/>
<path class="legend" d="M 182.2 261.9 Q 185.2 261.9, 186.7 264.0 Q 188.2 266.0, 188.2 270.1 Q 188.2 274.6, 186.3 277.0 Q 184.5 279.3, 180.8 279.3 Q 179.8 279.3, 178.9 279.0 Q 178.0 278.8, 177.1 278.3 L 178.1 276.7 Q 179.3 277.4, 180.8 277.4 Q 183.2 277.4, 184.4 275.8 Q 185.7 274.3, 185.8 271.1 Q 185.0 271.9, 183.8 272.3 Q 182.8 272.7, 181.6 272.7 Q 180.1 272.7, 178.9 272.1 Q 177.8 271.4, 177.1 270.2 Q 176.5 269.1, 176.5 267.6 Q 176.5 265.9, 177.2 264.6 Q 177.9 263.4, 179.2 262.6 Q 180.5 261.9, 182.2 261.9 M 178.9 267.6 Q 178.9 269.1, 179.7 269.9 Q 180.5 270.8, 182.0 270.8 Q 183.1 270.8, 184.1 270.4 Q 185.1 270.0, 185.8 269.2 Q 185.7 266.4, 184.8 265.2 Q 183.9 263.9, 182.1 263.9 Q 181.2 263.9, 180.5 264.4 Q 179.7 264.8, 179.3 265.7 Q 178.9 266.5, 178.9 267.6 " fill="#000000"/>
<path class="legend" d="M 197.7 268.5 Q 199.1 268.5, 200.3 269.1 Q 201.5 269.8, 202.1 271.0 Q 202.8 272.1, 202.8 273.6 Q 202.8 275.3, 202.0 276.6 Q 201.3 277.8, 200.0 278.6 Q 198.7 279.3, 197.1 279.3 Q 194.1 279.3, 192.5 277.2 Q 191.0 275.2, 191.0 271.1 Q 191.0 266.6, 192.9 264.3 Q 194.8 261.9, 198.4 261.9 Q 199.5 261.9, 200.3 262.2 Q 201.3 262.4, 202.1 262.9 L 201.2 264.5 Q 199.9 263.8, 198.4 263.8 Q 196.0 263.8, 194.8 265.4 Q 193.6 266.9, 193.4 270.1 Q 194.3 269.3, 195.4 268.9 Q 196.5 268.5, 197.7 268.5 M 197.1 277.3 Q 198.0 277.3, 198.8 276.8 Q 199.5 276.4, 200.0 275.5 Q 200.4 274.7, 200.4 273.6 Q 200.4 272.1, 199.5 271.3 Q 198.7 270.4, 197.2 270.4 Q 196.2 270.4, 195.2 270.8 Q 194.1 271.2, 193.4 272.0 Q 193.5 274.8, 194.4 276.0 Q 195.3 277.3, 197.1 277.3 " fill="#000000"/>
<path class="legend" d="M 211.5 279.3 Q 208.3 279.3, 206.8 277.0 Q 205.2 274.7, 205.2 270.6 Q 205.2 266.5, 206.8 264.2 Q 208.3 261.9, 211.5 261.9 Q 214.6 261.9, 216.1 264.2 Q 217.7 266.5, 217.7 270.6 Q 217.7 274.7, 216.1 277.0 Q 214.6 279.3, 211.5 279.3 M 211.5 277.4 Q 213.3 277.4, 214.3 275.7 Q 215.3 273.9, 215.3 270.6 Q 215.3 267.2, 214.3 265.5 Q 213.3 263.8, 211.5 263.8 Q 209.6 263.8, 208.6 265.5 Q 207.6 267.2, 207.6 270.6 Q 207.6 273.9, 208.6 275.7 Q 209.6 277.4, 211.5 277.4 " fill="#000000"/>
<path class="legend" d="M 221.3 277.2 L 225.0 277.2 L 225.0 264.5 L 220.9 265.8 L 220.4 264.3 L 225.6 262.0 L 227.3 262.3 L 227.3 277.2 L 230.6 277.2 L 230.6 279.1 L 221.3 279.1 L 221.3 277.2 " fill="#000000"/>
<path class="legend" d="M 240.9 270.1 Q 242.6 270.6, 243.4 271.7 Q 244.2 272.8, 244.2 274.4 Q 244.2 275.9, 243.5 277.0 Q 242.7 278.1, 241.4 278.7 Q 240.1 279.3, 238.4 279.3 Q 236.5 279.3, 235.2 278.7 Q 233.8 278.1, 232.7 276.8 L 234.1 275.4 Q 235.2 276.5, 236.1 277.0 Q 236.9 277.4, 238.4 277.4 Q 239.9 277.4, 240.8 276.6 Q 241.8 275.8, 241.8 274.4 Q 241.8 272.7, 240.8 271.9 Q 239.8 271.1, 237.7 271.1 L 236.5 271.1 L 236.5 269.4 L 237.6 269.4 Q 239.4 269.4, 240.4 268.6 Q 241.4 267.8, 241.4 266.3 Q 241.4 265.2, 240.6 264.5 Q 239.8 263.8, 238.4 263.8 Q 237.0 263.8, 236.1 264.3 Q 235.2 264.8, 234.5 266.1 L 232.9 265.2 Q 233.5 263.8, 234.9 262.9 Q 236.4 261.9, 238.4 261.9 Q 240.9 261.9, 242.3 263.1 Q 243.8 264.3, 243.8 266.3 Q 243.8 267.6, 243.1 268.6 Q 242.3 269.6, 240.9 270.1 " fill="#000000"/>
<path class="bond-0 atom-0 atom-1" d="M 348.1,152.3 L 348.1,113.0" style="fill:none;fill-rule:evenodd;stroke:#000000;stroke-width:4.0px;stroke-linecap:butt;stroke-linejoin:miter;stroke-opacity:1"/>
<path class="bond-0 atom-0 atom-1" d="M 354.0,148.9 L 354.0,116.4" style="fill:none;fill-rule:evenodd;stroke:#000000;stroke-width:4.0px;stroke-linecap:butt;stroke-linejoin:miter;stroke-opacity:1"/>
<path class="bond-1 atom-1 atom-2" d="M 348.1,113.0 L 382.1,93.4" style="fill:none;fill-rule:evenodd;stroke:#000000;stroke-width:4.0px;stroke-linecap:butt;stroke-linejoin:miter;stroke-opacity:1"/>
<path class="bond-2 atom-2 atom-3" d="M 382.1,93.4 L 416.0,113.0" style="fill:none;fill-rule:evenodd;stroke:#000000;stroke-width:4.0px;stroke-linecap:butt;stroke-linejoin:miter;stroke-opacity:1"/>
<path class="bond-2 atom-2 atom-3" d="M 382.1,100.2 L 410.2,116.4" style="fill:none;fill-rule:evenodd;stroke:#000000;stroke-width:4.0px;stroke-linecap:butt;stroke-linejoin:miter;stroke-opacity:1"/>
<path class="bond-3 atom-3 atom-4" d="M 416.0,113.0 L 416.0,152.3" style="fill:none;fill-rule:evenodd;stroke:#000000;stroke-width:4.0px;stroke-linecap:butt;stroke-linejoin:miter;stroke-opacity:1"/>
<path class="bond-4 atom-4 atom-5" d="M 416.0,152.3 L 382.1,171.9" style="fill:none;fill-rule:evenodd;stroke:#000000;stroke-width:4.0px;stroke-linecap:butt;stroke-linejoin:miter;stroke-opacity:1"/>
<path class="bond-4 atom-4 atom-5" d="M 410.2,148.9 L 382.1,165.1" style="fill:none;fill-rule:evenodd;stroke:#000000;stroke-width:4.0px;stroke-linecap:butt;stroke-linejoin:miter;stroke-opacity:1"/>
<path class="bond-5 atom-4 atom-6" d="M 416.0,152.3 L 450.0,171.9" style="fill:none;fill-rule:evenodd;stroke:#000000;stroke-width:4.0px;stroke-linecap:butt;stroke-linejoin:miter;stroke-opacity:1"/>
<path class="bond-6 atom-6 atom-7" d="M 447.1,170.2 L 447.1,186.0" style="fill:none;fill-rule:evenodd;stroke:#000000;stroke-width:4.0px;stroke-linecap:butt;stroke-linejoin:miter;stroke-opacity:1"/>
<path class="bond-6 atom-6 atom-7" d="M 447.1,186.0 L 447.1,201.9" style="fill:none;fill-rule:evenodd;stroke:#FF0000;stroke-width:4.0px;stroke-linecap:butt;stroke-linejoin:miter;stroke-opacity:1"/>
<path class="bond-6 atom-6 atom-7" d="M 452.9,170.2 L 452.9,186.0" style="fill:none;fill-rule:evenodd;stroke:#000000;stroke-width:4.0px;stroke-linecap:butt;stroke-linejoin:miter;stroke-opacity:1"/>
<path class="bond-6 atom-6 atom-7" d="M 452.9,186.0 L 452.9,201.9" style="fill:none;fill-rule:evenodd;stroke:#FF0000;stroke-width:4.0px;stroke-linecap:butt;stroke-linejoin:miter;stroke-opacity:1"/>
<path class="bond-7 atom-6 atom-8" d="M 450.0,171.9 L 484.0,152.3" style="fill:none;fill-rule:evenodd;stroke:#000000;stroke-width:4.0px;stroke-linecap:butt;stroke-linejoin:miter;stroke-opacity:1"/>
<path class="bond-8 atom-8 atom-9" d="M 484.0,152.3 L 517.9,171.9" style="fill:none;fill-rule:evenodd;stroke:#000000;stroke-width:4.0px;stroke-linecap:butt;stroke-linejoin:miter;stroke-opacity:1"/>
<path class="bond-8 atom-8 atom-9" d="M 489.8,148.9 L 517.9,165.1" style="fill:none;fill-rule:evenodd;stroke:#000000;stroke-width:4.0px;stroke-linecap:butt;stroke-linejoin:miter;stroke-opacity:1"/>
<path class="bond-9 atom-9 atom-10" d="M 517.9,171.9 L 551.9,152.3" style="fill:none;fill-rule:evenodd;stroke:#000000;stroke-width:4.0px;stroke-linecap:butt;stroke-linejoin:miter;stroke-opacity:1"/>
<path class="bond-10 atom-10 atom-11" d="M 551.9,152.3 L 551.9,113.0" style="fill:none;fill-rule:evenodd;stroke:#000000;stroke-width:4.0px;stroke-linecap:butt;stroke-linejoin:miter;stroke-opacity:1"/>
<path class="bond-10 atom-10 atom-11" d="M 546.0,148.9 L 546.0,116.4" style="fill:none;fill-rule:evenodd;stroke:#000000;stroke-width:4.0px;stroke-linecap:butt;stroke-linejoin:miter;stroke-opacity:1"/>
<path class="bond-11 atom-11 atom-12" d="M 551.9,113.0 L 517.9,93.4" style="fill:none;fill-rule:evenodd;stroke:#000000;stroke-width:4.0px;stroke-linecap:butt;stroke-linejoin:miter;stroke-opacity:1"/>
<path class="bond-12 atom-12 atom-13" d="M 517.9,93.4 L 484.0,113.0" style="fill:none;fill-rule:evenodd;stroke:#000000;stroke-width:4.0px;stroke-linecap:butt;stroke-linejoin:miter;stroke-opacity:1"/>
<path class="bond-12 atom-12 atom-13" d="M 517.9,100.2 L 489.8,116.4" style="fill:none;fill-rule:evenodd;stroke:#000000;stroke-width:4.0px;stroke-linecap:butt;stroke-linejoin:miter;stroke-opacity:1"/>
<path class="bond-13 atom-13 atom-14" d="M 484.0,113.0 L 450.0,93.4" style="fill:none;fill-rule:evenodd;stroke:#000000;stroke-width:4.0px;stroke-linecap:butt;stroke-linejoin:miter;stroke-opacity:1"/>
<path class="bond-14 atom-14 atom-15" d="M 452.9,95.1 L 452.9,79.4" style="fill:none;fill-rule:evenodd;stroke:#000000;stroke-width:4.0px;stroke-linecap:butt;stroke-linejoin:miter;stroke-opacity:1"/>
<path class="bond-14 atom-14 atom-15" d="M 452.9,79.4 L 452.9,63.6" style="fill:none;fill-rule:evenodd;stroke:#FF0000;stroke-width:4.0px;stroke-linecap:butt;stroke-linejoin:miter;stroke-opacity:1"/>
<path class="bond-14 atom-14 atom-15" d="M 447.1,95.1 L 447.1,79.4" style="fill:none;fill-rule:evenodd;stroke:#000000;stroke-width:4.0px;stroke-linecap:butt;stroke-linejoin:miter;stroke-opacity:1"/>
<path class="bond-14 atom-14 atom-15" d="M 447.1,79.4 L 447.1,63.6" style="fill:none;fill-rule:evenodd;stroke:#FF0000;stroke-width:4.0px;stroke-linecap:butt;stroke-linejoin:miter;stroke-opacity:1"/>
<path class="bond-15 atom-12 atom-16" d="M 517.9,93.4 L 517.9,78.4" style="fill:none;fill-rule:evenodd;stroke:#000000;stroke-width:4.0px;stroke-linecap:butt;stroke-linejoin:miter;stroke-opacity:1"/>
<path class="bond-15 atom-12 atom-16" d="M 517.9,78.4 L 517.9,63.3" style="fill:none;fill-rule:evenodd;stroke:#0000FF;stroke-width:4.0px;stroke-linecap:butt;stroke-linejoin:miter;stroke-opacity:1"/>
<path class="bond-16 atom-9 atom-17" d="M 517.9,171.9 L 517.9,186.9" style="fill:none;fill-rule:evenodd;stroke:#000000;stroke-width:4.0px;stroke-linecap:butt;stroke-linejoin:miter;stroke-opacity:1"/>
<path class="bond-16 atom-9 atom-17" d="M 517.9,186.9 L 517.9,202.0" style="fill:none;fill-rule:evenodd;stroke:#0000FF;stroke-width:4.0px;stroke-linecap:butt;stroke-linejoin:miter;stroke-opacity:1"/>
<path class="bond-17 atom-5 atom-0" d="M 382.1,171.9 L 348.1,152.3" style="fill:none;fill-rule:evenodd;stroke:#000000;stroke-width:4.0px;stroke-linecap:butt;stroke-linejoin:miter;stroke-opacity:1"/>
<path class="bond-18 atom-14 atom-3" d="M 450.0,93.4 L 416.0,113.0" style="fill:none;fill-rule:evenodd;stroke:#000000;stroke-width:4.0px;stroke-linecap:butt;stroke-linejoin:miter;stroke-opacity:1"/>
<path class="bond-19 atom-13 atom-8" d="M 484.0,113.0 L 484.0,152.3" style="fill:none;fill-rule:evenodd;stroke:#000000;stroke-width:4.0px;stroke-linecap:butt;stroke-linejoin:miter;stroke-opacity:1"/>
<path d="M 348.1,150.3 L 348.1,152.3 L 349.8,153.2" style="fill:none;stroke:#000000;stroke-width:4.0px;stroke-linecap:butt;stroke-linejoin:miter;stroke-opacity:1;"/>
<path d="M 348.1,115.0 L 348.1,113.0 L 349.8,112.1" style="fill:none;stroke:#000000;stroke-width:4.0px;stroke-linecap:butt;stroke-linejoin:miter;stroke-opacity:1;"/>
<path d="M 380.4,94.4 L 382.1,93.4 L 383.8,94.4" style="fill:none;stroke:#000000;stroke-width:4.0px;stroke-linecap:butt;stroke-linejoin:miter;stroke-opacity:1;"/>
<path d="M 383.8,170.9 L 382.1,171.9 L 380.4,170.9" style="fill:none;stroke:#000000;stroke-width:4.0px;stroke-linecap:butt;stroke-linejoin:miter;stroke-opacity:1;"/>
<path d="M 448.3,170.9 L 450.0,171.9 L 451.7,170.9" style="fill:none;stroke:#000000;stroke-width:4.0px;stroke-linecap:butt;stroke-linejoin:miter;stroke-opacity:1;"/>
<path d="M 550.2,153.2 L 551.9,152.3 L 551.9,150.3" style="fill:none;stroke:#000000;stroke-width:4.0px;stroke-linecap:butt;stroke-linejoin:miter;stroke-opacity:1;"/>
<path d="M 551.9,115.0 L 551.9,113.0 L 550.2,112.1" style="fill:none;stroke:#000000;stroke-width:4.0px;stroke-linecap:butt;stroke-linejoin:miter;stroke-opacity:1;"/>
<path d="M 451.7,94.4 L 450.0,93.4 L 448.3,94.4" style="fill:none;stroke:#000000;stroke-width:4.0px;stroke-linecap:butt;stroke-linejoin:miter;stroke-opacity:1;"/>
<path class="atom-7" d="M 442.9 211.1 Q 442.9 207.4, 444.7 205.3 Q 446.5 203.2, 450.0 203.2 Q 453.5 203.2, 455.3 205.3 Q 457.1 207.4, 457.1 211.1 Q 457.1 214.9, 455.3 217.0 Q 453.4 219.2, 450.0 219.2 Q 446.6 219.2, 444.7 217.0 Q 442.9 214.9, 442.9 211.1 M 450.0 217.4 Q 452.4 217.4, 453.7 215.8 Q 454.9 214.2, 454.9 211.1 Q 454.9 208.0, 453.7 206.5 Q 452.4 204.9, 450.0 204.9 Q 447.6 204.9, 446.3 206.5 Q 445.1 208.0, 445.1 211.1 Q 445.1 214.3, 446.3 215.8 Q 447.6 217.4, 450.0 217.4 " fill="#FF0000"/>
<path class="atom-15" d="M 442.8 54.3 Q 442.8 50.5, 444.7 48.5 Q 446.5 46.4, 450.0 46.4 Q 453.5 46.4, 455.3 48.5 Q 457.1 50.5, 457.1 54.3 Q 457.1 58.1, 455.3 60.2 Q 453.4 62.4, 450.0 62.4 Q 446.6 62.4, 444.7 60.2 Q 442.8 58.1, 442.8 54.3 M 450.0 60.6 Q 452.4 60.6, 453.7 59.0 Q 454.9 57.4, 454.9 54.3 Q 454.9 51.2, 453.7 49.7 Q 452.4 48.1, 450.0 48.1 Q 447.6 48.1, 446.3 49.7 Q 445.0 51.2, 445.0 54.3 Q 445.0 57.4, 446.3 59.0 Q 447.6 60.6, 450.0 60.6 " fill="#FF0000"/>
<path class="atom-16" d="M 514.5 46.4 L 519.6 54.7 Q 520.1 55.5, 520.9 57.0 Q 521.7 58.5, 521.7 58.5 L 521.7 46.4 L 523.8 46.4 L 523.8 62.0 L 521.7 62.0 L 516.2 53.0 Q 515.6 51.9, 514.9 50.7 Q 514.2 49.5, 514.0 49.2 L 514.0 62.0 L 512.0 62.0 L 512.0 46.4 L 514.5 46.4 " fill="#0000FF"/>
<path class="atom-16" d="M 526.8 46.4 L 528.9 46.4 L 528.9 53.1 L 536.9 53.1 L 536.9 46.4 L 539.0 46.4 L 539.0 62.0 L 536.9 62.0 L 536.9 54.8 L 528.9 54.8 L 528.9 62.0 L 526.8 62.0 L 526.8 46.4 " fill="#0000FF"/>
<path class="atom-16" d="M 542.0 61.5 Q 542.4 60.5, 543.3 60.0 Q 544.2 59.4, 545.5 59.4 Q 547.0 59.4, 547.9 60.3 Q 548.8 61.1, 548.8 62.6 Q 548.8 64.1, 547.6 65.5 Q 546.5 67.0, 544.2 68.7 L 548.9 68.7 L 548.9 69.8 L 542.0 69.8 L 542.0 68.8 Q 543.9 67.5, 545.0 66.5 Q 546.2 65.4, 546.7 64.5 Q 547.3 63.6, 547.3 62.7 Q 547.3 61.7, 546.8 61.1 Q 546.3 60.6, 545.5 60.6 Q 544.6 60.6, 544.1 60.9 Q 543.5 61.2, 543.1 62.0 L 542.0 61.5 " fill="#0000FF"/>
<path class="atom-17" d="M 514.5 203.3 L 519.6 211.5 Q 520.1 212.3, 520.9 213.8 Q 521.7 215.3, 521.7 215.4 L 521.7 203.3 L 523.8 203.3 L 523.8 218.9 L 521.7 218.9 L 516.2 209.8 Q 515.6 208.8, 514.9 207.6 Q 514.2 206.4, 514.0 206.0 L 514.0 218.9 L 512.0 218.9 L 512.0 203.3 L 514.5 203.3 " fill="#0000FF"/>
<path class="atom-17" d="M 526.8 203.3 L 528.9 203.3 L 528.9 209.9 L 536.9 209.9 L 536.9 203.3 L 539.0 203.3 L 539.0 218.9 L 536.9 218.9 L 536.9 211.7 L 528.9 211.7 L 528.9 218.9 L 526.8 218.9 L 526.8 203.3 " fill="#0000FF"/>
<path class="atom-17" d="M 542.0 218.3 Q 542.4 217.3, 543.3 216.8 Q 544.2 216.2, 545.5 216.2 Q 547.0 216.2, 547.9 217.1 Q 548.8 217.9, 548.8 219.4 Q 548.8 220.9, 547.6 222.4 Q 546.5 223.8, 544.2 225.5 L 548.9 225.5 L 548.9 226.6 L 542.0 226.6 L 542.0 225.7 Q 543.9 224.3, 545.0 223.3 Q 546.2 222.3, 546.7 221.4 Q 547.3 220.4, 547.3 219.5 Q 547.3 218.5, 546.8 218.0 Q 546.3 217.4, 545.5 217.4 Q 544.6 217.4, 544.1 217.7 Q 543.5 218.1, 543.1 218.8 L 542.0 218.3 " fill="#0000FF"/>
<path class="legend" d="M 374.3 266.5 Q 376.4 266.5, 377.4 267.7 Q 378.5 268.8, 378.5 270.9 L 378.5 279.1 L 376.2 279.1 L 376.2 271.1 Q 376.2 269.6, 375.7 269.0 Q 375.1 268.3, 373.9 268.3 Q 372.8 268.3, 371.8 268.8 Q 370.9 269.4, 370.4 270.3 Q 370.4 270.5, 370.4 270.9 L 370.4 279.1 L 368.1 279.1 L 368.1 271.1 Q 368.1 269.6, 367.6 269.0 Q 367.0 268.3, 365.8 268.3 Q 364.7 268.3, 363.8 268.8 Q 362.9 269.4, 362.3 270.2 L 362.3 279.1 L 360.0 279.1 L 360.0 266.8 L 361.9 266.8 L 362.1 268.4 Q 363.7 266.5, 366.2 266.5 Q 369.1 266.5, 370.0 268.7 Q 371.6 266.5, 374.3 266.5 " fill="#000000"/>
<path class="legend" d="M 381.5 272.9 Q 381.5 269.9, 383.0 268.2 Q 384.6 266.5, 387.4 266.5 Q 390.2 266.5, 391.7 268.2 Q 393.2 269.9, 393.2 272.9 Q 393.2 275.9, 391.7 277.6 Q 390.2 279.3, 387.4 279.3 Q 384.6 279.3, 383.0 277.6 Q 381.5 275.9, 381.5 272.9 M 383.8 272.9 Q 383.8 275.2, 384.7 276.3 Q 385.7 277.5, 387.4 277.5 Q 389.1 277.5, 390.0 276.3 Q 390.9 275.2, 390.9 272.9 Q 390.9 270.6, 390.0 269.5 Q 389.1 268.3, 387.4 268.3 Q 385.7 268.3, 384.7 269.5 Q 383.8 270.6, 383.8 272.9 " fill="#000000"/>
<path class="legend" d="M 401.3 266.5 Q 403.8 266.5, 405.2 268.2 Q 406.7 269.7, 406.7 272.7 Q 406.7 275.8, 405.0 277.6 Q 403.3 279.3, 400.3 279.3 Q 398.4 279.3, 396.6 278.6 L 395.5 278.3 L 395.5 260.9 L 397.7 260.9 L 397.7 268.1 Q 399.0 266.5, 401.3 266.5 M 400.3 277.5 Q 402.2 277.5, 403.3 276.3 Q 404.4 275.0, 404.4 272.7 Q 404.4 270.6, 403.5 269.5 Q 402.7 268.3, 401.1 268.3 Q 399.9 268.3, 399.0 269.0 Q 398.1 269.7, 397.7 270.8 L 397.7 277.2 Q 399.0 277.5, 400.3 277.5 " fill="#000000"/>
<path class="legend" d="M 408.9 260.9 L 411.2 260.9 L 411.2 279.1 L 408.9 279.1 L 408.9 260.9 " fill="#000000"/>
<path class="legend" d="M 414.4 272.9 Q 414.4 269.9, 415.9 268.2 Q 417.4 266.5, 420.2 266.5 Q 422.9 266.5, 424.1 268.2 Q 425.3 269.8, 425.3 272.8 L 425.3 273.2 L 416.7 273.2 Q 416.7 275.3, 417.7 276.4 Q 418.6 277.5, 420.4 277.5 Q 421.3 277.5, 422.2 277.3 Q 423.1 277.1, 424.2 276.6 L 424.8 278.1 Q 423.6 278.7, 422.5 279.0 Q 421.4 279.3, 420.2 279.3 Q 417.5 279.3, 415.9 277.6 Q 414.4 275.9, 414.4 272.9 M 420.2 268.3 Q 418.8 268.3, 417.9 269.1 Q 417.1 270.0, 416.8 271.5 L 422.9 271.5 Q 422.8 269.9, 422.1 269.1 Q 421.4 268.3, 420.2 268.3 " fill="#000000"/>
<path class="legend" d="M 436.9 266.8 L 439.1 266.8 L 432.7 285.0 L 430.7 285.0 L 432.7 279.1 L 431.8 279.1 L 427.4 266.8 L 429.7 266.8 L 433.3 277.2 L 436.9 266.8 " fill="#000000"/>
<path class="legend" d="M 452.7 280.3 L 452.7 282.3 L 440.5 282.3 L 440.5 280.3 L 452.7 280.3 " fill="#000000"/>
<path class="legend" d="M 453.9 265.3 Q 454.6 263.7, 456.1 262.8 Q 457.5 261.9, 459.6 261.9 Q 462.2 261.9, 463.6 263.3 Q 465.1 264.7, 465.1 267.2 Q 465.1 269.7, 463.2 272.0 Q 461.3 274.4, 457.5 277.2 L 465.3 277.2 L 465.3 279.1 L 453.9 279.1 L 453.9 277.5 Q 457.1 275.2, 458.9 273.6 Q 460.8 271.9, 461.7 270.4 Q 462.7 268.8, 462.7 267.3 Q 462.7 265.7, 461.8 264.7 Q 461.0 263.8, 459.6 263.8 Q 458.2 263.8, 457.3 264.4 Q 456.4 264.9, 455.8 266.2 L 453.9 265.3 " fill="#000000"/>
<path class="legend" d="M 479.0 273.3 L 481.0 273.3 L 481.0 275.2 L 479.0 275.2 L 479.0 279.1 L 476.7 279.1 L 476.7 275.2 L 467.9 275.2 L 467.9 273.7 L 475.4 262.1 L 479.0 262.1 L 479.0 273.3 M 470.7 273.3 L 476.7 273.3 L 476.7 263.6 L 470.7 273.3 " fill="#000000"/>
<path class="legend" d="M 483.4 265.3 Q 484.0 263.7, 485.5 262.8 Q 487.0 261.9, 489.1 261.9 Q 491.7 261.9, 493.1 263.3 Q 494.5 264.7, 494.5 267.2 Q 494.5 269.7, 492.7 272.0 Q 490.8 274.4, 487.0 277.2 L 494.8 277.2 L 494.8 279.1 L 483.4 279.1 L 483.4 277.5 Q 486.5 275.2, 488.4 273.6 Q 490.3 271.9, 491.2 270.4 Q 492.1 268.8, 492.1 267.3 Q 492.1 265.7, 491.3 264.7 Q 490.5 263.8, 489.1 263.8 Q 487.7 263.8, 486.8 264.4 Q 485.9 264.9, 485.2 266.2 L 483.4 265.3 " fill="#000000"/>
<path class="legend" d="M 508.5 273.3 L 510.5 273.3 L 510.5 275.2 L 508.5 275.2 L 508.5 279.1 L 506.2 279.1 L 506.2 275.2 L 497.4 275.2 L 497.4 273.7 L 504.9 262.1 L 508.5 262.1 L 508.5 273.3 M 500.2 273.3 L 506.2 273.3 L 506.2 263.6 L 500.2 273.3 " fill="#000000"/>
<path class="legend" d="M 521.5 270.1 Q 523.1 270.8, 524.0 271.8 Q 524.9 272.8, 524.9 274.4 Q 524.9 275.9, 524.1 277.0 Q 523.4 278.1, 522.0 278.7 Q 520.7 279.3, 519.0 279.3 Q 516.1 279.3, 514.5 278.0 Q 512.9 276.7, 512.9 274.4 Q 512.9 273.0, 513.6 272.0 Q 514.3 271.0, 515.8 270.2 Q 514.7 269.5, 514.1 268.6 Q 513.5 267.7, 513.5 266.3 Q 513.5 264.3, 514.9 263.1 Q 516.4 261.9, 518.9 261.9 Q 521.3 261.9, 522.8 263.1 Q 524.2 264.3, 524.2 266.3 Q 524.2 267.5, 523.5 268.4 Q 522.9 269.4, 521.5 270.1 M 518.9 263.7 Q 517.4 263.7, 516.6 264.4 Q 515.9 265.1, 515.9 266.3 Q 515.9 267.1, 516.4 267.7 Q 516.9 268.3, 517.7 268.7 Q 518.4 269.0, 519.9 269.5 Q 520.9 268.8, 521.4 268.0 Q 521.8 267.2, 521.8 266.3 Q 521.8 265.1, 521.0 264.4 Q 520.3 263.7, 518.9 263.7 M 519.0 277.5 Q 520.5 277.5, 521.5 276.7 Q 522.5 275.8, 522.5 274.4 Q 522.5 273.5, 522.0 272.9 Q 521.4 272.4, 520.7 272.0 Q 519.9 271.7, 518.6 271.2 L 517.5 270.9 Q 516.3 271.6, 515.8 272.5 Q 515.3 273.3, 515.3 274.4 Q 515.3 275.8, 516.3 276.7 Q 517.3 277.5, 519.0 277.5 " fill="#000000"/>
<path class="legend" d="M 533.8 279.3 Q 530.6 279.3, 529.1 277.0 Q 527.5 274.7, 527.5 270.6 Q 527.5 266.5, 529.1 264.2 Q 530.6 261.9, 533.8 261.9 Q 536.9 261.9, 538.4 264.2 Q 540.0 266.5, 540.0 270.6 Q 540.0 274.7, 538.4 277.0 Q 536.9 279.3, 533.8 279.3 M 533.8 277.4 Q 535.6 277.4, 536.6 275.7 Q 537.6 273.9, 537.6 270.6 Q 537.6 267.2, 536.6 265.5 Q 535.6 263.8, 533.8 263.8 Q 531.9 263.8, 530.9 265.5 Q 529.9 267.2, 529.9 270.6 Q 529.9 273.9, 530.9 275.7 Q 531.9 277.4, 533.8 277.4 " fill="#000000"/>
<path class="bond-0 atom-0 atom-1" d="M 703.2,196.4 L 676.9,167.4" style="fill:none;fill-rule:evenodd;stroke:#000000;stroke-width:4.0px;stroke-linecap:butt;stroke-linejoin:miter;stroke-opacity:1"/>
<path class="bond-0 atom-0 atom-1" d="M 705.3,190.0 L 683.5,166.0" style="fill:none;fill-rule:evenodd;stroke:#000000;stroke-width:4.0px;stroke-linecap:butt;stroke-linejoin:miter;stroke-opacity:1"/>
<path class="bond-1 atom-1 atom-2" d="M 676.9,167.4 L 688.8,130.1" style="fill:none;fill-rule:evenodd;stroke:#000000;stroke-width:4.0px;stroke-linecap:butt;stroke-linejoin:miter;stroke-opacity:1"/>
<path class="bond-2 atom-2 atom-3" d="M 688.8,130.1 L 727.1,121.8" style="fill:none;fill-rule:evenodd;stroke:#000000;stroke-width:4.0px;stroke-linecap:butt;stroke-linejoin:miter;stroke-opacity:1"/>
<path class="bond-2 atom-2 atom-3" d="M 693.4,135.1 L 725.1,128.2" style="fill:none;fill-rule:evenodd;stroke:#000000;stroke-width:4.0px;stroke-linecap:butt;stroke-linejoin:miter;stroke-opacity:1"/>
<path class="bond-3 atom-3 atom-4" d="M 727.1,121.8 L 753.5,150.8" style="fill:none;fill-rule:evenodd;stroke:#000000;stroke-width:4.0px;stroke-linecap:butt;stroke-linejoin:miter;stroke-opacity:1"/>
<path class="bond-4 atom-4 atom-5" d="M 753.5,150.8 L 741.5,188.1" style="fill:none;fill-rule:evenodd;stroke:#000000;stroke-width:4.0px;stroke-linecap:butt;stroke-linejoin:miter;stroke-opacity:1"/>
<path class="bond-4 atom-4 atom-5" d="M 746.9,152.2 L 737.0,183.1" style="fill:none;fill-rule:evenodd;stroke:#000000;stroke-width:4.0px;stroke-linecap:butt;stroke-linejoin:miter;stroke-opacity:1"/>
<path class="bond-5 atom-4 atom-6" d="M 753.5,150.8 L 791.8,142.5" style="fill:none;fill-rule:evenodd;stroke:#000000;stroke-width:4.0px;stroke-linecap:butt;stroke-linejoin:miter;stroke-opacity:1"/>
<path class="bond-6 atom-6 atom-7" d="M 791.8,142.5 L 800.8,152.4" style="fill:none;fill-rule:evenodd;stroke:#000000;stroke-width:4.0px;stroke-linecap:butt;stroke-linejoin:miter;stroke-opacity:1"/>
<path class="bond-6 atom-6 atom-7" d="M 800.8,152.4 L 809.8,162.3" style="fill:none;fill-rule:evenodd;stroke:#FF0000;stroke-width:4.0px;stroke-linecap:butt;stroke-linejoin:miter;stroke-opacity:1"/>
<path class="bond-6 atom-6 atom-7" d="M 789.7,148.9 L 796.5,156.3" style="fill:none;fill-rule:evenodd;stroke:#000000;stroke-width:4.0px;stroke-linecap:butt;stroke-linejoin:miter;stroke-opacity:1"/>
<path class="bond-6 atom-6 atom-7" d="M 796.5,156.3 L 805.5,166.3" style="fill:none;fill-rule:evenodd;stroke:#FF0000;stroke-width:4.0px;stroke-linecap:butt;stroke-linejoin:miter;stroke-opacity:1"/>
<path class="bond-7 atom-3 atom-8" d="M 727.1,121.8 L 731.6,107.8" style="fill:none;fill-rule:evenodd;stroke:#000000;stroke-width:4.0px;stroke-linecap:butt;stroke-linejoin:miter;stroke-opacity:1"/>
<path class="bond-7 atom-3 atom-8" d="M 731.6,107.8 L 736.1,93.8" style="fill:none;fill-rule:evenodd;stroke:#FF0000;stroke-width:4.0px;stroke-linecap:butt;stroke-linejoin:miter;stroke-opacity:1"/>
<path class="bond-8 atom-5 atom-0" d="M 741.5,188.1 L 703.2,196.4" style="fill:none;fill-rule:evenodd;stroke:#000000;stroke-width:4.0px;stroke-linecap:butt;stroke-linejoin:miter;stroke-opacity:1"/>
<path d="M 701.9,195.0 L 703.2,196.4 L 705.1,196.0" style="fill:none;stroke:#000000;stroke-width:4.0px;stroke-linecap:butt;stroke-linejoin:miter;stroke-opacity:1;"/>
<path d="M 678.2,168.9 L 676.9,167.4 L 677.5,165.6" style="fill:none;stroke:#000000;stroke-width:4.0px;stroke-linecap:butt;stroke-linejoin:miter;stroke-opacity:1;"/>
<path d="M 688.2,132.0 L 688.8,130.1 L 690.7,129.7" style="fill:none;stroke:#000000;stroke-width:4.0px;stroke-linecap:butt;stroke-linejoin:miter;stroke-opacity:1;"/>
<path d="M 742.1,186.3 L 741.5,188.1 L 739.6,188.5" style="fill:none;stroke:#000000;stroke-width:4.0px;stroke-linecap:butt;stroke-linejoin:miter;stroke-opacity:1;"/>
<path d="M 789.9,142.9 L 791.8,142.5 L 792.3,143.0" style="fill:none;stroke:#000000;stroke-width:4.0px;stroke-linecap:butt;stroke-linejoin:miter;stroke-opacity:1;"/>
<path class="atom-7" d="M 808.8 173.5 Q 808.8 169.8, 810.7 167.7 Q 812.5 165.6, 816.0 165.6 Q 819.4 165.6, 821.3 167.7 Q 823.1 169.8, 823.1 173.5 Q 823.1 177.3, 821.3 179.5 Q 819.4 181.6, 816.0 181.6 Q 812.6 181.6, 810.7 179.5 Q 808.8 177.3, 808.8 173.5 M 816.0 179.8 Q 818.4 179.8, 819.6 178.2 Q 820.9 176.6, 820.9 173.5 Q 820.9 170.5, 819.6 168.9 Q 818.4 167.4, 816.0 167.4 Q 813.6 167.4, 812.3 168.9 Q 811.0 170.4, 811.0 173.5 Q 811.0 176.7, 812.3 178.2 Q 813.6 179.8, 816.0 179.8 " fill="#FF0000"/>
<path class="atom-8" d="M 731.9 84.5 Q 731.9 80.7, 733.8 78.6 Q 735.6 76.6, 739.1 76.6 Q 742.5 76.6, 744.4 78.6 Q 746.2 80.7, 746.2 84.5 Q 746.2 88.3, 744.4 90.4 Q 742.5 92.5, 739.1 92.5 Q 735.6 92.5, 733.8 90.4 Q 731.9 88.3, 731.9 84.5 M 739.1 90.8 Q 741.5 90.8, 742.7 89.2 Q 744.0 87.6, 744.0 84.5 Q 744.0 81.4, 742.7 79.9 Q 741.5 78.3, 739.1 78.3 Q 736.7 78.3, 735.4 79.9 Q 734.1 81.4, 734.1 84.5 Q 734.1 87.6, 735.4 89.2 Q 736.7 90.8, 739.1 90.8 " fill="#FF0000"/>
<path class="atom-8" d="M 748.7 76.7 L 750.8 76.7 L 750.8 83.3 L 758.7 83.3 L 758.7 76.7 L 760.8 76.7 L 760.8 92.3 L 758.7 92.3 L 758.7 85.1 L 750.8 85.1 L 750.8 92.3 L 748.7 92.3 L 748.7 76.7 " fill="#FF0000"/>
<path class="legend" d="M 668.6 266.5 Q 670.6 266.5, 671.7 267.7 Q 672.8 268.8, 672.8 270.9 L 672.8 279.1 L 670.5 279.1 L 670.5 271.1 Q 670.5 269.6, 669.9 269.0 Q 669.4 268.3, 668.1 268.3 Q 667.0 268.3, 666.1 268.8 Q 665.2 269.4, 664.6 270.3 Q 664.7 270.5, 664.7 270.9 L 664.7 279.1 L 662.4 279.1 L 662.4 271.1 Q 662.4 269.6, 661.8 269.0 Q 661.3 268.3, 660.0 268.3 Q 659.0 268.3, 658.0 268.8 Q 657.1 269.4, 656.6 270.2 L 656.6 279.1 L 654.3 279.1 L 654.3 266.8 L 656.1 266.8 L 656.4 268.4 Q 658.0 266.5, 660.5 266.5 Q 663.4 266.5, 664.3 268.7 Q 665.9 266.5, 668.6 266.5 " fill="#000000"/>
<path class="legend" d="M 675.7 272.9 Q 675.7 269.9, 677.3 268.2 Q 678.8 266.5, 681.6 266.5 Q 684.4 266.5, 685.9 268.2 Q 687.5 269.9, 687.5 272.9 Q 687.5 275.9, 685.9 277.6 Q 684.4 279.3, 681.6 279.3 Q 678.8 279.3, 677.3 277.6 Q 675.7 275.9, 675.7 272.9 M 678.0 272.9 Q 678.0 275.2, 679.0 276.3 Q 679.9 277.5, 681.6 277.5 Q 683.3 277.5, 684.2 276.3 Q 685.2 275.2, 685.2 272.9 Q 685.2 270.6, 684.2 269.5 Q 683.3 268.3, 681.6 268.3 Q 679.9 268.3, 679.0 269.5 Q 678.0 270.6, 678.0 272.9 " fill="#000000"/>
<path class="legend" d="M 695.5 266.5 Q 698.0 266.5, 699.5 268.2 Q 700.9 269.7, 700.9 272.7 Q 700.9 275.8, 699.2 277.6 Q 697.5 279.3, 694.6 279.3 Q 692.6 279.3, 690.8 278.6 L 689.7 278.3 L 689.7 260.9 L 692.0 260.9 L 692.0 268.1 Q 693.3 266.5, 695.5 266.5 M 694.5 277.5 Q 696.4 277.5, 697.5 276.3 Q 698.6 275.0, 698.6 272.7 Q 698.6 270.6, 697.7 269.5 Q 696.9 268.3, 695.3 268.3 Q 694.1 268.3, 693.2 269.0 Q 692.3 269.7, 692.0 270.8 L 692.0 277.2 Q 693.2 277.5, 694.5 277.5 " fill="#000000"/>
<path class="legend" d="M 703.1 260.9 L 705.4 260.9 L 705.4 279.1 L 703.1 279.1 L 703.1 260.9 " fill="#000000"/>
<path class="legend" d="M 708.6 272.9 Q 708.6 269.9, 710.1 268.2 Q 711.6 266.5, 714.3 266.5 Q 717.1 266.5, 718.3 268.2 Q 719.5 269.8, 719.5 272.8 L 719.5 273.2 L 710.9 273.2 Q 710.9 275.3, 711.9 276.4 Q 712.8 277.5, 714.5 277.5 Q 715.5 277.5, 716.4 277.3 Q 717.3 277.1, 718.4 276.6 L 719.0 278.1 Q 717.8 278.7, 716.7 279.0 Q 715.6 279.3, 714.4 279.3 Q 711.6 279.3, 710.1 277.6 Q 708.6 275.9, 708.6 272.9 M 714.3 268.3 Q 712.9 268.3, 712.1 269.1 Q 711.2 270.0, 711.0 271.5 L 717.1 271.5 Q 716.9 269.9, 716.3 269.1 Q 715.6 268.3, 714.3 268.3 " fill="#000000"/>
<path class="legend" d="M 731.0 266.8 L 733.2 266.8 L 726.9 285.0 L 724.8 285.0 L 726.8 279.1 L 725.9 279.1 L 721.5 266.8 L 723.9 266.8 L 727.5 277.2 L 731.0 266.8 " fill="#000000"/>
<path class="legend" d="M 746.9 280.3 L 746.9 282.3 L 734.6 282.3 L 734.6 280.3 L 746.9 280.3 " fill="#000000"/>
<path class="legend" d="M 748.1 265.3 Q 748.7 263.7, 750.2 262.8 Q 751.7 261.9, 753.7 261.9 Q 756.3 261.9, 757.7 263.3 Q 759.2 264.7, 759.2 267.2 Q 759.2 269.7, 757.3 272.0 Q 755.4 274.4, 751.6 277.2 L 759.5 277.2 L 759.5 279.1 L 748.0 279.1 L 748.0 277.5 Q 751.2 275.2, 753.0 273.6 Q 754.9 271.9, 755.9 270.4 Q 756.8 268.8, 756.8 267.3 Q 756.8 265.7, 755.9 264.7 Q 755.1 263.8, 753.7 263.8 Q 752.3 263.8, 751.4 264.4 Q 750.5 264.9, 749.9 266.2 L 748.1 265.3 " fill="#000000"/>
<path class="legend" d="M 770.7 270.1 Q 772.3 270.8, 773.2 271.8 Q 774.0 272.8, 774.0 274.4 Q 774.0 275.9, 773.3 277.0 Q 772.6 278.1, 771.2 278.7 Q 769.9 279.3, 768.1 279.3 Q 765.3 279.3, 763.7 278.0 Q 762.0 276.7, 762.0 274.4 Q 762.0 273.0, 762.8 272.0 Q 763.5 271.0, 765.0 270.2 Q 763.9 269.5, 763.3 268.6 Q 762.7 267.7, 762.7 266.3 Q 762.7 264.3, 764.1 263.1 Q 765.6 261.9, 768.0 261.9 Q 770.5 261.9, 772.0 263.1 Q 773.4 264.3, 773.4 266.3 Q 773.4 267.5, 772.7 268.4 Q 772.0 269.4, 770.7 270.1 M 768.0 263.7 Q 766.6 263.7, 765.8 264.4 Q 765.1 265.1, 765.1 266.3 Q 765.1 267.1, 765.6 267.7 Q 766.1 268.3, 766.9 268.7 Q 767.6 269.0, 769.1 269.5 Q 770.1 268.8, 770.6 268.0 Q 771.0 267.2, 771.0 266.3 Q 771.0 265.1, 770.2 264.4 Q 769.5 263.7, 768.0 263.7 M 768.1 277.5 Q 769.7 277.5, 770.7 276.7 Q 771.6 275.8, 771.6 274.4 Q 771.6 273.5, 771.1 272.9 Q 770.6 272.4, 769.9 272.0 Q 769.1 271.7, 767.8 271.2 L 766.7 270.9 Q 765.5 271.6, 765.0 272.5 Q 764.4 273.3, 764.4 274.4 Q 764.4 275.8, 765.4 276.7 Q 766.5 277.5, 768.1 277.5 " fill="#000000"/>
<path class="legend" d="M 782.9 268.5 Q 784.4 268.5, 785.6 269.1 Q 786.8 269.7, 787.5 270.9 Q 788.2 272.1, 788.2 273.7 Q 788.2 275.5, 787.3 276.7 Q 786.5 278.0, 785.1 278.6 Q 783.7 279.3, 782.1 279.3 Q 780.6 279.3, 779.1 278.7 Q 777.7 278.1, 776.7 277.0 L 778.1 275.5 Q 778.9 276.4, 780.0 276.9 Q 781.1 277.3, 782.2 277.3 Q 783.7 277.3, 784.7 276.4 Q 785.8 275.5, 785.8 273.8 Q 785.8 272.0, 784.7 271.1 Q 783.7 270.3, 782.1 270.3 Q 780.6 270.3, 778.9 270.9 L 777.6 270.3 L 778.4 262.1 L 787.1 262.1 L 786.9 264.0 L 780.4 264.0 L 779.9 269.1 Q 781.4 268.5, 782.9 268.5 " fill="#000000"/>
<path class="legend" d="M 796.7 279.3 Q 793.6 279.3, 792.0 277.0 Q 790.5 274.7, 790.5 270.6 Q 790.5 266.5, 792.0 264.2 Q 793.6 261.9, 796.7 261.9 Q 799.9 261.9, 801.4 264.2 Q 802.9 266.5, 802.9 270.6 Q 802.9 274.7, 801.4 277.0 Q 799.8 279.3, 796.7 279.3 M 796.7 277.4 Q 798.6 277.4, 799.5 275.7 Q 800.5 273.9, 800.5 270.6 Q 800.5 267.2, 799.5 265.5 Q 798.6 263.8, 796.7 263.8 Q 794.9 263.8, 793.9 265.5 Q 792.9 267.2, 792.9 270.6 Q 792.9 273.9, 793.9 275.7 Q 794.9 277.4, 796.7 277.4 " fill="#000000"/>
<path class="legend" d="M 814.3 270.1 Q 815.9 270.8, 816.7 271.8 Q 817.6 272.8, 817.6 274.4 Q 817.6 275.9, 816.9 277.0 Q 816.1 278.1, 814.8 278.7 Q 813.5 279.3, 811.7 279.3 Q 808.9 279.3, 807.3 278.0 Q 805.6 276.7, 805.6 274.4 Q 805.6 273.0, 806.4 272.0 Q 807.1 271.0, 808.6 270.2 Q 807.5 269.5, 806.9 268.6 Q 806.3 267.7, 806.3 266.3 Q 806.3 264.3, 807.7 263.1 Q 809.2 261.9, 811.6 261.9 Q 814.1 261.9, 815.5 263.1 Q 817.0 264.3, 817.0 266.3 Q 817.0 267.5, 816.3 268.4 Q 815.6 269.4, 814.3 270.1 M 811.6 263.7 Q 810.2 263.7, 809.4 264.4 Q 808.7 265.1, 808.7 266.3 Q 808.7 267.1, 809.2 267.7 Q 809.7 268.3, 810.5 268.7 Q 811.2 269.0, 812.7 269.5 Q 813.7 268.8, 814.2 268.0 Q 814.6 267.2, 814.6 266.3 Q 814.6 265.1, 813.8 264.4 Q 813.1 263.7, 811.6 263.7 M 811.7 277.5 Q 813.3 277.5, 814.3 276.7 Q 815.2 275.8, 815.2 274.4 Q 815.2 273.5, 814.7 272.9 Q 814.2 272.4, 813.5 272.0 Q 812.7 271.7, 811.4 271.2 L 810.3 270.9 Q 809.1 271.6, 808.6 272.5 Q 808.0 273.3, 808.0 274.4 Q 808.0 275.8, 809.0 276.7 Q 810.1 277.5, 811.7 277.5 " fill="#000000"/>
<path class="legend" d="M 828.5 270.1 Q 830.1 270.6, 830.9 271.7 Q 831.7 272.8, 831.7 274.4 Q 831.7 275.9, 831.0 277.0 Q 830.3 278.1, 829.0 278.7 Q 827.6 279.3, 825.9 279.3 Q 824.1 279.3, 822.7 278.7 Q 821.4 278.1, 820.3 276.8 L 821.7 275.4 Q 822.7 276.5, 823.6 277.0 Q 824.5 277.4, 825.9 277.4 Q 827.4 277.4, 828.4 276.6 Q 829.3 275.8, 829.3 274.4 Q 829.3 272.7, 828.3 271.9 Q 827.4 271.1, 825.3 271.1 L 824.1 271.1 L 824.1 269.4 L 825.1 269.4 Q 827.0 269.4, 828.0 268.6 Q 829.0 267.8, 829.0 266.3 Q 829.0 265.2, 828.1 264.5 Q 827.3 263.8, 825.9 263.8 Q 824.5 263.8, 823.6 264.3 Q 822.8 264.8, 822.1 266.1 L 820.4 265.2 Q 821.0 263.8, 822.5 262.9 Q 823.9 261.9, 825.9 261.9 Q 828.4 261.9, 829.9 263.1 Q 831.4 264.3, 831.4 266.3 Q 831.4 267.6, 830.6 268.6 Q 829.9 269.6, 828.5 270.1 " fill="#000000"/>
<path class="legend" d="M 842.4 270.1 Q 844.1 270.6, 844.9 271.7 Q 845.7 272.8, 845.7 274.4 Q 845.7 275.9, 845.0 277.0 Q 844.3 278.1, 842.9 278.7 Q 841.6 279.3, 839.9 279.3 Q 838.1 279.3, 836.7 278.7 Q 835.4 278.1, 834.3 276.8 L 835.6 275.4 Q 836.7 276.5, 837.6 277.0 Q 838.5 277.4, 839.9 277.4 Q 841.4 277.4, 842.4 276.6 Q 843.3 275.8, 843.3 274.4 Q 843.3 272.7, 842.3 271.9 Q 841.4 271.1, 839.3 271.1 L 838.0 271.1 L 838.0 269.4 L 839.1 269.4 Q 841.0 269.4, 842.0 268.6 Q 842.9 267.8, 842.9 266.3 Q 842.9 265.2, 842.1 264.5 Q 841.3 263.8, 839.9 263.8 Q 838.5 263.8, 837.6 264.3 Q 836.8 264.8, 836.1 266.1 L 834.4 265.2 Q 835.0 263.8, 836.5 262.9 Q 837.9 261.9, 839.9 261.9 Q 842.4 261.9, 843.9 263.1 Q 845.3 264.3, 845.3 266.3 Q 845.3 267.6, 844.6 268.6 Q 843.9 269.6, 842.4 270.1 " fill="#000000"/>
<path class="bond-0 atom-0 atom-1" d="M 1016.4,169.8 L 1050.4,150.2" style="fill:none;fill-rule:evenodd;stroke:#000000;stroke-width:4.0px;stroke-linecap:butt;stroke-linejoin:miter;stroke-opacity:1"/>
<path class="bond-1 atom-1 atom-2" d="M 1050.4,150.2 L 1084.3,169.8" style="fill:none;fill-rule:evenodd;stroke:#000000;stroke-width:4.0px;stroke-linecap:butt;stroke-linejoin:miter;stroke-opacity:1"/>
<path class="bond-2 atom-2 atom-3" d="M 1084.3,169.8 L 1097.1,162.5" style="fill:none;fill-rule:evenodd;stroke:#000000;stroke-width:4.0px;stroke-linecap:butt;stroke-linejoin:miter;stroke-opacity:1"/>
<path class="bond-2 atom-2 atom-3" d="M 1097.1,162.5 L 1109.8,155.1" style="fill:none;fill-rule:evenodd;stroke:#FF0000;stroke-width:4.0px;stroke-linecap:butt;stroke-linejoin:miter;stroke-opacity:1"/>
<path class="bond-3 atom-1 atom-4" d="M 1050.4,150.2 L 1050.4,135.3" style="fill:none;fill-rule:evenodd;stroke:#000000;stroke-width:4.0px;stroke-linecap:butt;stroke-linejoin:miter;stroke-opacity:1"/>
<path class="bond-3 atom-1 atom-4" d="M 1050.4,135.3 L 1050.4,120.4" style="fill:none;fill-rule:evenodd;stroke:#FF0000;stroke-width:4.0px;stroke-linecap:butt;stroke-linejoin:miter;stroke-opacity:1"/>
<path class="bond-4 atom-0 atom-5" d="M 1016.4,169.8 L 1003.7,162.5" style="fill:none;fill-rule:evenodd;stroke:#000000;stroke-width:4.0px;stroke-linecap:butt;stroke-linejoin:miter;stroke-opacity:1"/>
<path class="bond-4 atom-0 atom-5" d="M 1003.7,162.5 L 990.9,155.1" style="fill:none;fill-rule:evenodd;stroke:#FF0000;stroke-width:4.0px;stroke-linecap:butt;stroke-linejoin:miter;stroke-opacity:1"/>
<path d="M 1018.1,168.9 L 1016.4,169.8 L 1015.8,169.5" style="fill:none;stroke:#000000;stroke-width:4.0px;stroke-linecap:butt;stroke-linejoin:miter;stroke-opacity:1;"/>
<path d="M 1082.6,168.9 L 1084.3,169.8 L 1085.0,169.5" style="fill:none;stroke:#000000;stroke-width:4.0px;stroke-linecap:butt;stroke-linejoin:miter;stroke-opacity:1;"/>
<path class="atom-3" d="M 1111.1 150.3 Q 1111.1 146.5, 1113.0 144.5 Q 1114.8 142.4, 1118.3 142.4 Q 1121.7 142.4, 1123.6 144.5 Q 1125.4 146.5, 1125.4 150.3 Q 1125.4 154.1, 1123.6 156.2 Q 1121.7 158.4, 1118.3 158.4 Q 1114.9 158.4, 1113.0 156.2 Q 1111.1 154.1, 1111.1 150.3 M 1118.3 156.6 Q 1120.7 156.6, 1121.9 155.0 Q 1123.2 153.4, 1123.2 150.3 Q 1123.2 147.2, 1121.9 145.7 Q 1120.7 144.1, 1118.3 144.1 Q 1115.9 144.1, 1114.6 145.7 Q 1113.3 147.2, 1113.3 150.3 Q 1113.3 153.4, 1114.6 155.0 Q 1115.9 156.6, 1118.3 156.6 " fill="#FF0000"/>
<path class="atom-3" d="M 1127.9 142.5 L 1130.0 142.5 L 1130.0 149.2 L 1137.9 149.2 L 1137.9 142.5 L 1140.1 142.5 L 1140.1 158.1 L 1137.9 158.1 L 1137.9 150.9 L 1130.0 150.9 L 1130.0 158.1 L 1127.9 158.1 L 1127.9 142.5 " fill="#FF0000"/>
<path class="atom-4" d="M 1043.2 111.1 Q 1043.2 107.3, 1045.1 105.2 Q 1046.9 103.2, 1050.4 103.2 Q 1053.8 103.2, 1055.7 105.2 Q 1057.5 107.3, 1057.5 111.1 Q 1057.5 114.9, 1055.7 117.0 Q 1053.8 119.2, 1050.4 119.2 Q 1047.0 119.2, 1045.1 117.0 Q 1043.2 114.9, 1043.2 111.1 M 1050.4 117.4 Q 1052.8 117.4, 1054.0 115.8 Q 1055.3 114.2, 1055.3 111.1 Q 1055.3 108.0, 1054.0 106.5 Q 1052.8 104.9, 1050.4 104.9 Q 1048.0 104.9, 1046.7 106.5 Q 1045.4 108.0, 1045.4 111.1 Q 1045.4 114.2, 1046.7 115.8 Q 1048.0 117.4, 1050.4 117.4 " fill="#FF0000"/>
<path class="atom-4" d="M 1060.0 103.3 L 1062.1 103.3 L 1062.1 110.0 L 1070.0 110.0 L 1070.0 103.3 L 1072.1 103.3 L 1072.1 118.9 L 1070.0 118.9 L 1070.0 111.7 L 1062.1 111.7 L 1062.1 118.9 L 1060.0 118.9 L 1060.0 103.3 " fill="#FF0000"/>
<path class="atom-5" d="M 959.9 142.5 L 962.1 142.5 L 962.1 149.2 L 970.0 149.2 L 970.0 142.5 L 972.1 142.5 L 972.1 158.1 L 970.0 158.1 L 970.0 150.9 L 962.1 150.9 L 962.1 158.1 L 959.9 158.1 L 959.9 142.5 " fill="#FF0000"/>
<path class="atom-5" d="M 975.3 150.3 Q 975.3 146.5, 977.2 144.5 Q 979.0 142.4, 982.5 142.4 Q 985.9 142.4, 987.8 144.5 Q 989.6 146.5, 989.6 150.3 Q 989.6 154.1, 987.8 156.2 Q 985.9 158.4, 982.5 158.4 Q 979.0 158.4, 977.2 156.2 Q 975.3 154.1, 975.3 150.3 M 982.5 156.6 Q 984.9 156.6, 986.1 155.0 Q 987.4 153.4, 987.4 150.3 Q 987.4 147.2, 986.1 145.7 Q 984.9 144.1, 982.5 144.1 Q 980.1 144.1, 978.8 145.7 Q 977.5 147.2, 977.5 150.3 Q 977.5 153.4, 978.8 155.0 Q 980.1 156.6, 982.5 156.6 " fill="#FF0000"/>
<path class="legend" d="M 970.3 266.5 Q 972.4 266.5, 973.4 267.7 Q 974.5 268.8, 974.5 270.9 L 974.5 279.1 L 972.2 279.1 L 972.2 271.1 Q 972.2 269.6, 971.7 269.0 Q 971.1 268.3, 969.9 268.3 Q 968.8 268.3, 967.8 268.8 Q 966.9 269.4, 966.4 270.3 Q 966.4 270.5, 966.4 270.9 L 966.4 279.1 L 964.2 279.1 L 964.2 271.1 Q 964.2 269.6, 963.6 269.0 Q 963.0 268.3, 961.8 268.3 Q 960.7 268.3, 959.8 268.8 Q 958.9 269.4, 958.3 270.2 L 958.3 279.1 L 956.0 279.1 L 956.0 266.8 L 957.9 266.8 L 958.1 268.4 Q 959.7 266.5, 962.2 266.5 Q 965.1 266.5, 966.0 268.7 Q 967.7 266.5, 970.3 266.5 " fill="#000000"/>
<path class="legend" d="M 977.5 272.9 Q 977.5 269.9, 979.0 268.2 Q 980.5 266.5, 983.3 266.5 Q 986.1 266.5, 987.7 268.2 Q 989.2 269.9, 989.2 272.9 Q 989.2 275.9, 987.7 277.6 Q 986.1 279.3, 983.3 279.3 Q 980.5 279.3, 979.0 277.6 Q 977.5 275.9, 977.5 272.9 M 979.8 272.9 Q 979.8 275.2, 980.7 276.3 Q 981.6 277.5, 983.3 277.5 Q 985.0 277.5, 985.9 276.3 Q 986.9 275.2, 986.9 272.9 Q 986.9 270.6, 985.9 269.5 Q 985.0 268.3, 983.3 268.3 Q 981.6 268.3, 980.7 269.5 Q 979.8 270.6, 979.8 272.9 " fill="#000000"/>
<path class="legend" d="M 997.2 266.5 Q 999.7 266.5, 1001.2 268.2 Q 1002.6 269.7, 1002.6 272.7 Q 1002.6 275.8, 1000.9 277.6 Q 999.2 279.3, 996.3 279.3 Q 994.3 279.3, 992.5 278.6 L 991.4 278.3 L 991.4 260.9 L 993.7 260.9 L 993.7 268.1 Q 995.0 266.5, 997.2 266.5 M 996.2 277.5 Q 998.1 277.5, 999.2 276.3 Q 1000.3 275.0, 1000.3 272.7 Q 1000.3 270.6, 999.4 269.5 Q 998.6 268.3, 997.0 268.3 Q 995.8 268.3, 994.9 269.0 Q 994.0 269.7, 993.7 270.8 L 993.7 277.2 Q 994.9 277.5, 996.2 277.5 " fill="#000000"/>
<path class="legend" d="M 1004.8 260.9 L 1007.0 260.9 L 1007.0 279.1 L 1004.8 279.1 L 1004.8 260.9 " fill="#000000"/>
<path class="legend" d="M 1010.2 272.9 Q 1010.2 269.9, 1011.8 268.2 Q 1013.3 266.5, 1016.0 266.5 Q 1018.7 266.5, 1019.9 268.2 Q 1021.2 269.8, 1021.2 272.8 L 1021.2 273.2 L 1012.5 273.2 Q 1012.6 275.3, 1013.5 276.4 Q 1014.5 277.5, 1016.2 277.5 Q 1017.2 277.5, 1018.1 277.3 Q 1019.0 277.1, 1020.0 276.6 L 1020.7 278.1 Q 1019.5 278.7, 1018.4 279.0 Q 1017.2 279.3, 1016.1 279.3 Q 1013.3 279.3, 1011.8 277.6 Q 1010.2 275.9, 1010.2 272.9 M 1016.0 268.3 Q 1014.6 268.3, 1013.7 269.1 Q 1012.9 270.0, 1012.6 271.5 L 1018.8 271.5 Q 1018.6 269.9, 1017.9 269.1 Q 1017.3 268.3, 1016.0 268.3 " fill="#000000"/>
<path class="legend" d="M 1032.7 266.8 L 1034.9 266.8 L 1028.5 285.0 L 1026.5 285.0 L 1028.5 279.1 L 1027.6 279.1 L 1023.2 266.8 L 1025.5 266.8 L 1029.2 277.2 L 1032.7 266.8 " fill="#000000"/>
<path class="legend" d="M 1048.5 280.3 L 1048.5 282.3 L 1036.3 282.3 L 1036.3 280.3 L 1048.5 280.3 " fill="#000000"/>
<path class="legend" d="M 1057.8 270.1 Q 1059.4 270.6, 1060.2 271.7 Q 1061.1 272.8, 1061.1 274.4 Q 1061.1 275.9, 1060.3 277.0 Q 1059.6 278.1, 1058.3 278.7 Q 1057.0 279.3, 1055.2 279.3 Q 1053.4 279.3, 1052.1 278.7 Q 1050.7 278.1, 1049.6 276.8 L 1051.0 275.4 Q 1052.1 276.5, 1052.9 277.0 Q 1053.8 277.4, 1055.2 277.4 Q 1056.8 277.4, 1057.7 276.6 Q 1058.7 275.8, 1058.7 274.4 Q 1058.7 272.7, 1057.7 271.9 Q 1056.7 271.1, 1054.6 271.1 L 1053.4 271.1 L 1053.4 269.4 L 1054.5 269.4 Q 1056.3 269.4, 1057.3 268.6 Q 1058.3 267.8, 1058.3 266.3 Q 1058.3 265.2, 1057.5 264.5 Q 1056.7 263.8, 1055.3 263.8 Q 1053.9 263.8, 1053.0 264.3 Q 1052.1 264.8, 1051.4 266.1 L 1049.8 265.2 Q 1050.4 263.8, 1051.8 262.9 Q 1053.3 261.9, 1055.3 261.9 Q 1057.8 261.9, 1059.2 263.1 Q 1060.7 264.3, 1060.7 266.3 Q 1060.7 267.6, 1059.9 268.6 Q 1059.2 269.6, 1057.8 270.1 " fill="#000000"/>
<path class="legend" d="M 1063.6 265.3 Q 1064.3 263.7, 1065.8 262.8 Q 1067.2 261.9, 1069.3 261.9 Q 1071.9 261.9, 1073.3 263.3 Q 1074.8 264.7, 1074.8 267.2 Q 1074.8 269.7, 1072.9 272.0 Q 1071.0 274.4, 1067.2 277.2 L 1075.0 277.2 L 1075.0 279.1 L 1063.6 279.1 L 1063.6 277.5 Q 1066.8 275.2, 1068.6 273.6 Q 1070.5 271.9, 1071.4 270.4 Q 1072.4 268.8, 1072.4 267.3 Q 1072.4 265.7, 1071.5 264.7 Q 1070.7 263.8, 1069.3 263.8 Q 1067.9 263.8, 1067.0 264.4 Q 1066.1 264.9, 1065.5 266.2 L 1063.6 265.3 " fill="#000000"/>
<path class="legend" d="M 1083.8 268.5 Q 1085.3 268.5, 1086.5 269.1 Q 1087.7 269.7, 1088.4 270.9 Q 1089.1 272.1, 1089.1 273.7 Q 1089.1 275.5, 1088.2 276.7 Q 1087.4 278.0, 1086.0 278.6 Q 1084.6 279.3, 1083.0 279.3 Q 1081.5 279.3, 1080.0 278.7 Q 1078.6 278.1, 1077.6 277.0 L 1079.1 275.5 Q 1079.8 276.4, 1080.9 276.9 Q 1082.0 277.3, 1083.1 277.3 Q 1084.6 277.3, 1085.7 276.4 Q 1086.7 275.5, 1086.7 273.8 Q 1086.7 272.0, 1085.7 271.1 Q 1084.6 270.3, 1083.0 270.3 Q 1081.5 270.3, 1079.8 270.9 L 1078.5 270.3 L 1079.3 262.1 L 1088.1 262.1 L 1087.8 264.0 L 1081.3 264.0 L 1080.8 269.1 Q 1082.3 268.5, 1083.8 268.5 " fill="#000000"/>
<path class="legend" d="M 1097.1 261.9 Q 1100.1 261.9, 1101.6 264.0 Q 1103.2 266.0, 1103.2 270.1 Q 1103.2 274.6, 1101.3 277.0 Q 1099.4 279.3, 1095.8 279.3 Q 1094.7 279.3, 1093.8 279.0 Q 1092.9 278.8, 1092.1 278.3 L 1093.0 276.7 Q 1094.2 277.4, 1095.8 277.4 Q 1098.2 277.4, 1099.4 275.8 Q 1100.6 274.3, 1100.8 271.1 Q 1099.9 271.9, 1098.8 272.3 Q 1097.7 272.7, 1096.5 272.7 Q 1095.0 272.7, 1093.9 272.1 Q 1092.7 271.4, 1092.0 270.2 Q 1091.4 269.1, 1091.4 267.6 Q 1091.4 265.9, 1092.1 264.6 Q 1092.9 263.4, 1094.2 262.6 Q 1095.4 261.9, 1097.1 261.9 M 1093.8 267.6 Q 1093.8 269.1, 1094.6 269.9 Q 1095.5 270.8, 1097.0 270.8 Q 1098.0 270.8, 1099.0 270.4 Q 1100.0 270.0, 1100.8 269.2 Q 1100.7 266.4, 1099.8 265.2 Q 1098.9 263.9, 1097.1 263.9 Q 1096.2 263.9, 1095.4 264.4 Q 1094.7 264.8, 1094.2 265.7 Q 1093.8 266.5, 1093.8 267.6 " fill="#000000"/>
<path class="legend" d="M 1117.0 273.3 L 1119.0 273.3 L 1119.0 275.2 L 1117.0 275.2 L 1117.0 279.1 L 1114.7 279.1 L 1114.7 275.2 L 1105.9 275.2 L 1105.9 273.7 L 1113.4 262.1 L 1117.0 262.1 L 1117.0 273.3 M 1108.7 273.3 L 1114.7 273.3 L 1114.7 263.6 L 1108.7 273.3 " fill="#000000"/>
<path class="legend" d="M 1122.3 277.2 L 1126.0 277.2 L 1126.0 264.5 L 1121.9 265.8 L 1121.3 264.3 L 1126.5 262.0 L 1128.2 262.3 L 1128.2 277.2 L 1131.6 277.2 L 1131.6 279.1 L 1122.3 279.1 L 1122.3 277.2 " fill="#000000"/>
<path class="legend" d="M 1134.6 277.2 L 1138.4 277.2 L 1138.4 264.5 L 1134.3 265.8 L 1133.7 264.3 L 1138.9 262.0 L 1140.6 262.3 L 1140.6 277.2 L 1144.0 277.2 L 1144.0 279.1 L 1134.6 279.1 L 1134.6 277.2 " fill="#000000"/>
<path class="bond-0 atom-0 atom-1" d="M 1433.8,117.8 L 1402.1,140.8" style="fill:none;fill-rule:evenodd;stroke:#000000;stroke-width:4.0px;stroke-linecap:butt;stroke-linejoin:miter;stroke-opacity:1"/>
<path class="bond-1 atom-1 atom-2" d="M 1402.1,140.8 L 1366.2,124.9" style="fill:none;fill-rule:evenodd;stroke:#000000;stroke-width:4.0px;stroke-linecap:butt;stroke-linejoin:miter;stroke-opacity:1"/>
<path class="bond-2 atom-2 atom-3" d="M 1366.2,124.9 L 1334.5,147.9" style="fill:none;fill-rule:evenodd;stroke:#000000;stroke-width:4.0px;stroke-linecap:butt;stroke-linejoin:miter;stroke-opacity:1"/>
<path class="bond-3 atom-3 atom-4" d="M 1334.5,147.9 L 1298.7,132.0" style="fill:none;fill-rule:evenodd;stroke:#000000;stroke-width:4.0px;stroke-linecap:butt;stroke-linejoin:miter;stroke-opacity:1"/>
<path class="bond-4 atom-4 atom-5" d="M 1298.7,132.0 L 1267.0,155.0" style="fill:none;fill-rule:evenodd;stroke:#000000;stroke-width:4.0px;stroke-linecap:butt;stroke-linejoin:miter;stroke-opacity:1"/>
<path class="bond-5 atom-5 atom-6" d="M 1267.0,155.0 L 1253.3,148.9" style="fill:none;fill-rule:evenodd;stroke:#000000;stroke-width:4.0px;stroke-linecap:butt;stroke-linejoin:miter;stroke-opacity:1"/>
<path class="bond-5 atom-5 atom-6" d="M 1253.3,148.9 L 1239.6,142.8" style="fill:none;fill-rule:evenodd;stroke:#FF0000;stroke-width:4.0px;stroke-linecap:butt;stroke-linejoin:miter;stroke-opacity:1"/>
<path class="bond-6 atom-4 atom-7" d="M 1298.7,132.0 L 1295.8,118.0 L 1298.7,117.7 Z" style="fill:#000000;fill-rule:evenodd;fill-opacity:1;stroke:#000000;stroke-width:1.0px;stroke-linecap:butt;stroke-linejoin:miter;stroke-opacity:1;"/>
<path class="bond-6 atom-4 atom-7" d="M 1295.8,118.0 L 1298.7,103.4 L 1292.8,104.0 Z" style="fill:#FF0000;fill-rule:evenodd;fill-opacity:1;stroke:#FF0000;stroke-width:1.0px;stroke-linecap:butt;stroke-linejoin:miter;stroke-opacity:1;"/>
<path class="bond-6 atom-4 atom-7" d="M 1295.8,118.0 L 1298.7,117.7 L 1298.7,103.4 Z" style="fill:#FF0000;fill-rule:evenodd;fill-opacity:1;stroke:#FF0000;stroke-width:1.0px;stroke-linecap:butt;stroke-linejoin:miter;stroke-opacity:1;"/>
<path class="bond-7 atom-3 atom-8" d="M 1335.5,152.6 L 1334.5,152.7" style="fill:none;fill-rule:evenodd;stroke:#000000;stroke-width:2.0px;stroke-linecap:butt;stroke-linejoin:miter;stroke-opacity:1"/>
<path class="bond-7 atom-3 atom-8" d="M 1336.5,157.3 L 1334.6,157.5" style="fill:none;fill-rule:evenodd;stroke:#000000;stroke-width:2.0px;stroke-linecap:butt;stroke-linejoin:miter;stroke-opacity:1"/>
<path class="bond-7 atom-3 atom-8" d="M 1337.5,162.0 L 1334.6,162.3" style="fill:none;fill-rule:evenodd;stroke:#000000;stroke-width:2.0px;stroke-linecap:butt;stroke-linejoin:miter;stroke-opacity:1"/>
<path class="bond-7 atom-3 atom-8" d="M 1338.5,166.7 L 1334.6,167.1" style="fill:none;fill-rule:evenodd;stroke:#FF0000;stroke-width:2.0px;stroke-linecap:butt;stroke-linejoin:miter;stroke-opacity:1"/>
<path class="bond-7 atom-3 atom-8" d="M 1339.5,171.4 L 1334.6,171.9" style="fill:none;fill-rule:evenodd;stroke:#FF0000;stroke-width:2.0px;stroke-linecap:butt;stroke-linejoin:miter;stroke-opacity:1"/>
<path class="bond-7 atom-3 atom-8" d="M 1340.5,176.1 L 1334.6,176.7" style="fill:none;fill-rule:evenodd;stroke:#FF0000;stroke-width:2.0px;stroke-linecap:butt;stroke-linejoin:miter;stroke-opacity:1"/>
<path class="bond-8 atom-2 atom-9" d="M 1365.3,120.2 L 1366.2,120.1" style="fill:none;fill-rule:evenodd;stroke:#000000;stroke-width:2.0px;stroke-linecap:butt;stroke-linejoin:miter;stroke-opacity:1"/>
<path class="bond-8 atom-2 atom-9" d="M 1364.3,115.5 L 1366.2,115.3" style="fill:none;fill-rule:evenodd;stroke:#000000;stroke-width:2.0px;stroke-linecap:butt;stroke-linejoin:miter;stroke-opacity:1"/>
<path class="bond-8 atom-2 atom-9" d="M 1363.3,110.9 L 1366.2,110.6" style="fill:none;fill-rule:evenodd;stroke:#000000;stroke-width:2.0px;stroke-linecap:butt;stroke-linejoin:miter;stroke-opacity:1"/>
<path class="bond-8 atom-2 atom-9" d="M 1362.3,106.2 L 1366.2,105.8" style="fill:none;fill-rule:evenodd;stroke:#FF0000;stroke-width:2.0px;stroke-linecap:butt;stroke-linejoin:miter;stroke-opacity:1"/>
<path class="bond-8 atom-2 atom-9" d="M 1361.3,101.5 L 1366.2,101.0" style="fill:none;fill-rule:evenodd;stroke:#FF0000;stroke-width:2.0px;stroke-linecap:butt;stroke-linejoin:miter;stroke-opacity:1"/>
<path class="bond-8 atom-2 atom-9" d="M 1360.3,96.9 L 1366.2,96.3" style="fill:none;fill-rule:evenodd;stroke:#FF0000;stroke-width:2.0px;stroke-linecap:butt;stroke-linejoin:miter;stroke-opacity:1"/>
<path class="bond-9 atom-1 atom-10" d="M 1402.1,140.8 L 1405.0,154.9 L 1402.1,155.2 Z" style="fill:#000000;fill-rule:evenodd;fill-opacity:1;stroke:#000000;stroke-width:1.0px;stroke-linecap:butt;stroke-linejoin:miter;stroke-opacity:1;"/>
<path class="bond-9 atom-1 atom-10" d="M 1405.0,154.9 L 1402.1,169.6 L 1408.0,169.0 Z" style="fill:#FF0000;fill-rule:evenodd;fill-opacity:1;stroke:#FF0000;stroke-width:1.0px;stroke-linecap:butt;stroke-linejoin:miter;stroke-opacity:1;"/>
<path class="bond-9 atom-1 atom-10" d="M 1405.0,154.9 L 1402.1,155.2 L 1402.1,169.6 Z" style="fill:#FF0000;fill-rule:evenodd;fill-opacity:1;stroke:#FF0000;stroke-width:1.0px;stroke-linecap:butt;stroke-linejoin:miter;stroke-opacity:1;"/>
<path class="bond-10 atom-0 atom-11" d="M 1433.8,117.8 L 1447.5,123.8" style="fill:none;fill-rule:evenodd;stroke:#000000;stroke-width:4.0px;stroke-linecap:butt;stroke-linejoin:miter;stroke-opacity:1"/>
<path class="bond-10 atom-0 atom-11" d="M 1447.5,123.8 L 1461.2,129.9" style="fill:none;fill-rule:evenodd;stroke:#FF0000;stroke-width:4.0px;stroke-linecap:butt;stroke-linejoin:miter;stroke-opacity:1"/>
<path d="M 1432.2,118.9 L 1433.8,117.8 L 1434.5,118.1" style="fill:none;stroke:#000000;stroke-width:4.0px;stroke-linecap:butt;stroke-linejoin:miter;stroke-opacity:1;"/>
<path d="M 1403.6,139.6 L 1402.1,140.8 L 1400.3,140.0" style="fill:none;stroke:#000000;stroke-width:4.0px;stroke-linecap:butt;stroke-linejoin:miter;stroke-opacity:1;"/>
<path d="M 1368.0,125.7 L 1366.2,124.9 L 1364.7,126.0" style="fill:none;stroke:#000000;stroke-width:4.0px;stroke-linecap:butt;stroke-linejoin:miter;stroke-opacity:1;"/>
<path d="M 1336.1,146.8 L 1334.5,147.9 L 1332.7,147.1" style="fill:none;stroke:#000000;stroke-width:4.0px;stroke-linecap:butt;stroke-linejoin:miter;stroke-opacity:1;"/>
<path d="M 1300.5,132.8 L 1298.7,132.0 L 1297.1,133.1" style="fill:none;stroke:#000000;stroke-width:4.0px;stroke-linecap:butt;stroke-linejoin:miter;stroke-opacity:1;"/>
<path d="M 1268.6,153.9 L 1267.0,155.0 L 1266.3,154.7" style="fill:none;stroke:#000000;stroke-width:4.0px;stroke-linecap:butt;stroke-linejoin:miter;stroke-opacity:1;"/>
<path class="atom-6" d="M 1208.6 131.4 L 1210.8 131.4 L 1210.8 138.0 L 1218.7 138.0 L 1218.7 131.4 L 1220.8 131.4 L 1220.8 146.9 L 1218.7 146.9 L 1218.7 139.7 L 1210.8 139.7 L 1210.8 146.9 L 1208.6 146.9 L 1208.6 131.4 " fill="#FF0000"/>
<path class="atom-6" d="M 1224.0 139.1 Q 1224.0 135.4, 1225.9 133.3 Q 1227.7 131.2, 1231.2 131.2 Q 1234.6 131.2, 1236.5 133.3 Q 1238.3 135.4, 1238.3 139.1 Q 1238.3 142.9, 1236.5 145.0 Q 1234.6 147.2, 1231.2 147.2 Q 1227.7 147.2, 1225.9 145.0 Q 1224.0 142.9, 1224.0 139.1 M 1231.2 145.4 Q 1233.5 145.4, 1234.8 143.8 Q 1236.1 142.2, 1236.1 139.1 Q 1236.1 136.0, 1234.8 134.5 Q 1233.5 132.9, 1231.2 132.9 Q 1228.8 132.9, 1227.5 134.5 Q 1226.2 136.0, 1226.2 139.1 Q 1226.2 142.3, 1227.5 143.8 Q 1228.8 145.4, 1231.2 145.4 " fill="#FF0000"/>
<path class="atom-7" d="M 1287.5 93.0 Q 1287.5 89.3, 1289.3 87.2 Q 1291.2 85.1, 1294.6 85.1 Q 1298.1 85.1, 1299.9 87.2 Q 1301.8 89.3, 1301.8 93.0 Q 1301.8 96.8, 1299.9 99.0 Q 1298.0 101.1, 1294.6 101.1 Q 1291.2 101.1, 1289.3 99.0 Q 1287.5 96.8, 1287.5 93.0 M 1294.6 99.3 Q 1297.0 99.3, 1298.3 97.7 Q 1299.6 96.1, 1299.6 93.0 Q 1299.6 90.0, 1298.3 88.4 Q 1297.0 86.9, 1294.6 86.9 Q 1292.2 86.9, 1290.9 88.4 Q 1289.7 89.9, 1289.7 93.0 Q 1289.7 96.2, 1290.9 97.7 Q 1292.2 99.3, 1294.6 99.3 " fill="#FF0000"/>
<path class="atom-7" d="M 1304.2 85.3 L 1306.3 85.3 L 1306.3 91.9 L 1314.3 91.9 L 1314.3 85.3 L 1316.4 85.3 L 1316.4 100.8 L 1314.3 100.8 L 1314.3 93.6 L 1306.3 93.6 L 1306.3 100.8 L 1304.2 100.8 L 1304.2 85.3 " fill="#FF0000"/>
<path class="atom-8" d="M 1331.5 186.9 Q 1331.5 183.2, 1333.3 181.1 Q 1335.2 179.0, 1338.6 179.0 Q 1342.1 179.0, 1343.9 181.1 Q 1345.8 183.2, 1345.8 186.9 Q 1345.8 190.7, 1343.9 192.9 Q 1342.0 195.0, 1338.6 195.0 Q 1335.2 195.0, 1333.3 192.9 Q 1331.5 190.7, 1331.5 186.9 M 1338.6 193.3 Q 1341.0 193.3, 1342.3 191.7 Q 1343.6 190.1, 1343.6 186.9 Q 1343.6 183.9, 1342.3 182.3 Q 1341.0 180.8, 1338.6 180.8 Q 1336.3 180.8, 1335.0 182.3 Q 1333.7 183.9, 1333.7 186.9 Q 1333.7 190.1, 1335.0 191.7 Q 1336.3 193.3, 1338.6 193.3 " fill="#FF0000"/>
<path class="atom-8" d="M 1348.2 179.2 L 1350.3 179.2 L 1350.3 185.8 L 1358.3 185.8 L 1358.3 179.2 L 1360.4 179.2 L 1360.4 194.8 L 1358.3 194.8 L 1358.3 187.6 L 1350.3 187.6 L 1350.3 194.8 L 1348.2 194.8 L 1348.2 179.2 " fill="#FF0000"/>
<path class="atom-9" d="M 1355.0 85.9 Q 1355.0 82.2, 1356.8 80.1 Q 1358.7 78.0, 1362.1 78.0 Q 1365.6 78.0, 1367.4 80.1 Q 1369.3 82.2, 1369.3 85.9 Q 1369.3 89.7, 1367.4 91.8 Q 1365.6 94.0, 1362.1 94.0 Q 1358.7 94.0, 1356.8 91.8 Q 1355.0 89.7, 1355.0 85.9 M 1362.1 92.2 Q 1364.5 92.2, 1365.8 90.6 Q 1367.1 89.0, 1367.1 85.9 Q 1367.1 82.8, 1365.8 81.3 Q 1364.5 79.7, 1362.1 79.7 Q 1359.8 79.7, 1358.5 81.3 Q 1357.2 82.8, 1357.2 85.9 Q 1357.2 89.1, 1358.5 90.6 Q 1359.8 92.2, 1362.1 92.2 " fill="#FF0000"/>
<path class="atom-9" d="M 1371.7 78.2 L 1373.8 78.2 L 1373.8 84.8 L 1381.8 84.8 L 1381.8 78.2 L 1383.9 78.2 L 1383.9 93.7 L 1381.8 93.7 L 1381.8 86.5 L 1373.8 86.5 L 1373.8 93.7 L 1371.7 93.7 L 1371.7 78.2 " fill="#FF0000"/>
<path class="atom-10" d="M 1399.0 179.8 Q 1399.0 176.1, 1400.9 174.0 Q 1402.7 171.9, 1406.2 171.9 Q 1409.6 171.9, 1411.5 174.0 Q 1413.3 176.1, 1413.3 179.8 Q 1413.3 183.6, 1411.4 185.8 Q 1409.6 187.9, 1406.2 187.9 Q 1402.7 187.9, 1400.9 185.8 Q 1399.0 183.6, 1399.0 179.8 M 1406.2 186.1 Q 1408.5 186.1, 1409.8 184.6 Q 1411.1 183.0, 1411.1 179.8 Q 1411.1 176.8, 1409.8 175.2 Q 1408.5 173.7, 1406.2 173.7 Q 1403.8 173.7, 1402.5 175.2 Q 1401.2 176.8, 1401.2 179.8 Q 1401.2 183.0, 1402.5 184.6 Q 1403.8 186.1, 1406.2 186.1 " fill="#FF0000"/>
<path class="atom-10" d="M 1415.7 172.1 L 1417.8 172.1 L 1417.8 178.7 L 1425.8 178.7 L 1425.8 172.1 L 1427.9 172.1 L 1427.9 187.7 L 1425.8 187.7 L 1425.8 180.5 L 1417.8 180.5 L 1417.8 187.7 L 1415.7 187.7 L 1415.7 172.1 " fill="#FF0000"/>
<path class="atom-11" d="M 1462.4 133.7 Q 1462.4 130.0, 1464.3 127.9 Q 1466.1 125.8, 1469.6 125.8 Q 1473.1 125.8, 1474.9 127.9 Q 1476.7 130.0, 1476.7 133.7 Q 1476.7 137.5, 1474.9 139.7 Q 1473.0 141.8, 1469.6 141.8 Q 1466.2 141.8, 1464.3 139.7 Q 1462.4 137.5, 1462.4 133.7 M 1469.6 140.1 Q 1472.0 140.1, 1473.2 138.5 Q 1474.5 136.9, 1474.5 133.7 Q 1474.5 130.7, 1473.2 129.1 Q 1472.0 127.6, 1469.6 127.6 Q 1467.2 127.6, 1465.9 129.1 Q 1464.6 130.7, 1464.6 133.7 Q 1464.6 136.9, 1465.9 138.5 Q 1467.2 140.1, 1469.6 140.1 " fill="#FF0000"/>
<path class="atom-11" d="M 1479.2 126.0 L 1481.3 126.0 L 1481.3 132.6 L 1489.2 132.6 L 1489.2 126.0 L 1491.4 126.0 L 1491.4 141.6 L 1489.2 141.6 L 1489.2 134.4 L 1481.3 134.4 L 1481.3 141.6 L 1479.2 141.6 L 1479.2 126.0 " fill="#FF0000"/>
<path class="legend" d="M 1269.1 266.5 Q 1271.2 266.5, 1272.3 267.7 Q 1273.3 268.8, 1273.3 270.9 L 1273.3 279.1 L 1271.1 279.1 L 1271.1 271.1 Q 1271.1 269.6, 1270.5 269.0 Q 1269.9 268.3, 1268.7 268.3 Q 1267.6 268.3, 1266.7 268.8 Q 1265.8 269.4, 1265.2 270.3 Q 1265.2 270.5, 1265.2 270.9 L 1265.2 279.1 L 1263.0 279.1 L 1263.0 271.1 Q 1263.0 269.6, 1262.4 269.0 Q 1261.8 268.3, 1260.6 268.3 Q 1259.5 268.3, 1258.6 268.8 Q 1257.7 269.4, 1257.1 270.2 L 1257.1 279.1 L 1254.9 279.1 L 1254.9 266.8 L 1256.7 266.8 L 1257.0 268.4 Q 1258.6 266.5, 1261.0 266.5 Q 1263.9 266.5, 1264.8 268.7 Q 1266.5 266.5, 1269.1 266.5 " fill="#000000"/>
<path class="legend" d="M 1276.3 272.9 Q 1276.3 269.9, 1277.8 268.2 Q 1279.4 266.5, 1282.2 266.5 Q 1285.0 266.5, 1286.5 268.2 Q 1288.0 269.9, 1288.0 272.9 Q 1288.0 275.9, 1286.5 277.6 Q 1285.0 279.3, 1282.2 279.3 Q 1279.4 279.3, 1277.8 277.6 Q 1276.3 275.9, 1276.3 272.9 M 1278.6 272.9 Q 1278.6 275.2, 1279.5 276.3 Q 1280.5 277.5, 1282.2 277.5 Q 1283.9 277.5, 1284.8 276.3 Q 1285.7 275.2, 1285.7 272.9 Q 1285.7 270.6, 1284.8 269.5 Q 1283.9 268.3, 1282.2 268.3 Q 1280.5 268.3, 1279.5 269.5 Q 1278.6 270.6, 1278.6 272.9 " fill="#000000"/>
<path class="legend" d="M 1296.0 266.5 Q 1298.6 266.5, 1300.0 268.2 Q 1301.5 269.7, 1301.5 272.7 Q 1301.5 275.8, 1299.8 277.6 Q 1298.1 279.3, 1295.1 279.3 Q 1293.2 279.3, 1291.4 278.6 L 1290.3 278.3 L 1290.3 260.9 L 1292.5 260.9 L 1292.5 268.1 Q 1293.8 266.5, 1296.0 266.5 M 1295.1 277.5 Q 1297.0 277.5, 1298.1 276.3 Q 1299.2 275.0, 1299.2 272.7 Q 1299.2 270.6, 1298.3 269.5 Q 1297.5 268.3, 1295.9 268.3 Q 1294.6 268.3, 1293.8 269.0 Q 1292.9 269.7, 1292.5 270.8 L 1292.5 277.2 Q 1293.8 277.5, 1295.1 277.5 " fill="#000000"/>
<path class="legend" d="M 1303.7 260.9 L 1305.9 260.9 L 1305.9 279.1 L 1303.7 279.1 L 1303.7 260.9 " fill="#000000"/>
<path class="legend" d="M 1309.1 272.9 Q 1309.1 269.9, 1310.6 268.2 Q 1312.2 266.5, 1314.9 266.5 Q 1317.6 266.5, 1318.8 268.2 Q 1320.1 269.8, 1320.1 272.8 L 1320.1 273.2 L 1311.4 273.2 Q 1311.5 275.3, 1312.4 276.4 Q 1313.4 277.5, 1315.1 277.5 Q 1316.1 277.5, 1317.0 277.3 Q 1317.8 277.1, 1318.9 276.6 L 1319.6 278.1 Q 1318.4 278.7, 1317.2 279.0 Q 1316.1 279.3, 1315.0 279.3 Q 1312.2 279.3, 1310.7 277.6 Q 1309.1 275.9, 1309.1 272.9 M 1314.9 268.3 Q 1313.5 268.3, 1312.6 269.1 Q 1311.8 270.0, 1311.5 271.5 L 1317.7 271.5 Q 1317.5 269.9, 1316.8 269.1 Q 1316.2 268.3, 1314.9 268.3 " fill="#000000"/>
<path class="legend" d="M 1331.6 266.8 L 1333.8 266.8 L 1327.4 285.0 L 1325.4 285.0 L 1327.4 279.1 L 1326.5 279.1 L 1322.1 266.8 L 1324.4 266.8 L 1328.1 277.2 L 1331.6 266.8 " fill="#000000"/>
<path class="legend" d="M 1347.4 280.3 L 1347.4 282.3 L 1335.2 282.3 L 1335.2 280.3 L 1347.4 280.3 " fill="#000000"/>
<path class="legend" d="M 1359.6 273.3 L 1361.7 273.3 L 1361.7 275.2 L 1359.6 275.2 L 1359.6 279.1 L 1357.4 279.1 L 1357.4 275.2 L 1348.6 275.2 L 1348.6 273.7 L 1356.0 262.1 L 1359.6 262.1 L 1359.6 273.3 M 1351.4 273.3 L 1357.4 273.3 L 1357.4 263.6 L 1351.4 273.3 " fill="#000000"/>
<path class="legend" d="M 1370.2 268.5 Q 1371.6 268.5, 1372.9 269.1 Q 1374.1 269.7, 1374.8 270.9 Q 1375.5 272.1, 1375.5 273.7 Q 1375.5 275.5, 1374.6 276.7 Q 1373.8 278.0, 1372.4 278.6 Q 1371.0 279.3, 1369.4 279.3 Q 1367.9 279.3, 1366.4 278.7 Q 1365.0 278.1, 1364.0 277.0 L 1365.4 275.5 Q 1366.2 276.4, 1367.3 276.9 Q 1368.4 277.3, 1369.5 277.3 Q 1371.0 277.3, 1372.0 276.4 Q 1373.1 275.5, 1373.1 273.8 Q 1373.1 272.0, 1372.0 271.1 Q 1371.0 270.3, 1369.3 270.3 Q 1367.9 270.3, 1366.2 270.9 L 1364.9 270.3 L 1365.7 262.1 L 1374.4 262.1 L 1374.2 264.0 L 1367.7 264.0 L 1367.2 269.1 Q 1368.7 268.5, 1370.2 268.5 " fill="#000000"/>
<path class="legend" d="M 1386.4 270.1 Q 1388.0 270.8, 1388.9 271.8 Q 1389.8 272.8, 1389.8 274.4 Q 1389.8 275.9, 1389.0 277.0 Q 1388.3 278.1, 1387.0 278.7 Q 1385.6 279.3, 1383.9 279.3 Q 1381.0 279.3, 1379.4 278.0 Q 1377.8 276.7, 1377.8 274.4 Q 1377.8 273.0, 1378.5 272.0 Q 1379.2 271.0, 1380.7 270.2 Q 1379.6 269.5, 1379.0 268.6 Q 1378.4 267.7, 1378.4 266.3 Q 1378.4 264.3, 1379.8 263.1 Q 1381.3 261.9, 1383.8 261.9 Q 1386.3 261.9, 1387.7 263.1 Q 1389.2 264.3, 1389.2 266.3 Q 1389.2 267.5, 1388.5 268.4 Q 1387.8 269.4, 1386.4 270.1 M 1383.8 263.7 Q 1382.4 263.7, 1381.6 264.4 Q 1380.8 265.1, 1380.8 266.3 Q 1380.8 267.1, 1381.3 267.7 Q 1381.9 268.3, 1382.6 268.7 Q 1383.4 269.0, 1384.8 269.5 Q 1385.9 268.8, 1386.3 268.0 Q 1386.8 267.2, 1386.8 266.3 Q 1386.8 265.1, 1386.0 264.4 Q 1385.2 263.7, 1383.8 263.7 M 1383.9 277.5 Q 1385.5 277.5, 1386.4 276.7 Q 1387.4 275.8, 1387.4 274.4 Q 1387.4 273.5, 1386.9 272.9 Q 1386.4 272.4, 1385.6 272.0 Q 1384.9 271.7, 1383.5 271.2 L 1382.4 270.9 Q 1381.2 271.6, 1380.7 272.5 Q 1380.2 273.3, 1380.2 274.4 Q 1380.2 275.8, 1381.2 276.7 Q 1382.2 277.5, 1383.9 277.5 " fill="#000000"/>
<path class="legend" d="M 1401.3 264.0 L 1392.4 264.0 L 1392.4 262.1 L 1403.7 262.1 L 1403.7 263.8 L 1396.9 279.1 L 1394.6 279.1 L 1401.3 264.0 " fill="#000000"/>
<path class="legend" d="M 1405.6 265.3 Q 1406.2 263.7, 1407.7 262.8 Q 1409.2 261.9, 1411.3 261.9 Q 1413.8 261.9, 1415.3 263.3 Q 1416.7 264.7, 1416.7 267.2 Q 1416.7 269.7, 1414.9 272.0 Q 1413.0 274.4, 1409.2 277.2 L 1417.0 277.2 L 1417.0 279.1 L 1405.6 279.1 L 1405.6 277.5 Q 1408.7 275.2, 1410.6 273.6 Q 1412.5 271.9, 1413.4 270.4 Q 1414.3 268.8, 1414.3 267.3 Q 1414.3 265.7, 1413.5 264.7 Q 1412.7 263.8, 1411.3 263.8 Q 1409.9 263.8, 1409.0 264.4 Q 1408.1 264.9, 1407.4 266.2 L 1405.6 265.3 " fill="#000000"/>
<path class="legend" d="M 1426.3 268.5 Q 1427.7 268.5, 1428.9 269.1 Q 1430.1 269.8, 1430.7 271.0 Q 1431.4 272.1, 1431.4 273.6 Q 1431.4 275.3, 1430.6 276.6 Q 1429.9 277.8, 1428.6 278.6 Q 1427.3 279.3, 1425.7 279.3 Q 1422.7 279.3, 1421.1 277.2 Q 1419.6 275.2, 1419.6 271.1 Q 1419.6 266.6, 1421.5 264.3 Q 1423.4 261.9, 1427.0 261.9 Q 1428.1 261.9, 1428.9 262.2 Q 1429.9 262.4, 1430.7 262.9 L 1429.8 264.5 Q 1428.5 263.8, 1427.0 263.8 Q 1424.6 263.8, 1423.4 265.4 Q 1422.2 266.9, 1422.0 270.1 Q 1422.9 269.3, 1424.0 268.9 Q 1425.1 268.5, 1426.3 268.5 M 1425.7 277.3 Q 1426.6 277.3, 1427.4 276.8 Q 1428.1 276.4, 1428.6 275.5 Q 1429.0 274.7, 1429.0 273.6 Q 1429.0 272.1, 1428.1 271.3 Q 1427.3 270.4, 1425.8 270.4 Q 1424.8 270.4, 1423.8 270.8 Q 1422.7 271.2, 1422.0 272.0 Q 1422.1 274.8, 1423.0 276.0 Q 1423.9 277.3, 1425.7 277.3 " fill="#000000"/>
<path class="legend" d="M 1442.8 264.0 L 1433.9 264.0 L 1433.9 262.1 L 1445.1 262.1 L 1445.1 263.8 L 1438.3 279.1 L 1436.0 279.1 L 1442.8 264.0 " fill="#000000"/>
<path class="bond-0 atom-0 atom-1" d="M 1721.1,162.3 L 1716.1,156.1" style="fill:none;fill-rule:evenodd;stroke:#000000;stroke-width:4.0px;stroke-linecap:butt;stroke-linejoin:miter;stroke-opacity:1"/>
<path class="bond-0 atom-0 atom-1" d="M 1716.1,156.1 L 1711.1,149.8" style="fill:none;fill-rule:evenodd;stroke:#0000FF;stroke-width:4.0px;stroke-linecap:butt;stroke-linejoin:miter;stroke-opacity:1"/>
<path class="bond-1 atom-1 atom-2" d="M 1706.3,131.8 L 1710.3,117.4" style="fill:none;fill-rule:evenodd;stroke:#0000FF;stroke-width:4.0px;stroke-linecap:butt;stroke-linejoin:miter;stroke-opacity:1"/>
<path class="bond-1 atom-1 atom-2" d="M 1710.3,117.4 L 1714.2,103.0" style="fill:none;fill-rule:evenodd;stroke:#000000;stroke-width:4.0px;stroke-linecap:butt;stroke-linejoin:miter;stroke-opacity:1"/>
<path class="bond-2 atom-2 atom-3" d="M 1714.2,103.0 L 1701.4,94.6" style="fill:none;fill-rule:evenodd;stroke:#000000;stroke-width:4.0px;stroke-linecap:butt;stroke-linejoin:miter;stroke-opacity:1"/>
<path class="bond-2 atom-2 atom-3" d="M 1701.4,94.6 L 1688.6,86.2" style="fill:none;fill-rule:evenodd;stroke:#0000FF;stroke-width:4.0px;stroke-linecap:butt;stroke-linejoin:miter;stroke-opacity:1"/>
<path class="bond-2 atom-2 atom-3" d="M 1707.4,105.6 L 1696.4,98.4" style="fill:none;fill-rule:evenodd;stroke:#000000;stroke-width:4.0px;stroke-linecap:butt;stroke-linejoin:miter;stroke-opacity:1"/>
<path class="bond-2 atom-2 atom-3" d="M 1696.4,98.4 L 1685.4,91.2" style="fill:none;fill-rule:evenodd;stroke:#0000FF;stroke-width:4.0px;stroke-linecap:butt;stroke-linejoin:miter;stroke-opacity:1"/>
<path class="bond-3 atom-3 atom-4" d="M 1674.2,87.3 L 1662.5,96.7" style="fill:none;fill-rule:evenodd;stroke:#0000FF;stroke-width:4.0px;stroke-linecap:butt;stroke-linejoin:miter;stroke-opacity:1"/>
<path class="bond-3 atom-3 atom-4" d="M 1662.5,96.7 L 1650.8,106.0" style="fill:none;fill-rule:evenodd;stroke:#000000;stroke-width:4.0px;stroke-linecap:butt;stroke-linejoin:miter;stroke-opacity:1"/>
<path class="bond-4 atom-4 atom-5" d="M 1650.8,106.0 L 1664.7,142.7" style="fill:none;fill-rule:evenodd;stroke:#000000;stroke-width:4.0px;stroke-linecap:butt;stroke-linejoin:miter;stroke-opacity:1"/>
<path class="bond-4 atom-4 atom-5" d="M 1657.8,108.0 L 1668.7,136.6" style="fill:none;fill-rule:evenodd;stroke:#000000;stroke-width:4.0px;stroke-linecap:butt;stroke-linejoin:miter;stroke-opacity:1"/>
<path class="bond-5 atom-5 atom-6" d="M 1664.7,142.7 L 1639.9,173.1" style="fill:none;fill-rule:evenodd;stroke:#000000;stroke-width:4.0px;stroke-linecap:butt;stroke-linejoin:miter;stroke-opacity:1"/>
<path class="bond-6 atom-6 atom-7" d="M 1636.5,172.5 L 1642.0,187.0" style="fill:none;fill-rule:evenodd;stroke:#000000;stroke-width:4.0px;stroke-linecap:butt;stroke-linejoin:miter;stroke-opacity:1"/>
<path class="bond-6 atom-6 atom-7" d="M 1642.0,187.0 L 1647.5,201.6" style="fill:none;fill-rule:evenodd;stroke:#FF0000;stroke-width:4.0px;stroke-linecap:butt;stroke-linejoin:miter;stroke-opacity:1"/>
<path class="bond-6 atom-6 atom-7" d="M 1642.0,170.4 L 1647.5,185.0" style="fill:none;fill-rule:evenodd;stroke:#000000;stroke-width:4.0px;stroke-linecap:butt;stroke-linejoin:miter;stroke-opacity:1"/>
<path class="bond-6 atom-6 atom-7" d="M 1647.5,185.0 L 1653.0,199.5" style="fill:none;fill-rule:evenodd;stroke:#FF0000;stroke-width:4.0px;stroke-linecap:butt;stroke-linejoin:miter;stroke-opacity:1"/>
<path class="bond-7 atom-6 atom-8" d="M 1639.9,173.1 L 1624.1,170.5" style="fill:none;fill-rule:evenodd;stroke:#000000;stroke-width:4.0px;stroke-linecap:butt;stroke-linejoin:miter;stroke-opacity:1"/>
<path class="bond-7 atom-6 atom-8" d="M 1624.1,170.5 L 1608.4,167.9" style="fill:none;fill-rule:evenodd;stroke:#0000FF;stroke-width:4.0px;stroke-linecap:butt;stroke-linejoin:miter;stroke-opacity:1"/>
<path class="bond-8 atom-8 atom-9" d="M 1597.7,157.6 L 1592.5,143.8" style="fill:none;fill-rule:evenodd;stroke:#0000FF;stroke-width:4.0px;stroke-linecap:butt;stroke-linejoin:miter;stroke-opacity:1"/>
<path class="bond-8 atom-8 atom-9" d="M 1592.5,143.8 L 1587.3,130.1" style="fill:none;fill-rule:evenodd;stroke:#000000;stroke-width:4.0px;stroke-linecap:butt;stroke-linejoin:miter;stroke-opacity:1"/>
<path class="bond-9 atom-9 atom-10" d="M 1589.5,127.4 L 1573.5,124.8" style="fill:none;fill-rule:evenodd;stroke:#000000;stroke-width:4.0px;stroke-linecap:butt;stroke-linejoin:miter;stroke-opacity:1"/>
<path class="bond-9 atom-9 atom-10" d="M 1573.5,124.8 L 1557.5,122.2" style="fill:none;fill-rule:evenodd;stroke:#FF0000;stroke-width:4.0px;stroke-linecap:butt;stroke-linejoin:miter;stroke-opacity:1"/>
<path class="bond-9 atom-9 atom-10" d="M 1588.5,133.2 L 1572.5,130.6" style="fill:none;fill-rule:evenodd;stroke:#000000;stroke-width:4.0px;stroke-linecap:butt;stroke-linejoin:miter;stroke-opacity:1"/>
<path class="bond-9 atom-9 atom-10" d="M 1572.5,130.6 L 1556.6,128.0" style="fill:none;fill-rule:evenodd;stroke:#FF0000;stroke-width:4.0px;stroke-linecap:butt;stroke-linejoin:miter;stroke-opacity:1"/>
<path class="bond-10 atom-9 atom-11" d="M 1587.3,130.1 L 1596.1,119.3" style="fill:none;fill-rule:evenodd;stroke:#000000;stroke-width:4.0px;stroke-linecap:butt;stroke-linejoin:miter;stroke-opacity:1"/>
<path class="bond-10 atom-9 atom-11" d="M 1596.1,119.3 L 1604.9,108.5" style="fill:none;fill-rule:evenodd;stroke:#0000FF;stroke-width:4.0px;stroke-linecap:butt;stroke-linejoin:miter;stroke-opacity:1"/>
<path class="bond-11 atom-11 atom-12" d="M 1608.7,90.6 L 1605.3,81.5" style="fill:none;fill-rule:evenodd;stroke:#0000FF;stroke-width:4.0px;stroke-linecap:butt;stroke-linejoin:miter;stroke-opacity:1"/>
<path class="bond-11 atom-11 atom-12" d="M 1605.3,81.5 L 1601.8,72.4" style="fill:none;fill-rule:evenodd;stroke:#000000;stroke-width:4.0px;stroke-linecap:butt;stroke-linejoin:miter;stroke-opacity:1"/>
<path class="bond-12 atom-8 atom-13" d="M 1594.0,175.5 L 1588.8,181.8" style="fill:none;fill-rule:evenodd;stroke:#0000FF;stroke-width:4.0px;stroke-linecap:butt;stroke-linejoin:miter;stroke-opacity:1"/>
<path class="bond-12 atom-8 atom-13" d="M 1588.8,181.8 L 1583.6,188.1" style="fill:none;fill-rule:evenodd;stroke:#000000;stroke-width:4.0px;stroke-linecap:butt;stroke-linejoin:miter;stroke-opacity:1"/>
<path class="bond-13 atom-5 atom-1" d="M 1664.7,142.7 L 1680.7,142.0" style="fill:none;fill-rule:evenodd;stroke:#000000;stroke-width:4.0px;stroke-linecap:butt;stroke-linejoin:miter;stroke-opacity:1"/>
<path class="bond-13 atom-5 atom-1" d="M 1680.7,142.0 L 1696.7,141.2" style="fill:none;fill-rule:evenodd;stroke:#0000FF;stroke-width:4.0px;stroke-linecap:butt;stroke-linejoin:miter;stroke-opacity:1"/>
<path class="bond-14 atom-11 atom-4" d="M 1619.3,100.9 L 1635.1,103.5" style="fill:none;fill-rule:evenodd;stroke:#0000FF;stroke-width:4.0px;stroke-linecap:butt;stroke-linejoin:miter;stroke-opacity:1"/>
<path class="bond-14 atom-11 atom-4" d="M 1635.1,103.5 L 1650.8,106.0" style="fill:none;fill-rule:evenodd;stroke:#000000;stroke-width:4.0px;stroke-linecap:butt;stroke-linejoin:miter;stroke-opacity:1"/>
<path d="M 1714.0,103.8 L 1714.2,103.0 L 1713.6,102.6" style="fill:none;stroke:#000000;stroke-width:4.0px;stroke-linecap:butt;stroke-linejoin:miter;stroke-opacity:1;"/>
<path d="M 1641.1,171.5 L 1639.9,173.1 L 1639.1,172.9" style="fill:none;stroke:#000000;stroke-width:4.0px;stroke-linecap:butt;stroke-linejoin:miter;stroke-opacity:1;"/>
<path d="M 1587.6,130.7 L 1587.3,130.1 L 1587.7,129.5" style="fill:none;stroke:#000000;stroke-width:4.0px;stroke-linecap:butt;stroke-linejoin:miter;stroke-opacity:1;"/>
<path class="atom-0" d="M 1722.4 171.5 Q 1722.4 167.6, 1724.2 165.6 Q 1726.0 163.6, 1729.4 163.6 Q 1732.7 163.6, 1734.4 165.8 L 1732.9 167.0 Q 1731.7 165.4, 1729.4 165.4 Q 1727.1 165.4, 1725.8 167.0 Q 1724.6 168.5, 1724.6 171.5 Q 1724.6 174.6, 1725.9 176.2 Q 1727.2 177.8, 1729.7 177.8 Q 1731.4 177.8, 1733.4 176.7 L 1734.0 178.4 Q 1733.2 178.9, 1732.0 179.2 Q 1730.7 179.5, 1729.4 179.5 Q 1726.0 179.5, 1724.2 177.5 Q 1722.4 175.4, 1722.4 171.5 " fill="#000000"/>
<path class="atom-0" d="M 1736.4 163.7 L 1738.5 163.7 L 1738.5 170.4 L 1746.5 170.4 L 1746.5 163.7 L 1748.6 163.7 L 1748.6 179.3 L 1746.5 179.3 L 1746.5 172.1 L 1738.5 172.1 L 1738.5 179.3 L 1736.4 179.3 L 1736.4 163.7 " fill="#000000"/>
<path class="atom-0" d="M 1756.6 181.7 Q 1757.6 182.0, 1758.0 182.6 Q 1758.5 183.3, 1758.5 184.3 Q 1758.5 185.2, 1758.1 185.8 Q 1757.7 186.5, 1756.9 186.9 Q 1756.1 187.3, 1755.0 187.3 Q 1753.9 187.3, 1753.1 186.9 Q 1752.3 186.5, 1751.6 185.7 L 1752.5 184.9 Q 1753.1 185.6, 1753.6 185.8 Q 1754.2 186.1, 1755.0 186.1 Q 1756.0 186.1, 1756.5 185.6 Q 1757.1 185.1, 1757.1 184.3 Q 1757.1 183.2, 1756.5 182.8 Q 1755.9 182.3, 1754.6 182.3 L 1753.9 182.3 L 1753.9 181.2 L 1754.6 181.2 Q 1755.7 181.2, 1756.3 180.8 Q 1756.9 180.3, 1756.9 179.3 Q 1756.9 178.7, 1756.4 178.3 Q 1755.9 177.9, 1755.0 177.9 Q 1754.2 177.9, 1753.6 178.2 Q 1753.1 178.5, 1752.7 179.3 L 1751.7 178.7 Q 1752.1 177.9, 1752.9 177.3 Q 1753.8 176.7, 1755.0 176.7 Q 1756.5 176.7, 1757.4 177.4 Q 1758.3 178.1, 1758.3 179.3 Q 1758.3 180.2, 1757.9 180.8 Q 1757.4 181.4, 1756.6 181.7 " fill="#000000"/>
<path class="atom-1" d="M 1700.4 133.1 L 1705.5 141.3 Q 1706.0 142.1, 1706.8 143.6 Q 1707.6 145.1, 1707.7 145.2 L 1707.7 133.1 L 1709.8 133.1 L 1709.8 148.6 L 1707.6 148.6 L 1702.1 139.6 Q 1701.5 138.6, 1700.8 137.4 Q 1700.2 136.1, 1700.0 135.8 L 1700.0 148.6 L 1697.9 148.6 L 1697.9 133.1 L 1700.4 133.1 " fill="#0000FF"/>
<path class="atom-3" d="M 1678.0 73.7 L 1683.1 82.0 Q 1683.6 82.8, 1684.4 84.3 Q 1685.2 85.7, 1685.3 85.8 L 1685.3 73.7 L 1687.3 73.7 L 1687.3 89.3 L 1685.2 89.3 L 1679.7 80.3 Q 1679.1 79.2, 1678.4 78.0 Q 1677.7 76.8, 1677.5 76.4 L 1677.5 89.3 L 1675.5 89.3 L 1675.5 73.7 L 1678.0 73.7 " fill="#0000FF"/>
<path class="atom-7" d="M 1646.6 209.8 Q 1646.6 206.0, 1648.4 203.9 Q 1650.3 201.8, 1653.7 201.8 Q 1657.2 201.8, 1659.0 203.9 Q 1660.9 206.0, 1660.9 209.8 Q 1660.9 213.6, 1659.0 215.7 Q 1657.1 217.8, 1653.7 217.8 Q 1650.3 217.8, 1648.4 215.7 Q 1646.6 213.6, 1646.6 209.8 M 1653.7 216.1 Q 1656.1 216.1, 1657.4 214.5 Q 1658.7 212.9, 1658.7 209.8 Q 1658.7 206.7, 1657.4 205.2 Q 1656.1 203.6, 1653.7 203.6 Q 1651.4 203.6, 1650.1 205.1 Q 1648.8 206.7, 1648.8 209.8 Q 1648.8 212.9, 1650.1 214.5 Q 1651.4 216.1, 1653.7 216.1 " fill="#FF0000"/>
<path class="atom-8" d="M 1597.7 158.9 L 1602.8 167.2 Q 1603.3 168.0, 1604.2 169.5 Q 1605.0 170.9, 1605.0 171.0 L 1605.0 158.9 L 1607.1 158.9 L 1607.1 174.5 L 1604.9 174.5 L 1599.5 165.5 Q 1598.8 164.4, 1598.1 163.2 Q 1597.5 162.0, 1597.3 161.6 L 1597.3 174.5 L 1595.3 174.5 L 1595.3 158.9 L 1597.7 158.9 " fill="#0000FF"/>
<path class="atom-10" d="M 1541.5 123.8 Q 1541.5 120.0, 1543.3 117.9 Q 1545.2 115.8, 1548.6 115.8 Q 1552.1 115.8, 1553.9 117.9 Q 1555.8 120.0, 1555.8 123.8 Q 1555.8 127.5, 1553.9 129.7 Q 1552.0 131.8, 1548.6 131.8 Q 1545.2 131.8, 1543.3 129.7 Q 1541.5 127.6, 1541.5 123.8 M 1548.6 130.1 Q 1551.0 130.1, 1552.3 128.5 Q 1553.6 126.9, 1553.6 123.8 Q 1553.6 120.7, 1552.3 119.2 Q 1551.0 117.6, 1548.6 117.6 Q 1546.2 117.6, 1544.9 119.1 Q 1543.7 120.7, 1543.7 123.8 Q 1543.7 126.9, 1544.9 128.5 Q 1546.2 130.1, 1548.6 130.1 " fill="#FF0000"/>
<path class="atom-11" d="M 1608.7 91.9 L 1613.8 100.2 Q 1614.3 101.0, 1615.1 102.5 Q 1615.9 103.9, 1616.0 104.0 L 1616.0 91.9 L 1618.0 91.9 L 1618.0 107.5 L 1615.9 107.5 L 1610.4 98.5 Q 1609.8 97.4, 1609.1 96.2 Q 1608.4 95.0, 1608.2 94.6 L 1608.2 107.5 L 1606.2 107.5 L 1606.2 91.9 L 1608.7 91.9 " fill="#0000FF"/>
<path class="atom-12" d="M 1568.1 55.3 L 1570.2 55.3 L 1570.2 62.0 L 1578.2 62.0 L 1578.2 55.3 L 1580.3 55.3 L 1580.3 70.9 L 1578.2 70.9 L 1578.2 63.7 L 1570.2 63.7 L 1570.2 70.9 L 1568.1 70.9 L 1568.1 55.3 " fill="#000000"/>
<path class="atom-12" d="M 1588.3 73.3 Q 1589.3 73.6, 1589.8 74.2 Q 1590.2 74.9, 1590.2 75.9 Q 1590.2 76.8, 1589.8 77.4 Q 1589.4 78.1, 1588.6 78.5 Q 1587.8 78.8, 1586.7 78.8 Q 1585.6 78.8, 1584.8 78.5 Q 1584.0 78.1, 1583.3 77.3 L 1584.2 76.4 Q 1584.8 77.1, 1585.3 77.4 Q 1585.9 77.7, 1586.7 77.7 Q 1587.7 77.7, 1588.2 77.2 Q 1588.8 76.7, 1588.8 75.9 Q 1588.8 74.8, 1588.2 74.4 Q 1587.6 73.9, 1586.4 73.9 L 1585.6 73.9 L 1585.6 72.8 L 1586.3 72.8 Q 1587.4 72.8, 1588.0 72.3 Q 1588.6 71.8, 1588.6 70.9 Q 1588.6 70.3, 1588.1 69.9 Q 1587.6 69.5, 1586.7 69.5 Q 1585.9 69.5, 1585.4 69.8 Q 1584.8 70.1, 1584.4 70.8 L 1583.4 70.3 Q 1583.8 69.4, 1584.7 68.9 Q 1585.5 68.3, 1586.7 68.3 Q 1588.3 68.3, 1589.1 69.0 Q 1590.0 69.7, 1590.0 70.9 Q 1590.0 71.8, 1589.6 72.4 Q 1589.1 72.9, 1588.3 73.3 " fill="#000000"/>
<path class="atom-12" d="M 1592.3 63.1 Q 1592.3 59.2, 1594.1 57.2 Q 1595.9 55.2, 1599.3 55.2 Q 1602.6 55.2, 1604.3 57.4 L 1602.8 58.6 Q 1601.6 57.0, 1599.3 57.0 Q 1597.0 57.0, 1595.7 58.5 Q 1594.5 60.1, 1594.5 63.1 Q 1594.5 66.2, 1595.8 67.8 Q 1597.1 69.3, 1599.6 69.3 Q 1601.3 69.3, 1603.3 68.3 L 1603.9 70.0 Q 1603.1 70.5, 1601.9 70.8 Q 1600.6 71.1, 1599.3 71.1 Q 1595.9 71.1, 1594.1 69.0 Q 1592.3 67.0, 1592.3 63.1 " fill="#000000"/>
<path class="atom-13" d="M 1546.2 189.4 L 1548.3 189.4 L 1548.3 196.0 L 1556.3 196.0 L 1556.3 189.4 L 1558.4 189.4 L 1558.4 204.9 L 1556.3 204.9 L 1556.3 197.7 L 1548.3 197.7 L 1548.3 204.9 L 1546.2 204.9 L 1546.2 189.4 " fill="#000000"/>
<path class="atom-13" d="M 1566.3 207.3 Q 1567.4 207.6, 1567.8 208.3 Q 1568.3 208.9, 1568.3 209.9 Q 1568.3 210.8, 1567.9 211.5 Q 1567.5 212.1, 1566.7 212.5 Q 1565.9 212.9, 1564.8 212.9 Q 1563.7 212.9, 1562.9 212.5 Q 1562.1 212.1, 1561.4 211.3 L 1562.2 210.5 Q 1562.9 211.2, 1563.4 211.5 Q 1564.0 211.7, 1564.8 211.7 Q 1565.7 211.7, 1566.3 211.2 Q 1566.9 210.7, 1566.9 209.9 Q 1566.9 208.9, 1566.3 208.4 Q 1565.7 207.9, 1564.4 207.9 L 1563.7 207.9 L 1563.7 206.9 L 1564.3 206.9 Q 1565.5 206.9, 1566.1 206.4 Q 1566.7 205.9, 1566.7 205.0 Q 1566.7 204.3, 1566.2 203.9 Q 1565.7 203.5, 1564.8 203.5 Q 1564.0 203.5, 1563.4 203.8 Q 1562.9 204.1, 1562.5 204.9 L 1561.5 204.3 Q 1561.9 203.5, 1562.7 202.9 Q 1563.6 202.3, 1564.8 202.3 Q 1566.3 202.3, 1567.2 203.0 Q 1568.1 203.8, 1568.1 205.0 Q 1568.1 205.8, 1567.7 206.4 Q 1567.2 207.0, 1566.3 207.3 " fill="#000000"/>
<path class="atom-13" d="M 1570.3 197.1 Q 1570.3 193.3, 1572.1 191.2 Q 1574.0 189.2, 1577.4 189.2 Q 1580.6 189.2, 1582.3 191.5 L 1580.9 192.6 Q 1579.6 191.0, 1577.4 191.0 Q 1575.1 191.0, 1573.8 192.6 Q 1572.6 194.1, 1572.6 197.1 Q 1572.6 200.2, 1573.9 201.8 Q 1575.2 203.4, 1577.7 203.4 Q 1579.4 203.4, 1581.4 202.3 L 1582.0 204.0 Q 1581.2 204.5, 1580.0 204.8 Q 1578.7 205.1, 1577.4 205.1 Q 1574.0 205.1, 1572.1 203.1 Q 1570.3 201.0, 1570.3 197.1 " fill="#000000"/>
<path class="legend" d="M 1569.8 266.5 Q 1571.8 266.5, 1572.9 267.7 Q 1574.0 268.8, 1574.0 270.9 L 1574.0 279.1 L 1571.7 279.1 L 1571.7 271.1 Q 1571.7 269.6, 1571.1 269.0 Q 1570.6 268.3, 1569.3 268.3 Q 1568.2 268.3, 1567.3 268.8 Q 1566.4 269.4, 1565.8 270.3 Q 1565.9 270.5, 1565.9 270.9 L 1565.9 279.1 L 1563.6 279.1 L 1563.6 271.1 Q 1563.6 269.6, 1563.0 269.0 Q 1562.5 268.3, 1561.2 268.3 Q 1560.2 268.3, 1559.2 268.8 Q 1558.3 269.4, 1557.8 270.2 L 1557.8 279.1 L 1555.5 279.1 L 1555.5 266.8 L 1557.3 266.8 L 1557.6 268.4 Q 1559.2 266.5, 1561.7 266.5 Q 1564.6 266.5, 1565.5 268.7 Q 1567.1 266.5, 1569.8 266.5 " fill="#000000"/>
<path class="legend" d="M 1576.9 272.9 Q 1576.9 269.9, 1578.5 268.2 Q 1580.0 266.5, 1582.8 266.5 Q 1585.6 266.5, 1587.1 268.2 Q 1588.7 269.9, 1588.7 272.9 Q 1588.7 275.9, 1587.1 277.6 Q 1585.6 279.3, 1582.8 279.3 Q 1580.0 279.3, 1578.5 277.6 Q 1576.9 275.9, 1576.9 272.9 M 1579.2 272.9 Q 1579.2 275.2, 1580.2 276.3 Q 1581.1 277.5, 1582.8 277.5 Q 1584.5 277.5, 1585.4 276.3 Q 1586.4 275.2, 1586.4 272.9 Q 1586.4 270.6, 1585.4 269.5 Q 1584.5 268.3, 1582.8 268.3 Q 1581.1 268.3, 1580.2 269.5 Q 1579.2 270.6, 1579.2 272.9 " fill="#000000"/>
<path class="legend" d="M 1596.7 266.5 Q 1599.2 266.5, 1600.6 268.2 Q 1602.1 269.7, 1602.1 272.7 Q 1602.1 275.8, 1600.4 277.6 Q 1598.7 279.3, 1595.7 279.3 Q 1593.8 279.3, 1592.0 278.6 L 1590.9 278.3 L 1590.9 260.9 L 1593.2 260.9 L 1593.2 268.1 Q 1594.5 266.5, 1596.7 266.5 M 1595.7 277.5 Q 1597.6 277.5, 1598.7 276.3 Q 1599.8 275.0, 1599.8 272.7 Q 1599.8 270.6, 1598.9 269.5 Q 1598.1 268.3, 1596.5 268.3 Q 1595.3 268.3, 1594.4 269.0 Q 1593.5 269.7, 1593.2 270.8 L 1593.2 277.2 Q 1594.4 277.5, 1595.7 277.5 " fill="#000000"/>
<path class="legend" d="M 1604.3 260.9 L 1606.5 260.9 L 1606.5 279.1 L 1604.3 279.1 L 1604.3 260.9 " fill="#000000"/>
<path class="legend" d="M 1609.7 272.9 Q 1609.7 269.9, 1611.2 268.2 Q 1612.8 266.5, 1615.5 266.5 Q 1618.2 266.5, 1619.4 268.2 Q 1620.7 269.8, 1620.7 272.8 L 1620.7 273.2 L 1612.0 273.2 Q 1612.1 275.3, 1613.0 276.4 Q 1614.0 277.5, 1615.7 277.5 Q 1616.7 277.5, 1617.6 277.3 Q 1618.4 277.1, 1619.5 276.6 L 1620.2 278.1 Q 1619.0 278.7, 1617.8 279.0 Q 1616.7 279.3, 1615.6 279.3 Q 1612.8 279.3, 1611.3 277.6 Q 1609.7 275.9, 1609.7 272.9 M 1615.5 268.3 Q 1614.1 268.3, 1613.2 269.1 Q 1612.4 270.0, 1612.1 271.5 L 1618.3 271.5 Q 1618.1 269.9, 1617.4 269.1 Q 1616.8 268.3, 1615.5 268.3 " fill="#000000"/>
<path class="legend" d="M 1632.2 266.8 L 1634.4 266.8 L 1628.0 285.0 L 1626.0 285.0 L 1628.0 279.1 L 1627.1 279.1 L 1622.7 266.8 L 1625.0 266.8 L 1628.7 277.2 L 1632.2 266.8 " fill="#000000"/>
<path class="legend" d="M 1648.0 280.3 L 1648.0 282.3 L 1635.8 282.3 L 1635.8 280.3 L 1648.0 280.3 " fill="#000000"/>
<path class="legend" d="M 1658.1 264.0 L 1649.2 264.0 L 1649.2 262.1 L 1660.4 262.1 L 1660.4 263.8 L 1653.6 279.1 L 1651.3 279.1 L 1658.1 264.0 " fill="#000000"/>
<path class="legend" d="M 1670.4 270.1 Q 1672.1 270.6, 1672.9 271.7 Q 1673.7 272.8, 1673.7 274.4 Q 1673.7 275.9, 1673.0 277.0 Q 1672.3 278.1, 1670.9 278.7 Q 1669.6 279.3, 1667.9 279.3 Q 1666.1 279.3, 1664.7 278.7 Q 1663.3 278.1, 1662.3 276.8 L 1663.6 275.4 Q 1664.7 276.5, 1665.6 277.0 Q 1666.5 277.4, 1667.9 277.4 Q 1669.4 277.4, 1670.4 276.6 Q 1671.3 275.8, 1671.3 274.4 Q 1671.3 272.7, 1670.3 271.9 Q 1669.3 271.1, 1667.3 271.1 L 1666.0 271.1 L 1666.0 269.4 L 1667.1 269.4 Q 1669.0 269.4, 1669.9 268.6 Q 1670.9 267.8, 1670.9 266.3 Q 1670.9 265.2, 1670.1 264.5 Q 1669.3 263.8, 1667.9 263.8 Q 1666.5 263.8, 1665.6 264.3 Q 1664.7 264.8, 1664.1 266.1 L 1662.4 265.2 Q 1663.0 263.8, 1664.5 262.9 Q 1665.9 261.9, 1667.9 261.9 Q 1670.4 261.9, 1671.9 263.1 Q 1673.3 264.3, 1673.3 266.3 Q 1673.3 267.6, 1672.6 268.6 Q 1671.8 269.6, 1670.4 270.1 " fill="#000000"/>
<path class="legend" d="M 1685.2 264.0 L 1676.2 264.0 L 1676.2 262.1 L 1687.5 262.1 L 1687.5 263.8 L 1680.7 279.1 L 1678.4 279.1 L 1685.2 264.0 " fill="#000000"/>
<path class="legend" d="M 1698.0 270.1 Q 1699.6 270.8, 1700.5 271.8 Q 1701.4 272.8, 1701.4 274.4 Q 1701.4 275.9, 1700.6 277.0 Q 1699.9 278.1, 1698.5 278.7 Q 1697.2 279.3, 1695.5 279.3 Q 1692.6 279.3, 1691.0 278.0 Q 1689.4 276.7, 1689.4 274.4 Q 1689.4 273.0, 1690.1 272.0 Q 1690.8 271.0, 1692.3 270.2 Q 1691.2 269.5, 1690.6 268.6 Q 1690.0 267.7, 1690.0 266.3 Q 1690.0 264.3, 1691.4 263.1 Q 1692.9 261.9, 1695.4 261.9 Q 1697.8 261.9, 1699.3 263.1 Q 1700.7 264.3, 1700.7 266.3 Q 1700.7 267.5, 1700.0 268.4 Q 1699.4 269.4, 1698.0 270.1 M 1695.4 263.7 Q 1693.9 263.7, 1693.2 264.4 Q 1692.4 265.1, 1692.4 266.3 Q 1692.4 267.1, 1692.9 267.7 Q 1693.4 268.3, 1694.2 268.7 Q 1695.0 269.0, 1696.4 269.5 Q 1697.5 268.8, 1697.9 268.0 Q 1698.3 267.2, 1698.3 266.3 Q 1698.3 265.1, 1697.5 264.4 Q 1696.8 263.7, 1695.4 263.7 M 1695.5 277.5 Q 1697.0 277.5, 1698.0 276.7 Q 1699.0 275.8, 1699.0 274.4 Q 1699.0 273.5, 1698.5 272.9 Q 1698.0 272.4, 1697.2 272.0 Q 1696.4 271.7, 1695.1 271.2 L 1694.0 270.9 Q 1692.8 271.6, 1692.3 272.5 Q 1691.8 273.3, 1691.8 274.4 Q 1691.8 275.8, 1692.8 276.7 Q 1693.8 277.5, 1695.5 277.5 " fill="#000000"/>
<path class="legend" d="M 1709.7 261.9 Q 1712.7 261.9, 1714.3 264.0 Q 1715.8 266.0, 1715.8 270.1 Q 1715.8 274.6, 1713.9 277.0 Q 1712.0 279.3, 1708.4 279.3 Q 1707.3 279.3, 1706.4 279.0 Q 1705.5 278.8, 1704.7 278.3 L 1705.6 276.7 Q 1706.9 277.4, 1708.4 277.4 Q 1710.8 277.4, 1712.0 275.8 Q 1713.2 274.3, 1713.4 271.1 Q 1712.5 271.9, 1711.4 272.3 Q 1710.3 272.7, 1709.1 272.7 Q 1707.7 272.7, 1706.5 272.1 Q 1705.3 271.4, 1704.7 270.2 Q 1704.0 269.1, 1704.0 267.6 Q 1704.0 265.9, 1704.7 264.6 Q 1705.5 263.4, 1706.8 262.6 Q 1708.1 261.9, 1709.7 261.9 M 1706.4 267.6 Q 1706.4 269.1, 1707.3 269.9 Q 1708.1 270.8, 1709.6 270.8 Q 1710.6 270.8, 1711.6 270.4 Q 1712.7 270.0, 1713.4 269.2 Q 1713.3 266.4, 1712.4 265.2 Q 1711.5 263.9, 1709.7 263.9 Q 1708.8 263.9, 1708.0 264.4 Q 1707.3 264.8, 1706.8 265.7 Q 1706.4 266.5, 1706.4 267.6 " fill="#000000"/>
<path class="legend" d="M 1727.2 270.1 Q 1728.8 270.8, 1729.7 271.8 Q 1730.6 272.8, 1730.6 274.4 Q 1730.6 275.9, 1729.8 277.0 Q 1729.1 278.1, 1727.7 278.7 Q 1726.4 279.3, 1724.7 279.3 Q 1721.8 279.3, 1720.2 278.0 Q 1718.6 276.7, 1718.6 274.4 Q 1718.6 273.0, 1719.3 272.0 Q 1720.0 271.0, 1721.5 270.2 Q 1720.4 269.5, 1719.8 268.6 Q 1719.2 267.7, 1719.2 266.3 Q 1719.2 264.3, 1720.6 263.1 Q 1722.1 261.9, 1724.6 261.9 Q 1727.0 261.9, 1728.5 263.1 Q 1729.9 264.3, 1729.9 266.3 Q 1729.9 267.5, 1729.2 268.4 Q 1728.6 269.4, 1727.2 270.1 M 1724.6 263.7 Q 1723.2 263.7, 1722.4 264.4 Q 1721.6 265.1, 1721.6 266.3 Q 1721.6 267.1, 1722.1 267.7 Q 1722.6 268.3, 1723.4 268.7 Q 1724.2 269.0, 1725.6 269.5 Q 1726.7 268.8, 1727.1 268.0 Q 1727.5 267.2, 1727.5 266.3 Q 1727.5 265.1, 1726.8 264.4 Q 1726.0 263.7, 1724.6 263.7 M 1724.7 277.5 Q 1726.2 277.5, 1727.2 276.7 Q 1728.2 275.8, 1728.2 274.4 Q 1728.2 273.5, 1727.7 272.9 Q 1727.2 272.4, 1726.4 272.0 Q 1725.6 271.7, 1724.3 271.2 L 1723.2 270.9 Q 1722.0 271.6, 1721.5 272.5 Q 1721.0 273.3, 1721.0 274.4 Q 1721.0 275.8, 1722.0 276.7 Q 1723.0 277.5, 1724.7 277.5 " fill="#000000"/>
<path class="legend" d="M 1742.1 264.0 L 1733.2 264.0 L 1733.2 262.1 L 1744.5 262.1 L 1744.5 263.8 L 1737.6 279.1 L 1735.3 279.1 L 1742.1 264.0 " fill="#000000"/>
</svg>